;TYPE=PLATED
;Layer: PTH_Through_Via
;EasyEDA Pro v2.2.39.2, 2025-05-28 09:36:41
;Gerber Generator version 0.3
M48
METRIC,LZ,0000.00000
;Hole size 1 = 0.30000 METRIC
T01C0.30000
%
G05
G90
T01
X-8.84859Y-3.48787
X-9.62374Y-1.58213
X-9.26701Y-1.0858
X-8.61829Y-1.22971
X-9.19638Y-2.00663
X-8.83033Y-2.49364
X-9.1927Y-2.97893
X-6.55738Y-1.20188
X-8.55492Y-4.65826
X-7.92413Y-4.89924
X-7.8607Y-5.50244
X-6.7037Y-5.18226
X-8.86481Y-4.09009
X-7.2575Y-5.48151
X2.2868Y-7.88038
X2.2618Y-7.20354
X3.11184Y-7.61268
X1.96138Y-6.61164
X-6.4766Y-5.80822
X-5.40554Y-4.8768
X-4.7752Y-4.33372
X-5.80512Y-0.37928
X7.02097Y5.52053
X7.73604Y5.21442
X4.7524Y4.20675
X8.74263Y3.47253
X6.99478Y3.6457
X6.8072Y6.1468
X6.32834Y3.73866
X1.93816Y3.52413
X9.07491Y1.77478
X5.83766Y-1.1684
X7.37174Y1.69858
X7.0358Y2.3864
X7.72293Y1.08958
X2.49197Y3.05757
X4.01397Y2.4978
X-7.61166Y-3.46281
X-6.48176Y-3.08783
X-7.03066Y-3.63674
X-5.17176Y-3.34044
X-2.49933Y0.1258
X4.8843Y0.44824
X4.74122Y2.00856
X4.68471Y1.27774
X-2.48674Y3.47643
X3.14518Y3.00709
X2.66538Y1.21557
X3.7293Y1.31171
X3.4175Y0.77046
X3.24207Y1.70254
X-1.30154Y1.73214
X-2.84965Y2.00739
X-3.302Y3.74859
X4.75136Y6.62419
X-3.88126Y2.17806
X8.98064Y4.48798
X5.8023Y-7.52958
X-2.92594Y2.94717
X0.14935Y6.9764
X-1.66005Y6.4055
X-2.36515Y6.3539
X-6.26233Y5.83141
X-7.7216Y4.445
X-7.7216Y3.79681
X-7.7216Y3.07872
X-6.76158Y4.6752
X-6.07528Y4.7002
X3.1Y-9.16422
X3.09681Y-8.3308
X7.27383Y-0.43892
X8.06116Y-2.56209
X-8.51522Y3.0734
X-7.0866Y3.0734
X-6.39666Y3.0734
X-9.3214Y2.2094
X-9.3218Y1.56593
X-9.3218Y0.9406
X-9.3218Y0.32366
X-9.2964Y-0.4826
X-8.7122Y0.44509
X-4.58728Y3.79163
X-2.3876Y-9.9568
X-3.69701Y-9.06683
X-6.2253Y-6.65032
X-5.85029Y-7.15035
X-5.40026Y-7.57537
X-4.90024Y-8.1004
X-4.47522Y-8.55042
X-4.30021Y-9.20045
X-3.15363Y-9.75309
X-2.30011Y-8.05039
X-2.27511Y-7.40036
X-1.60008Y-7.20035
X-0.80004Y-7.20035
X0.0Y-7.20035
X0.72504Y-7.20035
X1.55008Y-7.20035
X2.30011Y-8.57542
X-2.1501Y-6.75033
X-5.32526Y-5.50146
X-4.82319Y-5.91578
X-4.90024Y-6.55032
X-4.45501Y-6.99458
X-3.35016Y-7.35036
X-2.90781Y-7.8494
X-2.53972Y-8.62809
X5.3086Y-8.5598
X7.7724Y-6.477
X9.9568Y-2.0828
X9.9568Y0.9396
X8.2804Y5.715
X5.7454Y8.33899
X2.9718Y9.779
X-0.5842Y10.2108
X-4.6736Y9.0678
X-7.8748Y6.40279
X-9.2214Y4.3946
X-10.0838Y1.6256
X-10.19305Y-1.0817
X-8.509Y-5.5626
X-6.7822Y-7.6462
X-6.2484Y3.81
X-7.0612Y3.7846
X-7.11304Y5.71345
X8.81659Y-2.4146
X8.0808Y-4.53806
X-3.9878Y-1.778
X-3.683Y-5.207
X-3.2512Y-5.8166
X-2.7432Y-6.3246
X2.6924Y-6.0198
X-6.93511Y-0.67098
X-6.2055Y0.0734
X-7.12661Y-3.04226
X-4.0116Y-7.39982
X2.30011Y-9.25045
X-0.31454Y2.2098
X0.28866Y2.413
X-0.57273Y0.88411
X-4.7244Y-5.3086
X4.0894Y-1.6764
X3.35016Y4.12465
M30