G04 Layer: TopAssemblyLayer*
G04 EasyEDA Pro v2.2.39.2, 2025-05-28 09:36:40*
G04 Gerber Generator version 0.3*
G04 Scale: 100 percent, Rotated: No, Reflected: No*
G04 Dimensions in millimeters*
G04 Leading zeros omitted, absolute positions, 4 integers and 5 decimals*
G04 Generated by one-click*
%FSLAX45Y45*%
%MOMM*%
%ADD10C,0.254*%
%ADD11C,0.1042*%
G75*


G04 Text Start*
G36*
G01X-429510Y-241127D02*
G01X-429414Y-237759D01*
G01X-429510Y-234584D01*
G01X-429702Y-232852D01*
G01X-429895Y-231313D01*
G01X-430184Y-230351D01*
G01X-430472Y-229196D01*
G01X-430761Y-228331D01*
G01X-431049Y-227561D01*
G01X-431338Y-226888D01*
G01X-431627Y-226310D01*
G01X-432012Y-225829D01*
G01X-434609Y-225637D01*
G01X-436919Y-225637D01*
G01X-436822Y-226118D01*
G01X-436534Y-226791D01*
G01X-436245Y-227272D01*
G01X-435956Y-227849D01*
G01X-435668Y-228619D01*
G01X-435379Y-229485D01*
G01X-435091Y-230544D01*
G01X-434898Y-231506D01*
G01X-434706Y-232275D01*
G01X-434513Y-233238D01*
G01X-434417Y-234392D01*
G01X-434128Y-237278D01*
G01X-434128Y-238048D01*
G01X-434224Y-239010D01*
G01X-434513Y-241319D01*
G01X-434898Y-242666D01*
G01X-435187Y-243532D01*
G01X-435571Y-244398D01*
G01X-436341Y-245745D01*
G01X-436822Y-246515D01*
G01X-437303Y-247188D01*
G01X-437688Y-247669D01*
G01X-439131Y-249113D01*
G01X-440671Y-250267D01*
G01X-441248Y-250652D01*
G01X-442788Y-251421D01*
G01X-443653Y-251806D01*
G01X-444616Y-252191D01*
G01X-446732Y-252769D01*
G01X-447694Y-252961D01*
G01X-448560Y-253057D01*
G01X-452120Y-253153D01*
G01X-455680Y-253057D01*
G01X-456449Y-252961D01*
G01X-457316Y-252769D01*
G01X-459432Y-252191D01*
G01X-460394Y-251806D01*
G01X-461260Y-251421D01*
G01X-462415Y-250844D01*
G01X-463088Y-250459D01*
G01X-463954Y-249882D01*
G01X-464916Y-249113D01*
G01X-466552Y-247477D01*
G01X-467321Y-246515D01*
G01X-468476Y-244783D01*
G01X-468861Y-244013D01*
G01X-469246Y-243147D01*
G01X-469631Y-242185D01*
G01X-469919Y-241031D01*
G01X-470112Y-240165D01*
G01X-470304Y-239202D01*
G01X-470400Y-238144D01*
G01X-470496Y-237471D01*
G01X-470593Y-236027D01*
G01X-470496Y-234584D01*
G01X-470304Y-232275D01*
G01X-469919Y-230544D01*
G01X-469727Y-229774D01*
G01X-469438Y-229004D01*
G01X-469149Y-228138D01*
G01X-468861Y-227369D01*
G01X-468476Y-226695D01*
G01X-468188Y-225925D01*
G01X-468789Y-225709D01*
G01X-470785Y-225637D01*
G01X-473479Y-225637D01*
G01X-473671Y-226118D01*
G01X-474056Y-227176D01*
G01X-474441Y-228331D01*
G01X-474730Y-229581D01*
G01X-474922Y-230544D01*
G01X-475115Y-231891D01*
G01X-475307Y-234969D01*
G01X-475403Y-236797D01*
G01X-475307Y-238625D01*
G01X-475115Y-240357D01*
G01X-474730Y-242089D01*
G01X-474538Y-242859D01*
G01X-473960Y-244591D01*
G01X-473671Y-245264D01*
G01X-473383Y-245841D01*
G01X-473094Y-246515D01*
G01X-472709Y-247284D01*
G01X-472228Y-248150D01*
G01X-471651Y-249016D01*
G01X-471170Y-249690D01*
G01X-470785Y-250171D01*
G01X-470304Y-250652D01*
G01X-469342Y-251806D01*
G01X-468380Y-252769D01*
G01X-467610Y-253346D01*
G01X-466937Y-254019D01*
G01X-466456Y-254404D01*
G01X-465878Y-254693D01*
G01X-464724Y-255463D01*
G01X-463954Y-255847D01*
G01X-463088Y-256328D01*
G01X-462222Y-256713D01*
G01X-460875Y-257291D01*
G01X-460009Y-257579D01*
G01X-457893Y-258156D01*
G01X-456931Y-258349D01*
G01X-456065Y-258445D01*
G01X-452986Y-258830D01*
G01X-451158Y-258926D01*
G01X-449330Y-258830D01*
G01X-448175Y-258638D01*
G01X-446444Y-258445D01*
G01X-445096Y-258156D01*
G01X-443942Y-257868D01*
G01X-442980Y-257579D01*
G01X-441441Y-257002D01*
G01X-439901Y-256232D01*
G01X-438554Y-255463D01*
G01X-437784Y-254981D01*
G01X-437111Y-254404D01*
G01X-435956Y-253442D01*
G01X-434994Y-252672D01*
G01X-434417Y-251902D01*
G01X-433840Y-251229D01*
G01X-433070Y-250267D01*
G01X-432685Y-249690D01*
G01X-432204Y-248920D01*
G01X-431723Y-248054D01*
G01X-431338Y-247284D01*
G01X-430953Y-246419D01*
G01X-430569Y-245360D01*
G01X-430280Y-244398D01*
G01X-429991Y-243532D01*
G01X-429799Y-242666D01*
G01X-429702Y-241896D01*
G01X-429510Y-241127D01*
G37*
G36*
G01X-430472Y-212552D02*
G01X-430256Y-211878D01*
G01X-430184Y-209858D01*
G01X-430184Y-207164D01*
G01X-430665Y-207068D01*
G01X-433359Y-206683D01*
G01X-435283Y-206298D01*
G01X-437592Y-205721D01*
G01X-438650Y-205528D01*
G01X-439516Y-205240D01*
G01X-440478Y-204951D01*
G01X-441537Y-204663D01*
G01X-442402Y-204374D01*
G01X-443172Y-204181D01*
G01X-443942Y-203893D01*
G01X-445096Y-203508D01*
G01X-446155Y-203123D01*
G01X-447021Y-202834D01*
G01X-449330Y-201969D01*
G01X-451254Y-201199D01*
G01X-452601Y-200621D01*
G01X-454333Y-199852D01*
G01X-456353Y-198986D01*
G01X-457508Y-198409D01*
G01X-458181Y-198120D01*
G01X-459913Y-197350D01*
G01X-464531Y-195041D01*
G01X-465205Y-194656D01*
G01X-466071Y-194175D01*
G01X-467802Y-193309D01*
G01X-468572Y-192828D01*
G01X-471170Y-191385D01*
G01X-472036Y-191096D01*
G01X-473479Y-191000D01*
G01X-474441Y-191000D01*
G01X-474538Y-191481D01*
G01X-474634Y-205624D01*
G01X-474634Y-219287D01*
G01X-473960Y-219383D01*
G01X-471844Y-219479D01*
G01X-470689Y-219383D01*
G01X-470112Y-219094D01*
G01X-469895Y-216184D01*
G01X-469823Y-208222D01*
G01X-469919Y-197543D01*
G01X-469895Y-197398D01*
G01X-469631Y-197350D01*
G01X-469053Y-197543D01*
G01X-467033Y-198697D01*
G01X-466263Y-199082D01*
G01X-465590Y-199467D01*
G01X-464724Y-199948D01*
G01X-457604Y-203508D01*
G01X-456642Y-203893D01*
G01X-455102Y-204663D01*
G01X-453371Y-205432D01*
G01X-452409Y-205817D01*
G01X-450677Y-206587D01*
G01X-449619Y-206971D01*
G01X-448752Y-207356D01*
G01X-445674Y-208511D01*
G01X-443942Y-209088D01*
G01X-443172Y-209377D01*
G01X-442306Y-209666D01*
G01X-440382Y-210243D01*
G01X-439324Y-210627D01*
G01X-437399Y-211109D01*
G01X-436438Y-211301D01*
G01X-434321Y-211878D01*
G01X-432974Y-212071D01*
G01X-432012Y-212263D01*
G01X-431242Y-212456D01*
G01X-430472Y-212552D01*
G37*
G36*
G01X-473554Y222119D02*
G01X-473457Y225486D01*
G01X-473554Y228661D01*
G01X-473746Y230393D01*
G01X-473938Y231932D01*
G01X-474227Y232895D01*
G01X-474516Y234049D01*
G01X-474804Y234915D01*
G01X-475093Y235685D01*
G01X-475382Y236358D01*
G01X-475670Y236936D01*
G01X-476055Y237417D01*
G01X-478653Y237609D01*
G01X-480962Y237609D01*
G01X-480866Y237128D01*
G01X-480577Y236454D01*
G01X-480288Y235973D01*
G01X-480000Y235396D01*
G01X-479711Y234626D01*
G01X-479422Y233761D01*
G01X-479134Y232702D01*
G01X-478941Y231740D01*
G01X-478749Y230970D01*
G01X-478557Y230008D01*
G01X-478460Y228854D01*
G01X-478172Y225967D01*
G01X-478172Y225198D01*
G01X-478268Y224236D01*
G01X-478557Y221926D01*
G01X-478941Y220579D01*
G01X-479230Y219714D01*
G01X-479615Y218848D01*
G01X-480385Y217501D01*
G01X-480866Y216731D01*
G01X-481347Y216057D01*
G01X-481732Y215576D01*
G01X-483175Y214133D01*
G01X-484714Y212979D01*
G01X-485291Y212594D01*
G01X-486831Y211824D01*
G01X-487697Y211439D01*
G01X-488659Y211054D01*
G01X-490775Y210477D01*
G01X-491738Y210285D01*
G01X-492604Y210189D01*
G01X-496163Y210092D01*
G01X-499723Y210189D01*
G01X-500493Y210285D01*
G01X-501359Y210477D01*
G01X-503475Y211054D01*
G01X-504438Y211439D01*
G01X-505304Y211824D01*
G01X-506458Y212401D01*
G01X-507132Y212786D01*
G01X-507997Y213364D01*
G01X-508960Y214133D01*
G01X-510595Y215769D01*
G01X-511365Y216731D01*
G01X-512519Y218463D01*
G01X-512904Y219232D01*
G01X-513289Y220098D01*
G01X-513674Y221061D01*
G01X-513963Y222215D01*
G01X-514155Y223081D01*
G01X-514347Y224043D01*
G01X-514444Y225101D01*
G01X-514540Y225775D01*
G01X-514636Y227218D01*
G01X-514540Y228661D01*
G01X-514347Y230970D01*
G01X-513963Y232702D01*
G01X-513770Y233472D01*
G01X-513482Y234242D01*
G01X-513193Y235107D01*
G01X-512904Y235877D01*
G01X-512519Y236551D01*
G01X-512231Y237320D01*
G01X-512832Y237537D01*
G01X-514829Y237609D01*
G01X-517522Y237609D01*
G01X-517715Y237128D01*
G01X-518100Y236070D01*
G01X-518485Y234915D01*
G01X-518773Y233664D01*
G01X-518966Y232702D01*
G01X-519158Y231355D01*
G01X-519350Y228276D01*
G01X-519447Y226448D01*
G01X-519350Y224620D01*
G01X-519158Y222889D01*
G01X-518773Y221157D01*
G01X-518581Y220387D01*
G01X-518004Y218655D01*
G01X-517715Y217982D01*
G01X-517426Y217404D01*
G01X-517138Y216731D01*
G01X-516753Y215961D01*
G01X-516272Y215095D01*
G01X-515694Y214229D01*
G01X-515213Y213556D01*
G01X-514829Y213075D01*
G01X-514347Y212594D01*
G01X-513385Y211439D01*
G01X-512423Y210477D01*
G01X-511654Y209900D01*
G01X-510980Y209226D01*
G01X-510499Y208842D01*
G01X-509922Y208553D01*
G01X-508767Y207783D01*
G01X-507997Y207398D01*
G01X-507132Y206917D01*
G01X-506266Y206532D01*
G01X-504919Y205955D01*
G01X-504053Y205667D01*
G01X-501936Y205089D01*
G01X-500974Y204897D01*
G01X-500108Y204801D01*
G01X-497029Y204416D01*
G01X-495201Y204320D01*
G01X-493373Y204416D01*
G01X-492219Y204608D01*
G01X-490487Y204801D01*
G01X-489140Y205089D01*
G01X-487985Y205378D01*
G01X-487023Y205667D01*
G01X-485484Y206244D01*
G01X-483944Y207014D01*
G01X-482597Y207783D01*
G01X-481828Y208264D01*
G01X-481154Y208842D01*
G01X-480000Y209804D01*
G01X-479038Y210573D01*
G01X-478460Y211343D01*
G01X-477883Y212017D01*
G01X-477113Y212979D01*
G01X-476729Y213556D01*
G01X-476247Y214326D01*
G01X-475766Y215192D01*
G01X-475382Y215961D01*
G01X-474997Y216827D01*
G01X-474612Y217886D01*
G01X-474323Y218848D01*
G01X-474035Y219714D01*
G01X-473842Y220579D01*
G01X-473746Y221349D01*
G01X-473554Y222119D01*
G37*
G36*
G01X-493085Y258198D02*
G01X-474227Y258198D01*
G01X-474227Y263201D01*
G01X-474708Y263298D01*
G01X-497318Y263394D01*
G01X-519447Y263394D01*
G01X-519543Y262913D01*
G01X-519639Y261854D01*
G01X-519447Y261085D01*
G01X-518292Y259642D01*
G01X-517811Y258968D01*
G01X-517234Y258102D01*
G01X-516272Y256563D01*
G01X-515406Y254831D01*
G01X-515021Y254157D01*
G01X-514636Y253292D01*
G01X-513866Y251752D01*
G01X-513482Y250694D01*
G01X-513097Y249732D01*
G01X-512808Y248866D01*
G01X-512423Y248096D01*
G01X-511629Y247880D01*
G01X-509825Y247807D01*
G01X-507516Y247807D01*
G01X-507516Y248481D01*
G01X-507709Y249443D01*
G01X-508286Y250982D01*
G01X-508863Y252329D01*
G01X-509633Y253869D01*
G01X-510018Y254542D01*
G01X-510499Y255408D01*
G01X-510980Y256178D01*
G01X-511365Y256755D01*
G01X-511846Y257429D01*
G01X-512038Y258006D01*
G01X-493085Y258198D01*
G37*
G36*
G01X-493181Y292450D02*
G01X-474227Y292450D01*
G01X-474227Y297453D01*
G01X-519639Y297453D01*
G01X-519639Y296491D01*
G01X-519447Y295336D01*
G01X-518677Y294374D01*
G01X-517234Y292354D01*
G01X-516079Y290429D01*
G01X-515598Y289467D01*
G01X-515117Y288601D01*
G01X-514732Y287832D01*
G01X-514155Y286485D01*
G01X-513866Y285907D01*
G01X-513578Y285234D01*
G01X-513289Y284464D01*
G01X-512712Y282732D01*
G01X-512327Y282251D01*
G01X-509825Y282059D01*
G01X-507516Y282059D01*
G01X-507516Y282732D01*
G01X-507709Y283695D01*
G01X-508286Y285234D01*
G01X-509056Y286966D01*
G01X-509825Y288505D01*
G01X-510307Y289275D01*
G01X-510884Y290237D01*
G01X-511365Y291007D01*
G01X-511750Y291488D01*
G01X-512038Y292065D01*
G01X-512135Y292450D01*
G01X-493181Y292450D01*
G37*
G36*
G01X-551936Y228483D02*
G01X-552032Y225116D01*
G01X-552225Y224346D01*
G01X-552321Y223576D01*
G01X-552513Y222710D01*
G01X-552802Y221844D01*
G01X-553091Y220882D01*
G01X-553476Y219824D01*
G01X-553860Y218958D01*
G01X-554245Y218188D01*
G01X-554726Y217322D01*
G01X-555207Y216553D01*
G01X-555592Y215975D01*
G01X-556362Y215013D01*
G01X-556939Y214340D01*
G01X-557517Y213570D01*
G01X-558479Y212800D01*
G01X-559633Y211838D01*
G01X-560307Y211261D01*
G01X-561076Y210780D01*
G01X-562423Y210010D01*
G01X-563963Y209241D01*
G01X-565502Y208663D01*
G01X-566464Y208375D01*
G01X-567619Y208086D01*
G01X-568966Y207797D01*
G01X-570698Y207605D01*
G01X-571852Y207413D01*
G01X-573680Y207316D01*
G01X-575508Y207413D01*
G01X-578587Y207797D01*
G01X-579453Y207894D01*
G01X-580415Y208086D01*
G01X-582532Y208663D01*
G01X-583398Y208952D01*
G01X-584745Y209529D01*
G01X-585610Y209914D01*
G01X-586476Y210395D01*
G01X-587246Y210780D01*
G01X-588401Y211550D01*
G01X-588978Y211838D01*
G01X-589459Y212223D01*
G01X-590132Y212897D01*
G01X-590902Y213474D01*
G01X-591864Y214436D01*
G01X-592826Y215591D01*
G01X-593307Y216072D01*
G01X-593692Y216553D01*
G01X-594173Y217226D01*
G01X-594751Y218092D01*
G01X-595232Y218958D01*
G01X-595617Y219728D01*
G01X-595905Y220401D01*
G01X-596194Y220978D01*
G01X-596482Y221652D01*
G01X-597060Y223384D01*
G01X-597252Y224153D01*
G01X-597637Y225885D01*
G01X-597829Y227617D01*
G01X-597926Y229445D01*
G01X-597829Y231273D01*
G01X-597637Y234352D01*
G01X-597445Y235699D01*
G01X-597252Y236661D01*
G01X-596963Y237912D01*
G01X-596579Y239066D01*
G01X-596194Y240125D01*
G01X-596001Y240606D01*
G01X-593307Y240606D01*
G01X-591311Y240534D01*
G01X-590710Y240317D01*
G01X-590998Y239547D01*
G01X-591383Y238874D01*
G01X-591672Y238104D01*
G01X-591960Y237238D01*
G01X-592249Y236469D01*
G01X-592442Y235699D01*
G01X-592826Y233967D01*
G01X-593019Y231658D01*
G01X-593115Y230215D01*
G01X-593019Y228772D01*
G01X-592923Y228098D01*
G01X-592826Y227040D01*
G01X-592634Y226078D01*
G01X-592442Y225212D01*
G01X-592153Y224057D01*
G01X-591768Y223095D01*
G01X-591383Y222229D01*
G01X-590998Y221460D01*
G01X-589844Y219728D01*
G01X-589074Y218766D01*
G01X-587438Y217130D01*
G01X-586476Y216360D01*
G01X-585610Y215783D01*
G01X-584937Y215398D01*
G01X-583782Y214821D01*
G01X-582917Y214436D01*
G01X-581954Y214051D01*
G01X-579838Y213474D01*
G01X-578972Y213282D01*
G01X-578202Y213185D01*
G01X-574642Y213089D01*
G01X-571082Y213185D01*
G01X-570217Y213282D01*
G01X-569254Y213474D01*
G01X-567138Y214051D01*
G01X-566176Y214436D01*
G01X-565310Y214821D01*
G01X-563770Y215591D01*
G01X-563193Y215975D01*
G01X-561654Y217130D01*
G01X-560210Y218573D01*
G01X-559826Y219054D01*
G01X-559345Y219728D01*
G01X-558863Y220497D01*
G01X-558094Y221844D01*
G01X-557709Y222710D01*
G01X-557420Y223576D01*
G01X-557035Y224923D01*
G01X-556747Y227232D01*
G01X-556651Y228194D01*
G01X-556651Y228964D01*
G01X-556939Y231850D01*
G01X-557035Y233005D01*
G01X-557228Y233967D01*
G01X-557420Y234737D01*
G01X-557613Y235699D01*
G01X-557901Y236757D01*
G01X-558190Y237623D01*
G01X-558479Y238393D01*
G01X-558767Y238970D01*
G01X-559056Y239451D01*
G01X-559345Y240125D01*
G01X-559441Y240606D01*
G01X-557132Y240606D01*
G01X-554534Y240413D01*
G01X-554149Y239932D01*
G01X-553860Y239355D01*
G01X-553572Y238682D01*
G01X-553283Y237912D01*
G01X-552995Y237046D01*
G01X-552706Y235891D01*
G01X-552417Y234929D01*
G01X-552225Y233390D01*
G01X-552032Y231658D01*
G01X-551936Y228483D01*
G37*
G36*
G01X-551744Y294869D02*
G01X-551840Y293715D01*
G01X-552032Y293234D01*
G01X-552129Y292464D01*
G01X-552321Y291310D01*
G01X-552706Y290251D01*
G01X-553091Y289385D01*
G01X-553764Y288038D01*
G01X-554919Y286595D01*
G01X-555881Y285633D01*
G01X-556362Y285248D01*
G01X-557709Y284286D01*
G01X-558382Y283901D01*
G01X-559922Y283132D01*
G01X-560884Y282747D01*
G01X-561942Y282362D01*
G01X-563193Y281977D01*
G01X-564155Y281688D01*
G01X-565887Y281303D01*
G01X-566560Y281207D01*
G01X-567619Y281111D01*
G01X-568581Y280919D01*
G01X-573776Y280630D01*
G01X-575508Y280726D01*
G01X-577432Y280822D01*
G01X-579549Y280919D01*
G01X-580319Y281111D01*
G01X-582051Y281303D01*
G01X-582820Y281400D01*
G01X-583686Y281592D01*
G01X-584745Y281881D01*
G01X-585707Y282073D01*
G01X-586476Y282266D01*
G01X-587342Y282554D01*
G01X-588112Y282843D01*
G01X-590132Y283709D01*
G01X-590806Y284094D01*
G01X-591672Y284575D01*
G01X-592345Y285056D01*
G01X-592923Y285441D01*
G01X-593500Y285922D01*
G01X-595039Y287461D01*
G01X-595617Y288231D01*
G01X-596579Y289770D01*
G01X-596963Y290540D01*
G01X-597252Y291310D01*
G01X-597637Y292657D01*
G01X-597829Y294581D01*
G01X-597926Y295447D01*
G01X-597894Y295735D01*
G01X-593500Y295735D01*
G01X-593404Y294581D01*
G01X-593211Y293619D01*
G01X-592923Y292657D01*
G01X-592538Y291887D01*
G01X-592153Y291213D01*
G01X-591672Y290540D01*
G01X-591095Y289866D01*
G01X-590613Y289482D01*
G01X-589459Y288712D01*
G01X-588304Y288135D01*
G01X-587631Y287846D01*
G01X-586861Y287557D01*
G01X-585995Y287269D01*
G01X-585129Y287076D01*
G01X-583590Y286691D01*
G01X-578972Y286114D01*
G01X-574546Y286018D01*
G01X-570120Y286114D01*
G01X-568773Y286307D01*
G01X-567234Y286499D01*
G01X-565213Y286788D01*
G01X-563867Y287172D01*
G01X-563097Y287365D01*
G01X-561557Y287942D01*
G01X-560884Y288231D01*
G01X-559729Y288808D01*
G01X-559248Y289193D01*
G01X-557901Y290347D01*
G01X-557517Y290828D01*
G01X-557132Y291502D01*
G01X-556747Y292272D01*
G01X-556554Y292945D01*
G01X-556554Y292945D01*
G01X-556458Y293426D01*
G01X-556362Y294869D01*
G01X-556458Y296890D01*
G01X-556747Y298044D01*
G01X-557132Y298814D01*
G01X-557613Y299584D01*
G01X-558190Y300257D01*
G01X-558671Y300738D01*
G01X-559345Y301316D01*
G01X-560018Y301797D01*
G01X-561173Y302374D01*
G01X-561846Y302663D01*
G01X-562712Y302951D01*
G01X-563674Y303240D01*
G01X-564829Y303528D01*
G01X-565695Y303817D01*
G01X-567234Y304010D01*
G01X-569543Y304202D01*
G01X-571275Y304394D01*
G01X-574257Y304491D01*
G01X-577240Y304394D01*
G01X-578972Y304202D01*
G01X-581473Y304010D01*
G01X-583013Y303817D01*
G01X-584745Y303432D01*
G01X-585418Y303336D01*
G01X-586188Y303144D01*
G01X-587920Y302566D01*
G01X-588593Y302278D01*
G01X-589170Y301989D01*
G01X-589844Y301604D01*
G01X-590998Y300835D01*
G01X-591576Y300353D01*
G01X-591960Y299872D01*
G01X-592442Y299199D01*
G01X-592923Y298333D01*
G01X-593211Y297563D01*
G01X-593404Y296890D01*
G01X-593500Y295735D01*
G01X-597894Y295735D01*
G01X-597829Y296313D01*
G01X-597733Y296986D01*
G01X-597637Y298044D01*
G01X-597445Y299007D01*
G01X-597252Y299776D01*
G01X-596963Y300546D01*
G01X-596579Y301412D01*
G01X-596001Y302470D01*
G01X-595520Y303240D01*
G01X-595135Y303721D01*
G01X-593981Y304875D01*
G01X-593211Y305453D01*
G01X-592730Y305838D01*
G01X-592153Y306222D01*
G01X-591479Y306607D01*
G01X-590325Y307185D01*
G01X-588978Y307762D01*
G01X-588112Y308050D01*
G01X-586188Y308628D01*
G01X-585322Y308820D01*
G01X-583398Y309205D01*
G01X-581473Y309397D01*
G01X-579357Y309590D01*
G01X-575508Y309686D01*
G01X-571660Y309590D01*
G01X-569543Y309397D01*
G01X-567811Y309205D01*
G01X-566079Y308820D01*
G01X-565406Y308724D01*
G01X-564636Y308532D01*
G01X-563578Y308243D01*
G01X-562616Y307954D01*
G01X-561076Y307377D01*
G01X-560307Y306992D01*
G01X-559441Y306607D01*
G01X-558094Y305838D01*
G01X-557517Y305453D01*
G01X-556843Y304972D01*
G01X-556170Y304394D01*
G01X-555688Y304010D01*
G01X-555015Y303432D01*
G01X-554438Y302663D01*
G01X-553957Y301989D01*
G01X-553476Y301219D01*
G01X-553091Y300546D01*
G01X-552513Y299199D01*
G01X-552225Y298141D01*
G01X-552032Y296890D01*
G01X-551840Y296120D01*
G01X-551744Y294869D01*
G37*
G36*
G01X-552706Y261195D02*
G01X-571563Y261195D01*
G01X-590517Y261003D01*
G01X-590325Y260425D01*
G01X-589844Y259752D01*
G01X-589459Y259175D01*
G01X-588978Y258405D01*
G01X-588497Y257539D01*
G01X-588112Y256866D01*
G01X-587342Y255326D01*
G01X-586765Y253979D01*
G01X-586188Y252440D01*
G01X-585995Y251478D01*
G01X-585995Y250804D01*
G01X-588304Y250804D01*
G01X-590108Y250876D01*
G01X-590902Y251093D01*
G01X-591287Y251863D01*
G01X-591576Y252728D01*
G01X-591960Y253691D01*
G01X-592345Y254749D01*
G01X-593115Y256288D01*
G01X-593500Y257154D01*
G01X-593885Y257828D01*
G01X-594751Y259560D01*
G01X-595713Y261099D01*
G01X-596290Y261965D01*
G01X-596771Y262638D01*
G01X-597926Y264082D01*
G01X-598118Y264851D01*
G01X-598022Y265910D01*
G01X-597926Y266391D01*
G01X-575797Y266391D01*
G01X-553187Y266294D01*
G01X-552706Y266198D01*
G01X-552706Y261195D01*
G37*
G36*
G01X560061Y418494D02*
G01X560157Y421861D01*
G01X560061Y425036D01*
G01X559869Y426768D01*
G01X559676Y428307D01*
G01X559388Y429269D01*
G01X559099Y430424D01*
G01X558810Y431290D01*
G01X558522Y432060D01*
G01X558233Y432733D01*
G01X557945Y433310D01*
G01X557560Y433791D01*
G01X554962Y433984D01*
G01X552653Y433984D01*
G01X552749Y433503D01*
G01X553038Y432829D01*
G01X553326Y432348D01*
G01X553615Y431771D01*
G01X553904Y431001D01*
G01X554192Y430135D01*
G01X554481Y429077D01*
G01X554673Y428115D01*
G01X554866Y427345D01*
G01X555058Y426383D01*
G01X555154Y425229D01*
G01X555443Y422342D01*
G01X555443Y421572D01*
G01X555347Y420610D01*
G01X555058Y418301D01*
G01X554673Y416954D01*
G01X554385Y416088D01*
G01X554000Y415222D01*
G01X553230Y413875D01*
G01X552749Y413106D01*
G01X552268Y412432D01*
G01X551883Y411951D01*
G01X550440Y410508D01*
G01X548901Y409354D01*
G01X548323Y408969D01*
G01X546784Y408199D01*
G01X545918Y407814D01*
G01X544956Y407429D01*
G01X542839Y406852D01*
G01X541877Y406660D01*
G01X541011Y406563D01*
G01X537451Y406467D01*
G01X533891Y406563D01*
G01X533122Y406660D01*
G01X532256Y406852D01*
G01X530139Y407429D01*
G01X529177Y407814D01*
G01X528311Y408199D01*
G01X527157Y408776D01*
G01X526483Y409161D01*
G01X525617Y409738D01*
G01X524655Y410508D01*
G01X523020Y412144D01*
G01X522250Y413106D01*
G01X521095Y414838D01*
G01X520710Y415607D01*
G01X520326Y416473D01*
G01X519941Y417435D01*
G01X519652Y418590D01*
G01X519460Y419456D01*
G01X519267Y420418D01*
G01X519171Y421476D01*
G01X519075Y422150D01*
G01X518979Y423593D01*
G01X519075Y425036D01*
G01X519267Y427345D01*
G01X519652Y429077D01*
G01X519845Y429847D01*
G01X520133Y430616D01*
G01X520422Y431482D01*
G01X520710Y432252D01*
G01X521095Y432925D01*
G01X521384Y433695D01*
G01X520783Y433912D01*
G01X518786Y433984D01*
G01X516092Y433984D01*
G01X515900Y433503D01*
G01X515515Y432444D01*
G01X515130Y431290D01*
G01X514841Y430039D01*
G01X514649Y429077D01*
G01X514457Y427730D01*
G01X514264Y424651D01*
G01X514168Y422823D01*
G01X514264Y420995D01*
G01X514457Y419263D01*
G01X514841Y417532D01*
G01X515034Y416762D01*
G01X515611Y415030D01*
G01X515900Y414357D01*
G01X516188Y413779D01*
G01X516477Y413106D01*
G01X516862Y412336D01*
G01X517343Y411470D01*
G01X517920Y410604D01*
G01X518401Y409931D01*
G01X518786Y409450D01*
G01X519267Y408969D01*
G01X520229Y407814D01*
G01X521191Y406852D01*
G01X521961Y406275D01*
G01X522635Y405601D01*
G01X523116Y405216D01*
G01X523693Y404928D01*
G01X524848Y404158D01*
G01X525617Y403773D01*
G01X526483Y403292D01*
G01X527349Y402907D01*
G01X528696Y402330D01*
G01X529562Y402041D01*
G01X531679Y401464D01*
G01X532641Y401272D01*
G01X533507Y401175D01*
G01X536585Y400791D01*
G01X538413Y400694D01*
G01X540241Y400791D01*
G01X541396Y400983D01*
G01X543128Y401175D01*
G01X544475Y401464D01*
G01X545629Y401753D01*
G01X546591Y402041D01*
G01X548131Y402619D01*
G01X549670Y403388D01*
G01X551017Y404158D01*
G01X551787Y404639D01*
G01X552460Y405216D01*
G01X553615Y406179D01*
G01X554577Y406948D01*
G01X555154Y407718D01*
G01X555732Y408391D01*
G01X556501Y409354D01*
G01X556886Y409931D01*
G01X557367Y410700D01*
G01X557848Y411566D01*
G01X558233Y412336D01*
G01X558618Y413202D01*
G01X559003Y414260D01*
G01X559291Y415222D01*
G01X559580Y416088D01*
G01X559773Y416954D01*
G01X559869Y417724D01*
G01X560061Y418494D01*
G37*
G36*
G01X557656Y474778D02*
G01X559388Y474778D01*
G01X559388Y502294D01*
G01X554962Y502294D01*
G01X554962Y480358D01*
G01X554481Y480262D01*
G01X553230Y480262D01*
G01X552172Y480454D01*
G01X551402Y480743D01*
G01X550632Y481128D01*
G01X549863Y481609D01*
G01X549189Y482090D01*
G01X548516Y482667D01*
G01X547842Y483341D01*
G01X547073Y484303D01*
G01X546591Y484784D01*
G01X546014Y485457D01*
G01X545341Y486419D01*
G01X544763Y487189D01*
G01X544282Y487670D01*
G01X543898Y488151D01*
G01X543513Y488825D01*
G01X543032Y489498D01*
G01X542454Y490268D01*
G01X541781Y491230D01*
G01X541300Y491904D01*
G01X540915Y492385D01*
G01X540338Y493154D01*
G01X539664Y493828D01*
G01X538895Y494790D01*
G01X537451Y496233D01*
G01X536778Y496810D01*
G01X534854Y498157D01*
G01X533891Y498735D01*
G01X532929Y499216D01*
G01X531390Y499793D01*
G01X530235Y500082D01*
G01X528985Y500370D01*
G01X526291Y500563D01*
G01X523885Y500466D01*
G01X522923Y500274D01*
G01X521961Y499985D01*
G01X520614Y499408D01*
G01X519941Y499023D01*
G01X519171Y498542D01*
G01X518498Y498061D01*
G01X517535Y497099D01*
G01X517054Y496522D01*
G01X516670Y495944D01*
G01X516188Y495271D01*
G01X515323Y493539D01*
G01X515034Y492866D01*
G01X514841Y492192D01*
G01X514457Y490075D01*
G01X514264Y489113D01*
G01X514168Y487093D01*
G01X514264Y485457D01*
G01X514457Y484495D01*
G01X514649Y483341D01*
G01X514938Y482379D01*
G01X515323Y481320D01*
G01X515707Y480454D01*
G01X516188Y479685D01*
G01X516766Y478722D01*
G01X517439Y477760D01*
G01X518016Y477087D01*
G01X518401Y476702D01*
G01X521191Y476510D01*
G01X523116Y476582D01*
G01X523693Y476798D01*
G01X523212Y477375D01*
G01X522154Y478434D01*
G01X521769Y478915D01*
G01X521288Y479685D01*
G01X520710Y480550D01*
G01X520326Y481224D01*
G01X519941Y481994D01*
G01X519556Y482860D01*
G01X519171Y483822D01*
G01X518882Y485265D01*
G01X518786Y487766D01*
G01X518882Y489691D01*
G01X519075Y490460D01*
G01X519363Y491134D01*
G01X519652Y491615D01*
G01X520037Y492288D01*
G01X520518Y492962D01*
G01X520999Y493443D01*
G01X521673Y493924D01*
G01X522538Y494405D01*
G01X523501Y494790D01*
G01X524463Y495079D01*
G01X525425Y495175D01*
G01X526195Y495271D01*
G01X527157Y495367D01*
G01X528119Y495271D01*
G01X529851Y495079D01*
G01X530620Y494790D01*
G01X531486Y494501D01*
G01X532160Y494213D01*
G01X532833Y493828D01*
G01X533603Y493347D01*
G01X534276Y492866D01*
G01X535046Y492288D01*
G01X537644Y489691D01*
G01X538221Y488921D01*
G01X538895Y488055D01*
G01X539376Y487382D01*
G01X540530Y485842D01*
G01X540915Y485265D01*
G01X542454Y483341D01*
G01X543032Y482571D01*
G01X543801Y481609D01*
G01X544956Y480454D01*
G01X545341Y479973D01*
G01X545822Y479492D01*
G01X546591Y478819D01*
G01X547265Y478145D01*
G01X547746Y477760D01*
G01X548227Y477472D01*
G01X548804Y477087D01*
G01X549574Y476606D01*
G01X550536Y476125D01*
G01X551595Y475740D01*
G01X552364Y475451D01*
G01X554288Y475066D01*
G01X555635Y474874D01*
G01X557656Y474778D01*
G37*
G36*
G01X540530Y454573D02*
G01X559388Y454573D01*
G01X559388Y459576D01*
G01X558907Y459672D01*
G01X536297Y459769D01*
G01X514168Y459769D01*
G01X514072Y459288D01*
G01X513976Y458229D01*
G01X514168Y457460D01*
G01X515323Y456016D01*
G01X515804Y455343D01*
G01X516381Y454477D01*
G01X517343Y452938D01*
G01X518209Y451206D01*
G01X518594Y450532D01*
G01X518979Y449666D01*
G01X519748Y448127D01*
G01X520133Y447069D01*
G01X520518Y446107D01*
G01X520807Y445241D01*
G01X521191Y444471D01*
G01X521985Y444254D01*
G01X523789Y444182D01*
G01X526098Y444182D01*
G01X526098Y444856D01*
G01X525906Y445818D01*
G01X525329Y447357D01*
G01X524751Y448704D01*
G01X523982Y450244D01*
G01X523597Y450917D01*
G01X523116Y451783D01*
G01X522635Y452553D01*
G01X522250Y453130D01*
G01X521769Y453804D01*
G01X521576Y454381D01*
G01X540530Y454573D01*
G37*
G36*
G01X718919Y418298D02*
G01X719016Y421666D01*
G01X718919Y424841D01*
G01X718727Y426573D01*
G01X718535Y428112D01*
G01X718246Y429074D01*
G01X717957Y430229D01*
G01X717669Y431095D01*
G01X717380Y431864D01*
G01X717091Y432538D01*
G01X716803Y433115D01*
G01X716418Y433596D01*
G01X713820Y433789D01*
G01X711511Y433789D01*
G01X711607Y433307D01*
G01X711896Y432634D01*
G01X712185Y432153D01*
G01X712473Y431576D01*
G01X712762Y430806D01*
G01X713050Y429940D01*
G01X713339Y428882D01*
G01X713531Y427920D01*
G01X713724Y427150D01*
G01X713916Y426188D01*
G01X714013Y425033D01*
G01X714301Y422147D01*
G01X714301Y421377D01*
G01X714205Y420415D01*
G01X713916Y418106D01*
G01X713531Y416759D01*
G01X713243Y415893D01*
G01X712858Y415027D01*
G01X712088Y413680D01*
G01X711607Y412911D01*
G01X711126Y412237D01*
G01X710741Y411756D01*
G01X709298Y410313D01*
G01X707759Y409158D01*
G01X707181Y408773D01*
G01X705642Y408004D01*
G01X704776Y407619D01*
G01X703814Y407234D01*
G01X701697Y406657D01*
G01X700735Y406464D01*
G01X699869Y406368D01*
G01X696310Y406272D01*
G01X692750Y406368D01*
G01X691980Y406464D01*
G01X691114Y406657D01*
G01X688997Y407234D01*
G01X688035Y407619D01*
G01X687169Y408004D01*
G01X686015Y408581D01*
G01X685341Y408966D01*
G01X684475Y409543D01*
G01X683513Y410313D01*
G01X681878Y411948D01*
G01X681108Y412911D01*
G01X679953Y414642D01*
G01X679569Y415412D01*
G01X679184Y416278D01*
G01X678799Y417240D01*
G01X678510Y418395D01*
G01X678318Y419261D01*
G01X678125Y420223D01*
G01X678029Y421281D01*
G01X677933Y421954D01*
G01X677837Y423398D01*
G01X677933Y424841D01*
G01X678125Y427150D01*
G01X678510Y428882D01*
G01X678703Y429651D01*
G01X678991Y430421D01*
G01X679280Y431287D01*
G01X679569Y432057D01*
G01X679953Y432730D01*
G01X680242Y433500D01*
G01X679641Y433716D01*
G01X677644Y433789D01*
G01X674950Y433789D01*
G01X674758Y433307D01*
G01X674373Y432249D01*
G01X673988Y431095D01*
G01X673700Y429844D01*
G01X673507Y428882D01*
G01X673315Y427535D01*
G01X673122Y424456D01*
G01X673026Y422628D01*
G01X673122Y420800D01*
G01X673315Y419068D01*
G01X673700Y417336D01*
G01X673892Y416567D01*
G01X674469Y414835D01*
G01X674758Y414161D01*
G01X675047Y413584D01*
G01X675335Y412911D01*
G01X675720Y412141D01*
G01X676201Y411275D01*
G01X676778Y410409D01*
G01X677260Y409736D01*
G01X677644Y409254D01*
G01X678125Y408773D01*
G01X679088Y407619D01*
G01X680050Y406657D01*
G01X680819Y406079D01*
G01X681493Y405406D01*
G01X681974Y405021D01*
G01X682551Y404732D01*
G01X683706Y403963D01*
G01X684475Y403578D01*
G01X685341Y403097D01*
G01X686207Y402712D01*
G01X687554Y402135D01*
G01X688420Y401846D01*
G01X690537Y401269D01*
G01X691499Y401076D01*
G01X692365Y400980D01*
G01X695444Y400595D01*
G01X697272Y400499D01*
G01X699100Y400595D01*
G01X700254Y400788D01*
G01X701986Y400980D01*
G01X703333Y401269D01*
G01X704488Y401557D01*
G01X705450Y401846D01*
G01X706989Y402423D01*
G01X708528Y403193D01*
G01X709875Y403963D01*
G01X710645Y404444D01*
G01X711319Y405021D01*
G01X712473Y405983D01*
G01X713435Y406753D01*
G01X714013Y407523D01*
G01X714590Y408196D01*
G01X715360Y409158D01*
G01X715744Y409736D01*
G01X716225Y410505D01*
G01X716706Y411371D01*
G01X717091Y412141D01*
G01X717476Y413007D01*
G01X717861Y414065D01*
G01X718150Y415027D01*
G01X718438Y415893D01*
G01X718631Y416759D01*
G01X718727Y417529D01*
G01X718919Y418298D01*
G37*
G36*
G01X719112Y483338D02*
G01X719208Y485262D01*
G01X719112Y487186D01*
G01X718919Y487956D01*
G01X718727Y489303D01*
G01X718438Y490554D01*
G01X718150Y491516D01*
G01X717861Y492286D01*
G01X717284Y493632D01*
G01X716899Y494306D01*
G01X716322Y495268D01*
G01X715648Y496230D01*
G01X715071Y496904D01*
G01X714590Y497385D01*
G01X714013Y497866D01*
G01X713435Y498251D01*
G01X712954Y498636D01*
G01X712377Y499020D01*
G01X710838Y499790D01*
G01X709875Y500175D01*
G01X708721Y500464D01*
G01X707759Y500656D01*
G01X705450Y500752D01*
G01X703237Y500560D01*
G01X702275Y500271D01*
G01X701313Y499886D01*
G01X700447Y499405D01*
G01X699773Y498924D01*
G01X698619Y497962D01*
G01X698138Y497481D01*
G01X697368Y496519D01*
G01X696983Y495942D01*
G01X696694Y495268D01*
G01X696310Y494498D01*
G01X695732Y492959D01*
G01X695444Y491997D01*
G01X695251Y491131D01*
G01X695131Y490866D01*
G01X694963Y490842D01*
G01X694674Y491323D01*
G01X694385Y492093D01*
G01X694097Y492767D01*
G01X693808Y493344D01*
G01X693423Y494017D01*
G01X692846Y494883D01*
G01X692269Y495653D01*
G01X691788Y496134D01*
G01X691306Y496519D01*
G01X690729Y497000D01*
G01X690056Y497481D01*
G01X689286Y497962D01*
G01X688324Y498347D01*
G01X687554Y498636D01*
G01X686881Y498828D01*
G01X684860Y499117D01*
G01X683513Y499213D01*
G01X682166Y499117D01*
G01X681108Y498924D01*
G01X680146Y498636D01*
G01X679569Y498347D01*
G01X678895Y498058D01*
G01X678125Y497577D01*
G01X677163Y496904D01*
G01X676009Y495749D01*
G01X675624Y495268D01*
G01X675335Y494787D01*
G01X674950Y494210D01*
G01X674566Y493440D01*
G01X674181Y492574D01*
G01X673892Y491804D01*
G01X673507Y490265D01*
G01X673315Y489303D01*
G01X673219Y487860D01*
G01X673122Y486801D01*
G01X673122Y486032D01*
G01X673219Y484589D01*
G01X673315Y483338D01*
G01X673411Y482664D01*
G01X673603Y481895D01*
G01X673892Y480836D01*
G01X674181Y479874D01*
G01X674469Y479104D01*
G01X674758Y478431D01*
G01X675335Y477276D01*
G01X675720Y476892D01*
G01X678125Y476699D01*
G01X680338Y476699D01*
G01X680242Y477180D01*
G01X679953Y477854D01*
G01X679472Y478527D01*
G01X678606Y480259D01*
G01X678222Y481221D01*
G01X677741Y483145D01*
G01X677548Y484877D01*
G01X677452Y486032D01*
G01X677548Y487186D01*
G01X677644Y487860D01*
G01X677837Y488629D01*
G01X678125Y489688D01*
G01X678414Y490554D01*
G01X678703Y491035D01*
G01X679472Y491997D01*
G01X679857Y492382D01*
G01X680819Y492959D01*
G01X681397Y493248D01*
G01X682359Y493536D01*
G01X683513Y493729D01*
G01X684764Y493921D01*
G01X685822Y493921D01*
G01X687939Y493536D01*
G01X688613Y493248D01*
G01X689286Y492863D01*
G01X689863Y492478D01*
G01X690825Y491516D01*
G01X691210Y491035D01*
G01X691884Y489688D01*
G01X692653Y487571D01*
G01X692846Y486705D01*
G01X692942Y486032D01*
G01X693038Y482761D01*
G01X693038Y479778D01*
G01X693519Y479586D01*
G01X695540Y479393D01*
G01X696766Y479489D01*
G01X697368Y479778D01*
G01X697584Y480884D01*
G01X697656Y483434D01*
G01X697753Y486994D01*
G01X697945Y488341D01*
G01X698234Y489207D01*
G01X698522Y490265D01*
G01X698811Y491035D01*
G01X699196Y491804D01*
G01X699677Y492478D01*
G01X700639Y493632D01*
G01X701216Y494017D01*
G01X701986Y494498D01*
G01X702948Y494979D01*
G01X704103Y495268D01*
G01X705161Y495364D01*
G01X706508Y495557D01*
G01X707181Y495461D01*
G01X707951Y495364D01*
G01X708817Y495172D01*
G01X709779Y494787D01*
G01X710549Y494402D01*
G01X711126Y494017D01*
G01X711703Y493536D01*
G01X712185Y493055D01*
G01X712666Y492382D01*
G01X713435Y491035D01*
G01X713820Y490169D01*
G01X714109Y489207D01*
G01X714301Y488341D01*
G01X714494Y487379D01*
G01X714590Y484589D01*
G01X714494Y482183D01*
G01X714205Y481414D01*
G01X713916Y480259D01*
G01X713628Y479297D01*
G01X713243Y478527D01*
G01X712858Y477661D01*
G01X712377Y476795D01*
G01X711800Y475929D01*
G01X711415Y475256D01*
G01X712016Y475039D01*
G01X714013Y474967D01*
G01X716706Y474967D01*
G01X716899Y475545D01*
G01X717669Y477084D01*
G01X718053Y478046D01*
G01X718342Y478912D01*
G01X718535Y479682D01*
G01X718727Y480644D01*
G01X718919Y482183D01*
G01X719112Y483338D01*
G37*
G36*
G01X699388Y454378D02*
G01X718246Y454378D01*
G01X718246Y459381D01*
G01X717765Y459477D01*
G01X695155Y459573D01*
G01X673026Y459573D01*
G01X672930Y459092D01*
G01X672834Y458034D01*
G01X673026Y457264D01*
G01X674181Y455821D01*
G01X674662Y455148D01*
G01X675239Y454282D01*
G01X676201Y452742D01*
G01X677067Y451011D01*
G01X677452Y450337D01*
G01X677837Y449471D01*
G01X678606Y447932D01*
G01X678991Y446873D01*
G01X679376Y445911D01*
G01X679665Y445045D01*
G01X680050Y444276D01*
G01X680843Y444059D01*
G01X682647Y443987D01*
G01X684956Y443987D01*
G01X684956Y444661D01*
G01X684764Y445623D01*
G01X684187Y447162D01*
G01X683610Y448509D01*
G01X682840Y450048D01*
G01X682455Y450722D01*
G01X681974Y451588D01*
G01X681493Y452357D01*
G01X681108Y452935D01*
G01X680627Y453608D01*
G01X680435Y454186D01*
G01X699388Y454378D01*
G37*
G36*
G01X385422Y52061D02*
G01X382728Y52253D01*
G01X382632Y73805D01*
G01X382710Y91700D01*
G01X388020Y91700D01*
G01X388020Y84003D01*
G01X388116Y76018D01*
G01X388116Y76018D01*
G01X388308Y75633D01*
G01X391195Y75537D01*
G01X394851Y75633D01*
G01X396005Y75825D01*
G01X398026Y76114D01*
G01X398699Y76306D01*
G01X399565Y76691D01*
G01X400335Y77076D01*
G01X400912Y77461D01*
G01X401489Y77942D01*
G01X401970Y78423D01*
G01X402548Y79097D01*
G01X403029Y79866D01*
G01X403414Y80540D01*
G01X403702Y81213D01*
G01X403895Y82560D01*
G01X403991Y84100D01*
G01X403799Y86024D01*
G01X403510Y86986D01*
G01X403221Y87756D01*
G01X402836Y88429D01*
G01X402355Y89103D01*
G01X401778Y89776D01*
G01X401201Y90161D01*
G01X400527Y90546D01*
G01X399758Y90931D01*
G01X398988Y91219D01*
G01X398314Y91412D01*
G01X396390Y91604D01*
G01X392061Y91700D01*
G01X388020Y91700D01*
G01X382710Y91700D01*
G01X382728Y95838D01*
G01X382824Y96511D01*
G01X389752Y96511D01*
G01X397545Y96415D01*
G01X398699Y96222D01*
G01X399661Y96030D01*
G01X400816Y95838D01*
G01X401778Y95549D01*
G01X403317Y94972D01*
G01X404280Y94491D01*
G01X405242Y93817D01*
G01X406011Y93240D01*
G01X406974Y92278D01*
G01X407455Y91700D01*
G01X407839Y91123D01*
G01X408609Y89776D01*
G01X408898Y89006D01*
G01X409186Y88141D01*
G01X409379Y87467D01*
G01X409475Y86794D01*
G01X409571Y85350D01*
G01X409475Y83330D01*
G01X409283Y81983D01*
G01X408994Y80828D01*
G01X408609Y79866D01*
G01X408320Y79193D01*
G01X408032Y78616D01*
G01X407070Y77172D01*
G01X406492Y76499D01*
G01X405723Y75729D01*
G01X405242Y75344D01*
G01X404472Y74767D01*
G01X403606Y74190D01*
G01X402933Y73805D01*
G01X402259Y73516D01*
G01X400720Y72939D01*
G01X400142Y72650D01*
G01X400239Y72266D01*
G01X401008Y71784D01*
G01X401682Y71303D01*
G01X402163Y70919D01*
G01X403606Y69475D01*
G01X403991Y68994D01*
G01X404761Y67840D01*
G01X405242Y67166D01*
G01X405819Y66204D01*
G01X406396Y65338D01*
G01X406877Y64569D01*
G01X407262Y63991D01*
G01X408032Y62644D01*
G01X408513Y61971D01*
G01X409667Y60047D01*
G01X410149Y59277D01*
G01X410533Y58700D01*
G01X411495Y57160D01*
G01X411880Y56487D01*
G01X412361Y55717D01*
G01X412939Y54851D01*
G01X413516Y53889D01*
G01X413997Y53119D01*
G01X414382Y52446D01*
G01X414574Y52061D01*
G01X411495Y52061D01*
G01X409138Y52133D01*
G01X408224Y52350D01*
G01X407743Y53119D01*
G01X406589Y55044D01*
G01X406108Y55813D01*
G01X405723Y56487D01*
G01X405242Y57353D01*
G01X404087Y59277D01*
G01X403606Y60047D01*
G01X403221Y60720D01*
G01X402740Y61586D01*
G01X401008Y64472D01*
G01X399854Y66204D01*
G01X398892Y67551D01*
G01X398314Y68225D01*
G01X397352Y69187D01*
G01X396679Y69668D01*
G01X395813Y70149D01*
G01X394851Y70534D01*
G01X394081Y70822D01*
G01X390906Y70919D01*
G01X388020Y70919D01*
G01X388020Y52061D01*
G01X385422Y52061D01*
G37*
G36*
G01X432085Y52061D02*
G01X418327Y52157D01*
G01X418230Y53793D01*
G01X418327Y55621D01*
G01X418519Y56968D01*
G01X418904Y59084D01*
G01X419096Y59662D01*
G01X419385Y60335D01*
G01X419770Y61201D01*
G01X420251Y62163D01*
G01X420732Y62933D01*
G01X421309Y63703D01*
G01X421886Y64376D01*
G01X422271Y64857D01*
G01X424869Y67455D01*
G01X426793Y68994D01*
G01X427563Y69572D01*
G01X428525Y70341D01*
G01X429872Y71303D01*
G01X432951Y73613D01*
G01X433432Y74094D01*
G01X434105Y74671D01*
G01X434875Y75441D01*
G01X435452Y76114D01*
G01X435933Y76595D01*
G01X436511Y77365D01*
G01X437473Y78808D01*
G01X437761Y79385D01*
G01X438339Y80925D01*
G01X438531Y81598D01*
G01X438724Y83330D01*
G01X438820Y84100D01*
G01X438724Y85447D01*
G01X438531Y86986D01*
G01X438242Y88141D01*
G01X437858Y89006D01*
G01X437569Y89680D01*
G01X437184Y90161D01*
G01X436222Y91123D01*
G01X434683Y92085D01*
G01X433913Y92374D01*
G01X433143Y92566D01*
G01X431123Y92663D01*
G01X428717Y92566D01*
G01X427370Y92278D01*
G01X426312Y91893D01*
G01X425446Y91508D01*
G01X424484Y91027D01*
G01X423714Y90546D01*
G01X423137Y90161D01*
G01X422656Y89776D01*
G01X422175Y89488D01*
G01X421694Y89103D01*
G01X420732Y88141D01*
G01X420251Y87756D01*
G01X420034Y88309D01*
G01X419962Y90161D01*
G01X420155Y92855D01*
G01X420539Y93336D01*
G01X421020Y93817D01*
G01X421502Y94202D01*
G01X422175Y94683D01*
G01X423137Y95260D01*
G01X424003Y95741D01*
G01X424869Y96126D01*
G01X425831Y96511D01*
G01X426793Y96800D01*
G01X427948Y96992D01*
G01X428910Y97184D01*
G01X430449Y97281D01*
G01X432566Y97184D01*
G01X433720Y96992D01*
G01X434779Y96800D01*
G01X436030Y96511D01*
G01X436992Y96126D01*
G01X437858Y95741D01*
G01X438724Y95260D01*
G01X439686Y94587D01*
G01X440455Y94009D01*
G01X441417Y93047D01*
G01X441995Y92374D01*
G01X442572Y91412D01*
G01X443053Y90450D01*
G01X443438Y89584D01*
G01X443630Y88814D01*
G01X443823Y88141D01*
G01X444015Y85447D01*
G01X443919Y82753D01*
G01X443727Y81983D01*
G01X443534Y81021D01*
G01X443342Y80251D01*
G01X443053Y79385D01*
G01X442668Y78423D01*
G01X442283Y77750D01*
G01X441899Y76980D01*
G01X441321Y76018D01*
G01X440744Y75248D01*
G01X439974Y74286D01*
G01X438050Y72362D01*
G01X437088Y71592D01*
G01X436414Y70919D01*
G01X434105Y69187D01*
G01X432951Y68417D01*
G01X429872Y66108D01*
G01X429391Y65723D01*
G01X428814Y65338D01*
G01X428236Y64857D01*
G01X427563Y64184D01*
G01X426793Y63606D01*
G01X425831Y62452D01*
G01X425254Y61778D01*
G01X424677Y60913D01*
G01X424292Y60143D01*
G01X424003Y59277D01*
G01X423714Y58122D01*
G01X423714Y56968D01*
G01X423811Y56487D01*
G01X445747Y56487D01*
G01X445747Y52061D01*
G01X432085Y52061D01*
G37*
G36*
G01X807622Y412197D02*
G01X807738Y416238D01*
G01X807622Y420048D01*
G01X807392Y422126D01*
G01X807161Y423973D01*
G01X806814Y425128D01*
G01X806468Y426513D01*
G01X806122Y427552D01*
G01X805775Y428476D01*
G01X805429Y429284D01*
G01X805082Y429977D01*
G01X804621Y430554D01*
G01X801503Y430785D01*
G01X798732Y430785D01*
G01X798848Y430208D01*
G01X799194Y429399D01*
G01X799541Y428822D01*
G01X799887Y428129D01*
G01X800233Y427206D01*
G01X800580Y426167D01*
G01X800926Y424897D01*
G01X801157Y423742D01*
G01X801388Y422819D01*
G01X801619Y421664D01*
G01X801734Y420279D01*
G01X802081Y416815D01*
G01X802081Y415891D01*
G01X801965Y414737D01*
G01X801619Y411966D01*
G01X801157Y410349D01*
G01X800811Y409311D01*
G01X800349Y408271D01*
G01X799425Y406655D01*
G01X798848Y405731D01*
G01X798271Y404923D01*
G01X797809Y404346D01*
G01X796077Y402614D01*
G01X794230Y401229D01*
G01X793537Y400767D01*
G01X791690Y399843D01*
G01X790651Y399381D01*
G01X789496Y398919D01*
G01X786956Y398227D01*
G01X785802Y397996D01*
G01X784762Y397881D01*
G01X780491Y397765D01*
G01X776219Y397881D01*
G01X775295Y397996D01*
G01X774256Y398227D01*
G01X771716Y398919D01*
G01X770562Y399381D01*
G01X769522Y399843D01*
G01X768137Y400536D01*
G01X767329Y400998D01*
G01X766290Y401691D01*
G01X765135Y402614D01*
G01X763172Y404577D01*
G01X762249Y405731D01*
G01X760863Y407809D01*
G01X760402Y408733D01*
G01X759940Y409772D01*
G01X759478Y410927D01*
G01X759132Y412312D01*
G01X758901Y413351D01*
G01X758670Y414506D01*
G01X758554Y415776D01*
G01X758439Y416584D01*
G01X758323Y418316D01*
G01X758439Y420048D01*
G01X758670Y422819D01*
G01X759132Y424897D01*
G01X759362Y425821D01*
G01X759709Y426744D01*
G01X760055Y427783D01*
G01X760402Y428707D01*
G01X760863Y429515D01*
G01X761210Y430439D01*
G01X760488Y430698D01*
G01X758092Y430785D01*
G01X754860Y430785D01*
G01X754629Y430208D01*
G01X754167Y428938D01*
G01X753705Y427552D01*
G01X753359Y426051D01*
G01X753128Y424897D01*
G01X752897Y423281D01*
G01X752666Y419586D01*
G01X752551Y417392D01*
G01X752666Y415199D01*
G01X752897Y413121D01*
G01X753359Y411042D01*
G01X753590Y410119D01*
G01X754282Y408041D01*
G01X754629Y407232D01*
G01X754975Y406539D01*
G01X755322Y405731D01*
G01X755783Y404808D01*
G01X756361Y403769D01*
G01X757053Y402729D01*
G01X757631Y401921D01*
G01X758092Y401344D01*
G01X758670Y400767D01*
G01X759824Y399381D01*
G01X760979Y398227D01*
G01X761902Y397534D01*
G01X762711Y396726D01*
G01X763288Y396264D01*
G01X763981Y395918D01*
G01X765366Y394994D01*
G01X766290Y394532D01*
G01X767329Y393955D01*
G01X768368Y393493D01*
G01X769984Y392801D01*
G01X771023Y392454D01*
G01X773563Y391761D01*
G01X774718Y391531D01*
G01X775757Y391415D01*
G01X779452Y390953D01*
G01X781645Y390838D01*
G01X783839Y390953D01*
G01X785224Y391184D01*
G01X787302Y391415D01*
G01X788919Y391761D01*
G01X790304Y392108D01*
G01X791459Y392454D01*
G01X793306Y393147D01*
G01X795153Y394071D01*
G01X796770Y394994D01*
G01X797693Y395571D01*
G01X798502Y396264D01*
G01X799887Y397419D01*
G01X801042Y398342D01*
G01X801734Y399266D01*
G01X802427Y400074D01*
G01X803351Y401229D01*
G01X803812Y401921D01*
G01X804390Y402845D01*
G01X804967Y403884D01*
G01X805429Y404808D01*
G01X805891Y405847D01*
G01X806352Y407117D01*
G01X806699Y408271D01*
G01X807045Y409311D01*
G01X807276Y410349D01*
G01X807392Y411273D01*
G01X807622Y412197D01*
G37*
G36*
G01X806583Y487589D02*
G01X806814Y490821D01*
G01X806814Y494054D01*
G01X806006Y494169D01*
G01X804621Y494401D01*
G01X803582Y494516D01*
G01X802773Y494631D01*
G01X800695Y495093D01*
G01X799541Y495324D01*
G01X798271Y495671D01*
G01X797347Y495901D01*
G01X796539Y496017D01*
G01X795500Y496363D01*
G01X790997Y497749D01*
G01X789727Y498211D01*
G01X786610Y499249D01*
G01X783839Y500289D01*
G01X781530Y501212D01*
G01X779913Y501905D01*
G01X778874Y502367D01*
G01X777720Y502829D01*
G01X773563Y504676D01*
G01X772640Y505138D01*
G01X771601Y505599D01*
G01X764212Y509294D01*
G01X763288Y509871D01*
G01X762133Y510449D01*
G01X760055Y511603D01*
G01X759247Y512065D01*
G01X758670Y512411D01*
G01X757053Y513219D01*
G01X755091Y513451D01*
G01X753705Y513451D01*
G01X753590Y512873D01*
G01X753474Y495901D01*
G01X753474Y479507D01*
G01X754052Y479391D01*
G01X756707Y479276D01*
G01X758323Y479391D01*
G01X759016Y479738D01*
G01X759247Y492784D01*
G01X759132Y505599D01*
G01X759161Y505773D01*
G01X759478Y505831D01*
G01X760171Y505599D01*
G01X760863Y505138D01*
G01X762480Y504214D01*
G01X763403Y503752D01*
G01X764442Y503175D01*
G01X766521Y502136D01*
G01X767329Y501674D01*
G01X768252Y501212D01*
G01X769061Y500751D01*
G01X770446Y500058D01*
G01X772062Y499365D01*
G01X774602Y498095D01*
G01X775411Y497749D01*
G01X776450Y497287D01*
G01X777373Y496825D01*
G01X783839Y494054D01*
G01X786610Y493015D01*
G01X787649Y492669D01*
G01X788803Y492207D01*
G01X790073Y491745D01*
G01X791459Y491283D01*
G01X792729Y490821D01*
G01X793652Y490591D01*
G01X794461Y490359D01*
G01X795500Y490013D01*
G01X796539Y489782D01*
G01X797462Y489436D01*
G01X798963Y489089D01*
G01X800349Y488743D01*
G01X801850Y488397D01*
G01X803235Y488166D01*
G01X804159Y487935D01*
G01X805544Y487704D01*
G01X806583Y487589D01*
G37*
G36*
G01X784185Y455492D02*
G01X806814Y455492D01*
G01X806814Y461496D01*
G01X806237Y461611D01*
G01X779105Y461727D01*
G01X752551Y461727D01*
G01X752435Y461149D01*
G01X752320Y459879D01*
G01X752551Y458956D01*
G01X753936Y457224D01*
G01X754513Y456416D01*
G01X755206Y455377D01*
G01X756361Y453529D01*
G01X757400Y451451D01*
G01X757862Y450643D01*
G01X758323Y449604D01*
G01X759247Y447757D01*
G01X759709Y446487D01*
G01X760171Y445332D01*
G01X760517Y444293D01*
G01X760979Y443369D01*
G01X761931Y443110D01*
G01X764096Y443023D01*
G01X766867Y443023D01*
G01X766867Y443831D01*
G01X766636Y444986D01*
G01X765943Y446833D01*
G01X765251Y448449D01*
G01X764327Y450297D01*
G01X763865Y451105D01*
G01X763288Y452144D01*
G01X762711Y453068D01*
G01X762249Y453761D01*
G01X761672Y454569D01*
G01X761441Y455261D01*
G01X784185Y455492D01*
G37*
G36*
G01X-534235Y-673047D02*
G01X-531296Y-670272D01*
G01X-528683Y-667496D01*
G01X-527377Y-665863D01*
G01X-526234Y-664393D01*
G01X-525663Y-663332D01*
G01X-524928Y-662108D01*
G01X-524438Y-661128D01*
G01X-524030Y-660230D01*
G01X-523703Y-659413D01*
G01X-523459Y-658679D01*
G01X-523377Y-657944D01*
G01X-525418Y-655576D01*
G01X-527377Y-653617D01*
G01X-527704Y-654107D01*
G01X-528030Y-654923D01*
G01X-528193Y-655576D01*
G01X-528438Y-656311D01*
G01X-528847Y-657209D01*
G01X-529336Y-658189D01*
G01X-529990Y-659332D01*
G01X-530643Y-660312D01*
G01X-531133Y-661128D01*
G01X-531786Y-662108D01*
G01X-532684Y-663169D01*
G01X-534888Y-665863D01*
G01X-535541Y-666516D01*
G01X-536439Y-667251D01*
G01X-538643Y-668965D01*
G01X-540113Y-669782D01*
G01X-541092Y-670271D01*
G01X-542154Y-670680D01*
G01X-543950Y-671169D01*
G01X-545011Y-671414D01*
G01X-545991Y-671578D01*
G01X-546725Y-671659D01*
G01X-549175Y-671659D01*
G01X-551461Y-671333D01*
G01X-552277Y-671170D01*
G01X-554236Y-670516D01*
G01X-555298Y-670108D01*
G01X-556441Y-669618D01*
G01X-558726Y-668312D01*
G01X-559706Y-667659D01*
G01X-560522Y-667006D01*
G01X-563625Y-664067D01*
G01X-566564Y-660965D01*
G01X-567135Y-660230D01*
G01X-567707Y-659332D01*
G01X-569013Y-657046D01*
G01X-569503Y-655903D01*
G01X-569911Y-654842D01*
G01X-570401Y-653372D01*
G01X-570646Y-652474D01*
G01X-570890Y-651250D01*
G01X-571054Y-649780D01*
G01X-571054Y-647004D01*
G01X-570890Y-645535D01*
G01X-570401Y-643086D01*
G01X-570074Y-642106D01*
G01X-569666Y-641045D01*
G01X-569176Y-639902D01*
G01X-568441Y-638677D01*
G01X-567870Y-637779D01*
G01X-567217Y-636800D01*
G01X-566401Y-635820D01*
G01X-565911Y-635167D01*
G01X-564768Y-633861D01*
G01X-563461Y-632718D01*
G01X-561339Y-630922D01*
G01X-559543Y-629779D01*
G01X-558726Y-629289D01*
G01X-557828Y-628881D01*
G01X-556849Y-628391D01*
G01X-555951Y-627983D01*
G01X-555053Y-627738D01*
G01X-554155Y-627330D01*
G01X-554481Y-626636D01*
G01X-556114Y-624880D01*
G01X-558400Y-622594D01*
G01X-558971Y-622839D01*
G01X-560196Y-623411D01*
G01X-561502Y-624064D01*
G01X-562808Y-624880D01*
G01X-563788Y-625533D01*
G01X-565094Y-626513D01*
G01X-567870Y-628962D01*
G01X-569503Y-630432D01*
G01X-570972Y-632065D01*
G01X-572278Y-633697D01*
G01X-573421Y-635493D01*
G01X-573911Y-636310D01*
G01X-574891Y-638269D01*
G01X-575217Y-639085D01*
G01X-575462Y-639820D01*
G01X-575789Y-640636D01*
G01X-576116Y-641616D01*
G01X-576442Y-642759D01*
G01X-576687Y-643984D01*
G01X-576850Y-644963D01*
G01X-576932Y-645698D01*
G01X-576932Y-646515D01*
G01X-577095Y-648310D01*
G01X-577095Y-649943D01*
G01X-576932Y-651086D01*
G01X-576932Y-652229D01*
G01X-576850Y-652964D01*
G01X-576605Y-653699D01*
G01X-576279Y-655332D01*
G01X-575952Y-656311D01*
G01X-575626Y-657454D01*
G01X-575217Y-658515D01*
G01X-574564Y-660148D01*
G01X-574075Y-661128D01*
G01X-572768Y-663414D01*
G01X-572115Y-664393D01*
G01X-571462Y-665210D01*
G01X-569176Y-668149D01*
G01X-567707Y-669782D01*
G01X-566074Y-671251D01*
G01X-564931Y-672067D01*
G01X-563298Y-673374D01*
G01X-561910Y-674272D01*
G01X-560686Y-675006D01*
G01X-559624Y-675578D01*
G01X-557828Y-676394D01*
G01X-555869Y-677047D01*
G01X-554073Y-677537D01*
G01X-553012Y-677782D01*
G01X-551950Y-677864D01*
G01X-550154Y-678027D01*
G01X-548685Y-678190D01*
G01X-547542Y-678027D01*
G01X-546481Y-677945D01*
G01X-545011Y-677782D01*
G01X-544195Y-677619D01*
G01X-543133Y-677374D01*
G01X-541990Y-677047D01*
G01X-541011Y-676721D01*
G01X-539950Y-676313D01*
G01X-538725Y-675741D01*
G01X-537664Y-675170D01*
G01X-536684Y-674680D01*
G01X-535786Y-674109D01*
G01X-535051Y-673537D01*
G01X-534235Y-673047D01*
G37*
G36*
G01X-517336Y-652556D02*
G01X-516111Y-653780D01*
G01X-492762Y-630432D01*
G01X-496518Y-626676D01*
G01X-515131Y-645290D01*
G01X-515621Y-644964D01*
G01X-516601Y-643984D01*
G01X-517417Y-642678D01*
G01X-517989Y-641453D01*
G01X-518234Y-640555D01*
G01X-518560Y-638922D01*
G01X-518560Y-638106D01*
G01X-518642Y-637208D01*
G01X-518478Y-635085D01*
G01X-518479Y-634269D01*
G01X-517989Y-630840D01*
G01X-517825Y-629534D01*
G01X-517662Y-628554D01*
G01X-517499Y-627411D01*
G01X-517009Y-624635D01*
G01X-516846Y-623492D01*
G01X-516683Y-622023D01*
G01X-516682Y-621207D01*
G01X-516519Y-619737D01*
G01X-516519Y-616472D01*
G01X-516601Y-615737D01*
G01X-516764Y-614757D01*
G01X-516846Y-613696D01*
G01X-517009Y-612879D01*
G01X-517336Y-612063D01*
G01X-517989Y-610104D01*
G01X-518397Y-609206D01*
G01X-518887Y-608226D01*
G01X-520030Y-606430D01*
G01X-522316Y-603818D01*
G01X-524928Y-601532D01*
G01X-526561Y-600552D01*
G01X-527622Y-600144D01*
G01X-528847Y-599736D01*
G01X-529908Y-599491D01*
G01X-531051Y-599327D01*
G01X-533010Y-599327D01*
G01X-533745Y-599409D01*
G01X-534398Y-599572D01*
G01X-535378Y-599736D01*
G01X-536521Y-600062D01*
G01X-537582Y-600470D01*
G01X-538725Y-600960D01*
G01X-540031Y-601777D01*
G01X-541092Y-602511D01*
G01X-542235Y-603328D01*
G01X-544113Y-605042D01*
G01X-545338Y-606430D01*
G01X-545991Y-607410D01*
G01X-546807Y-608553D01*
G01X-547379Y-609614D01*
G01X-547868Y-610757D01*
G01X-548277Y-611818D01*
G01X-548603Y-612961D01*
G01X-548930Y-614267D01*
G01X-549093Y-615247D01*
G01X-549256Y-616716D01*
G01X-549175Y-617451D01*
G01X-546970Y-619982D01*
G01X-545338Y-621492D01*
G01X-544684Y-621778D01*
G01X-544603Y-620880D01*
G01X-544603Y-619900D01*
G01X-544439Y-618431D01*
G01X-544276Y-617288D01*
G01X-544031Y-616063D01*
G01X-543786Y-615165D01*
G01X-543460Y-614186D01*
G01X-543052Y-613124D01*
G01X-542480Y-611900D01*
G01X-541582Y-610512D01*
G01X-539623Y-608389D01*
G01X-537827Y-606756D01*
G01X-537010Y-606267D01*
G01X-536113Y-605858D01*
G01X-535051Y-605613D01*
G01X-533663Y-605369D01*
G01X-532520Y-605369D01*
G01X-531541Y-605532D01*
G01X-530561Y-605858D01*
G01X-529745Y-606185D01*
G01X-528520Y-606920D01*
G01X-527051Y-608063D01*
G01X-525908Y-609042D01*
G01X-523948Y-611492D01*
G01X-523540Y-612389D01*
G01X-523050Y-613369D01*
G01X-522724Y-614186D01*
G01X-522234Y-615982D01*
G01X-522071Y-616798D01*
G01X-521907Y-618268D01*
G01X-521907Y-619900D01*
G01X-521826Y-620635D01*
G01X-521907Y-621696D01*
G01X-521907Y-622839D01*
G01X-522152Y-625044D01*
G01X-522316Y-625697D01*
G01X-522397Y-626432D01*
G01X-522561Y-627574D01*
G01X-522805Y-628962D01*
G01X-522887Y-630023D01*
G01X-522969Y-630758D01*
G01X-523132Y-631411D01*
G01X-523540Y-635085D01*
G01X-523540Y-636718D01*
G01X-523622Y-637453D01*
G01X-523540Y-638514D01*
G01X-523540Y-640473D01*
G01X-523377Y-641616D01*
G01X-523132Y-642841D01*
G01X-522887Y-643739D01*
G01X-522560Y-644719D01*
G01X-521744Y-646841D01*
G01X-521173Y-647739D01*
G01X-520683Y-648392D01*
G01X-520030Y-649372D01*
G01X-519050Y-650678D01*
G01X-517336Y-652556D01*
G37*
G36*
G01X-381436Y-822672D02*
G01X-384375Y-825447D01*
G01X-385191Y-825937D01*
G01X-385926Y-826509D01*
G01X-386824Y-827080D01*
G01X-387804Y-827570D01*
G01X-388865Y-828141D01*
G01X-390090Y-828713D01*
G01X-391151Y-829121D01*
G01X-392130Y-829447D01*
G01X-393273Y-829774D01*
G01X-394335Y-830019D01*
G01X-395151Y-830182D01*
G01X-396621Y-830345D01*
G01X-397682Y-830427D01*
G01X-398825Y-830590D01*
G01X-400294Y-830427D01*
G01X-402090Y-830264D01*
G01X-403152Y-830182D01*
G01X-404213Y-829937D01*
G01X-406009Y-829447D01*
G01X-407968Y-828794D01*
G01X-409764Y-827978D01*
G01X-410826Y-827406D01*
G01X-412050Y-826672D01*
G01X-413438Y-825774D01*
G01X-415071Y-824467D01*
G01X-416214Y-823651D01*
G01X-417847Y-822182D01*
G01X-419316Y-820549D01*
G01X-421602Y-817610D01*
G01X-422255Y-816793D01*
G01X-422908Y-815814D01*
G01X-424215Y-813528D01*
G01X-424704Y-812548D01*
G01X-425357Y-810915D01*
G01X-425766Y-809854D01*
G01X-426092Y-808711D01*
G01X-426419Y-807732D01*
G01X-426745Y-806099D01*
G01X-426990Y-805364D01*
G01X-427072Y-804629D01*
G01X-427072Y-803486D01*
G01X-427235Y-802343D01*
G01X-427235Y-800710D01*
G01X-427072Y-798915D01*
G01X-427072Y-798098D01*
G01X-426990Y-797363D01*
G01X-426827Y-796384D01*
G01X-426582Y-795159D01*
G01X-426256Y-794016D01*
G01X-425929Y-793036D01*
G01X-425602Y-792220D01*
G01X-425357Y-791485D01*
G01X-425031Y-790669D01*
G01X-424051Y-788710D01*
G01X-423561Y-787893D01*
G01X-422418Y-786097D01*
G01X-421112Y-784465D01*
G01X-419643Y-782832D01*
G01X-418010Y-781362D01*
G01X-415234Y-778913D01*
G01X-413928Y-777933D01*
G01X-412948Y-777280D01*
G01X-411642Y-776464D01*
G01X-410336Y-775811D01*
G01X-409111Y-775239D01*
G01X-408540Y-774994D01*
G01X-406254Y-777280D01*
G01X-404621Y-779036D01*
G01X-404295Y-779730D01*
G01X-405193Y-780138D01*
G01X-406091Y-780383D01*
G01X-406989Y-780791D01*
G01X-407968Y-781281D01*
G01X-408866Y-781689D01*
G01X-409683Y-782179D01*
G01X-411479Y-783322D01*
G01X-413601Y-785118D01*
G01X-414908Y-786261D01*
G01X-416051Y-787567D01*
G01X-416541Y-788220D01*
G01X-417357Y-789200D01*
G01X-418010Y-790179D01*
G01X-418581Y-791077D01*
G01X-419316Y-792302D01*
G01X-419806Y-793445D01*
G01X-420214Y-794506D01*
G01X-420541Y-795486D01*
G01X-421030Y-797935D01*
G01X-421194Y-799404D01*
G01X-421194Y-802180D01*
G01X-421030Y-803650D01*
G01X-420786Y-804874D01*
G01X-420541Y-805772D01*
G01X-420051Y-807242D01*
G01X-419643Y-808303D01*
G01X-419153Y-809446D01*
G01X-417847Y-811732D01*
G01X-417275Y-812630D01*
G01X-416704Y-813365D01*
G01X-413765Y-816467D01*
G01X-410662Y-819406D01*
G01X-409846Y-820059D01*
G01X-408866Y-820712D01*
G01X-406581Y-822018D01*
G01X-405438Y-822508D01*
G01X-404376Y-822916D01*
G01X-402417Y-823570D01*
G01X-401601Y-823733D01*
G01X-399315Y-824059D01*
G01X-396865Y-824059D01*
G01X-396131Y-823978D01*
G01X-395151Y-823814D01*
G01X-394090Y-823569D01*
G01X-392294Y-823080D01*
G01X-391232Y-822671D01*
G01X-390253Y-822182D01*
G01X-388783Y-821365D01*
G01X-386579Y-819651D01*
G01X-385681Y-818916D01*
G01X-385028Y-818263D01*
G01X-382824Y-815569D01*
G01X-381926Y-814508D01*
G01X-381273Y-813528D01*
G01X-380783Y-812712D01*
G01X-380130Y-811732D01*
G01X-379476Y-810589D01*
G01X-378987Y-809609D01*
G01X-378578Y-808711D01*
G01X-378333Y-807976D01*
G01X-378170Y-807323D01*
G01X-377844Y-806507D01*
G01X-377517Y-806017D01*
G01X-375558Y-807976D01*
G01X-373517Y-810344D01*
G01X-373599Y-811079D01*
G01X-373843Y-811813D01*
G01X-374170Y-812630D01*
G01X-374578Y-813528D01*
G01X-375068Y-814508D01*
G01X-375803Y-815732D01*
G01X-376374Y-816793D01*
G01X-377517Y-818263D01*
G01X-378823Y-819896D01*
G01X-381436Y-822672D01*
G37*
G36*
G01X-350903Y-790832D02*
G01X-354903Y-786832D01*
G01X-359393Y-782505D01*
G01X-359883Y-782178D01*
G01X-377517Y-799812D01*
G01X-379150Y-798180D01*
G01X-380946Y-796221D01*
G01X-381273Y-795241D01*
G01X-381518Y-792057D01*
G01X-381681Y-790587D01*
G01X-381681Y-789771D01*
G01X-381762Y-789036D01*
G01X-381926Y-788220D01*
G01X-382007Y-787322D01*
G01X-382007Y-786506D01*
G01X-382170Y-785036D01*
G01X-382497Y-782750D01*
G01X-382661Y-781281D01*
G01X-383313Y-776709D01*
G01X-383640Y-774749D01*
G01X-383722Y-774015D01*
G01X-383885Y-773198D01*
G01X-384130Y-772137D01*
G01X-384293Y-771157D01*
G01X-384620Y-769525D01*
G01X-384783Y-768545D01*
G01X-385028Y-767320D01*
G01X-385681Y-764708D01*
G01X-385844Y-763728D01*
G01X-386512Y-761279D01*
G01X-381762Y-761279D01*
G01X-381599Y-762096D01*
G01X-381273Y-763239D01*
G01X-380293Y-767157D01*
G01X-379558Y-770831D01*
G01X-379313Y-771892D01*
G01X-379068Y-773117D01*
G01X-378089Y-778668D01*
G01X-377599Y-782097D01*
G01X-377354Y-784301D01*
G01X-377191Y-784954D01*
G01X-376946Y-787159D01*
G01X-376782Y-788955D01*
G01X-376701Y-790016D01*
G01X-376701Y-790016D01*
G01X-376374Y-790669D01*
G01X-370333Y-784791D01*
G01X-364128Y-778423D01*
G01X-363802Y-777933D01*
G01X-371884Y-769851D01*
G01X-380783Y-761116D01*
G01X-381415Y-760687D01*
G01X-381681Y-760708D01*
G01X-381762Y-761279D01*
G01X-386512Y-761279D01*
G01X-387314Y-758340D01*
G01X-388049Y-756136D01*
G01X-388457Y-755074D01*
G01X-388783Y-753932D01*
G01X-388436Y-753095D01*
G01X-387069Y-751564D01*
G01X-384701Y-749360D01*
G01X-384212Y-749033D01*
G01X-359393Y-773851D01*
G01X-357352Y-771810D01*
G01X-354822Y-769443D01*
G01X-354332Y-769116D01*
G01X-352862Y-770586D01*
G01X-351066Y-772545D01*
G01X-350740Y-773035D01*
G01X-355475Y-777770D01*
G01X-346658Y-786587D01*
G01X-350903Y-790832D01*
G37*
G36*
G01X816460Y-189048D02*
G01X812420Y-188932D01*
G01X811496Y-188701D01*
G01X810572Y-188586D01*
G01X809533Y-188355D01*
G01X808494Y-188009D01*
G01X807340Y-187662D01*
G01X806070Y-187200D01*
G01X805030Y-186739D01*
G01X804107Y-186277D01*
G01X803068Y-185699D01*
G01X802144Y-185122D01*
G01X801451Y-184660D01*
G01X800297Y-183737D01*
G01X799489Y-183044D01*
G01X798565Y-182351D01*
G01X797641Y-181197D01*
G01X796487Y-179811D01*
G01X795794Y-179003D01*
G01X795217Y-178079D01*
G01X794293Y-176463D01*
G01X793370Y-174616D01*
G01X792677Y-172769D01*
G01X792330Y-171614D01*
G01X791984Y-170229D01*
G01X791638Y-168612D01*
G01X791407Y-166534D01*
G01X791176Y-165149D01*
G01X791060Y-162955D01*
G01X791176Y-160761D01*
G01X791638Y-157067D01*
G01X791753Y-156028D01*
G01X791984Y-154873D01*
G01X792677Y-152333D01*
G01X793023Y-151294D01*
G01X793716Y-149678D01*
G01X794178Y-148639D01*
G01X794755Y-147599D01*
G01X795217Y-146676D01*
G01X796140Y-145290D01*
G01X796487Y-144598D01*
G01X796949Y-144020D01*
G01X797757Y-143212D01*
G01X798450Y-142289D01*
G01X799604Y-141134D01*
G01X800990Y-139979D01*
G01X801567Y-139402D01*
G01X802144Y-138940D01*
G01X802952Y-138363D01*
G01X803991Y-137670D01*
G01X805030Y-137093D01*
G01X805954Y-136631D01*
G01X806762Y-136285D01*
G01X807455Y-135939D01*
G01X808263Y-135592D01*
G01X810341Y-134899D01*
G01X811265Y-134669D01*
G01X813343Y-134207D01*
G01X815421Y-133976D01*
G01X817615Y-133860D01*
G01X819809Y-133976D01*
G01X823503Y-134207D01*
G01X825120Y-134438D01*
G01X826274Y-134669D01*
G01X827775Y-135015D01*
G01X829160Y-135477D01*
G01X830430Y-135939D01*
G01X831008Y-136169D01*
G01X831008Y-139402D01*
G01X830921Y-141798D01*
G01X830661Y-142519D01*
G01X829738Y-142173D01*
G01X828930Y-141711D01*
G01X828006Y-141365D01*
G01X826967Y-141019D01*
G01X826043Y-140672D01*
G01X825120Y-140441D01*
G01X823041Y-139979D01*
G01X820270Y-139749D01*
G01X818539Y-139633D01*
G01X816807Y-139749D01*
G01X815999Y-139864D01*
G01X814729Y-139979D01*
G01X813574Y-140210D01*
G01X812535Y-140441D01*
G01X811150Y-140788D01*
G01X809995Y-141249D01*
G01X808956Y-141711D01*
G01X808032Y-142173D01*
G01X805954Y-143559D01*
G01X804800Y-144482D01*
G01X802837Y-146445D01*
G01X801913Y-147599D01*
G01X801220Y-148639D01*
G01X800759Y-149447D01*
G01X800066Y-150832D01*
G01X799604Y-151871D01*
G01X799142Y-153026D01*
G01X798450Y-155566D01*
G01X798219Y-156605D01*
G01X798103Y-157529D01*
G01X797988Y-161800D01*
G01X798103Y-166072D01*
G01X798219Y-167111D01*
G01X798450Y-168266D01*
G01X799142Y-170806D01*
G01X799604Y-171960D01*
G01X800066Y-172999D01*
G01X800990Y-174847D01*
G01X801451Y-175539D01*
G01X802837Y-177387D01*
G01X804569Y-179119D01*
G01X805146Y-179580D01*
G01X805954Y-180158D01*
G01X806878Y-180735D01*
G01X808494Y-181659D01*
G01X809533Y-182120D01*
G01X810572Y-182467D01*
G01X812189Y-182929D01*
G01X814960Y-183275D01*
G01X816114Y-183390D01*
G01X817038Y-183390D01*
G01X820501Y-183044D01*
G01X821887Y-182929D01*
G01X823041Y-182698D01*
G01X823965Y-182467D01*
G01X825120Y-182236D01*
G01X826390Y-181889D01*
G01X827429Y-181543D01*
G01X828352Y-181197D01*
G01X829045Y-180850D01*
G01X829622Y-180504D01*
G01X830430Y-180158D01*
G01X831008Y-180042D01*
G01X831008Y-182813D01*
G01X830777Y-185930D01*
G01X830200Y-186392D01*
G01X829507Y-186739D01*
G01X828699Y-187085D01*
G01X827775Y-187431D01*
G01X826736Y-187778D01*
G01X825350Y-188124D01*
G01X824196Y-188470D01*
G01X822349Y-188701D01*
G01X820270Y-188932D01*
G01X816460Y-189048D01*
G37*
G36*
G01X896701Y-189048D02*
G01X894277Y-188932D01*
G01X893007Y-188701D01*
G01X891621Y-188470D01*
G01X889543Y-187778D01*
G01X888620Y-187431D01*
G01X887580Y-186969D01*
G01X886541Y-186392D01*
G01X885387Y-185584D01*
G01X884463Y-184891D01*
G01X882731Y-183159D01*
G01X882039Y-182236D01*
G01X881346Y-181197D01*
G01X880884Y-180389D01*
G01X880422Y-179349D01*
G01X879960Y-178195D01*
G01X879614Y-176925D01*
G01X879383Y-175770D01*
G01X879268Y-173808D01*
G01X879383Y-171845D01*
G01X879429Y-171614D01*
G01X886080Y-171614D01*
G01X886080Y-172999D01*
G01X886195Y-174154D01*
G01X886310Y-175539D01*
G01X886541Y-176463D01*
G01X886888Y-177502D01*
G01X887465Y-178772D01*
G01X888620Y-180389D01*
G01X889312Y-181081D01*
G01X890467Y-182005D01*
G01X891275Y-182467D01*
G01X892430Y-182929D01*
G01X893469Y-183275D01*
G01X894854Y-183506D01*
G01X894854Y-183506D01*
G01X896124Y-183621D01*
G01X896701Y-183621D01*
G01X897971Y-183506D01*
G01X899241Y-183275D01*
G01X901320Y-182582D01*
G01X902128Y-182236D01*
G01X902820Y-181889D01*
G01X903629Y-181312D01*
G01X904668Y-180389D01*
G01X905360Y-179465D01*
G01X905822Y-178772D01*
G01X906284Y-177849D01*
G01X906746Y-176694D01*
G01X907092Y-175770D01*
G01X907208Y-173577D01*
G01X907092Y-170690D01*
G01X906746Y-169305D01*
G01X906400Y-168381D01*
G01X905938Y-167227D01*
G01X905360Y-166419D01*
G01X904899Y-165726D01*
G01X904090Y-164802D01*
G01X903167Y-164109D01*
G01X901320Y-162955D01*
G01X898895Y-162262D01*
G01X898087Y-162147D01*
G01X897048Y-162031D01*
G01X895547Y-162147D01*
G01X894161Y-162378D01*
G01X892891Y-162724D01*
G01X891737Y-163186D01*
G01X890929Y-163648D01*
G01X890005Y-164225D01*
G01X889081Y-164918D01*
G01X888504Y-165495D01*
G01X888042Y-166072D01*
G01X887580Y-166765D01*
G01X887119Y-167689D01*
G01X886657Y-168728D01*
G01X886310Y-169882D01*
G01X886080Y-171614D01*
G01X879429Y-171614D01*
G01X879614Y-170690D01*
G01X879960Y-169189D01*
G01X880422Y-168035D01*
G01X880884Y-166996D01*
G01X881461Y-165841D01*
G01X882270Y-164687D01*
G01X882847Y-163763D01*
G01X883540Y-162955D01*
G01X884463Y-162147D01*
G01X885156Y-161569D01*
G01X885733Y-161108D01*
G01X887119Y-160184D01*
G01X887927Y-159838D01*
G01X888620Y-159376D01*
G01X888620Y-159058D01*
G01X888389Y-158799D01*
G01X887811Y-158337D01*
G01X887119Y-157875D01*
G01X886426Y-157298D01*
G01X885618Y-156489D01*
G01X884810Y-155797D01*
G01X883886Y-154642D01*
G01X882962Y-153257D01*
G01X882616Y-152449D01*
G01X882270Y-151525D01*
G01X881923Y-150370D01*
G01X881692Y-149216D01*
G01X881577Y-148177D01*
G01X881615Y-147599D01*
G01X887811Y-147599D01*
G01X887927Y-148523D01*
G01X888158Y-149793D01*
G01X888504Y-151179D01*
G01X888966Y-152218D01*
G01X889428Y-153026D01*
G01X889890Y-153719D01*
G01X890698Y-154642D01*
G01X891621Y-155335D01*
G01X892314Y-155797D01*
G01X893007Y-156143D01*
G01X893815Y-156489D01*
G01X894739Y-156720D01*
G01X894739Y-156720D01*
G01X895316Y-156836D01*
G01X896470Y-156951D01*
G01X897856Y-156836D01*
G01X898895Y-156605D01*
G01X899934Y-156259D01*
G01X900858Y-155797D01*
G01X901666Y-155335D01*
G01X902243Y-154873D01*
G01X903398Y-153719D01*
G01X903975Y-153026D01*
G01X904552Y-152102D01*
G01X905014Y-150948D01*
G01X905245Y-149909D01*
G01X905360Y-148061D01*
G01X905130Y-145868D01*
G01X904783Y-144829D01*
G01X904437Y-143905D01*
G01X903975Y-143097D01*
G01X903398Y-142289D01*
G01X902705Y-141480D01*
G01X902128Y-141019D01*
G01X900742Y-140095D01*
G01X899934Y-139749D01*
G01X899010Y-139402D01*
G01X896932Y-139171D01*
G01X894854Y-139287D01*
G01X894046Y-139518D01*
G01X893122Y-139864D01*
G01X892199Y-140326D01*
G01X890813Y-141249D01*
G01X890120Y-141827D01*
G01X889428Y-142750D01*
G01X888735Y-143905D01*
G01X888389Y-144829D01*
G01X887927Y-146676D01*
G01X887811Y-147599D01*
G01X881615Y-147599D01*
G01X881692Y-146445D01*
G01X881923Y-144829D01*
G01X882154Y-143905D01*
G01X882500Y-142866D01*
G01X882962Y-141942D01*
G01X883424Y-141134D01*
G01X884001Y-140095D01*
G01X884579Y-139287D01*
G01X886310Y-137555D01*
G01X887465Y-136631D01*
G01X888389Y-136054D01*
G01X890467Y-135015D01*
G01X891621Y-134669D01*
G01X892891Y-134322D01*
G01X894046Y-134091D01*
G01X895778Y-133976D01*
G01X897163Y-133976D01*
G01X898780Y-134091D01*
G01X900396Y-134322D01*
G01X901550Y-134669D01*
G01X902936Y-135130D01*
G01X905014Y-136169D01*
G01X905707Y-136631D01*
G01X906284Y-137093D01*
G01X907092Y-137670D01*
G01X907785Y-138363D01*
G01X908247Y-138940D01*
G01X909055Y-139749D01*
G01X909748Y-140788D01*
G01X910210Y-141596D01*
G01X910671Y-142519D01*
G01X911018Y-143443D01*
G01X911480Y-145290D01*
G01X911595Y-147138D01*
G01X911480Y-148985D01*
G01X911364Y-149909D01*
G01X911133Y-150948D01*
G01X910671Y-152102D01*
G01X910094Y-153372D01*
G01X909517Y-154296D01*
G01X909055Y-154873D01*
G01X908593Y-155566D01*
G01X908016Y-156259D01*
G01X907554Y-156720D01*
G01X906977Y-157182D01*
G01X906284Y-157759D01*
G01X905476Y-158452D01*
G01X904783Y-159145D01*
G01X904812Y-159462D01*
G01X905130Y-159722D01*
G01X905938Y-160184D01*
G01X906861Y-160761D01*
G01X908478Y-161916D01*
G01X909286Y-162609D01*
G01X909863Y-163186D01*
G01X910556Y-163994D01*
G01X911133Y-164802D01*
G01X911595Y-165495D01*
G01X912172Y-166419D01*
G01X912750Y-167573D01*
G01X913211Y-168843D01*
G01X913558Y-169998D01*
G01X913789Y-171152D01*
G01X914020Y-172538D01*
G01X914020Y-173692D01*
G01X913789Y-175078D01*
G01X913558Y-176694D01*
G01X913327Y-177618D01*
G01X913096Y-178426D01*
G01X912750Y-179349D01*
G01X912288Y-180389D01*
G01X911826Y-181197D01*
G01X911480Y-181889D01*
G01X911018Y-182582D01*
G01X910210Y-183390D01*
G01X909517Y-184314D01*
G01X908940Y-184891D01*
G01X907785Y-185815D01*
G01X906977Y-186392D01*
G01X905938Y-186969D01*
G01X904899Y-187431D01*
G01X903744Y-187893D01*
G01X902705Y-188239D01*
G01X900858Y-188701D01*
G01X899241Y-188932D01*
G01X896701Y-189048D01*
G37*
G36*
G01X855715Y-188124D02*
G01X855715Y-165495D01*
G01X855484Y-142750D01*
G01X854791Y-142981D01*
G01X853983Y-143559D01*
G01X853290Y-144020D01*
G01X852367Y-144598D01*
G01X851328Y-145175D01*
G01X850520Y-145637D01*
G01X848672Y-146560D01*
G01X847056Y-147253D01*
G01X845209Y-147946D01*
G01X844054Y-148177D01*
G01X843246Y-148177D01*
G01X843246Y-145406D01*
G01X843333Y-143241D01*
G01X843592Y-142289D01*
G01X844516Y-141827D01*
G01X845555Y-141480D01*
G01X846710Y-141019D01*
G01X847980Y-140557D01*
G01X849827Y-139633D01*
G01X850866Y-139171D01*
G01X851674Y-138709D01*
G01X853752Y-137670D01*
G01X855600Y-136516D01*
G01X856639Y-135823D01*
G01X857447Y-135246D01*
G01X859179Y-133860D01*
G01X860102Y-133629D01*
G01X861372Y-133745D01*
G01X861950Y-133860D01*
G01X861950Y-160415D01*
G01X861834Y-187547D01*
G01X861719Y-188124D01*
G01X855715Y-188124D01*
G37*
G36*
G01X650188Y418674D02*
G01X650073Y414633D01*
G01X649842Y413709D01*
G01X649727Y412786D01*
G01X649496Y411747D01*
G01X649149Y410708D01*
G01X648803Y409553D01*
G01X648341Y408283D01*
G01X647879Y407244D01*
G01X647418Y406320D01*
G01X646840Y405281D01*
G01X646263Y404358D01*
G01X645801Y403665D01*
G01X644878Y402510D01*
G01X644185Y401702D01*
G01X643492Y400778D01*
G01X642338Y399855D01*
G01X640952Y398700D01*
G01X640144Y398008D01*
G01X639220Y397430D01*
G01X637604Y396507D01*
G01X635757Y395583D01*
G01X633909Y394890D01*
G01X632755Y394544D01*
G01X631369Y394198D01*
G01X629753Y393851D01*
G01X627675Y393620D01*
G01X626289Y393389D01*
G01X624096Y393274D01*
G01X621902Y393389D01*
G01X618208Y393851D01*
G01X617168Y393967D01*
G01X616014Y394198D01*
G01X613474Y394890D01*
G01X612435Y395237D01*
G01X610818Y395929D01*
G01X609779Y396391D01*
G01X608740Y396968D01*
G01X607817Y397430D01*
G01X606431Y398354D01*
G01X605738Y398700D01*
G01X605161Y399162D01*
G01X604353Y399970D01*
G01X603429Y400663D01*
G01X602275Y401818D01*
G01X601120Y403203D01*
G01X600543Y403780D01*
G01X600081Y404358D01*
G01X599504Y405166D01*
G01X598811Y406205D01*
G01X598234Y407244D01*
G01X597772Y408168D01*
G01X597426Y408976D01*
G01X597079Y409668D01*
G01X596733Y410477D01*
G01X596040Y412555D01*
G01X595809Y413478D01*
G01X595348Y415557D01*
G01X595117Y417635D01*
G01X595001Y419828D01*
G01X595117Y422022D01*
G01X595348Y425717D01*
G01X595578Y427333D01*
G01X595809Y428488D01*
G01X596156Y429988D01*
G01X596618Y431374D01*
G01X597079Y432644D01*
G01X597310Y433221D01*
G01X600543Y433221D01*
G01X602939Y433135D01*
G01X603660Y432875D01*
G01X603314Y431951D01*
G01X602852Y431143D01*
G01X602506Y430219D01*
G01X602159Y429180D01*
G01X601813Y428257D01*
G01X601582Y427333D01*
G01X601120Y425255D01*
G01X600889Y422484D01*
G01X600774Y420752D01*
G01X600889Y419020D01*
G01X601005Y418212D01*
G01X601120Y416942D01*
G01X601351Y415788D01*
G01X601582Y414748D01*
G01X601928Y413363D01*
G01X602390Y412208D01*
G01X602852Y411169D01*
G01X603314Y410246D01*
G01X604699Y408168D01*
G01X605623Y407013D01*
G01X607586Y405050D01*
G01X608740Y404127D01*
G01X609779Y403434D01*
G01X610588Y402972D01*
G01X611973Y402279D01*
G01X613012Y401818D01*
G01X614167Y401356D01*
G01X616707Y400663D01*
G01X617746Y400432D01*
G01X618669Y400317D01*
G01X622941Y400201D01*
G01X627213Y400317D01*
G01X628252Y400432D01*
G01X629407Y400663D01*
G01X631947Y401356D01*
G01X633101Y401818D01*
G01X634140Y402279D01*
G01X635988Y403203D01*
G01X636680Y403665D01*
G01X638528Y405050D01*
G01X640259Y406782D01*
G01X640721Y407359D01*
G01X641298Y408168D01*
G01X641876Y409091D01*
G01X642799Y410708D01*
G01X643261Y411747D01*
G01X643608Y412786D01*
G01X644069Y414402D01*
G01X644416Y417173D01*
G01X644531Y418328D01*
G01X644531Y419251D01*
G01X644185Y422715D01*
G01X644069Y424100D01*
G01X643838Y425255D01*
G01X643608Y426178D01*
G01X643377Y427333D01*
G01X643030Y428603D01*
G01X642684Y429642D01*
G01X642338Y430566D01*
G01X641991Y431258D01*
G01X641645Y431836D01*
G01X641298Y432644D01*
G01X641183Y433221D01*
G01X643954Y433221D01*
G01X647071Y432990D01*
G01X647533Y432413D01*
G01X647879Y431720D01*
G01X648226Y430912D01*
G01X648572Y429988D01*
G01X648918Y428949D01*
G01X649265Y427564D01*
G01X649611Y426409D01*
G01X649842Y424562D01*
G01X650073Y422484D01*
G01X650188Y418674D01*
G37*
G36*
G01X650419Y499608D02*
G01X650188Y497645D01*
G01X649727Y495105D01*
G01X648803Y492796D01*
G01X648341Y491988D01*
G01X647995Y491179D01*
G01X647533Y490487D01*
G01X646609Y489332D01*
G01X645224Y487947D01*
G01X644069Y487023D01*
G01X642338Y485868D01*
G01X640259Y484829D01*
G01X639451Y484483D01*
G01X636334Y483444D01*
G01X633217Y482751D01*
G01X632408Y482636D01*
G01X630908Y482520D01*
G01X629522Y482289D01*
G01X626405Y482174D01*
G01X622595Y482289D01*
G01X621209Y482520D01*
G01X618900Y482751D01*
G01X617861Y482867D01*
G01X616476Y483098D01*
G01X615206Y483444D01*
G01X614051Y483675D01*
G01X612666Y484021D01*
G01X611280Y484483D01*
G01X609433Y485176D01*
G01X608278Y485638D01*
G01X605508Y487023D01*
G01X604584Y487600D01*
G01X603545Y488293D01*
G01X602506Y489101D01*
G01X601582Y489794D01*
G01X599619Y491757D01*
G01X598696Y492911D01*
G01X597888Y494066D01*
G01X597310Y494989D01*
G01X596387Y497068D01*
G01X595694Y498915D01*
G01X595463Y499723D01*
G01X595348Y500531D01*
G01X595117Y503302D01*
G01X595001Y504110D01*
G01X595117Y504918D01*
G01X595232Y506188D01*
G01X595348Y508151D01*
G01X595578Y509537D01*
G01X595809Y510576D01*
G01X596156Y511730D01*
G01X596502Y512538D01*
G01X597310Y512798D01*
G01X599504Y512885D01*
G01X602390Y512885D01*
G01X602159Y512423D01*
G01X601236Y510114D01*
G01X600774Y508267D01*
G01X600543Y507112D01*
G01X600428Y506073D01*
G01X600312Y504226D01*
G01X600543Y501917D01*
G01X601005Y500300D01*
G01X601351Y499146D01*
G01X601698Y498222D01*
G01X602275Y497183D01*
G01X602737Y496375D01*
G01X603660Y495220D01*
G01X604353Y494412D01*
G01X606200Y493027D01*
G01X607932Y491872D01*
G01X608625Y491526D01*
G01X610241Y490833D01*
G01X611165Y490487D01*
G01X612435Y490025D01*
G01X613589Y489678D01*
G01X615437Y489217D01*
G01X617515Y488986D01*
G01X620748Y488755D01*
G01X621671Y488639D01*
G01X622046Y488726D01*
G01X622018Y488986D01*
G01X621440Y489563D01*
G01X620863Y490025D01*
G01X620170Y490487D01*
G01X619247Y491295D01*
G01X618554Y492218D01*
G01X618092Y492911D01*
G01X617515Y493835D01*
G01X616938Y494989D01*
G01X616591Y495913D01*
G01X616129Y497760D01*
G01X616014Y500185D01*
G01X616018Y500300D01*
G01X621209Y500300D01*
G01X621209Y499608D01*
G01X621325Y498453D01*
G01X621556Y497183D01*
G01X621902Y496028D01*
G01X622248Y495105D01*
G01X622710Y494297D01*
G01X623288Y493258D01*
G01X623865Y492449D01*
G01X625019Y491526D01*
G01X625597Y490948D01*
G01X626289Y490487D01*
G01X627213Y490025D01*
G01X628137Y489678D01*
G01X629753Y489217D01*
G01X631716Y489101D01*
G01X634140Y489217D01*
G01X635295Y489448D01*
G01X636334Y489678D01*
G01X637488Y490025D01*
G01X639567Y490948D01*
G01X640490Y491526D01*
G01X641529Y492334D01*
G01X642453Y493142D01*
G01X643030Y493835D01*
G01X643608Y494643D01*
G01X644069Y495451D01*
G01X644416Y496144D01*
G01X644647Y496952D01*
G01X644647Y496952D01*
G01X644762Y497529D01*
G01X644878Y499030D01*
G01X644762Y501455D01*
G01X644416Y502840D01*
G01X644069Y503764D01*
G01X643723Y504572D01*
G01X643261Y505380D01*
G01X642684Y506188D01*
G01X642107Y506766D01*
G01X640952Y507689D01*
G01X640144Y508267D01*
G01X639220Y508728D01*
G01X638412Y509075D01*
G01X637604Y509306D01*
G01X635757Y509768D01*
G01X633448Y509883D01*
G01X630908Y509768D01*
G01X629984Y509537D01*
G01X628829Y509306D01*
G01X627559Y508959D01*
G01X626520Y508498D01*
G01X625481Y507920D01*
G01X624673Y507343D01*
G01X623980Y506766D01*
G01X623288Y506073D01*
G01X622710Y505265D01*
G01X622248Y504457D01*
G01X621902Y503533D01*
G01X621556Y502494D01*
G01X621325Y501339D01*
G01X621209Y500300D01*
G01X616018Y500300D01*
G01X616129Y503302D01*
G01X616360Y504688D01*
G01X616591Y505611D01*
G01X616938Y506650D01*
G01X617284Y507458D01*
G01X617746Y508382D01*
G01X618323Y509306D01*
G01X618669Y509998D01*
G01X619131Y510576D01*
G01X620863Y512308D01*
G01X621671Y513000D01*
G01X622710Y513693D01*
G01X623749Y514270D01*
G01X624673Y514732D01*
G01X626520Y515425D01*
G01X627675Y515771D01*
G01X628829Y516002D01*
G01X630677Y516233D01*
G01X631947Y516348D01*
G01X633448Y516233D01*
G01X635064Y516002D01*
G01X636449Y515771D01*
G01X637258Y515656D01*
G01X638066Y515425D01*
G01X640144Y514732D01*
G01X641068Y514270D01*
G01X642107Y513693D01*
G01X643030Y513116D01*
G01X644416Y512192D01*
G01X645108Y511615D01*
G01X646263Y510460D01*
G01X646725Y509883D01*
G01X647879Y508267D01*
G01X648341Y507458D01*
G01X648803Y506535D01*
G01X649496Y504688D01*
G01X649842Y503648D01*
G01X650073Y502378D01*
G01X650304Y501455D01*
G01X650419Y499608D01*
G37*
G36*
G01X649265Y457928D02*
G01X626636Y457928D01*
G01X603891Y457698D01*
G01X604122Y457005D01*
G01X604699Y456197D01*
G01X605161Y455504D01*
G01X605738Y454580D01*
G01X606316Y453541D01*
G01X606778Y452733D01*
G01X607701Y450886D01*
G01X608394Y449269D01*
G01X609087Y447422D01*
G01X609318Y446268D01*
G01X609318Y445459D01*
G01X606547Y445459D01*
G01X604382Y445546D01*
G01X603429Y445806D01*
G01X602968Y446729D01*
G01X602621Y447768D01*
G01X602159Y448923D01*
G01X601698Y450193D01*
G01X600774Y452040D01*
G01X600312Y453079D01*
G01X599850Y453888D01*
G01X598811Y455966D01*
G01X597657Y457813D01*
G01X596964Y458852D01*
G01X596387Y459660D01*
G01X595001Y461392D01*
G01X594770Y462316D01*
G01X594886Y463586D01*
G01X595001Y464163D01*
G01X621556Y464163D01*
G01X648688Y464048D01*
G01X649265Y463932D01*
G01X649265Y457928D01*
G37*
G36*
G01X-454814Y-354599D02*
G01X-454910Y-357967D01*
G01X-455102Y-358736D01*
G01X-455199Y-359506D01*
G01X-455391Y-360372D01*
G01X-455680Y-361238D01*
G01X-455969Y-362200D01*
G01X-456353Y-363259D01*
G01X-456738Y-364124D01*
G01X-457123Y-364894D01*
G01X-457604Y-365760D01*
G01X-458085Y-366530D01*
G01X-458470Y-367107D01*
G01X-459240Y-368069D01*
G01X-459817Y-368742D01*
G01X-460394Y-369512D01*
G01X-461356Y-370282D01*
G01X-462511Y-371244D01*
G01X-463184Y-371821D01*
G01X-463954Y-372303D01*
G01X-465301Y-373072D01*
G01X-466841Y-373842D01*
G01X-468380Y-374419D01*
G01X-469342Y-374708D01*
G01X-470496Y-374996D01*
G01X-471844Y-375285D01*
G01X-473575Y-375478D01*
G01X-474730Y-375670D01*
G01X-476558Y-375766D01*
G01X-478386Y-375670D01*
G01X-481465Y-375285D01*
G01X-482331Y-375189D01*
G01X-483293Y-374996D01*
G01X-485409Y-374419D01*
G01X-486275Y-374131D01*
G01X-487622Y-373553D01*
G01X-488488Y-373168D01*
G01X-489354Y-372687D01*
G01X-490124Y-372303D01*
G01X-491278Y-371533D01*
G01X-491856Y-371244D01*
G01X-492337Y-370859D01*
G01X-493010Y-370186D01*
G01X-493780Y-369609D01*
G01X-494742Y-368646D01*
G01X-495704Y-367492D01*
G01X-496185Y-367011D01*
G01X-496570Y-366530D01*
G01X-497051Y-365856D01*
G01X-497628Y-364990D01*
G01X-498109Y-364124D01*
G01X-498494Y-363355D01*
G01X-498783Y-362681D01*
G01X-499071Y-362104D01*
G01X-499360Y-361431D01*
G01X-499938Y-359699D01*
G01X-500130Y-358929D01*
G01X-500515Y-357197D01*
G01X-500707Y-355465D01*
G01X-500803Y-353637D01*
G01X-500707Y-351809D01*
G01X-500515Y-348731D01*
G01X-500322Y-347384D01*
G01X-500130Y-346421D01*
G01X-499841Y-345171D01*
G01X-499456Y-344016D01*
G01X-499071Y-342958D01*
G01X-498879Y-342477D01*
G01X-496185Y-342477D01*
G01X-494189Y-342549D01*
G01X-493588Y-342765D01*
G01X-493876Y-343535D01*
G01X-494261Y-344209D01*
G01X-494549Y-344978D01*
G01X-494838Y-345844D01*
G01X-495127Y-346614D01*
G01X-495319Y-347384D01*
G01X-495704Y-349115D01*
G01X-495896Y-351424D01*
G01X-495993Y-352867D01*
G01X-495896Y-354311D01*
G01X-495800Y-354984D01*
G01X-495704Y-356042D01*
G01X-495512Y-357005D01*
G01X-495319Y-357871D01*
G01X-495031Y-359025D01*
G01X-494646Y-359987D01*
G01X-494261Y-360853D01*
G01X-493876Y-361623D01*
G01X-492721Y-363355D01*
G01X-491952Y-364317D01*
G01X-490316Y-365953D01*
G01X-489354Y-366722D01*
G01X-488488Y-367299D01*
G01X-487815Y-367684D01*
G01X-486660Y-368261D01*
G01X-485794Y-368646D01*
G01X-484832Y-369031D01*
G01X-482716Y-369609D01*
G01X-481849Y-369801D01*
G01X-481080Y-369897D01*
G01X-477520Y-369993D01*
G01X-473960Y-369897D01*
G01X-473094Y-369801D01*
G01X-472132Y-369609D01*
G01X-470016Y-369031D01*
G01X-469053Y-368646D01*
G01X-468188Y-368261D01*
G01X-466648Y-367492D01*
G01X-466071Y-367107D01*
G01X-464531Y-365953D01*
G01X-463088Y-364509D01*
G01X-462703Y-364028D01*
G01X-462222Y-363355D01*
G01X-461741Y-362585D01*
G01X-460971Y-361238D01*
G01X-460587Y-360372D01*
G01X-460298Y-359506D01*
G01X-459913Y-358159D01*
G01X-459624Y-355850D01*
G01X-459528Y-354888D01*
G01X-459528Y-354118D01*
G01X-459817Y-351232D01*
G01X-459913Y-350078D01*
G01X-460106Y-349115D01*
G01X-460298Y-348346D01*
G01X-460491Y-347384D01*
G01X-460779Y-346325D01*
G01X-461068Y-345459D01*
G01X-461356Y-344689D01*
G01X-461645Y-344112D01*
G01X-461934Y-343631D01*
G01X-462222Y-342958D01*
G01X-462319Y-342477D01*
G01X-460009Y-342477D01*
G01X-457412Y-342669D01*
G01X-457027Y-343150D01*
G01X-456738Y-343728D01*
G01X-456449Y-344401D01*
G01X-456161Y-345171D01*
G01X-455872Y-346036D01*
G01X-455584Y-347191D01*
G01X-455295Y-348153D01*
G01X-455102Y-349692D01*
G01X-454910Y-351424D01*
G01X-454814Y-354599D01*
G37*
G36*
G01X-454814Y-321984D02*
G01X-454910Y-324196D01*
G01X-455102Y-324870D01*
G01X-455295Y-326217D01*
G01X-455488Y-326890D01*
G01X-455776Y-327660D01*
G01X-456546Y-329584D01*
G01X-457027Y-330450D01*
G01X-457989Y-331797D01*
G01X-458566Y-332471D01*
G01X-459721Y-333625D01*
G01X-460491Y-334203D01*
G01X-460971Y-334587D01*
G01X-461645Y-334972D01*
G01X-462415Y-335357D01*
G01X-463954Y-335934D01*
G01X-465109Y-336223D01*
G01X-466263Y-336415D01*
G01X-467418Y-336511D01*
G01X-468765Y-336415D01*
G01X-469919Y-336223D01*
G01X-470881Y-336031D01*
G01X-471747Y-335742D01*
G01X-472806Y-335357D01*
G01X-473768Y-334876D01*
G01X-474538Y-334395D01*
G01X-475115Y-334010D01*
G01X-475596Y-333625D01*
G01X-476173Y-333240D01*
G01X-476654Y-332759D01*
G01X-477039Y-332278D01*
G01X-477713Y-331605D01*
G01X-478386Y-330642D01*
G01X-478867Y-329873D01*
G01X-479156Y-329199D01*
G01X-479541Y-328718D01*
G01X-479805Y-328718D01*
G01X-480021Y-328911D01*
G01X-481176Y-330450D01*
G01X-482812Y-332086D01*
G01X-483581Y-332663D01*
G01X-484255Y-333144D01*
G01X-485121Y-333625D01*
G01X-486083Y-334010D01*
G01X-486852Y-334299D01*
G01X-488392Y-334491D01*
G01X-489258Y-334587D01*
G01X-490124Y-334491D01*
G01X-490797Y-334395D01*
G01X-491663Y-334299D01*
G01X-492433Y-334106D01*
G01X-493106Y-333914D01*
G01X-493972Y-333529D01*
G01X-494934Y-332952D01*
G01X-496281Y-331989D01*
G01X-496955Y-331412D01*
G01X-497436Y-330931D01*
G01X-498206Y-329969D01*
G01X-498687Y-329392D01*
G01X-499071Y-328718D01*
G01X-499841Y-327179D01*
G01X-500130Y-326217D01*
G01X-500419Y-325159D01*
G01X-500611Y-324196D01*
G01X-500707Y-322753D01*
G01X-500707Y-321791D01*
G01X-496377Y-321791D01*
G01X-496281Y-323523D01*
G01X-496089Y-324196D01*
G01X-495800Y-324870D01*
G01X-495416Y-325639D01*
G01X-495031Y-326313D01*
G01X-494646Y-326794D01*
G01X-494069Y-327467D01*
G01X-493395Y-328045D01*
G01X-492721Y-328430D01*
G01X-492048Y-328718D01*
G01X-491086Y-329007D01*
G01X-489931Y-329296D01*
G01X-488777Y-329296D01*
G01X-487815Y-329103D01*
G01X-487141Y-329007D01*
G01X-486371Y-328814D01*
G01X-485506Y-328430D01*
G01X-484832Y-328045D01*
G01X-484255Y-327660D01*
G01X-483485Y-326986D01*
G01X-482908Y-326217D01*
G01X-482523Y-325639D01*
G01X-482234Y-325062D01*
G01X-481946Y-324389D01*
G01X-481753Y-323619D01*
G01X-481753Y-323619D01*
G01X-481657Y-323138D01*
G01X-481561Y-322272D01*
G01X-481613Y-321599D01*
G01X-477327Y-321599D01*
G01X-477231Y-322946D01*
G01X-477039Y-324100D01*
G01X-476846Y-324870D01*
G01X-476558Y-325736D01*
G01X-476173Y-326506D01*
G01X-475596Y-327371D01*
G01X-475019Y-328141D01*
G01X-474345Y-328814D01*
G01X-473383Y-329488D01*
G01X-472613Y-329969D01*
G01X-471747Y-330354D01*
G01X-470881Y-330642D01*
G01X-470208Y-330739D01*
G01X-469149Y-330835D01*
G01X-468188Y-330835D01*
G01X-467321Y-330739D01*
G01X-466263Y-330642D01*
G01X-464724Y-330258D01*
G01X-463954Y-329969D01*
G01X-463281Y-329584D01*
G01X-462703Y-329199D01*
G01X-462030Y-328718D01*
G01X-461452Y-328141D01*
G01X-460683Y-327179D01*
G01X-460298Y-326506D01*
G01X-459913Y-325543D01*
G01X-459624Y-324678D01*
G01X-459432Y-323523D01*
G01X-459432Y-323523D01*
G01X-459336Y-322464D01*
G01X-459336Y-321984D01*
G01X-459432Y-320925D01*
G01X-459624Y-319867D01*
G01X-460202Y-317942D01*
G01X-460491Y-317365D01*
G01X-460971Y-316596D01*
G01X-461549Y-315826D01*
G01X-462030Y-315345D01*
G01X-462511Y-314960D01*
G01X-463184Y-314479D01*
G01X-464050Y-313998D01*
G01X-465013Y-313613D01*
G01X-465878Y-313324D01*
G01X-467706Y-313228D01*
G01X-470112Y-313324D01*
G01X-471363Y-313613D01*
G01X-472324Y-313998D01*
G01X-473287Y-314479D01*
G01X-473960Y-314864D01*
G01X-474441Y-315249D01*
G01X-474922Y-315730D01*
G01X-475692Y-316692D01*
G01X-476173Y-317365D01*
G01X-476558Y-318135D01*
G01X-477135Y-320156D01*
G01X-477231Y-320829D01*
G01X-477327Y-321599D01*
G01X-481613Y-321599D01*
G01X-481657Y-321021D01*
G01X-481946Y-319867D01*
G01X-482331Y-318809D01*
G01X-482716Y-318135D01*
G01X-483293Y-317365D01*
G01X-483966Y-316596D01*
G01X-484544Y-316114D01*
G01X-485121Y-315730D01*
G01X-485794Y-315345D01*
G01X-486468Y-315056D01*
G01X-487334Y-314864D01*
G01X-488392Y-314671D01*
G01X-489162Y-314671D01*
G01X-489931Y-314767D01*
G01X-490894Y-314960D01*
G01X-492433Y-315537D01*
G01X-493106Y-315922D01*
G01X-493780Y-316403D01*
G01X-494453Y-316981D01*
G01X-494838Y-317461D01*
G01X-495608Y-318616D01*
G01X-495896Y-319289D01*
G01X-496185Y-320059D01*
G01X-496377Y-321791D01*
G01X-500707Y-321791D01*
G01X-500707Y-321599D01*
G01X-500611Y-320252D01*
G01X-500419Y-318905D01*
G01X-500130Y-317942D01*
G01X-499745Y-316788D01*
G01X-498879Y-315056D01*
G01X-498494Y-314479D01*
G01X-498109Y-313998D01*
G01X-497628Y-313324D01*
G01X-497051Y-312747D01*
G01X-496570Y-312362D01*
G01X-495896Y-311689D01*
G01X-495031Y-311111D01*
G01X-494357Y-310727D01*
G01X-493780Y-310438D01*
G01X-493106Y-310149D01*
G01X-492144Y-309861D01*
G01X-491278Y-309668D01*
G01X-489931Y-309476D01*
G01X-489258Y-309476D01*
G01X-488007Y-309668D01*
G01X-486852Y-309861D01*
G01X-486083Y-310149D01*
G01X-485121Y-310534D01*
G01X-484351Y-310919D01*
G01X-483774Y-311304D01*
G01X-483293Y-311689D01*
G01X-482812Y-311978D01*
G01X-482331Y-312362D01*
G01X-481849Y-312843D01*
G01X-480888Y-313998D01*
G01X-480310Y-314671D01*
G01X-479733Y-315249D01*
G01X-479468Y-315225D01*
G01X-479252Y-314960D01*
G01X-478771Y-314094D01*
G01X-477616Y-312362D01*
G01X-477039Y-311689D01*
G01X-476077Y-310727D01*
G01X-475115Y-309957D01*
G01X-473575Y-308995D01*
G01X-472228Y-308417D01*
G01X-471459Y-308129D01*
G01X-470689Y-307936D01*
G01X-469823Y-307744D01*
G01X-468572Y-307552D01*
G01X-467610Y-307552D01*
G01X-466263Y-307744D01*
G01X-465109Y-307936D01*
G01X-463762Y-308225D01*
G01X-462030Y-308995D01*
G01X-461356Y-309380D01*
G01X-460779Y-309668D01*
G01X-460202Y-310053D01*
G01X-459240Y-310823D01*
G01X-458277Y-311785D01*
G01X-457508Y-312747D01*
G01X-457027Y-313421D01*
G01X-456546Y-314286D01*
G01X-456161Y-315153D01*
G01X-455776Y-316114D01*
G01X-455488Y-316981D01*
G01X-455102Y-318520D01*
G01X-454910Y-319867D01*
G01X-454814Y-321984D01*
G37*
G36*
G01X376671Y-42256D02*
G01X373976Y-42064D01*
G01X373880Y-20513D01*
G01X373925Y-10314D01*
G01X379268Y-10314D01*
G01X379364Y-18299D01*
G01X379364Y-18299D01*
G01X379557Y-18684D01*
G01X382443Y-18781D01*
G01X386099Y-18684D01*
G01X387254Y-18492D01*
G01X389274Y-18203D01*
G01X389948Y-18011D01*
G01X390814Y-17626D01*
G01X391583Y-17241D01*
G01X392161Y-16856D01*
G01X392738Y-16375D01*
G01X393219Y-15894D01*
G01X393796Y-15221D01*
G01X394277Y-14451D01*
G01X394662Y-13777D01*
G01X394951Y-13104D01*
G01X395143Y-11757D01*
G01X395239Y-10218D01*
G01X395047Y-8294D01*
G01X394758Y-7331D01*
G01X394470Y-6562D01*
G01X394085Y-5888D01*
G01X393604Y-5215D01*
G01X393026Y-4541D01*
G01X392449Y-4156D01*
G01X391776Y-3771D01*
G01X391006Y-3387D01*
G01X390236Y-3098D01*
G01X389563Y-2906D01*
G01X387639Y-2713D01*
G01X383309Y-2617D01*
G01X379268Y-2617D01*
G01X379268Y-10314D01*
G01X373925Y-10314D01*
G01X373976Y1520D01*
G01X374073Y2194D01*
G01X381000Y2194D01*
G01X388793Y2098D01*
G01X389948Y1905D01*
G01X390910Y1712D01*
G01X392064Y1520D01*
G01X393026Y1231D01*
G01X394566Y654D01*
G01X395528Y173D01*
G01X396490Y-500D01*
G01X397260Y-1077D01*
G01X398222Y-2040D01*
G01X398703Y-2617D01*
G01X399088Y-3194D01*
G01X399857Y-4541D01*
G01X400146Y-5311D01*
G01X400435Y-6177D01*
G01X400627Y-6850D01*
G01X400724Y-7524D01*
G01X400820Y-8967D01*
G01X400724Y-10988D01*
G01X400531Y-12334D01*
G01X400243Y-13489D01*
G01X399857Y-14451D01*
G01X399569Y-15124D01*
G01X399280Y-15702D01*
G01X398318Y-17145D01*
G01X397741Y-17819D01*
G01X396971Y-18588D01*
G01X396490Y-18973D01*
G01X395721Y-19550D01*
G01X394854Y-20127D01*
G01X394181Y-20513D01*
G01X393507Y-20801D01*
G01X391968Y-21378D01*
G01X391391Y-21667D01*
G01X391487Y-22052D01*
G01X392257Y-22533D01*
G01X392930Y-23014D01*
G01X393411Y-23399D01*
G01X394854Y-24842D01*
G01X395239Y-25323D01*
G01X396009Y-26477D01*
G01X396490Y-27151D01*
G01X397068Y-28113D01*
G01X397645Y-28979D01*
G01X398126Y-29749D01*
G01X398511Y-30326D01*
G01X399280Y-31673D01*
G01X399761Y-32346D01*
G01X400916Y-34271D01*
G01X401397Y-35041D01*
G01X401782Y-35618D01*
G01X402744Y-37157D01*
G01X403129Y-37831D01*
G01X403610Y-38600D01*
G01X404187Y-39466D01*
G01X404764Y-40428D01*
G01X405246Y-41198D01*
G01X405630Y-41871D01*
G01X405823Y-42256D01*
G01X402744Y-42256D01*
G01X400387Y-42184D01*
G01X399473Y-41968D01*
G01X398992Y-41198D01*
G01X397837Y-39274D01*
G01X397356Y-38504D01*
G01X396971Y-37831D01*
G01X396490Y-36965D01*
G01X395336Y-35041D01*
G01X394854Y-34271D01*
G01X394470Y-33597D01*
G01X393989Y-32731D01*
G01X392257Y-29845D01*
G01X391102Y-28113D01*
G01X390140Y-26766D01*
G01X389563Y-26093D01*
G01X388601Y-25131D01*
G01X387927Y-24649D01*
G01X387061Y-24169D01*
G01X386099Y-23784D01*
G01X385329Y-23495D01*
G01X382154Y-23399D01*
G01X379268Y-23399D01*
G01X379268Y-42256D01*
G01X376671Y-42256D01*
G37*
G36*
G01X420254Y-42256D02*
G01X420254Y-22918D01*
G01X420158Y-3098D01*
G01X420062Y-2617D01*
G01X414193Y-2617D01*
G01X407843Y-2521D01*
G01X407362Y-2424D01*
G01X407362Y-596D01*
G01X407458Y1712D01*
G01X407554Y2194D01*
G01X422468Y2194D01*
G01X437861Y2098D01*
G01X438343Y2001D01*
G01X438343Y173D01*
G01X438246Y-2136D01*
G01X438150Y-2617D01*
G01X432281Y-2617D01*
G01X425931Y-2713D01*
G01X425450Y-2809D01*
G01X425450Y-42256D01*
G01X420254Y-42256D01*
G37*
G36*
G01X456815Y-42256D02*
G01X456815Y-23399D01*
G01X456623Y-4445D01*
G01X456046Y-4638D01*
G01X455372Y-5119D01*
G01X454795Y-5503D01*
G01X454025Y-5984D01*
G01X453159Y-6466D01*
G01X452486Y-6850D01*
G01X450946Y-7620D01*
G01X449599Y-8197D01*
G01X448060Y-8774D01*
G01X447098Y-8967D01*
G01X446424Y-8967D01*
G01X446424Y-6658D01*
G01X446496Y-4854D01*
G01X446713Y-4060D01*
G01X447482Y-3675D01*
G01X448349Y-3387D01*
G01X449311Y-3002D01*
G01X450369Y-2617D01*
G01X451908Y-1847D01*
G01X452774Y-1463D01*
G01X453448Y-1077D01*
G01X454987Y-308D01*
G01X455757Y173D01*
G01X456719Y751D01*
G01X457585Y1328D01*
G01X458258Y1809D01*
G01X459701Y2963D01*
G01X460664Y3156D01*
G01X461722Y2963D01*
G01X461938Y-2689D01*
G01X462011Y-19262D01*
G01X461914Y-41775D01*
G01X461818Y-42256D01*
G01X456815Y-42256D01*
G37*
G36*
G01X-804155Y144316D02*
G01X-802711Y144220D01*
G01X-801268Y144316D01*
G01X-800114Y144508D01*
G01X-798382Y144701D01*
G01X-797035Y144990D01*
G01X-795977Y145278D01*
G01X-795207Y145567D01*
G01X-793860Y146144D01*
G01X-792513Y146914D01*
G01X-792032Y147299D01*
G01X-791262Y147876D01*
G01X-790108Y149030D01*
G01X-789627Y149608D01*
G01X-789242Y150185D01*
G01X-788857Y150666D01*
G01X-788472Y151243D01*
G01X-787702Y152783D01*
G01X-787317Y153649D01*
G01X-786933Y154707D01*
G01X-786644Y155862D01*
G01X-786355Y156920D01*
G01X-786163Y157978D01*
G01X-786067Y158940D01*
G01X-785874Y161057D01*
G01X-785778Y175393D01*
G01X-785778Y189440D01*
G01X-786259Y189536D01*
G01X-788857Y189632D01*
G01X-790974Y189632D01*
G01X-790974Y175489D01*
G01X-791070Y161057D01*
G01X-791166Y159710D01*
G01X-791358Y158267D01*
G01X-791551Y157401D01*
G01X-791647Y156631D01*
G01X-791936Y155862D01*
G01X-792320Y154803D01*
G01X-792705Y154033D01*
G01X-792994Y153552D01*
G01X-793379Y152879D01*
G01X-793956Y152205D01*
G01X-794437Y151724D01*
G01X-794918Y151340D01*
G01X-795592Y150858D01*
G01X-796458Y150377D01*
G01X-797227Y149993D01*
G01X-798189Y149704D01*
G01X-799248Y149415D01*
G01X-800210Y149223D01*
G01X-801076Y149127D01*
G01X-802519Y149030D01*
G01X-803962Y149127D01*
G01X-804732Y149223D01*
G01X-805598Y149415D01*
G01X-806367Y149608D01*
G01X-807233Y149896D01*
G01X-808195Y150377D01*
G01X-809061Y150858D01*
G01X-809735Y151340D01*
G01X-810697Y152302D01*
G01X-811082Y152783D01*
G01X-811467Y153456D01*
G01X-811948Y154322D01*
G01X-812333Y155092D01*
G01X-812621Y155862D01*
G01X-812910Y156824D01*
G01X-813199Y157978D01*
G01X-813391Y159518D01*
G01X-813487Y174719D01*
G01X-813680Y189343D01*
G01X-814425Y189560D01*
G01X-816277Y189632D01*
G01X-818683Y189632D01*
G01X-818779Y189151D01*
G01X-818875Y173757D01*
G01X-818779Y158555D01*
G01X-818394Y156439D01*
G01X-818202Y155477D01*
G01X-817913Y154515D01*
G01X-817336Y152975D01*
G01X-816758Y151628D01*
G01X-816374Y150955D01*
G01X-815796Y150089D01*
G01X-815219Y149319D01*
G01X-813776Y147876D01*
G01X-812429Y146914D01*
G01X-811852Y146529D01*
G01X-810120Y145663D01*
G01X-808965Y145278D01*
G01X-808003Y144990D01*
G01X-807233Y144797D01*
G01X-806464Y144701D01*
G01X-804732Y144508D01*
G01X-804155Y144316D01*
G37*
G36*
G01X-763264Y164136D02*
G01X-763264Y145182D01*
G01X-758069Y145182D01*
G01X-758069Y190402D01*
G01X-758550Y190498D01*
G01X-759608Y190594D01*
G01X-760089Y190522D01*
G01X-760378Y190305D01*
G01X-761821Y189151D01*
G01X-762302Y188862D01*
G01X-762976Y188381D01*
G01X-764900Y187227D01*
G01X-765766Y186746D01*
G01X-766439Y186361D01*
G01X-767979Y185591D01*
G01X-769711Y184821D01*
G01X-772789Y183667D01*
G01X-773270Y183378D01*
G01X-773463Y180780D01*
G01X-773463Y178279D01*
G01X-772886Y178375D01*
G01X-770288Y179241D01*
G01X-766439Y181165D01*
G01X-765766Y181550D01*
G01X-764900Y182127D01*
G01X-764130Y182705D01*
G01X-763553Y182993D01*
G01X-763337Y178327D01*
G01X-763264Y164136D01*
G37*
G36*
G01X-827880Y-54281D02*
G01X-828169Y-54762D01*
G01X-821819Y-54762D01*
G01X-821530Y-54281D01*
G01X-820568Y-52741D01*
G01X-819991Y-51779D01*
G01X-819414Y-50913D01*
G01X-818933Y-50047D01*
G01X-818548Y-49374D01*
G01X-818067Y-48700D01*
G01X-817489Y-47738D01*
G01X-816912Y-46872D01*
G01X-816431Y-46103D01*
G01X-815661Y-44756D01*
G01X-814892Y-43601D01*
G01X-814507Y-42928D01*
G01X-814026Y-42158D01*
G01X-813448Y-41196D01*
G01X-812871Y-40330D01*
G01X-812390Y-39560D01*
G01X-812005Y-38887D01*
G01X-811524Y-38117D01*
G01X-810658Y-36385D01*
G01X-810273Y-36000D01*
G01X-810081Y-36048D01*
G01X-809889Y-36385D01*
G01X-809504Y-37155D01*
G01X-809119Y-37828D01*
G01X-808638Y-38598D01*
G01X-808157Y-39464D01*
G01X-807772Y-40137D01*
G01X-807387Y-40715D01*
G01X-807002Y-41388D01*
G01X-806521Y-42158D01*
G01X-805944Y-43120D01*
G01X-805463Y-43890D01*
G01X-805078Y-44563D01*
G01X-804116Y-46103D01*
G01X-803346Y-47449D01*
G01X-802865Y-48219D01*
G01X-802384Y-49085D01*
G01X-801999Y-49759D01*
G01X-801614Y-50336D01*
G01X-801230Y-51009D01*
G01X-800748Y-51779D01*
G01X-800171Y-52741D01*
G01X-799690Y-53511D01*
G01X-799305Y-54184D01*
G01X-799041Y-54497D01*
G01X-798632Y-54665D01*
G01X-795361Y-54762D01*
G01X-792570Y-54762D01*
G01X-792763Y-54377D01*
G01X-793244Y-53607D01*
G01X-793821Y-52741D01*
G01X-794398Y-51779D01*
G01X-796323Y-48700D01*
G01X-796900Y-47834D01*
G01X-798824Y-44756D01*
G01X-799401Y-43890D01*
G01X-799979Y-42928D01*
G01X-800556Y-42062D01*
G01X-801037Y-41292D01*
G01X-801422Y-40618D01*
G01X-802192Y-39464D01*
G01X-802673Y-38694D01*
G01X-803250Y-37732D01*
G01X-803827Y-36866D01*
G01X-804308Y-36096D01*
G01X-804693Y-35423D01*
G01X-805463Y-34268D01*
G01X-805944Y-33499D01*
G01X-806425Y-32633D01*
G01X-806425Y-31959D01*
G01X-805944Y-31190D01*
G01X-805367Y-30324D01*
G01X-804405Y-28784D01*
G01X-803827Y-27918D01*
G01X-803250Y-26956D01*
G01X-802673Y-26090D01*
G01X-802192Y-25321D01*
G01X-801807Y-24647D01*
G01X-801037Y-23493D01*
G01X-800075Y-21953D01*
G01X-799690Y-21376D01*
G01X-798247Y-19067D01*
G01X-797670Y-18201D01*
G01X-796708Y-16662D01*
G01X-796130Y-15796D01*
G01X-795553Y-14834D01*
G01X-794976Y-13968D01*
G01X-794495Y-13198D01*
G01X-794110Y-12524D01*
G01X-792955Y-10793D01*
G01X-792931Y-10552D01*
G01X-793244Y-10408D01*
G01X-796226Y-10312D01*
G01X-798127Y-10384D01*
G01X-798824Y-10600D01*
G01X-799209Y-11274D01*
G01X-800652Y-13583D01*
G01X-801037Y-14256D01*
G01X-801518Y-15026D01*
G01X-802673Y-16950D01*
G01X-803635Y-18490D01*
G01X-805944Y-22338D01*
G01X-806521Y-23204D01*
G01X-807002Y-23974D01*
G01X-808157Y-25994D01*
G01X-808638Y-26764D01*
G01X-809119Y-27630D01*
G01X-809504Y-28399D01*
G01X-809720Y-28664D01*
G01X-809985Y-28688D01*
G01X-810370Y-28207D01*
G01X-810658Y-27534D01*
G01X-811139Y-26764D01*
G01X-811717Y-25802D01*
G01X-812679Y-24070D01*
G01X-813256Y-23108D01*
G01X-813737Y-22146D01*
G01X-814122Y-21472D01*
G01X-814507Y-20895D01*
G01X-815661Y-18874D01*
G01X-816142Y-18105D01*
G01X-816720Y-17143D01*
G01X-817201Y-16277D01*
G01X-817970Y-14930D01*
G01X-818451Y-14160D01*
G01X-818933Y-13294D01*
G01X-820087Y-11274D01*
G01X-820472Y-10696D01*
G01X-821386Y-10408D01*
G01X-823743Y-10312D01*
G01X-826052Y-10384D01*
G01X-826822Y-10600D01*
G01X-826533Y-11274D01*
G01X-826052Y-12043D01*
G01X-825667Y-12717D01*
G01X-824898Y-13871D01*
G01X-824417Y-14641D01*
G01X-823262Y-16565D01*
G01X-822781Y-17335D01*
G01X-822396Y-17912D01*
G01X-821915Y-18682D01*
G01X-821338Y-19644D01*
G01X-820857Y-20414D01*
G01X-820472Y-20991D01*
G01X-820087Y-21665D01*
G01X-817682Y-25513D01*
G01X-817201Y-26379D01*
G01X-816816Y-27053D01*
G01X-816431Y-27534D01*
G01X-816046Y-28111D01*
G01X-815276Y-29458D01*
G01X-814795Y-30228D01*
G01X-814218Y-31093D01*
G01X-813737Y-31863D01*
G01X-813448Y-32440D01*
G01X-813545Y-32825D01*
G01X-814026Y-33499D01*
G01X-815180Y-35231D01*
G01X-815661Y-36000D01*
G01X-816142Y-36674D01*
G01X-816623Y-37443D01*
G01X-817008Y-38021D01*
G01X-817489Y-38694D01*
G01X-817970Y-39464D01*
G01X-818451Y-40137D01*
G01X-819029Y-41003D01*
G01X-819510Y-41773D01*
G01X-819991Y-42446D01*
G01X-820472Y-43216D01*
G01X-820857Y-43793D01*
G01X-821338Y-44467D01*
G01X-821819Y-45237D01*
G01X-822204Y-45814D01*
G01X-822685Y-46584D01*
G01X-824032Y-48508D01*
G01X-824513Y-49278D01*
G01X-824994Y-49951D01*
G01X-825956Y-51490D01*
G01X-826533Y-52356D01*
G01X-827880Y-54281D01*
G37*
G36*
G01X-774290Y-35808D02*
G01X-774290Y-54762D01*
G01X-769095Y-54762D01*
G01X-769095Y-9542D01*
G01X-769576Y-9446D01*
G01X-770634Y-9349D01*
G01X-771115Y-9422D01*
G01X-771404Y-9638D01*
G01X-772847Y-10793D01*
G01X-773617Y-11274D01*
G01X-774483Y-11851D01*
G01X-775156Y-12236D01*
G01X-775926Y-12717D01*
G01X-776792Y-13198D01*
G01X-777465Y-13583D01*
G01X-779005Y-14353D01*
G01X-780736Y-15122D01*
G01X-783815Y-16277D01*
G01X-784296Y-16565D01*
G01X-784489Y-19163D01*
G01X-784489Y-21665D01*
G01X-783911Y-21568D01*
G01X-781314Y-20703D01*
G01X-777850Y-18971D01*
G01X-776984Y-18490D01*
G01X-776214Y-18009D01*
G01X-775637Y-17624D01*
G01X-775156Y-17239D01*
G01X-774579Y-16950D01*
G01X-774362Y-21616D01*
G01X-774290Y-35808D01*
G37*
G36*
G01X-452461Y86028D02*
G01X-449921Y85912D01*
G01X-447612Y86028D01*
G01X-446689Y86259D01*
G01X-445072Y86490D01*
G01X-443571Y86836D01*
G01X-442417Y87182D01*
G01X-441378Y87529D01*
G01X-440454Y87990D01*
G01X-439415Y88452D01*
G01X-438376Y89030D01*
G01X-437221Y89838D01*
G01X-436298Y90530D01*
G01X-435143Y91685D01*
G01X-434450Y92493D01*
G01X-433758Y93532D01*
G01X-433180Y94456D01*
G01X-432719Y95495D01*
G01X-432257Y96419D01*
G01X-431910Y97342D01*
G01X-431680Y98266D01*
G01X-431449Y99651D01*
G01X-431333Y102653D01*
G01X-431449Y104962D01*
G01X-431795Y105886D01*
G01X-432141Y106925D01*
G01X-432488Y107618D01*
G01X-432950Y108426D01*
G01X-433527Y109234D01*
G01X-434681Y110620D01*
G01X-435259Y111197D01*
G01X-435951Y111774D01*
G01X-436644Y112236D01*
G01X-437452Y112698D01*
G01X-439300Y113621D01*
G01X-440570Y114083D01*
G01X-441840Y114430D01*
G01X-442879Y114660D01*
G01X-443196Y114805D01*
G01X-443225Y115007D01*
G01X-442648Y115353D01*
G01X-441724Y115700D01*
G01X-440916Y116046D01*
G01X-440223Y116392D01*
G01X-439415Y116854D01*
G01X-438376Y117547D01*
G01X-437452Y118240D01*
G01X-436298Y119394D01*
G01X-435720Y120087D01*
G01X-435143Y121010D01*
G01X-434566Y122050D01*
G01X-434104Y123204D01*
G01X-433758Y124128D01*
G01X-433296Y126899D01*
G01X-433180Y128746D01*
G01X-433296Y130593D01*
G01X-433527Y131748D01*
G01X-433873Y132902D01*
G01X-434566Y134288D01*
G01X-435028Y135096D01*
G01X-435720Y136135D01*
G01X-437106Y137520D01*
G01X-437799Y138098D01*
G01X-439184Y139021D01*
G01X-440108Y139483D01*
G01X-441147Y139945D01*
G01X-442070Y140291D01*
G01X-443918Y140753D01*
G01X-445072Y140984D01*
G01X-446689Y141100D01*
G01X-447843Y141215D01*
G01X-448998Y141215D01*
G01X-450845Y141100D01*
G01X-452230Y140984D01*
G01X-453039Y140869D01*
G01X-453962Y140638D01*
G01X-455232Y140291D01*
G01X-456387Y139945D01*
G01X-457310Y139599D01*
G01X-458119Y139252D01*
G01X-458927Y138790D01*
G01X-459850Y138213D01*
G01X-460110Y137290D01*
G01X-460197Y135211D01*
G01X-460197Y132556D01*
G01X-459620Y132671D01*
G01X-458811Y133018D01*
G01X-458003Y133595D01*
G01X-455925Y134634D01*
G01X-454770Y135096D01*
G01X-452461Y135673D01*
G01X-450383Y135904D01*
G01X-448998Y136020D01*
G01X-447612Y135904D01*
G01X-446804Y135789D01*
G01X-444957Y135327D01*
G01X-443918Y134980D01*
G01X-442994Y134519D01*
G01X-442417Y134172D01*
G01X-441840Y133710D01*
G01X-441378Y133133D01*
G01X-441031Y132556D01*
G01X-440570Y131748D01*
G01X-440108Y130709D01*
G01X-439877Y129785D01*
G01X-439761Y128977D01*
G01X-439530Y127591D01*
G01X-439530Y125744D01*
G01X-439877Y124128D01*
G01X-440223Y122858D01*
G01X-440570Y122165D01*
G01X-441031Y121472D01*
G01X-441609Y120780D01*
G01X-442186Y120202D01*
G01X-442994Y119510D01*
G01X-445072Y118470D01*
G01X-447150Y117778D01*
G01X-448074Y117547D01*
G01X-448998Y117431D01*
G01X-452923Y117316D01*
G01X-456502Y117316D01*
G01X-456733Y116623D01*
G01X-456964Y114314D01*
G01X-456733Y112351D01*
G01X-455925Y111890D01*
G01X-451769Y111774D01*
G01X-447843Y111659D01*
G01X-446920Y111543D01*
G01X-445880Y111312D01*
G01X-444610Y110966D01*
G01X-443225Y110504D01*
G01X-442070Y109927D01*
G01X-441262Y109350D01*
G01X-439877Y108195D01*
G01X-439300Y107387D01*
G01X-438607Y106348D01*
G01X-438145Y105193D01*
G01X-437914Y104270D01*
G01X-437683Y101960D01*
G01X-437568Y101152D01*
G01X-437683Y100344D01*
G01X-437914Y98497D01*
G01X-438260Y97573D01*
G01X-438722Y96650D01*
G01X-439300Y95726D01*
G01X-439992Y94918D01*
G01X-440570Y94340D01*
G01X-441262Y93763D01*
G01X-442070Y93301D01*
G01X-442994Y92840D01*
G01X-444033Y92378D01*
G01X-445188Y92031D01*
G01X-446227Y91800D01*
G01X-447150Y91570D01*
G01X-450499Y91454D01*
G01X-453616Y91570D01*
G01X-454540Y91916D01*
G01X-455925Y92262D01*
G01X-457080Y92609D01*
G01X-459620Y93879D01*
G01X-460428Y94340D01*
G01X-461467Y95033D01*
G01X-462044Y95380D01*
G01X-462160Y94802D01*
G01X-462275Y91685D01*
G01X-462275Y89145D01*
G01X-461698Y88799D01*
G01X-460659Y88221D01*
G01X-458580Y87298D01*
G01X-457541Y86951D01*
G01X-456618Y86720D01*
G01X-455232Y86490D01*
G01X-453616Y86259D01*
G01X-452461Y86028D01*
G37*
G36*
G01X-495641Y87298D02*
G01X-481671Y87067D01*
G01X-467817Y87067D01*
G01X-467817Y92609D01*
G01X-489060Y92609D01*
G01X-489176Y93186D01*
G01X-489291Y116970D01*
G01X-489291Y140176D01*
G01X-489869Y140291D01*
G01X-492986Y140407D01*
G01X-495526Y140407D01*
G01X-495641Y139599D01*
G01X-495757Y113160D01*
G01X-495641Y87298D01*
G37*
G36*
G01X744451Y150322D02*
G01X742719Y150437D01*
G01X742026Y150668D01*
G01X739948Y150899D01*
G01X739024Y151014D01*
G01X738101Y151246D01*
G01X736946Y151592D01*
G01X735561Y152054D01*
G01X733483Y153093D01*
G01X732790Y153554D01*
G01X731174Y154709D01*
G01X729442Y156441D01*
G01X728749Y157364D01*
G01X728056Y158404D01*
G01X727594Y159212D01*
G01X726902Y160828D01*
G01X726209Y162676D01*
G01X725863Y163830D01*
G01X725632Y164984D01*
G01X725170Y167524D01*
G01X725054Y185766D01*
G01X725170Y204239D01*
G01X725286Y204816D01*
G01X728172Y204816D01*
G01X730394Y204730D01*
G01X731289Y204470D01*
G01X731520Y186921D01*
G01X731636Y168679D01*
G01X731866Y166832D01*
G01X732213Y165446D01*
G01X732559Y164292D01*
G01X732906Y163368D01*
G01X733367Y162444D01*
G01X733944Y161406D01*
G01X734406Y160597D01*
G01X734868Y160020D01*
G01X736023Y158866D01*
G01X736831Y158288D01*
G01X737870Y157711D01*
G01X739024Y157134D01*
G01X740064Y156787D01*
G01X740987Y156556D01*
G01X742026Y156326D01*
G01X742950Y156210D01*
G01X744682Y156094D01*
G01X746414Y156210D01*
G01X747453Y156326D01*
G01X748607Y156556D01*
G01X749877Y156903D01*
G01X751032Y157249D01*
G01X751956Y157711D01*
G01X752994Y158288D01*
G01X753803Y158866D01*
G01X754380Y159327D01*
G01X754957Y159904D01*
G01X755650Y160713D01*
G01X756112Y161521D01*
G01X756458Y162098D01*
G01X756920Y163022D01*
G01X757382Y164292D01*
G01X757728Y165216D01*
G01X757844Y166139D01*
G01X758074Y167178D01*
G01X758306Y168910D01*
G01X758421Y170526D01*
G01X758536Y187844D01*
G01X758536Y204816D01*
G01X761076Y204816D01*
G01X764194Y204701D01*
G01X764771Y204586D01*
G01X764771Y187729D01*
G01X764656Y170526D01*
G01X764424Y167986D01*
G01X764309Y166832D01*
G01X764078Y165562D01*
G01X763732Y164292D01*
G01X763386Y162906D01*
G01X762924Y161636D01*
G01X762462Y160597D01*
G01X761538Y158750D01*
G01X761076Y158057D01*
G01X760614Y157480D01*
G01X760153Y156787D01*
G01X759576Y156094D01*
G01X758190Y154709D01*
G01X757266Y154016D01*
G01X756689Y153554D01*
G01X755073Y152631D01*
G01X753456Y151938D01*
G01X752533Y151592D01*
G01X751263Y151246D01*
G01X749646Y150899D01*
G01X747568Y150668D01*
G01X746183Y150437D01*
G01X744451Y150322D01*
G37*
G36*
G01X787284Y150322D02*
G01X784398Y150553D01*
G01X782436Y150899D01*
G01X781050Y151130D01*
G01X780126Y151361D01*
G01X778048Y152054D01*
G01X777471Y152169D01*
G01X777471Y154824D01*
G01X777586Y157826D01*
G01X777933Y157942D01*
G01X778856Y157480D01*
G01X780011Y157018D01*
G01X781050Y156672D01*
G01X783821Y155979D01*
G01X786130Y155864D01*
G01X789132Y155979D01*
G01X790517Y156210D01*
G01X791326Y156441D01*
G01X792364Y156787D01*
G01X793288Y157249D01*
G01X794096Y157596D01*
G01X794789Y158057D01*
G01X795944Y158981D01*
G01X797098Y160136D01*
G01X798484Y161983D01*
G01X798946Y162676D01*
G01X799869Y164523D01*
G01X800562Y166370D01*
G01X800908Y167409D01*
G01X801254Y168910D01*
G01X801601Y170064D01*
G01X801832Y171912D01*
G01X801947Y173644D01*
G01X802063Y176068D01*
G01X802178Y177107D01*
G01X801716Y176876D01*
G01X801024Y176414D01*
G01X800446Y175606D01*
G01X799754Y174798D01*
G01X799176Y174221D01*
G01X798368Y173528D01*
G01X797329Y172836D01*
G01X796406Y172374D01*
G01X795597Y172027D01*
G01X794443Y171681D01*
G01X793173Y171334D01*
G01X791094Y171104D01*
G01X788670Y171219D01*
G01X787516Y171450D01*
G01X785437Y171912D01*
G01X784629Y172143D01*
G01X783821Y172489D01*
G01X782897Y172951D01*
G01X781281Y173874D01*
G01X780473Y174452D01*
G01X778164Y176761D01*
G01X777471Y177684D01*
G01X776316Y179532D01*
G01X775854Y180571D01*
G01X775393Y181841D01*
G01X775046Y182996D01*
G01X774816Y183919D01*
G01X774584Y185536D01*
G01X774469Y187498D01*
G01X774557Y188999D01*
G01X780934Y188999D01*
G01X781050Y185997D01*
G01X781396Y184496D01*
G01X781743Y183457D01*
G01X782089Y182534D01*
G01X782666Y181379D01*
G01X783244Y180571D01*
G01X783706Y179994D01*
G01X784860Y178839D01*
G01X785553Y178262D01*
G01X786361Y177800D01*
G01X787284Y177454D01*
G01X788324Y177107D01*
G01X789594Y176876D01*
G01X789594Y176876D01*
G01X790517Y176761D01*
G01X791210Y176646D01*
G01X792134Y176761D01*
G01X793750Y176992D01*
G01X794674Y177223D01*
G01X795597Y177569D01*
G01X796521Y178031D01*
G01X797676Y178724D01*
G01X798599Y179416D01*
G01X799407Y180224D01*
G01X800100Y181264D01*
G01X800677Y182187D01*
G01X801139Y183226D01*
G01X801486Y184266D01*
G01X801716Y186806D01*
G01X801601Y189230D01*
G01X801486Y190038D01*
G01X800793Y192809D01*
G01X799869Y194887D01*
G01X799292Y195926D01*
G01X798714Y196734D01*
G01X798253Y197312D01*
G01X797444Y198120D01*
G01X796521Y198697D01*
G01X795944Y199159D01*
G01X795020Y199621D01*
G01X793981Y199967D01*
G01X792596Y200314D01*
G01X790517Y200314D01*
G01X789132Y200083D01*
G01X788093Y199852D01*
G01X787054Y199506D01*
G01X786246Y199044D01*
G01X785322Y198466D01*
G01X784514Y197889D01*
G01X783936Y197312D01*
G01X783244Y196388D01*
G01X782551Y195349D01*
G01X782089Y194541D01*
G01X781743Y193733D01*
G01X781396Y192578D01*
G01X781050Y191539D01*
G01X780934Y188999D01*
G01X774557Y188999D01*
G01X774584Y189461D01*
G01X774816Y191308D01*
G01X775277Y193386D01*
G01X775624Y194426D01*
G01X776086Y195580D01*
G01X776432Y196388D01*
G01X776778Y197081D01*
G01X777356Y198004D01*
G01X778048Y199044D01*
G01X778626Y199852D01*
G01X780588Y201814D01*
G01X781512Y202507D01*
G01X782320Y203084D01*
G01X783244Y203662D01*
G01X784167Y204124D01*
G01X785322Y204586D01*
G01X786361Y204932D01*
G01X788208Y205394D01*
G01X790517Y205624D01*
G01X791326Y205740D01*
G01X792134Y205624D01*
G01X793057Y205509D01*
G01X794443Y205394D01*
G01X795597Y205163D01*
G01X796521Y204932D01*
G01X797444Y204586D01*
G01X798368Y204124D01*
G01X799407Y203662D01*
G01X800446Y202969D01*
G01X801370Y202276D01*
G01X803102Y200544D01*
G01X804026Y199390D01*
G01X804603Y198582D01*
G01X805180Y197543D01*
G01X805642Y196619D01*
G01X805988Y195811D01*
G01X806334Y194887D01*
G01X807027Y192809D01*
G01X807374Y191654D01*
G01X807604Y190616D01*
G01X808066Y188306D01*
G01X808297Y185304D01*
G01X808528Y182534D01*
G01X808644Y181494D01*
G01X808528Y180456D01*
G01X808297Y177684D01*
G01X808182Y176414D01*
G01X808066Y174452D01*
G01X807836Y172836D01*
G01X807604Y171681D01*
G01X807374Y170296D01*
G01X807143Y169141D01*
G01X806681Y167294D01*
G01X805988Y165216D01*
G01X805642Y164292D01*
G01X805180Y163137D01*
G01X803679Y160136D01*
G01X803102Y159212D01*
G01X802640Y158519D01*
G01X801254Y156672D01*
G01X800100Y155517D01*
G01X798946Y154594D01*
G01X798368Y154016D01*
G01X797444Y153439D01*
G01X796290Y152746D01*
G01X795251Y152169D01*
G01X792480Y151130D01*
G01X791672Y150899D01*
G01X790748Y150784D01*
G01X789709Y150553D01*
G01X787284Y150322D01*
G37*
G36*
G01X-775104Y-284422D02*
G01X-773661Y-284519D01*
G01X-772218Y-284422D01*
G01X-771063Y-284230D01*
G01X-769331Y-284038D01*
G01X-767984Y-283749D01*
G01X-766926Y-283460D01*
G01X-766156Y-283171D01*
G01X-764809Y-282594D01*
G01X-763463Y-281824D01*
G01X-762981Y-281440D01*
G01X-762212Y-280863D01*
G01X-761057Y-279708D01*
G01X-760576Y-279131D01*
G01X-760191Y-278553D01*
G01X-759806Y-278072D01*
G01X-759421Y-277495D01*
G01X-758652Y-275956D01*
G01X-758267Y-275090D01*
G01X-757882Y-274031D01*
G01X-757594Y-272877D01*
G01X-757305Y-271819D01*
G01X-757113Y-270760D01*
G01X-757016Y-269798D01*
G01X-756824Y-267681D01*
G01X-756727Y-253346D01*
G01X-756727Y-239299D01*
G01X-757209Y-239202D01*
G01X-759806Y-239106D01*
G01X-761923Y-239106D01*
G01X-761923Y-253249D01*
G01X-762019Y-267681D01*
G01X-762116Y-269028D01*
G01X-762308Y-270471D01*
G01X-762500Y-271338D01*
G01X-762596Y-272107D01*
G01X-762885Y-272877D01*
G01X-763270Y-273935D01*
G01X-763655Y-274705D01*
G01X-763944Y-275186D01*
G01X-764328Y-275859D01*
G01X-764906Y-276533D01*
G01X-765387Y-277014D01*
G01X-765868Y-277399D01*
G01X-766541Y-277880D01*
G01X-767407Y-278361D01*
G01X-768177Y-278746D01*
G01X-769139Y-279034D01*
G01X-770197Y-279323D01*
G01X-771159Y-279516D01*
G01X-772025Y-279612D01*
G01X-773469Y-279708D01*
G01X-774912Y-279612D01*
G01X-775681Y-279516D01*
G01X-776547Y-279323D01*
G01X-777317Y-279131D01*
G01X-778183Y-278842D01*
G01X-779145Y-278361D01*
G01X-780011Y-277880D01*
G01X-780684Y-277399D01*
G01X-781646Y-276437D01*
G01X-782031Y-275956D01*
G01X-782416Y-275282D01*
G01X-782897Y-274416D01*
G01X-783282Y-273646D01*
G01X-783571Y-272877D01*
G01X-783859Y-271915D01*
G01X-784148Y-270760D01*
G01X-784341Y-269221D01*
G01X-784437Y-254019D01*
G01X-784629Y-239395D01*
G01X-785375Y-239179D01*
G01X-787227Y-239106D01*
G01X-789632Y-239106D01*
G01X-789728Y-239588D01*
G01X-789824Y-254981D01*
G01X-789728Y-270183D01*
G01X-789344Y-272299D01*
G01X-789151Y-273262D01*
G01X-788863Y-274224D01*
G01X-788285Y-275763D01*
G01X-787708Y-277110D01*
G01X-787323Y-277784D01*
G01X-786746Y-278649D01*
G01X-786169Y-279419D01*
G01X-784725Y-280863D01*
G01X-783378Y-281824D01*
G01X-782801Y-282209D01*
G01X-781069Y-283075D01*
G01X-779915Y-283460D01*
G01X-778952Y-283749D01*
G01X-778183Y-283941D01*
G01X-777413Y-284038D01*
G01X-775681Y-284230D01*
G01X-775104Y-284422D01*
G37*
G36*
G01X-748069Y-281440D02*
G01X-748069Y-283556D01*
G01X-720744Y-283556D01*
G01X-720744Y-279131D01*
G01X-742681Y-279131D01*
G01X-742681Y-278169D01*
G01X-742584Y-276918D01*
G01X-742296Y-275956D01*
G01X-741911Y-274994D01*
G01X-741526Y-274320D01*
G01X-741141Y-273743D01*
G01X-740756Y-273262D01*
G01X-738832Y-271338D01*
G01X-737100Y-269894D01*
G01X-736523Y-269509D01*
G01X-735080Y-268355D01*
G01X-734406Y-267874D01*
G01X-733541Y-267296D01*
G01X-732867Y-266816D01*
G01X-732386Y-266431D01*
G01X-731616Y-265853D01*
G01X-730654Y-265180D01*
G01X-729981Y-264602D01*
G01X-729019Y-263833D01*
G01X-726228Y-261043D01*
G01X-725747Y-260466D01*
G01X-725363Y-259888D01*
G01X-724881Y-259215D01*
G01X-724400Y-258445D01*
G01X-723823Y-257291D01*
G01X-723246Y-255944D01*
G01X-722957Y-254981D01*
G01X-722572Y-253057D01*
G01X-722476Y-251614D01*
G01X-722380Y-250556D01*
G01X-722380Y-249786D01*
G01X-722476Y-248439D01*
G01X-722669Y-247188D01*
G01X-722957Y-246226D01*
G01X-723246Y-245360D01*
G01X-723631Y-244591D01*
G01X-724016Y-243917D01*
G01X-724785Y-242763D01*
G01X-725170Y-242281D01*
G01X-725651Y-241800D01*
G01X-726324Y-241319D01*
G01X-727191Y-240742D01*
G01X-727864Y-240261D01*
G01X-728538Y-239876D01*
G01X-729403Y-239491D01*
G01X-730173Y-239202D01*
G01X-730846Y-239010D01*
G01X-733733Y-238433D01*
G01X-735849Y-238337D01*
G01X-737581Y-238433D01*
G01X-738544Y-238625D01*
G01X-739891Y-238914D01*
G01X-740852Y-239202D01*
G01X-741622Y-239491D01*
G01X-742392Y-239876D01*
G01X-743066Y-240261D01*
G01X-743931Y-240742D01*
G01X-744894Y-241416D01*
G01X-745567Y-241993D01*
G01X-746048Y-242377D01*
G01X-746433Y-243244D01*
G01X-746529Y-245841D01*
G01X-746457Y-247284D01*
G01X-746241Y-247766D01*
G01X-745759Y-247477D01*
G01X-743739Y-245745D01*
G01X-742199Y-244783D01*
G01X-741238Y-244206D01*
G01X-740275Y-243821D01*
G01X-739506Y-243532D01*
G01X-738640Y-243244D01*
G01X-737774Y-243051D01*
G01X-735465Y-242955D01*
G01X-733156Y-243051D01*
G01X-732386Y-243244D01*
G01X-731713Y-243532D01*
G01X-730269Y-244494D01*
G01X-729403Y-245360D01*
G01X-728826Y-246130D01*
G01X-728441Y-246899D01*
G01X-728152Y-247669D01*
G01X-727768Y-249209D01*
G01X-727671Y-251229D01*
G01X-727768Y-253249D01*
G01X-727960Y-254116D01*
G01X-728249Y-255077D01*
G01X-728634Y-256040D01*
G01X-729019Y-256906D01*
G01X-729499Y-257675D01*
G01X-729981Y-258349D01*
G01X-730366Y-258830D01*
G01X-730846Y-259311D01*
G01X-731616Y-260273D01*
G01X-732578Y-261235D01*
G01X-733348Y-261813D01*
G01X-734021Y-262390D01*
G01X-734502Y-262774D01*
G01X-735272Y-263352D01*
G01X-736234Y-264025D01*
G01X-736908Y-264506D01*
G01X-738351Y-265661D01*
G01X-739891Y-266816D01*
G01X-740371Y-267296D01*
G01X-742296Y-268836D01*
G01X-744220Y-270760D01*
G01X-744797Y-271530D01*
G01X-745471Y-272396D01*
G01X-746048Y-273262D01*
G01X-746529Y-274127D01*
G01X-747299Y-275859D01*
G01X-747588Y-276821D01*
G01X-747780Y-277688D01*
G01X-747972Y-279034D01*
G01X-748069Y-281440D01*
G37*
G36*
G01X-14121Y-998269D02*
G01X-12389Y-998384D01*
G01X-10658Y-998269D01*
G01X-9272Y-998038D01*
G01X-7194Y-997807D01*
G01X-5578Y-997460D01*
G01X-4308Y-997114D01*
G01X-3384Y-996768D01*
G01X-1768Y-996075D01*
G01X-151Y-995151D01*
G01X426Y-994689D01*
G01X1350Y-993997D01*
G01X2735Y-992611D01*
G01X3312Y-991919D01*
G01X3774Y-991226D01*
G01X4236Y-990649D01*
G01X4698Y-989956D01*
G01X5622Y-988109D01*
G01X6083Y-987069D01*
G01X6545Y-985799D01*
G01X6892Y-984414D01*
G01X7238Y-983144D01*
G01X7469Y-981874D01*
G01X7584Y-980719D01*
G01X7815Y-978179D01*
G01X7931Y-960977D01*
G01X7931Y-944120D01*
G01X7353Y-944005D01*
G01X4236Y-943889D01*
G01X1696Y-943889D01*
G01X1696Y-960861D01*
G01X1581Y-978179D01*
G01X1465Y-979796D01*
G01X1234Y-981528D01*
G01X1003Y-982567D01*
G01X888Y-983490D01*
G01X542Y-984414D01*
G01X80Y-985684D01*
G01X-382Y-986608D01*
G01X-728Y-987185D01*
G01X-1190Y-987993D01*
G01X-1883Y-988801D01*
G01X-2460Y-989379D01*
G01X-3038Y-989840D01*
G01X-3846Y-990418D01*
G01X-4885Y-990995D01*
G01X-5808Y-991457D01*
G01X-6963Y-991803D01*
G01X-8233Y-992149D01*
G01X-9388Y-992380D01*
G01X-10427Y-992496D01*
G01X-12158Y-992611D01*
G01X-13890Y-992496D01*
G01X-14814Y-992380D01*
G01X-15853Y-992149D01*
G01X-16777Y-991919D01*
G01X-17816Y-991572D01*
G01X-18970Y-990995D01*
G01X-20009Y-990418D01*
G01X-20818Y-989840D01*
G01X-21972Y-988686D01*
G01X-22434Y-988109D01*
G01X-22896Y-987300D01*
G01X-23473Y-986261D01*
G01X-23935Y-985338D01*
G01X-24281Y-984414D01*
G01X-24628Y-983259D01*
G01X-24974Y-981874D01*
G01X-25205Y-980027D01*
G01X-25320Y-961785D01*
G01X-25551Y-944236D01*
G01X-26446Y-943976D01*
G01X-28668Y-943889D01*
G01X-31555Y-943889D01*
G01X-31670Y-944467D01*
G01X-31786Y-962939D01*
G01X-31670Y-981181D01*
G01X-31208Y-983721D01*
G01X-30978Y-984876D01*
G01X-30631Y-986030D01*
G01X-29938Y-987878D01*
G01X-29246Y-989494D01*
G01X-28784Y-990302D01*
G01X-28091Y-991341D01*
G01X-27398Y-992265D01*
G01X-25667Y-993997D01*
G01X-24050Y-995151D01*
G01X-23358Y-995613D01*
G01X-21279Y-996652D01*
G01X-19894Y-997114D01*
G01X-18739Y-997460D01*
G01X-17816Y-997691D01*
G01X-16892Y-997807D01*
G01X-14814Y-998038D01*
G01X-14121Y-998269D01*
G37*
G36*
G01X29059Y-998269D02*
G01X31137Y-998384D01*
G01X33446Y-998269D01*
G01X34370Y-998038D01*
G01X35986Y-997807D01*
G01X37372Y-997460D01*
G01X39450Y-996768D01*
G01X41066Y-996075D01*
G01X42682Y-995151D01*
G01X43375Y-994689D01*
G01X44299Y-993997D01*
G01X45684Y-992611D01*
G01X46377Y-991803D01*
G01X47532Y-990187D01*
G01X48109Y-989032D01*
G01X48571Y-987993D01*
G01X49032Y-986839D01*
G01X49379Y-985338D01*
G01X49610Y-984183D01*
G01X49725Y-982105D01*
G01X49610Y-980027D01*
G01X49263Y-978872D01*
G01X48802Y-977487D01*
G01X48224Y-976332D01*
G01X47647Y-975293D01*
G01X46492Y-973908D01*
G01X45800Y-973215D01*
G01X45107Y-972638D01*
G01X44299Y-972060D01*
G01X43260Y-971483D01*
G01X42452Y-971021D01*
G01X41643Y-970675D01*
G01X39796Y-969982D01*
G01X38757Y-969751D01*
G01X37949Y-969405D01*
G01X37891Y-969116D01*
G01X38180Y-968943D01*
G01X39103Y-968597D01*
G01X40720Y-967904D01*
G01X41759Y-967327D01*
G01X42913Y-966519D01*
G01X44876Y-964556D01*
G01X45338Y-963979D01*
G01X45800Y-963286D01*
G01X46262Y-962478D01*
G01X46608Y-961669D01*
G01X46954Y-960746D01*
G01X47185Y-959822D01*
G01X47416Y-959014D01*
G01X47647Y-955781D01*
G01X47416Y-952549D01*
G01X47070Y-951509D01*
G01X46723Y-950586D01*
G01X46262Y-949893D01*
G01X45800Y-949085D01*
G01X45338Y-948392D01*
G01X44183Y-947007D01*
G01X43491Y-946429D01*
G01X42567Y-945852D01*
G01X41528Y-945159D01*
G01X40258Y-944582D01*
G01X39219Y-944120D01*
G01X38180Y-943774D01*
G01X37141Y-943543D01*
G01X35986Y-943312D01*
G01X34254Y-943197D01*
G01X32984Y-943081D01*
G01X31830Y-943081D01*
G01X29982Y-943197D01*
G01X28597Y-943312D01*
G01X27789Y-943428D01*
G01X26865Y-943659D01*
G01X25711Y-944005D01*
G01X24672Y-944351D01*
G01X22824Y-945044D01*
G01X21901Y-945506D01*
G01X20977Y-946199D01*
G01X20717Y-947180D01*
G01X20631Y-949200D01*
G01X20631Y-951740D01*
G01X21208Y-951625D01*
G01X22247Y-951163D01*
G01X23286Y-950586D01*
G01X24094Y-950124D01*
G01X24787Y-949778D01*
G01X25595Y-949431D01*
G01X26750Y-949085D01*
G01X28020Y-948739D01*
G01X29290Y-948508D01*
G01X30444Y-948392D01*
G01X31830Y-948277D01*
G01X33215Y-948392D01*
G01X34139Y-948508D01*
G01X35178Y-948739D01*
G01X36332Y-949085D01*
G01X37372Y-949431D01*
G01X38180Y-949893D01*
G01X38872Y-950470D01*
G01X39450Y-951048D01*
G01X39912Y-951625D01*
G01X40258Y-952318D01*
G01X40720Y-953357D01*
G01X41066Y-954627D01*
G01X41297Y-955781D01*
G01X41412Y-957744D01*
G01X41297Y-959476D01*
G01X41066Y-960284D01*
G01X40720Y-961208D01*
G01X40373Y-962016D01*
G01X40027Y-962709D01*
G01X39565Y-963401D01*
G01X38872Y-963979D01*
G01X37718Y-964902D01*
G01X36910Y-965364D01*
G01X36102Y-965710D01*
G01X35178Y-966057D01*
G01X34139Y-966403D01*
G01X33215Y-966634D01*
G01X31830Y-966865D01*
G01X27558Y-966980D01*
G01X24325Y-966980D01*
G01X24210Y-967558D01*
G01X24094Y-970213D01*
G01X24094Y-972291D01*
G01X24902Y-972407D01*
G01X29290Y-972522D01*
G01X33215Y-972638D01*
G01X34832Y-972869D01*
G01X35871Y-973215D01*
G01X37141Y-973561D01*
G01X38064Y-973908D01*
G01X38872Y-974369D01*
G01X39912Y-975062D01*
G01X40720Y-975870D01*
G01X41643Y-977025D01*
G01X42221Y-977833D01*
G01X42682Y-978988D01*
G01X43029Y-980027D01*
G01X43260Y-981528D01*
G01X43375Y-982913D01*
G01X43375Y-983490D01*
G01X43260Y-984414D01*
G01X43029Y-985453D01*
G01X42682Y-986492D01*
G01X42336Y-987416D01*
G01X41759Y-988339D01*
G01X41066Y-989148D01*
G01X40489Y-989725D01*
G01X39681Y-990418D01*
G01X38872Y-990995D01*
G01X38064Y-991457D01*
G01X37025Y-991919D01*
G01X35871Y-992265D01*
G01X34832Y-992496D01*
G01X33677Y-992727D01*
G01X30329Y-992842D01*
G01X27442Y-992727D01*
G01X25826Y-992265D01*
G01X24672Y-991919D01*
G01X23402Y-991457D01*
G01X22362Y-990995D01*
G01X21439Y-990533D01*
G01X19592Y-989379D01*
G01X19014Y-989148D01*
G01X18668Y-989725D01*
G01X18552Y-992611D01*
G01X18639Y-994430D01*
G01X18899Y-995267D01*
G01X19822Y-995844D01*
G01X21670Y-996768D01*
G01X22940Y-997114D01*
G01X23979Y-997460D01*
G01X24787Y-997691D01*
G01X25595Y-997807D01*
G01X28366Y-998153D01*
G01X29059Y-998269D01*
G37*
G36*
G01X-644929Y542666D02*
G01X-646661Y542781D01*
G01X-647354Y543012D01*
G01X-649432Y543243D01*
G01X-650356Y543359D01*
G01X-651279Y543590D01*
G01X-652434Y543936D01*
G01X-653819Y544398D01*
G01X-655897Y545437D01*
G01X-656590Y545899D01*
G01X-658206Y547053D01*
G01X-659938Y548785D01*
G01X-660631Y549709D01*
G01X-661324Y550748D01*
G01X-661786Y551556D01*
G01X-662478Y553172D01*
G01X-663171Y555020D01*
G01X-663517Y556174D01*
G01X-663748Y557329D01*
G01X-664210Y559869D01*
G01X-664326Y578111D01*
G01X-664210Y596583D01*
G01X-664094Y597161D01*
G01X-661208Y597161D01*
G01X-658986Y597074D01*
G01X-658091Y596814D01*
G01X-657860Y579265D01*
G01X-657744Y561023D01*
G01X-657514Y559176D01*
G01X-657167Y557791D01*
G01X-656821Y556636D01*
G01X-656474Y555712D01*
G01X-656013Y554789D01*
G01X-655436Y553750D01*
G01X-654974Y552941D01*
G01X-654512Y552364D01*
G01X-653357Y551210D01*
G01X-652549Y550632D01*
G01X-651510Y550055D01*
G01X-650356Y549478D01*
G01X-649316Y549131D01*
G01X-648393Y548901D01*
G01X-647354Y548670D01*
G01X-646430Y548554D01*
G01X-644698Y548439D01*
G01X-642966Y548554D01*
G01X-641927Y548670D01*
G01X-640773Y548901D01*
G01X-639503Y549247D01*
G01X-638348Y549593D01*
G01X-637424Y550055D01*
G01X-636386Y550632D01*
G01X-635577Y551210D01*
G01X-635000Y551671D01*
G01X-634423Y552249D01*
G01X-633730Y553057D01*
G01X-633268Y553865D01*
G01X-632922Y554442D01*
G01X-632460Y555366D01*
G01X-631998Y556636D01*
G01X-631652Y557560D01*
G01X-631536Y558483D01*
G01X-631306Y559522D01*
G01X-631074Y561254D01*
G01X-630959Y562871D01*
G01X-630844Y580189D01*
G01X-630844Y597161D01*
G01X-628304Y597161D01*
G01X-625186Y597045D01*
G01X-624609Y596930D01*
G01X-624609Y580073D01*
G01X-624724Y562871D01*
G01X-624956Y560331D01*
G01X-625071Y559176D01*
G01X-625302Y557906D01*
G01X-625648Y556636D01*
G01X-625994Y555251D01*
G01X-626456Y553981D01*
G01X-626918Y552941D01*
G01X-627842Y551094D01*
G01X-628304Y550401D01*
G01X-628766Y549824D01*
G01X-629227Y549131D01*
G01X-629804Y548439D01*
G01X-631190Y547053D01*
G01X-632114Y546361D01*
G01X-632691Y545899D01*
G01X-634307Y544975D01*
G01X-635924Y544282D01*
G01X-636847Y543936D01*
G01X-638117Y543590D01*
G01X-639734Y543243D01*
G01X-641812Y543012D01*
G01X-643197Y542781D01*
G01X-644929Y542666D01*
G37*
G36*
G01X-596900Y542666D02*
G01X-598401Y542781D01*
G01X-599324Y543012D01*
G01X-600710Y543243D01*
G01X-601634Y543474D01*
G01X-602442Y543705D01*
G01X-603250Y544051D01*
G01X-604174Y544513D01*
G01X-604982Y544975D01*
G01X-605674Y545321D01*
G01X-606367Y545783D01*
G01X-606944Y546361D01*
G01X-607753Y547053D01*
G01X-608446Y547861D01*
G01X-609023Y548439D01*
G01X-609600Y549131D01*
G01X-610177Y550055D01*
G01X-610639Y550863D01*
G01X-610986Y551441D01*
G01X-611678Y552826D01*
G01X-612024Y553634D01*
G01X-612371Y554558D01*
G01X-612717Y555597D01*
G01X-613064Y556867D01*
G01X-613410Y558252D01*
G01X-613641Y559638D01*
G01X-613872Y560561D01*
G01X-613939Y561370D01*
G01X-607522Y561370D01*
G01X-607406Y560561D01*
G01X-607291Y559638D01*
G01X-607176Y558483D01*
G01X-606944Y557329D01*
G01X-606714Y556405D01*
G01X-606483Y555597D01*
G01X-606136Y554673D01*
G01X-605790Y553865D01*
G01X-604866Y552249D01*
G01X-604404Y551671D01*
G01X-603019Y550286D01*
G01X-601864Y549478D01*
G01X-600826Y548901D01*
G01X-600826Y548901D01*
G01X-599094Y548323D01*
G01X-597246Y548208D01*
G01X-594937Y548323D01*
G01X-594014Y548554D01*
G01X-593206Y548785D01*
G01X-592397Y549131D01*
G01X-591474Y549593D01*
G01X-590666Y550171D01*
G01X-589857Y550979D01*
G01X-589049Y551671D01*
G01X-588587Y552364D01*
G01X-588126Y553172D01*
G01X-587433Y554789D01*
G01X-587086Y555828D01*
G01X-586856Y556867D01*
G01X-586740Y559522D01*
G01X-586856Y562409D01*
G01X-587086Y563794D01*
G01X-587433Y565180D01*
G01X-587894Y566334D01*
G01X-588472Y567373D01*
G01X-589164Y568412D01*
G01X-589857Y569221D01*
G01X-590434Y569798D01*
G01X-591243Y570375D01*
G01X-592051Y570837D01*
G01X-592974Y571183D01*
G01X-594014Y571530D01*
G01X-595053Y571761D01*
G01X-596092Y571876D01*
G01X-596784Y571876D01*
G01X-598863Y571645D01*
G01X-600479Y571183D01*
G01X-601403Y570837D01*
G01X-602557Y570260D01*
G01X-603366Y569682D01*
G01X-604174Y568990D01*
G01X-605213Y567951D01*
G01X-605906Y566911D01*
G01X-606367Y566103D01*
G01X-606829Y564949D01*
G01X-607176Y563794D01*
G01X-607522Y561370D01*
G01X-613939Y561370D01*
G01X-614103Y563332D01*
G01X-614218Y567142D01*
G01X-614103Y570952D01*
G01X-613872Y573723D01*
G01X-613641Y574878D01*
G01X-613410Y576494D01*
G01X-613179Y577649D01*
G01X-612602Y579958D01*
G01X-612140Y581459D01*
G01X-611563Y583191D01*
G01X-611216Y583999D01*
G01X-610754Y585038D01*
G01X-609831Y586885D01*
G01X-609254Y587924D01*
G01X-608676Y588848D01*
G01X-608214Y589541D01*
G01X-607868Y590118D01*
G01X-607406Y590695D01*
G01X-606252Y591850D01*
G01X-605790Y592427D01*
G01X-605097Y593120D01*
G01X-603481Y594505D01*
G01X-602326Y595198D01*
G01X-601403Y595775D01*
G01X-599556Y596699D01*
G01X-597708Y597391D01*
G01X-596900Y597622D01*
G01X-596092Y597738D01*
G01X-593321Y597969D01*
G01X-592397Y598084D01*
G01X-591474Y597969D01*
G01X-588472Y597738D01*
G01X-587433Y597622D01*
G01X-586394Y597391D01*
G01X-585354Y597045D01*
G01X-584084Y596583D01*
G01X-583507Y596237D01*
G01X-583507Y593581D01*
G01X-583594Y591590D01*
G01X-583854Y590926D01*
G01X-584662Y591157D01*
G01X-585701Y591619D01*
G01X-586624Y591965D01*
G01X-587433Y592081D01*
G01X-588241Y592311D01*
G01X-589396Y592542D01*
G01X-590550Y592658D01*
G01X-592166Y592773D01*
G01X-593783Y592658D01*
G01X-594591Y592542D01*
G01X-595514Y592311D01*
G01X-596554Y591965D01*
G01X-597708Y591619D01*
G01X-598632Y591157D01*
G01X-599440Y590811D01*
G01X-600133Y590349D01*
G01X-601287Y589425D01*
G01X-602442Y588271D01*
G01X-603134Y587347D01*
G01X-604289Y585615D01*
G01X-605213Y583999D01*
G01X-605559Y583191D01*
G01X-605906Y582267D01*
G01X-606944Y579150D01*
G01X-607176Y577880D01*
G01X-607406Y576956D01*
G01X-607637Y574878D01*
G01X-607753Y573146D01*
G01X-607637Y571414D01*
G01X-607291Y571299D01*
G01X-606829Y571761D01*
G01X-606483Y572338D01*
G01X-606021Y572915D01*
G01X-604866Y574070D01*
G01X-604289Y574531D01*
G01X-603481Y575109D01*
G01X-602442Y575686D01*
G01X-601403Y576148D01*
G01X-600479Y576494D01*
G01X-598632Y576956D01*
G01X-596207Y577071D01*
G01X-593090Y576956D01*
G01X-591358Y576610D01*
G01X-590319Y576263D01*
G01X-589396Y575917D01*
G01X-588356Y575455D01*
G01X-587317Y574878D01*
G01X-586163Y574070D01*
G01X-585239Y573377D01*
G01X-584431Y572569D01*
G01X-583507Y571414D01*
G01X-582814Y570375D01*
G01X-582353Y569567D01*
G01X-581429Y567720D01*
G01X-581083Y566565D01*
G01X-580736Y565295D01*
G01X-580506Y564141D01*
G01X-580390Y563101D01*
G01X-580274Y561023D01*
G01X-580390Y558945D01*
G01X-580506Y558137D01*
G01X-580621Y556867D01*
G01X-580967Y555597D01*
G01X-581198Y554673D01*
G01X-581429Y553865D01*
G01X-582122Y552249D01*
G01X-582584Y551325D01*
G01X-583161Y550286D01*
G01X-583738Y549478D01*
G01X-584662Y548323D01*
G01X-586624Y546361D01*
G01X-587548Y545668D01*
G01X-589396Y544513D01*
G01X-590204Y544167D01*
G01X-591127Y543821D01*
G01X-592397Y543359D01*
G01X-594014Y543012D01*
G01X-595168Y542781D01*
G01X-596900Y542666D01*
G37*
G36*
G01X596438Y599671D02*
G01X596323Y597939D01*
G01X596092Y597246D01*
G01X595861Y595168D01*
G01X595746Y594244D01*
G01X595514Y593321D01*
G01X595168Y592166D01*
G01X594706Y590781D01*
G01X593667Y588703D01*
G01X593206Y588010D01*
G01X592051Y586394D01*
G01X590319Y584662D01*
G01X589396Y583969D01*
G01X588356Y583276D01*
G01X587548Y582814D01*
G01X585932Y582122D01*
G01X584084Y581429D01*
G01X582930Y581083D01*
G01X581776Y580852D01*
G01X579236Y580390D01*
G01X560994Y580274D01*
G01X542521Y580390D01*
G01X541944Y580506D01*
G01X541944Y583392D01*
G01X542030Y585614D01*
G01X542290Y586509D01*
G01X559839Y586740D01*
G01X578081Y586856D01*
G01X579928Y587086D01*
G01X581314Y587433D01*
G01X582468Y587779D01*
G01X583392Y588126D01*
G01X584316Y588587D01*
G01X585354Y589164D01*
G01X586163Y589626D01*
G01X586740Y590088D01*
G01X587894Y591243D01*
G01X588472Y592051D01*
G01X589049Y593090D01*
G01X589626Y594244D01*
G01X589973Y595284D01*
G01X590204Y596207D01*
G01X590434Y597246D01*
G01X590550Y598170D01*
G01X590666Y599902D01*
G01X590550Y601634D01*
G01X590434Y602673D01*
G01X590204Y603827D01*
G01X589857Y605097D01*
G01X589511Y606252D01*
G01X589049Y607176D01*
G01X588472Y608214D01*
G01X587894Y609023D01*
G01X587433Y609600D01*
G01X586856Y610177D01*
G01X586047Y610870D01*
G01X585239Y611332D01*
G01X584662Y611678D01*
G01X583738Y612140D01*
G01X582468Y612602D01*
G01X581544Y612948D01*
G01X580621Y613064D01*
G01X579582Y613294D01*
G01X577850Y613526D01*
G01X576234Y613641D01*
G01X558916Y613756D01*
G01X541944Y613756D01*
G01X541944Y616296D01*
G01X542059Y619414D01*
G01X542174Y619991D01*
G01X559031Y619991D01*
G01X576234Y619876D01*
G01X578774Y619644D01*
G01X579928Y619529D01*
G01X581198Y619298D01*
G01X582468Y618952D01*
G01X583854Y618606D01*
G01X585124Y618144D01*
G01X586163Y617682D01*
G01X588010Y616758D01*
G01X588703Y616296D01*
G01X589280Y615834D01*
G01X589973Y615373D01*
G01X590666Y614796D01*
G01X592051Y613410D01*
G01X592744Y612486D01*
G01X593206Y611909D01*
G01X594129Y610293D01*
G01X594822Y608676D01*
G01X595168Y607753D01*
G01X595514Y606483D01*
G01X595861Y604866D01*
G01X596092Y602788D01*
G01X596323Y601403D01*
G01X596438Y599671D01*
G37*
G36*
G01X596207Y646892D02*
G01X596092Y644583D01*
G01X595861Y643428D01*
G01X595630Y642043D01*
G01X595284Y640888D01*
G01X594822Y639503D01*
G01X594360Y638348D01*
G01X593898Y637424D01*
G01X593436Y636616D01*
G01X592974Y635924D01*
G01X591589Y634192D01*
G01X590781Y633384D01*
G01X589857Y632691D01*
G01X589049Y632114D01*
G01X588126Y631536D01*
G01X587317Y631074D01*
G01X586509Y630728D01*
G01X585586Y630382D01*
G01X584546Y630036D01*
G01X583623Y629804D01*
G01X581083Y629689D01*
G01X578312Y629804D01*
G01X576464Y630266D01*
G01X575426Y630613D01*
G01X574386Y631074D01*
G01X573347Y631652D01*
G01X572424Y632114D01*
G01X571731Y632576D01*
G01X570114Y633961D01*
G01X568729Y635346D01*
G01X568036Y636386D01*
G01X567459Y637309D01*
G01X566997Y638348D01*
G01X566766Y638752D01*
G01X566304Y638810D01*
G01X565843Y638608D01*
G01X565612Y638233D01*
G01X565150Y637540D01*
G01X564573Y636963D01*
G01X563649Y635808D01*
G01X562841Y635000D01*
G01X561917Y634307D01*
G01X561224Y633846D01*
G01X559608Y632922D01*
G01X558684Y632576D01*
G01X557646Y632229D01*
G01X554874Y631998D01*
G01X552219Y632114D01*
G01X551064Y632460D01*
G01X549679Y632922D01*
G01X548524Y633499D01*
G01X547370Y634192D01*
G01X544946Y636270D01*
G01X544484Y636847D01*
G01X544137Y637424D01*
G01X543676Y638002D01*
G01X543098Y638810D01*
G01X542174Y640657D01*
G01X541828Y641581D01*
G01X541713Y642389D01*
G01X541482Y643197D01*
G01X541251Y644236D01*
G01X541136Y645968D01*
G01X541136Y647123D01*
G01X546331Y647123D01*
G01X546562Y644814D01*
G01X546908Y643890D01*
G01X547370Y642736D01*
G01X547947Y641812D01*
G01X548409Y641119D01*
G01X549564Y639964D01*
G01X550372Y639387D01*
G01X551411Y638926D01*
G01X552334Y638579D01*
G01X553143Y638348D01*
G01X554413Y638233D01*
G01X556376Y638348D01*
G01X557992Y638694D01*
G01X559146Y639156D01*
G01X560186Y639734D01*
G01X561224Y640542D01*
G01X562264Y641581D01*
G01X562956Y642620D01*
G01X563418Y643544D01*
G01X563764Y644698D01*
G01X563764Y644698D01*
G01X563996Y645506D01*
G01X564111Y646776D01*
G01X564043Y647354D01*
G01X569191Y647354D01*
G01X569306Y645737D01*
G01X569537Y644352D01*
G01X569768Y643428D01*
G01X570114Y642504D01*
G01X570576Y641581D01*
G01X571269Y640426D01*
G01X571962Y639503D01*
G01X573347Y638348D01*
G01X574156Y637771D01*
G01X574964Y637309D01*
G01X575887Y636963D01*
G01X577042Y636616D01*
G01X579697Y636386D01*
G01X582237Y636501D01*
G01X583276Y636732D01*
G01X584431Y637078D01*
G01X585239Y637424D01*
G01X585932Y637771D01*
G01X586624Y638233D01*
G01X587779Y639156D01*
G01X588356Y639734D01*
G01X588818Y640311D01*
G01X589280Y641004D01*
G01X589742Y641812D01*
G01X590088Y642736D01*
G01X590434Y643774D01*
G01X590666Y645276D01*
G01X590666Y645276D01*
G01X590781Y646546D01*
G01X590781Y647123D01*
G01X590550Y648970D01*
G01X590319Y649894D01*
G01X589973Y651164D01*
G01X589511Y652203D01*
G01X589164Y653011D01*
G01X588703Y653704D01*
G01X587086Y655320D01*
G01X586509Y655782D01*
G01X585354Y656474D01*
G01X584662Y656821D01*
G01X583507Y657167D01*
G01X582468Y657514D01*
G01X580621Y657629D01*
G01X578543Y657514D01*
G01X577619Y657283D01*
G01X576464Y657052D01*
G01X575310Y656706D01*
G01X574617Y656359D01*
G01X573694Y655782D01*
G01X572539Y654858D01*
G01X571731Y654050D01*
G01X571269Y653473D01*
G01X570346Y652087D01*
G01X569999Y651164D01*
G01X569653Y650124D01*
G01X569422Y649201D01*
G01X569191Y647354D01*
G01X564043Y647354D01*
G01X563880Y648739D01*
G01X563418Y650240D01*
G01X562841Y651394D01*
G01X562264Y652203D01*
G01X561340Y653357D01*
G01X560763Y653934D01*
G01X560070Y654396D01*
G01X559146Y654858D01*
G01X558107Y655320D01*
G01X557184Y655551D01*
G01X556376Y655666D01*
G01X555452Y655782D01*
G01X554066Y655666D01*
G01X552566Y655320D01*
G01X551296Y654858D01*
G01X550256Y654281D01*
G01X549448Y653704D01*
G01X548871Y653242D01*
G01X548409Y652780D01*
G01X547947Y652203D01*
G01X547486Y651510D01*
G01X546562Y649432D01*
G01X546331Y647123D01*
G01X541136Y647123D01*
G01X541136Y647354D01*
G01X541251Y648854D01*
G01X541482Y650586D01*
G01X542174Y652896D01*
G01X542636Y653819D01*
G01X542983Y654627D01*
G01X543329Y655320D01*
G01X544484Y656936D01*
G01X544946Y657514D01*
G01X546677Y659246D01*
G01X547486Y659823D01*
G01X548524Y660400D01*
G01X549448Y660862D01*
G01X550256Y661208D01*
G01X551526Y661554D01*
G01X552681Y661901D01*
G01X554182Y662016D01*
G01X555683Y661901D01*
G01X556953Y661670D01*
G01X558338Y661324D01*
G01X559262Y660977D01*
G01X560301Y660516D01*
G01X561224Y659938D01*
G01X561917Y659476D01*
G01X563072Y658553D01*
G01X564804Y656821D01*
G01X565266Y656244D01*
G01X565612Y655666D01*
G01X566074Y655089D01*
G01X566651Y655089D01*
G01X567113Y655782D01*
G01X567574Y656706D01*
G01X568498Y658091D01*
G01X569076Y658784D01*
G01X571384Y661093D01*
G01X572077Y661554D01*
G01X572886Y662016D01*
G01X573578Y662478D01*
G01X574271Y662824D01*
G01X575079Y663171D01*
G01X576118Y663517D01*
G01X577273Y663864D01*
G01X578427Y664094D01*
G01X579466Y664210D01*
G01X580274Y664326D01*
G01X581083Y664210D01*
G01X582468Y664094D01*
G01X583969Y663864D01*
G01X584893Y663633D01*
G01X585701Y663402D01*
G01X588126Y662363D01*
G01X588818Y661901D01*
G01X590434Y660746D01*
G01X592744Y658437D01*
G01X593898Y656590D01*
G01X594591Y655204D01*
G01X595053Y654166D01*
G01X595399Y653126D01*
G01X595861Y651048D01*
G01X596092Y649432D01*
G01X596207Y646892D01*
G37*
G36*
G01X256424Y-41564D02*
G01X253192Y-41333D01*
G01X253076Y-15471D01*
G01X253170Y6004D01*
G01X259542Y6004D01*
G01X259542Y-3233D01*
G01X259657Y-12816D01*
G01X259657Y-12816D01*
G01X259888Y-13277D01*
G01X263352Y-13393D01*
G01X267739Y-13277D01*
G01X269124Y-13046D01*
G01X271549Y-12700D01*
G01X272357Y-12469D01*
G01X273396Y-12007D01*
G01X274320Y-11546D01*
G01X275013Y-11084D01*
G01X275706Y-10506D01*
G01X276283Y-9929D01*
G01X276976Y-9121D01*
G01X277553Y-8197D01*
G01X278014Y-7389D01*
G01X278361Y-6581D01*
G01X278592Y-4964D01*
G01X278707Y-3117D01*
G01X278476Y-808D01*
G01X278130Y346D01*
G01X277784Y1270D01*
G01X277322Y2078D01*
G01X276744Y2886D01*
G01X276052Y3694D01*
G01X275359Y4156D01*
G01X274551Y4618D01*
G01X273627Y5080D01*
G01X272704Y5426D01*
G01X271896Y5657D01*
G01X269586Y5888D01*
G01X264391Y6004D01*
G01X259542Y6004D01*
G01X253170Y6004D01*
G01X253192Y10968D01*
G01X253307Y11776D01*
G01X261620Y11776D01*
G01X270972Y11661D01*
G01X272357Y11430D01*
G01X273512Y11199D01*
G01X274897Y10968D01*
G01X276052Y10622D01*
G01X277899Y9929D01*
G01X279054Y9352D01*
G01X280208Y8544D01*
G01X281132Y7851D01*
G01X282286Y6696D01*
G01X282864Y6004D01*
G01X283326Y5311D01*
G01X284249Y3694D01*
G01X284596Y2771D01*
G01X284942Y1732D01*
G01X285173Y924D01*
G01X285288Y116D01*
G01X285404Y-1616D01*
G01X285288Y-4041D01*
G01X285057Y-5657D01*
G01X284711Y-7043D01*
G01X284249Y-8197D01*
G01X283903Y-9006D01*
G01X283556Y-9698D01*
G01X282402Y-11430D01*
G01X281709Y-12238D01*
G01X280786Y-13162D01*
G01X280208Y-13624D01*
G01X279284Y-14316D01*
G01X278246Y-15009D01*
G01X277437Y-15471D01*
G01X276629Y-15817D01*
G01X274782Y-16510D01*
G01X274089Y-16856D01*
G01X273994Y-17111D01*
G01X274204Y-17318D01*
G01X275128Y-17896D01*
G01X275936Y-18473D01*
G01X276514Y-18934D01*
G01X278246Y-20666D01*
G01X278707Y-21244D01*
G01X279631Y-22629D01*
G01X280208Y-23437D01*
G01X280901Y-24592D01*
G01X281594Y-25631D01*
G01X282171Y-26554D01*
G01X282633Y-27247D01*
G01X283556Y-28864D01*
G01X284134Y-29672D01*
G01X285519Y-31981D01*
G01X286096Y-32904D01*
G01X286558Y-33597D01*
G01X287713Y-35444D01*
G01X288174Y-36253D01*
G01X288752Y-37176D01*
G01X289444Y-38216D01*
G01X290137Y-39370D01*
G01X290714Y-40294D01*
G01X291176Y-41102D01*
G01X291407Y-41564D01*
G01X287713Y-41564D01*
G01X284884Y-41477D01*
G01X283787Y-41217D01*
G01X283210Y-40294D01*
G01X281824Y-37984D01*
G01X281247Y-37061D01*
G01X280786Y-36253D01*
G01X280208Y-35214D01*
G01X278823Y-32904D01*
G01X278246Y-31981D01*
G01X277784Y-31173D01*
G01X277206Y-30134D01*
G01X275128Y-26670D01*
G01X273743Y-24592D01*
G01X272588Y-22976D01*
G01X271896Y-22167D01*
G01X270741Y-21013D01*
G01X269933Y-20436D01*
G01X268894Y-19858D01*
G01X267739Y-19396D01*
G01X266816Y-19050D01*
G01X263006Y-18934D01*
G01X259542Y-18934D01*
G01X259542Y-41564D01*
G01X256424Y-41564D01*
G37*
G36*
G01X317500Y-41564D02*
G01X317500Y-35906D01*
G01X317384Y-29672D01*
G01X317269Y-29094D01*
G01X292331Y-29094D01*
G01X292331Y-26786D01*
G01X292446Y-24130D01*
G01X292793Y-23437D01*
G01X299604Y-23437D01*
G01X308033Y-23553D01*
G01X316923Y-23437D01*
G01X317500Y-23322D01*
G01X317500Y-11314D01*
G01X317269Y1154D01*
G01X317009Y1386D01*
G01X316692Y1154D01*
G01X315999Y116D01*
G01X315306Y-1039D01*
G01X314152Y-2886D01*
G01X313459Y-4041D01*
G01X312766Y-5080D01*
G01X312189Y-6004D01*
G01X311266Y-7389D01*
G01X310688Y-8313D01*
G01X310111Y-9121D01*
G01X309187Y-10506D01*
G01X308726Y-11084D01*
G01X307571Y-12816D01*
G01X306878Y-13739D01*
G01X306416Y-14316D01*
G01X305262Y-15933D01*
G01X303414Y-18242D01*
G01X303068Y-18819D01*
G01X301683Y-20551D01*
G01X300528Y-21936D01*
G01X299836Y-22744D01*
G01X299836Y-22744D01*
G01X299604Y-23437D01*
G01X292793Y-23437D01*
G01X292908Y-23206D01*
G01X294986Y-20782D01*
G01X295910Y-19627D01*
G01X296487Y-19050D01*
G01X296949Y-18473D01*
G01X297296Y-17896D01*
G01X297757Y-17318D01*
G01X298566Y-16510D01*
G01X299489Y-15356D01*
G01X300182Y-14432D01*
G01X301567Y-12700D01*
G01X301914Y-12123D01*
G01X302376Y-11546D01*
G01X303068Y-10737D01*
G01X303876Y-9583D01*
G01X304569Y-8659D01*
G01X305031Y-8082D01*
G01X305608Y-7274D01*
G01X307224Y-4964D01*
G01X309996Y-808D01*
G01X310688Y346D01*
G01X311266Y1270D01*
G01X311612Y1963D01*
G01X312074Y2540D01*
G01X312651Y3348D01*
G01X313459Y4964D01*
G01X313806Y5542D01*
G01X314729Y7158D01*
G01X316230Y10160D01*
G01X316807Y11199D01*
G01X317038Y11776D01*
G01X319694Y11776D01*
G01X322926Y11661D01*
G01X323504Y11546D01*
G01X323504Y-23553D01*
G01X326390Y-23553D01*
G01X329854Y-23668D01*
G01X330431Y-23784D01*
G01X330431Y-25862D01*
G01X330316Y-28517D01*
G01X330200Y-29094D01*
G01X323504Y-29094D01*
G01X323504Y-41564D01*
G01X317500Y-41564D01*
G37*
G36*
G01X-562033Y-580967D02*
G01X-562148Y-585008D01*
G01X-562379Y-585932D01*
G01X-562494Y-586856D01*
G01X-562726Y-587894D01*
G01X-563072Y-588934D01*
G01X-563418Y-590088D01*
G01X-563880Y-591358D01*
G01X-564342Y-592397D01*
G01X-564804Y-593321D01*
G01X-565381Y-594360D01*
G01X-565958Y-595284D01*
G01X-566420Y-595976D01*
G01X-567344Y-597131D01*
G01X-568036Y-597939D01*
G01X-568729Y-598863D01*
G01X-569884Y-599786D01*
G01X-571269Y-600941D01*
G01X-572077Y-601634D01*
G01X-573001Y-602211D01*
G01X-574617Y-603134D01*
G01X-576464Y-604058D01*
G01X-578312Y-604751D01*
G01X-579466Y-605097D01*
G01X-580852Y-605444D01*
G01X-582468Y-605790D01*
G01X-584546Y-606021D01*
G01X-585932Y-606252D01*
G01X-588126Y-606367D01*
G01X-590319Y-606252D01*
G01X-594014Y-605790D01*
G01X-595053Y-605674D01*
G01X-596207Y-605444D01*
G01X-598747Y-604751D01*
G01X-599786Y-604404D01*
G01X-601403Y-603712D01*
G01X-602442Y-603250D01*
G01X-603481Y-602673D01*
G01X-604404Y-602211D01*
G01X-605790Y-601287D01*
G01X-606483Y-600941D01*
G01X-607060Y-600479D01*
G01X-607868Y-599671D01*
G01X-608792Y-598978D01*
G01X-609946Y-597824D01*
G01X-611101Y-596438D01*
G01X-611678Y-595861D01*
G01X-612140Y-595284D01*
G01X-612717Y-594476D01*
G01X-613410Y-593436D01*
G01X-613987Y-592397D01*
G01X-614449Y-591474D01*
G01X-614796Y-590666D01*
G01X-615142Y-589973D01*
G01X-615488Y-589164D01*
G01X-616181Y-587086D01*
G01X-616412Y-586163D01*
G01X-616874Y-584084D01*
G01X-617104Y-582006D01*
G01X-617220Y-579813D01*
G01X-617104Y-577619D01*
G01X-616874Y-573924D01*
G01X-616643Y-572308D01*
G01X-616412Y-571154D01*
G01X-616066Y-569653D01*
G01X-615604Y-568267D01*
G01X-615142Y-566997D01*
G01X-614911Y-566420D01*
G01X-611678Y-566420D01*
G01X-609282Y-566507D01*
G01X-608561Y-566766D01*
G01X-608907Y-567690D01*
G01X-609369Y-568498D01*
G01X-609716Y-569422D01*
G01X-610062Y-570461D01*
G01X-610408Y-571384D01*
G01X-610639Y-572308D01*
G01X-611101Y-574386D01*
G01X-611332Y-577157D01*
G01X-611447Y-578889D01*
G01X-611332Y-580621D01*
G01X-611216Y-581429D01*
G01X-611101Y-582699D01*
G01X-610870Y-583854D01*
G01X-610639Y-584893D01*
G01X-610293Y-586278D01*
G01X-609831Y-587433D01*
G01X-609369Y-588472D01*
G01X-608907Y-589396D01*
G01X-607522Y-591474D01*
G01X-606598Y-592628D01*
G01X-604636Y-594591D01*
G01X-603481Y-595514D01*
G01X-602442Y-596207D01*
G01X-601634Y-596669D01*
G01X-600248Y-597362D01*
G01X-599209Y-597824D01*
G01X-598054Y-598286D01*
G01X-595514Y-598978D01*
G01X-594476Y-599209D01*
G01X-593552Y-599324D01*
G01X-589280Y-599440D01*
G01X-585008Y-599324D01*
G01X-583969Y-599209D01*
G01X-582814Y-598978D01*
G01X-580274Y-598286D01*
G01X-579120Y-597824D01*
G01X-578081Y-597362D01*
G01X-576234Y-596438D01*
G01X-575541Y-595976D01*
G01X-573694Y-594591D01*
G01X-571962Y-592859D01*
G01X-571500Y-592282D01*
G01X-570923Y-591474D01*
G01X-570346Y-590550D01*
G01X-569422Y-588934D01*
G01X-568960Y-587894D01*
G01X-568614Y-586856D01*
G01X-568152Y-585239D01*
G01X-567806Y-582468D01*
G01X-567690Y-581314D01*
G01X-567690Y-580390D01*
G01X-568036Y-576926D01*
G01X-568152Y-575541D01*
G01X-568383Y-574386D01*
G01X-568614Y-573463D01*
G01X-568844Y-572308D01*
G01X-569191Y-571038D01*
G01X-569537Y-569999D01*
G01X-569884Y-569076D01*
G01X-570230Y-568383D01*
G01X-570576Y-567806D01*
G01X-570923Y-566997D01*
G01X-571038Y-566420D01*
G01X-568267Y-566420D01*
G01X-565150Y-566651D01*
G01X-564688Y-567228D01*
G01X-564342Y-567921D01*
G01X-563996Y-568729D01*
G01X-563649Y-569653D01*
G01X-563303Y-570692D01*
G01X-562956Y-572077D01*
G01X-562610Y-573232D01*
G01X-562379Y-575079D01*
G01X-562148Y-577157D01*
G01X-562033Y-580967D01*
G37*
G36*
G01X-561802Y-505344D02*
G01X-562033Y-508231D01*
G01X-562379Y-510194D01*
G01X-562610Y-511579D01*
G01X-563303Y-513657D01*
G01X-563649Y-514581D01*
G01X-563880Y-515158D01*
G01X-566651Y-515158D01*
G01X-568729Y-515072D01*
G01X-569422Y-514812D01*
G01X-569191Y-514119D01*
G01X-568498Y-512503D01*
G01X-568152Y-511579D01*
G01X-567921Y-510656D01*
G01X-567459Y-508577D01*
G01X-567344Y-505922D01*
G01X-567459Y-503266D01*
G01X-567574Y-502458D01*
G01X-567806Y-501534D01*
G01X-568152Y-500496D01*
G01X-568498Y-499572D01*
G01X-568960Y-498764D01*
G01X-569537Y-497840D01*
G01X-570114Y-497032D01*
G01X-570692Y-496339D01*
G01X-571384Y-495762D01*
G01X-571962Y-495184D01*
G01X-572770Y-494492D01*
G01X-573578Y-493914D01*
G01X-574386Y-493453D01*
G01X-575310Y-492991D01*
G01X-576926Y-492298D01*
G01X-577966Y-491952D01*
G01X-580274Y-491259D01*
G01X-581314Y-491028D01*
G01X-584084Y-490566D01*
G01X-586624Y-490451D01*
G01X-588241Y-490509D01*
G01X-588703Y-490682D01*
G01X-588010Y-491374D01*
G01X-587086Y-492067D01*
G01X-585932Y-492991D01*
G01X-585239Y-493799D01*
G01X-584546Y-494838D01*
G01X-584084Y-495646D01*
G01X-583738Y-496339D01*
G01X-583392Y-497147D01*
G01X-583046Y-498417D01*
G01X-582699Y-499572D01*
G01X-582584Y-501534D01*
G01X-582699Y-503728D01*
G01X-583161Y-506037D01*
G01X-583392Y-506961D01*
G01X-583738Y-508116D01*
G01X-584316Y-509501D01*
G01X-585008Y-510656D01*
G01X-586163Y-512272D01*
G01X-586856Y-513080D01*
G01X-588010Y-514234D01*
G01X-588818Y-514812D01*
G01X-589857Y-515504D01*
G01X-590896Y-516082D01*
G01X-591820Y-516544D01*
G01X-592859Y-516890D01*
G01X-593783Y-517236D01*
G01X-594937Y-517583D01*
G01X-596554Y-517814D01*
G01X-597708Y-518044D01*
G01X-598978Y-518160D01*
G01X-600248Y-518044D01*
G01X-601634Y-517814D01*
G01X-603250Y-517583D01*
G01X-604174Y-517352D01*
G01X-605213Y-517121D01*
G01X-606252Y-516774D01*
G01X-607868Y-516082D01*
G01X-608676Y-515620D01*
G01X-609716Y-515043D01*
G01X-610524Y-514466D01*
G01X-611332Y-513773D01*
G01X-612256Y-513080D01*
G01X-613179Y-511926D01*
G01X-613756Y-511348D01*
G01X-614449Y-510424D01*
G01X-615142Y-509270D01*
G01X-615604Y-508346D01*
G01X-615950Y-507423D01*
G01X-616643Y-505344D01*
G01X-616874Y-504421D01*
G01X-617104Y-501881D01*
G01X-617220Y-501073D01*
G01X-617204Y-500957D01*
G01X-611909Y-500957D01*
G01X-611794Y-501881D01*
G01X-611678Y-502920D01*
G01X-611447Y-503959D01*
G01X-611101Y-504998D01*
G01X-610754Y-505922D01*
G01X-610293Y-506730D01*
G01X-609716Y-507538D01*
G01X-608907Y-508346D01*
G01X-607868Y-509270D01*
G01X-606829Y-509963D01*
G01X-605906Y-510424D01*
G01X-605097Y-510771D01*
G01X-604174Y-511117D01*
G01X-603250Y-511348D01*
G01X-600479Y-511579D01*
G01X-599786Y-511579D01*
G01X-597246Y-511348D01*
G01X-595976Y-511117D01*
G01X-594476Y-510656D01*
G01X-593321Y-510078D01*
G01X-592166Y-509386D01*
G01X-591243Y-508693D01*
G01X-590666Y-508116D01*
G01X-590204Y-507538D01*
G01X-589280Y-506153D01*
G01X-588934Y-505229D01*
G01X-588587Y-504190D01*
G01X-588356Y-503036D01*
G01X-588356Y-503036D01*
G01X-588241Y-502112D01*
G01X-588126Y-501304D01*
G01X-588241Y-500264D01*
G01X-588356Y-499341D01*
G01X-588587Y-498302D01*
G01X-588934Y-497263D01*
G01X-589280Y-496339D01*
G01X-589742Y-495416D01*
G01X-590319Y-494607D01*
G01X-591820Y-493106D01*
G01X-592628Y-492414D01*
G01X-593552Y-491836D01*
G01X-594591Y-491374D01*
G01X-595630Y-491028D01*
G01X-598054Y-490913D01*
G01X-600941Y-491028D01*
G01X-602326Y-491259D01*
G01X-603481Y-491490D01*
G01X-604520Y-491836D01*
G01X-605559Y-492298D01*
G01X-606714Y-492876D01*
G01X-607637Y-493453D01*
G01X-608330Y-493914D01*
G01X-610062Y-495646D01*
G01X-610524Y-496339D01*
G01X-610986Y-497147D01*
G01X-611332Y-497956D01*
G01X-611794Y-500034D01*
G01X-611909Y-500957D01*
G01X-617204Y-500957D01*
G01X-616989Y-499456D01*
G01X-616874Y-498186D01*
G01X-616643Y-497032D01*
G01X-616412Y-495993D01*
G01X-616066Y-494954D01*
G01X-615373Y-493568D01*
G01X-614911Y-492760D01*
G01X-613987Y-491374D01*
G01X-613410Y-490682D01*
G01X-612833Y-490104D01*
G01X-611678Y-489181D01*
G01X-611101Y-488604D01*
G01X-610408Y-488142D01*
G01X-608792Y-487218D01*
G01X-607868Y-486756D01*
G01X-606714Y-486294D01*
G01X-605444Y-485833D01*
G01X-603943Y-485371D01*
G01X-602788Y-485024D01*
G01X-601634Y-484794D01*
G01X-600017Y-484563D01*
G01X-598863Y-484332D01*
G01X-595861Y-484101D01*
G01X-593206Y-483986D01*
G01X-590550Y-484101D01*
G01X-589049Y-484216D01*
G01X-586856Y-484332D01*
G01X-585470Y-484563D01*
G01X-584316Y-484678D01*
G01X-582699Y-484909D01*
G01X-581544Y-485256D01*
G01X-580621Y-485371D01*
G01X-579582Y-485602D01*
G01X-577273Y-486294D01*
G01X-576003Y-486756D01*
G01X-574848Y-487218D01*
G01X-572077Y-488604D01*
G01X-571269Y-489066D01*
G01X-569884Y-489989D01*
G01X-569076Y-490566D01*
G01X-568267Y-491259D01*
G01X-565958Y-493568D01*
G01X-564804Y-495184D01*
G01X-564342Y-495877D01*
G01X-563418Y-497724D01*
G01X-562379Y-500842D01*
G01X-562148Y-502112D01*
G01X-561917Y-503036D01*
G01X-561802Y-505344D01*
G37*
G36*
G01X-562956Y-541713D02*
G01X-585586Y-541713D01*
G01X-608330Y-541944D01*
G01X-608099Y-542636D01*
G01X-607522Y-543444D01*
G01X-607060Y-544137D01*
G01X-606483Y-545061D01*
G01X-605906Y-546100D01*
G01X-605444Y-546908D01*
G01X-604520Y-548756D01*
G01X-603827Y-550372D01*
G01X-603134Y-552219D01*
G01X-602904Y-553374D01*
G01X-602904Y-554182D01*
G01X-605674Y-554182D01*
G01X-607839Y-554095D01*
G01X-608792Y-553836D01*
G01X-609254Y-552912D01*
G01X-609600Y-551873D01*
G01X-610062Y-550718D01*
G01X-610524Y-549448D01*
G01X-611447Y-547601D01*
G01X-611909Y-546562D01*
G01X-612371Y-545754D01*
G01X-613410Y-543676D01*
G01X-614564Y-541828D01*
G01X-615257Y-540789D01*
G01X-615834Y-539981D01*
G01X-617220Y-538249D01*
G01X-617451Y-537326D01*
G01X-617336Y-536056D01*
G01X-617220Y-535478D01*
G01X-590666Y-535478D01*
G01X-563534Y-535594D01*
G01X-562956Y-535709D01*
G01X-562956Y-541713D01*
G37*
G36*
G01X-503076Y-749744D02*
G01X-504301Y-750968D01*
G01X-480952Y-774317D01*
G01X-477197Y-770562D01*
G01X-495811Y-751948D01*
G01X-495484Y-751458D01*
G01X-494504Y-750479D01*
G01X-493198Y-749662D01*
G01X-491973Y-749091D01*
G01X-491075Y-748846D01*
G01X-489443Y-748519D01*
G01X-488626Y-748519D01*
G01X-487728Y-748438D01*
G01X-485606Y-748601D01*
G01X-484789Y-748601D01*
G01X-481360Y-749091D01*
G01X-480054Y-749254D01*
G01X-479075Y-749417D01*
G01X-477932Y-749581D01*
G01X-475156Y-750070D01*
G01X-472870Y-750397D01*
G01X-471727Y-750397D01*
G01X-470258Y-750560D01*
G01X-466992Y-750560D01*
G01X-466257Y-750479D01*
G01X-465278Y-750315D01*
G01X-464216Y-750234D01*
G01X-463400Y-750070D01*
G01X-462584Y-749744D01*
G01X-460624Y-749091D01*
G01X-459726Y-748683D01*
G01X-458747Y-748193D01*
G01X-456950Y-747050D01*
G01X-454338Y-744764D01*
G01X-452052Y-742151D01*
G01X-451073Y-740519D01*
G01X-450664Y-739457D01*
G01X-450256Y-738233D01*
G01X-450011Y-737172D01*
G01X-449848Y-736029D01*
G01X-449848Y-734069D01*
G01X-449930Y-733334D01*
G01X-450093Y-732681D01*
G01X-450256Y-731702D01*
G01X-450583Y-730559D01*
G01X-450991Y-729498D01*
G01X-451481Y-728355D01*
G01X-452297Y-727048D01*
G01X-453032Y-725987D01*
G01X-453848Y-724844D01*
G01X-455563Y-722966D01*
G01X-456951Y-721742D01*
G01X-457930Y-721089D01*
G01X-459073Y-720272D01*
G01X-460134Y-719701D01*
G01X-461278Y-719211D01*
G01X-462339Y-718803D01*
G01X-463482Y-718476D01*
G01X-464788Y-718150D01*
G01X-465767Y-717986D01*
G01X-467237Y-717823D01*
G01X-467972Y-717905D01*
G01X-470503Y-720109D01*
G01X-472013Y-721742D01*
G01X-472299Y-722395D01*
G01X-471564Y-722477D01*
G01X-469931Y-722476D01*
G01X-469196Y-722558D01*
G01X-468543Y-722722D01*
G01X-467809Y-722803D01*
G01X-466992Y-722966D01*
G01X-465931Y-723211D01*
G01X-464706Y-723620D01*
G01X-463645Y-724028D01*
G01X-462420Y-724599D01*
G01X-461033Y-725497D01*
G01X-458910Y-727456D01*
G01X-457277Y-729253D01*
G01X-456787Y-730069D01*
G01X-456379Y-730967D01*
G01X-455889Y-733090D01*
G01X-455889Y-734722D01*
G01X-455971Y-735457D01*
G01X-456297Y-736273D01*
G01X-456706Y-737335D01*
G01X-457440Y-738559D01*
G01X-458583Y-740029D01*
G01X-459645Y-741253D01*
G01X-460379Y-741825D01*
G01X-462012Y-743131D01*
G01X-462910Y-743539D01*
G01X-463972Y-744111D01*
G01X-464788Y-744437D01*
G01X-465604Y-744601D01*
G01X-466502Y-744845D01*
G01X-467319Y-745009D01*
G01X-468788Y-745172D01*
G01X-470421Y-745172D01*
G01X-471156Y-745254D01*
G01X-472217Y-745172D01*
G01X-473360Y-745172D01*
G01X-475564Y-744927D01*
G01X-476217Y-744764D01*
G01X-476952Y-744682D01*
G01X-478095Y-744519D01*
G01X-479483Y-744274D01*
G01X-480544Y-744192D01*
G01X-481279Y-744111D01*
G01X-481932Y-743947D01*
G01X-485606Y-743539D01*
G01X-487239Y-743539D01*
G01X-487973Y-743458D01*
G01X-489035Y-743539D01*
G01X-490994Y-743539D01*
G01X-492137Y-743702D01*
G01X-493361Y-743947D01*
G01X-494259Y-744192D01*
G01X-495239Y-744519D01*
G01X-497362Y-745335D01*
G01X-498260Y-745907D01*
G01X-498913Y-746397D01*
G01X-499893Y-747050D01*
G01X-501199Y-748029D01*
G01X-503076Y-749744D01*
G37*
G36*
G01X-527405Y-727538D02*
G01X-517690Y-737580D01*
G01X-507893Y-747376D01*
G01X-503974Y-743458D01*
G01X-518996Y-728436D01*
G01X-518669Y-727946D01*
G01X-501933Y-711047D01*
G01X-485524Y-694638D01*
G01X-485851Y-694148D01*
G01X-487973Y-691862D01*
G01X-489769Y-690066D01*
G01X-490422Y-690556D01*
G01X-509199Y-709169D01*
G01X-527405Y-727538D01*
G37*
G36*
G01X791004Y-94600D02*
G01X787771Y-94369D01*
G01X787656Y-68508D01*
G01X787750Y-47033D01*
G01X794121Y-47033D01*
G01X794121Y-56269D01*
G01X794237Y-65852D01*
G01X794237Y-65852D01*
G01X794468Y-66314D01*
G01X797931Y-66429D01*
G01X802319Y-66314D01*
G01X803704Y-66083D01*
G01X806129Y-65737D01*
G01X806937Y-65506D01*
G01X807976Y-65044D01*
G01X808900Y-64582D01*
G01X809592Y-64120D01*
G01X810285Y-63543D01*
G01X810862Y-62966D01*
G01X811555Y-62158D01*
G01X812132Y-61234D01*
G01X812594Y-60426D01*
G01X812940Y-59618D01*
G01X813171Y-58001D01*
G01X813287Y-56154D01*
G01X813056Y-53845D01*
G01X812710Y-52690D01*
G01X812363Y-51767D01*
G01X811901Y-50958D01*
G01X811324Y-50150D01*
G01X810631Y-49342D01*
G01X809939Y-48880D01*
G01X809130Y-48418D01*
G01X808207Y-47957D01*
G01X807283Y-47610D01*
G01X806475Y-47379D01*
G01X804166Y-47148D01*
G01X798970Y-47033D01*
G01X794121Y-47033D01*
G01X787750Y-47033D01*
G01X787771Y-42068D01*
G01X787887Y-41260D01*
G01X796200Y-41260D01*
G01X805551Y-41376D01*
G01X806937Y-41607D01*
G01X808091Y-41838D01*
G01X809477Y-42068D01*
G01X810631Y-42415D01*
G01X812479Y-43108D01*
G01X813633Y-43685D01*
G01X814788Y-44493D01*
G01X815711Y-45186D01*
G01X816866Y-46340D01*
G01X817443Y-47033D01*
G01X817905Y-47726D01*
G01X818829Y-49342D01*
G01X819175Y-50266D01*
G01X819521Y-51305D01*
G01X819752Y-52113D01*
G01X819868Y-52921D01*
G01X819983Y-54653D01*
G01X819868Y-57078D01*
G01X819637Y-58694D01*
G01X819290Y-60079D01*
G01X818829Y-61234D01*
G01X818482Y-62042D01*
G01X818136Y-62735D01*
G01X816981Y-64467D01*
G01X816289Y-65275D01*
G01X815365Y-66198D01*
G01X814788Y-66660D01*
G01X813864Y-67353D01*
G01X812825Y-68046D01*
G01X812017Y-68508D01*
G01X811209Y-68854D01*
G01X809361Y-69547D01*
G01X808669Y-69893D01*
G01X808573Y-70148D01*
G01X808784Y-70355D01*
G01X809708Y-70932D01*
G01X810516Y-71509D01*
G01X811093Y-71971D01*
G01X812825Y-73703D01*
G01X813287Y-74280D01*
G01X814210Y-75666D01*
G01X814788Y-76474D01*
G01X815480Y-77628D01*
G01X816173Y-78668D01*
G01X816750Y-79591D01*
G01X817212Y-80284D01*
G01X818136Y-81900D01*
G01X818713Y-82708D01*
G01X820099Y-85018D01*
G01X820676Y-85941D01*
G01X821138Y-86634D01*
G01X822292Y-88481D01*
G01X822754Y-89289D01*
G01X823331Y-90213D01*
G01X824024Y-91252D01*
G01X824717Y-92407D01*
G01X825294Y-93330D01*
G01X825756Y-94138D01*
G01X825987Y-94600D01*
G01X822292Y-94600D01*
G01X819464Y-94514D01*
G01X818367Y-94254D01*
G01X817790Y-93330D01*
G01X816404Y-91021D01*
G01X815827Y-90098D01*
G01X815365Y-89289D01*
G01X814788Y-88250D01*
G01X813402Y-85941D01*
G01X812825Y-85018D01*
G01X812363Y-84209D01*
G01X811786Y-83170D01*
G01X809708Y-79707D01*
G01X808322Y-77628D01*
G01X807168Y-76012D01*
G01X806475Y-75204D01*
G01X805320Y-74049D01*
G01X804512Y-73472D01*
G01X803473Y-72895D01*
G01X802319Y-72433D01*
G01X801395Y-72087D01*
G01X797585Y-71971D01*
G01X794121Y-71971D01*
G01X794121Y-94600D01*
G01X791004Y-94600D01*
G37*
G36*
G01X843190Y-95755D02*
G01X840650Y-95639D01*
G01X839495Y-95408D01*
G01X837879Y-95178D01*
G01X836493Y-94947D01*
G01X835570Y-94716D01*
G01X834530Y-94369D01*
G01X832452Y-93446D01*
G01X831413Y-92868D01*
G01X830836Y-92522D01*
G01X830836Y-89982D01*
G01X830951Y-86865D01*
G01X831125Y-86490D01*
G01X831413Y-86518D01*
G01X832221Y-86980D01*
G01X832914Y-87442D01*
G01X833491Y-87788D01*
G01X836031Y-89058D01*
G01X837186Y-89405D01*
G01X838571Y-89751D01*
G01X839495Y-90098D01*
G01X842497Y-90213D01*
G01X845960Y-90098D01*
G01X847115Y-89867D01*
G01X848039Y-89636D01*
G01X849078Y-89289D01*
G01X850117Y-88828D01*
G01X851040Y-88366D01*
G01X851849Y-87904D01*
G01X852541Y-87327D01*
G01X853119Y-86749D01*
G01X853811Y-85941D01*
G01X854389Y-85018D01*
G01X854735Y-84325D01*
G01X855081Y-83517D01*
G01X855312Y-82362D01*
G01X855428Y-81323D01*
G01X855543Y-80515D01*
G01X855428Y-79707D01*
G01X855197Y-77398D01*
G01X854966Y-76474D01*
G01X854620Y-75550D01*
G01X854042Y-74627D01*
G01X853465Y-73818D01*
G01X853003Y-73241D01*
G01X851849Y-72318D01*
G01X851040Y-71740D01*
G01X849886Y-71163D01*
G01X848500Y-70701D01*
G01X847230Y-70355D01*
G01X846191Y-70124D01*
G01X845268Y-70008D01*
G01X841458Y-69893D01*
G01X837186Y-69778D01*
G01X836378Y-69662D01*
G01X836378Y-67584D01*
G01X836493Y-64928D01*
G01X836609Y-64351D01*
G01X840188Y-64351D01*
G01X844113Y-64236D01*
G01X845037Y-64120D01*
G01X845960Y-63889D01*
G01X846884Y-63543D01*
G01X848039Y-63197D01*
G01X849886Y-62273D01*
G01X850694Y-61696D01*
G01X851849Y-60541D01*
G01X852310Y-59848D01*
G01X852772Y-59040D01*
G01X853119Y-58232D01*
G01X853580Y-56154D01*
G01X853696Y-55115D01*
G01X853580Y-53845D01*
G01X853350Y-52459D01*
G01X853003Y-50958D01*
G01X852541Y-49919D01*
G01X852080Y-48996D01*
G01X851271Y-47957D01*
G01X850348Y-47264D01*
G01X849655Y-46802D01*
G01X848616Y-46456D01*
G01X847461Y-46109D01*
G01X846422Y-45878D01*
G01X845499Y-45763D01*
G01X844113Y-45648D01*
G01X842728Y-45763D01*
G01X841573Y-45878D01*
G01X840188Y-46109D01*
G01X839264Y-46456D01*
G01X838456Y-46571D01*
G01X837648Y-46802D01*
G01X835800Y-47726D01*
G01X834992Y-48188D01*
G01X834300Y-48649D01*
G01X833491Y-48996D01*
G01X832914Y-49111D01*
G01X832914Y-46456D01*
G01X833001Y-44378D01*
G01X833260Y-43454D01*
G01X834184Y-42877D01*
G01X834992Y-42415D01*
G01X835800Y-42068D01*
G01X836724Y-41722D01*
G01X837879Y-41376D01*
G01X839149Y-41029D01*
G01X840072Y-40798D01*
G01X840880Y-40683D01*
G01X842266Y-40568D01*
G01X844113Y-40452D01*
G01X845268Y-40452D01*
G01X846307Y-40568D01*
G01X848039Y-40683D01*
G01X849770Y-41029D01*
G01X851040Y-41376D01*
G01X851964Y-41722D01*
G01X852772Y-42068D01*
G01X853811Y-42530D01*
G01X854620Y-43108D01*
G01X855312Y-43569D01*
G01X856005Y-44147D01*
G01X857390Y-45532D01*
G01X858545Y-47264D01*
G01X858891Y-47957D01*
G01X859238Y-48765D01*
G01X859584Y-49919D01*
G01X859815Y-51074D01*
G01X859930Y-53037D01*
G01X859815Y-54999D01*
G01X859353Y-57539D01*
G01X859007Y-58463D01*
G01X858545Y-59618D01*
G01X857968Y-60657D01*
G01X857506Y-61465D01*
G01X857044Y-62042D01*
G01X855659Y-63428D01*
G01X854735Y-64120D01*
G01X854158Y-64582D01*
G01X853580Y-64928D01*
G01X852195Y-65621D01*
G01X851387Y-65968D01*
G01X850463Y-66314D01*
G01X849882Y-66635D01*
G01X849918Y-66888D01*
G01X850232Y-67007D01*
G01X851271Y-67238D01*
G01X852541Y-67584D01*
G01X853811Y-68046D01*
G01X855659Y-68969D01*
G01X856467Y-69431D01*
G01X857275Y-70008D01*
G01X858083Y-70701D01*
G01X859238Y-71856D01*
G01X859700Y-72433D01*
G01X860623Y-74049D01*
G01X860970Y-74742D01*
G01X861316Y-75781D01*
G01X861662Y-76705D01*
G01X861778Y-79014D01*
G01X861662Y-82016D01*
G01X861431Y-83401D01*
G01X861200Y-84325D01*
G01X860854Y-85364D01*
G01X860508Y-86172D01*
G01X860161Y-86865D01*
G01X859700Y-87673D01*
G01X859238Y-88366D01*
G01X858660Y-89174D01*
G01X857968Y-89982D01*
G01X856582Y-91368D01*
G01X855428Y-92176D01*
G01X854620Y-92753D01*
G01X852541Y-93792D01*
G01X851733Y-94138D01*
G01X850810Y-94485D01*
G01X849655Y-94831D01*
G01X848039Y-95178D01*
G01X846422Y-95408D01*
G01X845499Y-95639D01*
G01X843190Y-95755D01*
G37*
G36*
G01X497804Y-620134D02*
G01X496119Y-619720D01*
G01X495477Y-619372D01*
G01X493470Y-618784D01*
G01X492580Y-618510D01*
G01X491711Y-618122D01*
G01X490634Y-617580D01*
G01X489350Y-616885D01*
G01X487484Y-615501D01*
G01X486882Y-614926D01*
G01X485490Y-613508D01*
G01X484085Y-611502D01*
G01X483564Y-610472D01*
G01X483062Y-609328D01*
G01X482747Y-608452D01*
G01X482346Y-606740D01*
G01X481985Y-604800D01*
G01X481844Y-603603D01*
G01X481817Y-602426D01*
G01X481803Y-599845D01*
G01X484857Y-581860D01*
G01X488179Y-563688D01*
G01X488393Y-563139D01*
G01X491235Y-563640D01*
G01X493409Y-564112D01*
G01X494245Y-564523D01*
G01X491425Y-581846D01*
G01X488371Y-599830D01*
G01X488278Y-601690D01*
G01X488378Y-603114D01*
G01X488519Y-604311D01*
G01X488700Y-605281D01*
G01X488994Y-606271D01*
G01X489382Y-607394D01*
G01X489696Y-608270D01*
G01X490051Y-608919D01*
G01X490987Y-610257D01*
G01X491683Y-610965D01*
G01X492606Y-611714D01*
G01X493643Y-612483D01*
G01X494606Y-613005D01*
G01X495476Y-613393D01*
G01X496459Y-613800D01*
G01X497348Y-614075D01*
G01X499034Y-614489D01*
G01X500759Y-614676D01*
G01X501803Y-614743D01*
G01X502980Y-614716D01*
G01X504291Y-614595D01*
G01X505488Y-614455D01*
G01X506478Y-614160D01*
G01X507601Y-613772D01*
G01X508497Y-613344D01*
G01X509146Y-612989D01*
G01X509815Y-612521D01*
G01X510637Y-611846D01*
G01X511232Y-611130D01*
G01X511674Y-610622D01*
G01X512289Y-609792D01*
G01X512964Y-608622D01*
G01X513466Y-607772D01*
G01X513740Y-606883D01*
G01X514148Y-605899D01*
G01X514676Y-604234D01*
G01X515070Y-602662D01*
G01X518191Y-585627D01*
G01X521138Y-568913D01*
G01X523640Y-569354D01*
G01X526689Y-570009D01*
G01X527238Y-570223D01*
G01X524311Y-586824D01*
G01X521210Y-603745D01*
G01X520541Y-606206D01*
G01X520227Y-607323D01*
G01X519779Y-608534D01*
G01X519218Y-609724D01*
G01X518636Y-611029D01*
G01X517961Y-612199D01*
G01X517326Y-613142D01*
G01X516095Y-614801D01*
G01X515520Y-615403D01*
G01X514965Y-615891D01*
G01X514390Y-616493D01*
G01X513701Y-617075D01*
G01X512096Y-618199D01*
G01X511066Y-618721D01*
G01X510418Y-619076D01*
G01X508665Y-619704D01*
G01X506953Y-620106D01*
G01X505983Y-620287D01*
G01X504673Y-620407D01*
G01X503021Y-620468D01*
G01X500934Y-620334D01*
G01X499529Y-620321D01*
G01X497804Y-620134D01*
G37*
G36*
G01X584216Y-635371D02*
G01X582323Y-634803D01*
G01X580792Y-634181D01*
G01X579488Y-633599D01*
G01X578544Y-632964D01*
G01X577715Y-632349D01*
G01X576999Y-631754D01*
G01X576377Y-631292D01*
G01X575889Y-630737D01*
G01X574016Y-628062D01*
G01X573494Y-627032D01*
G01X572993Y-625889D01*
G01X572678Y-625013D01*
G01X572089Y-623033D01*
G01X571728Y-621094D01*
G01X571567Y-620010D01*
G01X571286Y-617616D01*
G01X571279Y-616325D01*
G01X571258Y-616023D01*
G01X577546Y-616023D01*
G01X577593Y-617086D01*
G01X577713Y-618397D01*
G01X577740Y-619575D01*
G01X577881Y-620772D01*
G01X578115Y-622102D01*
G01X578389Y-623206D01*
G01X578777Y-624330D01*
G01X579206Y-625226D01*
G01X579915Y-626523D01*
G01X580570Y-627459D01*
G01X581473Y-628322D01*
G01X582189Y-628917D01*
G01X582945Y-629285D01*
G01X582945Y-629285D01*
G01X583493Y-629499D01*
G01X585406Y-629953D01*
G01X587814Y-630261D01*
G01X588764Y-630194D01*
G01X589620Y-629993D01*
G01X590496Y-629678D01*
G01X591506Y-629270D01*
G01X592308Y-628708D01*
G01X592863Y-628220D01*
G01X593686Y-627545D01*
G01X594415Y-626735D01*
G01X595030Y-625906D01*
G01X595665Y-624963D01*
G01X596708Y-623036D01*
G01X597250Y-621959D01*
G01X597657Y-620976D01*
G01X597912Y-620200D01*
G01X598206Y-619197D01*
G01X598594Y-618328D01*
G01X599262Y-615866D01*
G01X600298Y-610656D01*
G01X601106Y-605406D01*
G01X601193Y-604249D01*
G01X601320Y-602864D01*
G01X601253Y-601915D01*
G01X601300Y-600985D01*
G01X601386Y-599828D01*
G01X601359Y-598651D01*
G01X601226Y-596751D01*
G01X601105Y-595440D01*
G01X600851Y-594223D01*
G01X600576Y-593120D01*
G01X600208Y-591882D01*
G01X599800Y-590873D01*
G01X599466Y-590110D01*
G01X598529Y-588773D01*
G01X597833Y-588064D01*
G01X597004Y-587449D01*
G01X596154Y-586947D01*
G01X595285Y-586560D01*
G01X594054Y-586225D01*
G01X592556Y-586078D01*
G01X591379Y-586105D01*
G01X590296Y-586266D01*
G01X589192Y-586540D01*
G01X588316Y-586855D01*
G01X587400Y-587397D01*
G01X586196Y-588240D01*
G01X585200Y-589236D01*
G01X584451Y-590159D01*
G01X583836Y-590989D01*
G01X583180Y-592045D01*
G01X581963Y-594293D01*
G01X581669Y-595296D01*
G01X581262Y-596279D01*
G01X580874Y-597149D01*
G01X580600Y-598038D01*
G01X579931Y-600500D01*
G01X579617Y-601617D01*
G01X579263Y-602961D01*
G01X579002Y-604439D01*
G01X578547Y-606352D01*
G01X578260Y-608646D01*
G01X578000Y-610124D01*
G01X577933Y-611167D01*
G01X577846Y-612325D01*
G01X577592Y-615093D01*
G01X577546Y-616023D01*
G01X571258Y-616023D01*
G01X571212Y-615375D01*
G01X571305Y-613516D01*
G01X571599Y-610520D01*
G01X571773Y-608206D01*
G01X572000Y-606252D01*
G01X572454Y-604340D01*
G01X573083Y-602106D01*
G01X573872Y-598962D01*
G01X574460Y-596956D01*
G01X575275Y-594989D01*
G01X575529Y-594213D01*
G01X575917Y-593344D01*
G01X576459Y-592267D01*
G01X577021Y-591077D01*
G01X577696Y-589906D01*
G01X578351Y-588849D01*
G01X578986Y-587906D01*
G01X579755Y-586869D01*
G01X580484Y-586060D01*
G01X581059Y-585458D01*
G01X581614Y-584970D01*
G01X582189Y-584368D01*
G01X582878Y-583786D01*
G01X583547Y-583317D01*
G01X585894Y-581973D01*
G01X586657Y-581638D01*
G01X588884Y-580976D01*
G01X590081Y-580835D01*
G01X591164Y-580675D01*
G01X593706Y-580888D01*
G01X594635Y-580935D01*
G01X595525Y-581209D01*
G01X596301Y-581463D01*
G01X597759Y-581838D01*
G01X599291Y-582459D01*
G01X600990Y-583462D01*
G01X602026Y-584231D01*
G01X603043Y-585114D01*
G01X603719Y-585936D01*
G01X605123Y-587943D01*
G01X605665Y-588859D01*
G01X606073Y-589869D01*
G01X606702Y-591621D01*
G01X607251Y-593828D01*
G01X607572Y-595995D01*
G01X607693Y-597306D01*
G01X607860Y-599680D01*
G01X607794Y-600723D01*
G01X607741Y-602355D01*
G01X607727Y-603760D01*
G01X606912Y-609712D01*
G01X606886Y-610528D01*
G01X606632Y-611304D01*
G01X606037Y-614013D01*
G01X605402Y-616949D01*
G01X605014Y-617818D01*
G01X604192Y-620487D01*
G01X603744Y-621698D01*
G01X603222Y-622661D01*
G01X602968Y-623437D01*
G01X602600Y-624193D01*
G01X601557Y-626119D01*
G01X600287Y-628005D01*
G01X599056Y-629664D01*
G01X598328Y-630473D01*
G01X597619Y-631169D01*
G01X597044Y-631771D01*
G01X596355Y-632353D01*
G01X594750Y-633477D01*
G01X593720Y-633999D01*
G01X591700Y-634815D01*
G01X590711Y-635109D01*
G01X589493Y-635363D01*
G01X588296Y-635504D01*
G01X586892Y-635491D01*
G01X585715Y-635518D01*
G01X584216Y-635371D01*
G37*
G36*
G01X544622Y-627217D02*
G01X548571Y-604818D01*
G01X551443Y-588032D01*
G01X552160Y-582472D01*
G01X551417Y-582693D01*
G01X550387Y-583215D01*
G01X549244Y-583717D01*
G01X548368Y-584031D01*
G01X543419Y-585503D01*
G01X540168Y-585985D01*
G01X539466Y-585979D01*
G01X539987Y-583023D01*
G01X540756Y-579993D01*
G01X541385Y-579752D01*
G01X545264Y-579029D01*
G01X547471Y-578480D01*
G01X549450Y-577892D01*
G01X550327Y-577577D01*
G01X551450Y-577189D01*
G01X553964Y-576225D01*
G01X554861Y-575797D01*
G01X555489Y-575556D01*
G01X557435Y-574493D01*
G01X557822Y-574297D01*
G01X558405Y-574312D01*
G01X559636Y-574646D01*
G01X560184Y-574860D01*
G01X550761Y-628299D01*
G01X544622Y-627217D01*
G37*
G36*
G01X-408247Y-42487D02*
G01X-412288Y-42372D01*
G01X-413212Y-42141D01*
G01X-414136Y-42026D01*
G01X-415174Y-41794D01*
G01X-416214Y-41448D01*
G01X-417368Y-41102D01*
G01X-418638Y-40640D01*
G01X-419677Y-40178D01*
G01X-420601Y-39716D01*
G01X-421640Y-39139D01*
G01X-422564Y-38562D01*
G01X-423256Y-38100D01*
G01X-424411Y-37176D01*
G01X-425219Y-36484D01*
G01X-426143Y-35791D01*
G01X-427066Y-34636D01*
G01X-428221Y-33251D01*
G01X-428914Y-32443D01*
G01X-429491Y-31519D01*
G01X-430414Y-29903D01*
G01X-431338Y-28056D01*
G01X-432031Y-26208D01*
G01X-432377Y-25054D01*
G01X-432724Y-23668D01*
G01X-433070Y-22052D01*
G01X-433301Y-19974D01*
G01X-433532Y-18588D01*
G01X-433647Y-16394D01*
G01X-433532Y-14201D01*
G01X-433070Y-10506D01*
G01X-432954Y-9467D01*
G01X-432724Y-8313D01*
G01X-432031Y-5773D01*
G01X-431684Y-4734D01*
G01X-430992Y-3117D01*
G01X-430530Y-2078D01*
G01X-429953Y-1039D01*
G01X-429491Y-116D01*
G01X-428567Y1270D01*
G01X-428221Y1963D01*
G01X-427759Y2540D01*
G01X-426951Y3348D01*
G01X-426258Y4272D01*
G01X-425104Y5426D01*
G01X-423718Y6581D01*
G01X-423141Y7158D01*
G01X-422564Y7620D01*
G01X-421756Y8197D01*
G01X-420716Y8890D01*
G01X-419677Y9467D01*
G01X-418754Y9929D01*
G01X-417946Y10276D01*
G01X-417253Y10622D01*
G01X-416444Y10968D01*
G01X-414366Y11661D01*
G01X-413443Y11892D01*
G01X-411364Y12354D01*
G01X-409286Y12584D01*
G01X-407093Y12700D01*
G01X-404899Y12584D01*
G01X-401204Y12354D01*
G01X-399588Y12123D01*
G01X-398434Y11892D01*
G01X-396933Y11546D01*
G01X-395547Y11084D01*
G01X-394277Y10622D01*
G01X-393700Y10391D01*
G01X-393700Y7158D01*
G01X-393787Y4763D01*
G01X-394046Y4041D01*
G01X-394970Y4387D01*
G01X-395778Y4849D01*
G01X-396702Y5196D01*
G01X-397741Y5542D01*
G01X-398664Y5888D01*
G01X-399588Y6119D01*
G01X-401666Y6581D01*
G01X-404437Y6812D01*
G01X-406169Y6927D01*
G01X-407901Y6812D01*
G01X-408709Y6696D01*
G01X-409979Y6581D01*
G01X-411134Y6350D01*
G01X-412173Y6119D01*
G01X-413558Y5773D01*
G01X-414713Y5311D01*
G01X-415752Y4849D01*
G01X-416676Y4387D01*
G01X-418754Y3002D01*
G01X-419908Y2078D01*
G01X-421871Y116D01*
G01X-422794Y-1039D01*
G01X-423487Y-2078D01*
G01X-423949Y-2886D01*
G01X-424642Y-4272D01*
G01X-425104Y-5311D01*
G01X-425566Y-6466D01*
G01X-426258Y-9006D01*
G01X-426489Y-10044D01*
G01X-426604Y-10968D01*
G01X-426720Y-15240D01*
G01X-426604Y-19512D01*
G01X-426489Y-20551D01*
G01X-426258Y-21706D01*
G01X-425566Y-24246D01*
G01X-425104Y-25400D01*
G01X-424642Y-26439D01*
G01X-423718Y-28286D01*
G01X-423256Y-28979D01*
G01X-421871Y-30826D01*
G01X-420139Y-32558D01*
G01X-419562Y-33020D01*
G01X-418754Y-33597D01*
G01X-417830Y-34174D01*
G01X-416214Y-35098D01*
G01X-415174Y-35560D01*
G01X-414136Y-35906D01*
G01X-412519Y-36368D01*
G01X-409748Y-36714D01*
G01X-408594Y-36830D01*
G01X-407670Y-36830D01*
G01X-404206Y-36484D01*
G01X-402821Y-36368D01*
G01X-401666Y-36137D01*
G01X-400743Y-35906D01*
G01X-399588Y-35676D01*
G01X-398318Y-35329D01*
G01X-397279Y-34983D01*
G01X-396356Y-34636D01*
G01X-395663Y-34290D01*
G01X-395086Y-33944D01*
G01X-394277Y-33597D01*
G01X-393700Y-33482D01*
G01X-393700Y-36253D01*
G01X-393931Y-39370D01*
G01X-394508Y-39832D01*
G01X-395201Y-40178D01*
G01X-396009Y-40524D01*
G01X-396933Y-40871D01*
G01X-397972Y-41217D01*
G01X-399357Y-41564D01*
G01X-400512Y-41910D01*
G01X-402359Y-42141D01*
G01X-404437Y-42372D01*
G01X-408247Y-42487D01*
G37*
G36*
G01X-373726Y-42718D02*
G01X-376613Y-42487D01*
G01X-378576Y-42141D01*
G01X-379961Y-41910D01*
G01X-381000Y-41564D01*
G01X-382270Y-41102D01*
G01X-383194Y-40640D01*
G01X-383453Y-39803D01*
G01X-383540Y-37754D01*
G01X-383453Y-35762D01*
G01X-383194Y-35098D01*
G01X-382501Y-35329D01*
G01X-380884Y-36022D01*
G01X-379846Y-36368D01*
G01X-378806Y-36599D01*
G01X-376959Y-37061D01*
G01X-374650Y-37176D01*
G01X-371648Y-37061D01*
G01X-369916Y-36714D01*
G01X-368531Y-36253D01*
G01X-367607Y-35791D01*
G01X-365991Y-34867D01*
G01X-364836Y-33944D01*
G01X-364374Y-33597D01*
G01X-363913Y-33020D01*
G01X-362758Y-31634D01*
G01X-362181Y-30711D01*
G01X-361719Y-29903D01*
G01X-361373Y-29326D01*
G01X-360680Y-27709D01*
G01X-360334Y-26670D01*
G01X-359987Y-25516D01*
G01X-359641Y-24476D01*
G01X-359410Y-23206D01*
G01X-359179Y-22283D01*
G01X-358948Y-20666D01*
G01X-358833Y-18357D01*
G01X-358929Y-16064D01*
G01X-359141Y-15888D01*
G01X-359410Y-16164D01*
G01X-360218Y-17203D01*
G01X-360911Y-18126D01*
G01X-361719Y-18934D01*
G01X-362643Y-19627D01*
G01X-363336Y-20089D01*
G01X-365183Y-21013D01*
G01X-366337Y-21359D01*
G01X-367607Y-21706D01*
G01X-369801Y-21936D01*
G01X-372110Y-21821D01*
G01X-374419Y-21359D01*
G01X-375343Y-21128D01*
G01X-376151Y-20897D01*
G01X-377074Y-20551D01*
G01X-377998Y-20089D01*
G01X-379037Y-19512D01*
G01X-379846Y-18934D01*
G01X-380538Y-18473D01*
G01X-381231Y-17896D01*
G01X-382386Y-16741D01*
G01X-383078Y-15817D01*
G01X-383771Y-14778D01*
G01X-384233Y-13970D01*
G01X-385156Y-12123D01*
G01X-385849Y-9814D01*
G01X-386080Y-8890D01*
G01X-386196Y-7966D01*
G01X-386311Y-5888D01*
G01X-386239Y-4156D01*
G01X-379846Y-4156D01*
G01X-379730Y-7043D01*
G01X-379499Y-8428D01*
G01X-379037Y-10044D01*
G01X-378460Y-11199D01*
G01X-377767Y-12354D01*
G01X-377074Y-13277D01*
G01X-376497Y-13854D01*
G01X-375920Y-14316D01*
G01X-374534Y-15240D01*
G01X-373611Y-15586D01*
G01X-372456Y-15933D01*
G01X-371186Y-16164D01*
G01X-371186Y-16164D01*
G01X-370263Y-16279D01*
G01X-369570Y-16394D01*
G01X-367723Y-16164D01*
G01X-366684Y-15933D01*
G01X-365644Y-15586D01*
G01X-364721Y-15240D01*
G01X-363797Y-14778D01*
G01X-362989Y-14201D01*
G01X-362412Y-13739D01*
G01X-361834Y-13162D01*
G01X-360680Y-11776D01*
G01X-360103Y-10737D01*
G01X-359641Y-9814D01*
G01X-359179Y-7736D01*
G01X-359064Y-6812D01*
G01X-359179Y-5196D01*
G01X-359410Y-3348D01*
G01X-359641Y-1963D01*
G01X-359872Y-1039D01*
G01X-360218Y0D01*
G01X-360680Y1270D01*
G01X-361257Y2309D01*
G01X-361719Y3117D01*
G01X-362181Y3694D01*
G01X-362989Y4503D01*
G01X-363682Y5311D01*
G01X-365067Y6234D01*
G01X-365876Y6581D01*
G01X-366799Y6927D01*
G01X-367607Y7158D01*
G01X-368416Y7274D01*
G01X-369339Y7389D01*
G01X-370263Y7274D01*
G01X-371302Y7158D01*
G01X-372341Y6927D01*
G01X-373496Y6581D01*
G01X-374534Y6119D01*
G01X-376151Y4964D01*
G01X-377306Y3810D01*
G01X-377883Y3002D01*
G01X-378460Y2078D01*
G01X-378922Y1154D01*
G01X-379384Y-116D01*
G01X-379730Y-1270D01*
G01X-379846Y-4156D01*
G01X-386239Y-4156D01*
G01X-386196Y-3117D01*
G01X-385964Y-1270D01*
G01X-385618Y231D01*
G01X-385272Y1270D01*
G01X-384926Y2194D01*
G01X-384464Y3233D01*
G01X-384002Y4156D01*
G01X-383424Y5080D01*
G01X-382732Y6119D01*
G01X-382039Y6927D01*
G01X-380076Y8890D01*
G01X-379268Y9583D01*
G01X-378460Y10160D01*
G01X-377652Y10622D01*
G01X-376613Y11084D01*
G01X-374766Y11776D01*
G01X-373726Y12123D01*
G01X-372803Y12354D01*
G01X-370263Y12584D01*
G01X-369454Y12700D01*
G01X-367838Y12469D01*
G01X-366568Y12354D01*
G01X-365414Y12123D01*
G01X-364374Y11892D01*
G01X-363336Y11546D01*
G01X-361950Y10853D01*
G01X-361142Y10391D01*
G01X-359756Y9467D01*
G01X-359064Y8890D01*
G01X-358486Y8313D01*
G01X-357563Y7158D01*
G01X-356986Y6581D01*
G01X-355831Y4734D01*
G01X-354907Y2886D01*
G01X-354214Y1039D01*
G01X-353868Y-116D01*
G01X-353176Y-2656D01*
G01X-352944Y-4272D01*
G01X-352714Y-5426D01*
G01X-352483Y-8659D01*
G01X-352367Y-11314D01*
G01X-352483Y-13970D01*
G01X-352598Y-16048D01*
G01X-352714Y-18357D01*
G01X-352944Y-19281D01*
G01X-353176Y-21128D01*
G01X-353291Y-21936D01*
G01X-353522Y-23091D01*
G01X-353868Y-24361D01*
G01X-354099Y-25284D01*
G01X-354792Y-27594D01*
G01X-355138Y-28633D01*
G01X-355600Y-29672D01*
G01X-355946Y-30480D01*
G01X-357101Y-32789D01*
G01X-357794Y-33828D01*
G01X-358948Y-35444D01*
G01X-359641Y-36253D01*
G01X-361950Y-38562D01*
G01X-362527Y-39024D01*
G01X-363336Y-39601D01*
G01X-364259Y-40178D01*
G01X-366106Y-41102D01*
G01X-369224Y-42141D01*
G01X-370494Y-42372D01*
G01X-371417Y-42603D01*
G01X-373726Y-42718D01*
G37*
G36*
G01X247038Y-952348D02*
G01X251078Y-952463D01*
G01X252002Y-952694D01*
G01X252926Y-952810D01*
G01X253965Y-953041D01*
G01X255004Y-953387D01*
G01X256158Y-953733D01*
G01X257428Y-954195D01*
G01X258468Y-954657D01*
G01X259391Y-955119D01*
G01X260430Y-955696D01*
G01X261354Y-956273D01*
G01X262047Y-956735D01*
G01X263201Y-957659D01*
G01X264009Y-958352D01*
G01X264933Y-959044D01*
G01X265857Y-960199D01*
G01X267011Y-961584D01*
G01X267704Y-962393D01*
G01X268281Y-963316D01*
G01X269205Y-964933D01*
G01X270128Y-966780D01*
G01X270821Y-968627D01*
G01X271168Y-969782D01*
G01X271514Y-971167D01*
G01X271860Y-972783D01*
G01X272091Y-974862D01*
G01X272322Y-976247D01*
G01X272438Y-978441D01*
G01X272322Y-980634D01*
G01X271860Y-984329D01*
G01X271745Y-985368D01*
G01X271514Y-986523D01*
G01X270821Y-989063D01*
G01X270475Y-990102D01*
G01X269782Y-991718D01*
G01X269320Y-992757D01*
G01X268743Y-993796D01*
G01X268281Y-994720D01*
G01X267358Y-996105D01*
G01X267011Y-996798D01*
G01X266549Y-997375D01*
G01X265741Y-998183D01*
G01X265048Y-999107D01*
G01X263894Y-1000262D01*
G01X262508Y-1001416D01*
G01X261931Y-1001993D01*
G01X261354Y-1002455D01*
G01X260546Y-1003033D01*
G01X259507Y-1003725D01*
G01X258468Y-1004303D01*
G01X257544Y-1004764D01*
G01X256736Y-1005111D01*
G01X256043Y-1005457D01*
G01X255235Y-1005803D01*
G01X253157Y-1006496D01*
G01X252233Y-1006727D01*
G01X250155Y-1007189D01*
G01X248077Y-1007420D01*
G01X245883Y-1007535D01*
G01X243689Y-1007420D01*
G01X239995Y-1007189D01*
G01X238378Y-1006958D01*
G01X237224Y-1006727D01*
G01X235723Y-1006381D01*
G01X234338Y-1005919D01*
G01X233068Y-1005457D01*
G01X232490Y-1005226D01*
G01X232490Y-1001993D01*
G01X232577Y-999598D01*
G01X232837Y-998876D01*
G01X233760Y-999223D01*
G01X234568Y-999684D01*
G01X235492Y-1000031D01*
G01X236531Y-1000377D01*
G01X237455Y-1000723D01*
G01X238378Y-1000954D01*
G01X240457Y-1001416D01*
G01X243228Y-1001647D01*
G01X244959Y-1001763D01*
G01X246691Y-1001647D01*
G01X247499Y-1001532D01*
G01X248769Y-1001416D01*
G01X249924Y-1001185D01*
G01X250963Y-1000954D01*
G01X252348Y-1000608D01*
G01X253503Y-1000146D01*
G01X254542Y-999684D01*
G01X255466Y-999223D01*
G01X257544Y-997837D01*
G01X258698Y-996913D01*
G01X260661Y-994951D01*
G01X261585Y-993796D01*
G01X262278Y-992757D01*
G01X262739Y-991949D01*
G01X263432Y-990563D01*
G01X263894Y-989524D01*
G01X264356Y-988370D01*
G01X265048Y-985830D01*
G01X265279Y-984791D01*
G01X265395Y-983867D01*
G01X265510Y-979595D01*
G01X265395Y-975323D01*
G01X265279Y-974284D01*
G01X265048Y-973130D01*
G01X264356Y-970590D01*
G01X263894Y-969435D01*
G01X263432Y-968396D01*
G01X262508Y-966549D01*
G01X262047Y-965856D01*
G01X260661Y-964009D01*
G01X258929Y-962277D01*
G01X258352Y-961815D01*
G01X257544Y-961238D01*
G01X256620Y-960661D01*
G01X255004Y-959737D01*
G01X253965Y-959275D01*
G01X252926Y-958929D01*
G01X251309Y-958467D01*
G01X248538Y-958121D01*
G01X247384Y-958005D01*
G01X246460Y-958005D01*
G01X242997Y-958352D01*
G01X241611Y-958467D01*
G01X240457Y-958698D01*
G01X239533Y-958929D01*
G01X238378Y-959160D01*
G01X237108Y-959506D01*
G01X236069Y-959853D01*
G01X235146Y-960199D01*
G01X234453Y-960545D01*
G01X233876Y-960892D01*
G01X233068Y-961238D01*
G01X232490Y-961353D01*
G01X232490Y-958583D01*
G01X232721Y-955465D01*
G01X233298Y-955003D01*
G01X233991Y-954657D01*
G01X234799Y-954311D01*
G01X235723Y-953964D01*
G01X236762Y-953618D01*
G01X238148Y-953272D01*
G01X239302Y-952925D01*
G01X241149Y-952694D01*
G01X243228Y-952463D01*
G01X247038Y-952348D01*
G37*
G36*
G01X167374Y-952117D02*
G01X168759Y-952233D01*
G01X169337Y-952463D01*
G01X170260Y-952579D01*
G01X171646Y-952810D01*
G01X172916Y-953272D01*
G01X173955Y-953733D01*
G01X175571Y-954542D01*
G01X177303Y-955927D01*
G01X178458Y-957082D01*
G01X178919Y-957659D01*
G01X180074Y-959275D01*
G01X180536Y-960083D01*
G01X181459Y-961931D01*
G01X181921Y-963085D01*
G01X182383Y-964355D01*
G01X182845Y-965856D01*
G01X183191Y-967011D01*
G01X183653Y-969089D01*
G01X183768Y-969897D01*
G01X183884Y-971167D01*
G01X184115Y-972322D01*
G01X184461Y-978556D01*
G01X184346Y-980634D01*
G01X184230Y-982943D01*
G01X184115Y-985483D01*
G01X183884Y-986407D01*
G01X183653Y-988485D01*
G01X183538Y-989409D01*
G01X183307Y-990448D01*
G01X182960Y-991718D01*
G01X182729Y-992873D01*
G01X182498Y-993796D01*
G01X182152Y-994835D01*
G01X181806Y-995759D01*
G01X180767Y-998183D01*
G01X180305Y-998992D01*
G01X179728Y-1000031D01*
G01X179150Y-1000839D01*
G01X178688Y-1001532D01*
G01X178111Y-1002224D01*
G01X176264Y-1004072D01*
G01X175340Y-1004764D01*
G01X173493Y-1005919D01*
G01X172569Y-1006381D01*
G01X171646Y-1006727D01*
G01X170029Y-1007189D01*
G01X167720Y-1007420D01*
G01X166681Y-1007535D01*
G01X165642Y-1007420D01*
G01X164834Y-1007304D01*
G01X163564Y-1007189D01*
G01X162409Y-1006958D01*
G01X161486Y-1006727D01*
G01X160562Y-1006381D01*
G01X159523Y-1005919D01*
G01X158253Y-1005226D01*
G01X157329Y-1004649D01*
G01X156752Y-1004187D01*
G01X155367Y-1002802D01*
G01X154674Y-1001878D01*
G01X154212Y-1001301D01*
G01X153750Y-1000608D01*
G01X153288Y-999800D01*
G01X152596Y-998414D01*
G01X151903Y-996798D01*
G01X151557Y-995759D01*
G01X150864Y-993450D01*
G01X150633Y-992411D01*
G01X150171Y-990102D01*
G01X149940Y-987793D01*
G01X149709Y-985253D01*
G01X149594Y-980634D01*
G01X149631Y-979133D01*
G01X155828Y-979133D01*
G01X155944Y-982713D01*
G01X156175Y-984791D01*
G01X156406Y-987793D01*
G01X156521Y-988601D01*
G01X156637Y-989640D01*
G01X156868Y-990794D01*
G01X157098Y-991718D01*
G01X157214Y-992526D01*
G01X157445Y-993450D01*
G01X158138Y-995528D01*
G01X158484Y-996336D01*
G01X158830Y-997029D01*
G01X159292Y-997837D01*
G01X160216Y-999223D01*
G01X160793Y-999915D01*
G01X161370Y-1000377D01*
G01X162178Y-1000954D01*
G01X163218Y-1001532D01*
G01X164141Y-1001878D01*
G01X164949Y-1002109D01*
G01X166335Y-1002224D01*
G01X167720Y-1002109D01*
G01X168875Y-1001878D01*
G01X170029Y-1001532D01*
G01X170953Y-1001070D01*
G01X171761Y-1000608D01*
G01X172569Y-1000031D01*
G01X173378Y-999338D01*
G01X173839Y-998761D01*
G01X174763Y-997375D01*
G01X175456Y-995990D01*
G01X175802Y-995182D01*
G01X176148Y-994258D01*
G01X176495Y-993219D01*
G01X176726Y-992180D01*
G01X177188Y-990333D01*
G01X177880Y-984791D01*
G01X177996Y-979480D01*
G01X177880Y-974169D01*
G01X177649Y-972553D01*
G01X177418Y-970705D01*
G01X177072Y-968281D01*
G01X176610Y-966664D01*
G01X176379Y-965741D01*
G01X175687Y-963893D01*
G01X175340Y-963085D01*
G01X174648Y-961700D01*
G01X174186Y-961123D01*
G01X172800Y-959506D01*
G01X172223Y-959044D01*
G01X171415Y-958583D01*
G01X170491Y-958121D01*
G01X169683Y-957890D01*
G01X169683Y-957890D01*
G01X169106Y-957774D01*
G01X167374Y-957659D01*
G01X164949Y-957774D01*
G01X163564Y-958121D01*
G01X162640Y-958583D01*
G01X161717Y-959160D01*
G01X160908Y-959853D01*
G01X160331Y-960430D01*
G01X159638Y-961238D01*
G01X159061Y-962046D01*
G01X158368Y-963432D01*
G01X158022Y-964240D01*
G01X157676Y-965279D01*
G01X157329Y-966433D01*
G01X156983Y-967819D01*
G01X156637Y-968858D01*
G01X156406Y-970705D01*
G01X156175Y-973476D01*
G01X155944Y-975554D01*
G01X155828Y-979133D01*
G01X149631Y-979133D01*
G01X149709Y-976016D01*
G01X149940Y-973476D01*
G01X150171Y-971398D01*
G01X150633Y-969320D01*
G01X150748Y-968512D01*
G01X150979Y-967588D01*
G01X151326Y-966318D01*
G01X151672Y-965163D01*
G01X152365Y-963316D01*
G01X152827Y-962393D01*
G01X153288Y-961353D01*
G01X154212Y-959737D01*
G01X154674Y-959044D01*
G01X155251Y-958236D01*
G01X155944Y-957428D01*
G01X156406Y-956851D01*
G01X157098Y-956043D01*
G01X158022Y-955350D01*
G01X158830Y-954773D01*
G01X159754Y-954195D01*
G01X160562Y-953733D01*
G01X162178Y-953041D01*
G01X163448Y-952694D01*
G01X164949Y-952463D01*
G01X165873Y-952233D01*
G01X167374Y-952117D01*
G37*
G36*
G01X224639Y-953272D02*
G01X224639Y-955003D01*
G01X224524Y-957543D01*
G01X224293Y-959160D01*
G01X224062Y-960314D01*
G01X223947Y-961123D01*
G01X223716Y-962162D01*
G01X222792Y-964240D01*
G01X222330Y-965163D01*
G01X221868Y-965972D01*
G01X221176Y-967011D01*
G01X220483Y-967934D01*
G01X219098Y-969320D01*
G01X218405Y-970128D01*
G01X217828Y-970590D01*
G01X216673Y-971744D01*
G01X213787Y-974053D01*
G01X213209Y-974400D01*
G01X212632Y-974862D01*
G01X211824Y-975554D01*
G01X210669Y-976363D01*
G01X209746Y-977055D01*
G01X209168Y-977517D01*
G01X208591Y-977863D01*
G01X206859Y-979249D01*
G01X206051Y-980057D01*
G01X205243Y-980750D01*
G01X204781Y-981327D01*
G01X203627Y-982482D01*
G01X202703Y-983636D01*
G01X202241Y-984329D01*
G01X201318Y-985945D01*
G01X200971Y-986753D01*
G01X200625Y-987793D01*
G01X200278Y-988716D01*
G01X199932Y-991833D01*
G01X200048Y-993334D01*
G01X200278Y-995182D01*
G01X200625Y-996567D01*
G01X200971Y-997375D01*
G01X201433Y-998299D01*
G01X202010Y-999107D01*
G01X202818Y-999915D01*
G01X203973Y-1000723D01*
G01X204897Y-1001301D01*
G01X205820Y-1001647D01*
G01X206744Y-1001878D01*
G01X209168Y-1001993D01*
G01X212055Y-1001878D01*
G01X213671Y-1001532D01*
G01X214941Y-1001070D01*
G01X215980Y-1000608D01*
G01X216904Y-1000146D01*
G01X217712Y-999684D01*
G01X218751Y-998992D01*
G01X219675Y-998299D01*
G01X220829Y-997375D01*
G01X221522Y-996683D01*
G01X222215Y-996105D01*
G01X222475Y-996769D01*
G01X222561Y-998992D01*
G01X222330Y-1002340D01*
G01X221868Y-1002917D01*
G01X220714Y-1003841D01*
G01X219906Y-1004418D01*
G01X218751Y-1005111D01*
G01X217712Y-1005688D01*
G01X216673Y-1006150D01*
G01X215518Y-1006612D01*
G01X214364Y-1006958D01*
G01X212978Y-1007189D01*
G01X211824Y-1007420D01*
G01X209977Y-1007535D01*
G01X207437Y-1007420D01*
G01X206051Y-1007189D01*
G01X204781Y-1006958D01*
G01X203280Y-1006612D01*
G01X202126Y-1006150D01*
G01X201087Y-1005688D01*
G01X200048Y-1005111D01*
G01X199239Y-1004533D01*
G01X198662Y-1004187D01*
G01X198085Y-1003725D01*
G01X196699Y-1002340D01*
G01X196007Y-1001416D01*
G01X195429Y-1000493D01*
G01X194852Y-999338D01*
G01X194390Y-998299D01*
G01X193928Y-996452D01*
G01X193698Y-992988D01*
G01X193928Y-989524D01*
G01X194390Y-987446D01*
G01X194737Y-986407D01*
G01X195083Y-985483D01*
G01X196007Y-983636D01*
G01X196353Y-982828D01*
G01X196815Y-982135D01*
G01X197508Y-981327D01*
G01X198085Y-980519D01*
G01X198547Y-979942D01*
G01X200856Y-977633D01*
G01X202010Y-976709D01*
G01X202588Y-976132D01*
G01X203742Y-975208D01*
G01X204666Y-974515D01*
G01X206975Y-972899D01*
G01X207898Y-972206D01*
G01X208707Y-971629D01*
G01X209746Y-970821D01*
G01X212517Y-968743D01*
G01X213094Y-968165D01*
G01X214710Y-966780D01*
G01X215288Y-966087D01*
G01X215865Y-965510D01*
G01X216788Y-964124D01*
G01X217250Y-963316D01*
G01X217712Y-962046D01*
G01X218058Y-960545D01*
G01X218058Y-959160D01*
G01X217943Y-958583D01*
G01X191619Y-958583D01*
G01X191619Y-953272D01*
G01X224639Y-953272D01*
G37*
G36*
G01X-331795Y-799993D02*
G01X-334734Y-802769D01*
G01X-337347Y-805544D01*
G01X-338653Y-807177D01*
G01X-339796Y-808647D01*
G01X-340367Y-809708D01*
G01X-341102Y-810933D01*
G01X-341592Y-811912D01*
G01X-342000Y-812810D01*
G01X-342327Y-813627D01*
G01X-342572Y-814361D01*
G01X-342653Y-815096D01*
G01X-340612Y-817464D01*
G01X-338653Y-819423D01*
G01X-338326Y-818933D01*
G01X-338000Y-818117D01*
G01X-337837Y-817464D01*
G01X-337592Y-816729D01*
G01X-337183Y-815831D01*
G01X-336694Y-814851D01*
G01X-336041Y-813708D01*
G01X-335388Y-812729D01*
G01X-334898Y-811912D01*
G01X-334245Y-810933D01*
G01X-333346Y-809871D01*
G01X-331142Y-807177D01*
G01X-330489Y-806524D01*
G01X-329591Y-805789D01*
G01X-327387Y-804075D01*
G01X-325917Y-803258D01*
G01X-324938Y-802769D01*
G01X-323877Y-802361D01*
G01X-322080Y-801871D01*
G01X-321019Y-801626D01*
G01X-320039Y-801463D01*
G01X-319305Y-801381D01*
G01X-316856Y-801381D01*
G01X-314570Y-801707D01*
G01X-313753Y-801871D01*
G01X-311794Y-802524D01*
G01X-310733Y-802932D01*
G01X-309590Y-803422D01*
G01X-307304Y-804728D01*
G01X-306324Y-805381D01*
G01X-305508Y-806034D01*
G01X-302405Y-808973D01*
G01X-299467Y-812076D01*
G01X-298895Y-812810D01*
G01X-298324Y-813708D01*
G01X-297017Y-815994D01*
G01X-296528Y-817137D01*
G01X-296119Y-818199D01*
G01X-295629Y-819668D01*
G01X-295385Y-820566D01*
G01X-295140Y-821791D01*
G01X-294976Y-823260D01*
G01X-294976Y-826036D01*
G01X-295140Y-827505D01*
G01X-295629Y-829954D01*
G01X-295956Y-830934D01*
G01X-296364Y-831995D01*
G01X-296854Y-833138D01*
G01X-297589Y-834363D01*
G01X-298160Y-835261D01*
G01X-298813Y-836241D01*
G01X-299630Y-837220D01*
G01X-300120Y-837873D01*
G01X-301262Y-839180D01*
G01X-302569Y-840322D01*
G01X-304691Y-842118D01*
G01X-306487Y-843262D01*
G01X-307304Y-843751D01*
G01X-308202Y-844160D01*
G01X-309181Y-844649D01*
G01X-310079Y-845058D01*
G01X-310977Y-845303D01*
G01X-311876Y-845711D01*
G01X-311549Y-846405D01*
G01X-309916Y-848160D01*
G01X-307630Y-850446D01*
G01X-307059Y-850201D01*
G01X-305834Y-849629D01*
G01X-304528Y-848976D01*
G01X-303222Y-848160D01*
G01X-302242Y-847507D01*
G01X-300936Y-846527D01*
G01X-298160Y-844078D01*
G01X-296528Y-842608D01*
G01X-295058Y-840975D01*
G01X-293752Y-839343D01*
G01X-292609Y-837547D01*
G01X-292119Y-836730D01*
G01X-291139Y-834771D01*
G01X-290813Y-833955D01*
G01X-290568Y-833220D01*
G01X-290241Y-832404D01*
G01X-289915Y-831424D01*
G01X-289588Y-830281D01*
G01X-289343Y-829056D01*
G01X-289180Y-828077D01*
G01X-289098Y-827342D01*
G01X-289098Y-826526D01*
G01X-288935Y-824730D01*
G01X-288935Y-823097D01*
G01X-289098Y-821954D01*
G01X-289098Y-820811D01*
G01X-289180Y-820076D01*
G01X-289425Y-819341D01*
G01X-289752Y-817709D01*
G01X-290078Y-816729D01*
G01X-290405Y-815586D01*
G01X-290813Y-814525D01*
G01X-291466Y-812892D01*
G01X-291956Y-811912D01*
G01X-293262Y-809626D01*
G01X-293915Y-808647D01*
G01X-294568Y-807830D01*
G01X-296854Y-804891D01*
G01X-298323Y-803259D01*
G01X-299956Y-801789D01*
G01X-301099Y-800973D01*
G01X-302732Y-799666D01*
G01X-304120Y-798768D01*
G01X-305344Y-798034D01*
G01X-306406Y-797462D01*
G01X-308202Y-796646D01*
G01X-310161Y-795993D01*
G01X-311957Y-795503D01*
G01X-313019Y-795258D01*
G01X-314080Y-795176D01*
G01X-315876Y-795013D01*
G01X-317345Y-794850D01*
G01X-318488Y-795013D01*
G01X-319550Y-795095D01*
G01X-321019Y-795258D01*
G01X-321836Y-795421D01*
G01X-322897Y-795666D01*
G01X-324040Y-795993D01*
G01X-325019Y-796319D01*
G01X-326081Y-796727D01*
G01X-327305Y-797299D01*
G01X-328367Y-797870D01*
G01X-329346Y-798360D01*
G01X-330244Y-798932D01*
G01X-330979Y-799503D01*
G01X-331795Y-799993D01*
G37*
G36*
G01X-348695Y-820484D02*
G01X-349919Y-819260D01*
G01X-373268Y-842608D01*
G01X-369512Y-846364D01*
G01X-350899Y-827750D01*
G01X-350409Y-828077D01*
G01X-349429Y-829056D01*
G01X-348613Y-830363D01*
G01X-348042Y-831587D01*
G01X-347797Y-832485D01*
G01X-347470Y-834118D01*
G01X-347470Y-834934D01*
G01X-347388Y-835832D01*
G01X-347552Y-837955D01*
G01X-347552Y-838771D01*
G01X-348041Y-842200D01*
G01X-348205Y-843506D01*
G01X-348368Y-844486D01*
G01X-348531Y-845629D01*
G01X-349021Y-848405D01*
G01X-349185Y-849548D01*
G01X-349348Y-851017D01*
G01X-349348Y-851834D01*
G01X-349511Y-853303D01*
G01X-349511Y-856569D01*
G01X-349429Y-857303D01*
G01X-349266Y-858283D01*
G01X-349185Y-859344D01*
G01X-349021Y-860161D01*
G01X-348695Y-860977D01*
G01X-348042Y-862937D01*
G01X-347633Y-863834D01*
G01X-347143Y-864814D01*
G01X-346000Y-866610D01*
G01X-343715Y-869223D01*
G01X-341102Y-871509D01*
G01X-339469Y-872488D01*
G01X-338408Y-872896D01*
G01X-337183Y-873305D01*
G01X-336122Y-873549D01*
G01X-334979Y-873713D01*
G01X-333020Y-873713D01*
G01X-332285Y-873631D01*
G01X-331632Y-873468D01*
G01X-330652Y-873305D01*
G01X-329509Y-872978D01*
G01X-328448Y-872570D01*
G01X-327305Y-872080D01*
G01X-325999Y-871264D01*
G01X-324938Y-870529D01*
G01X-323795Y-869712D01*
G01X-321917Y-867998D01*
G01X-320693Y-866610D01*
G01X-320039Y-865630D01*
G01X-319223Y-864488D01*
G01X-318651Y-863426D01*
G01X-318162Y-862283D01*
G01X-317754Y-861222D01*
G01X-317427Y-860079D01*
G01X-317100Y-858773D01*
G01X-316937Y-857793D01*
G01X-316774Y-856324D01*
G01X-316856Y-855589D01*
G01X-319060Y-853058D01*
G01X-320692Y-851548D01*
G01X-321346Y-851262D01*
G01X-321427Y-852160D01*
G01X-321427Y-853140D01*
G01X-321591Y-854609D01*
G01X-321754Y-855752D01*
G01X-321999Y-856977D01*
G01X-322244Y-857875D01*
G01X-322570Y-858854D01*
G01X-322979Y-859916D01*
G01X-323550Y-861140D01*
G01X-324448Y-862528D01*
G01X-326407Y-864651D01*
G01X-328203Y-866284D01*
G01X-329020Y-866773D01*
G01X-329918Y-867182D01*
G01X-330979Y-867427D01*
G01X-332367Y-867671D01*
G01X-333510Y-867671D01*
G01X-334490Y-867508D01*
G01X-335469Y-867182D01*
G01X-336286Y-866855D01*
G01X-337510Y-866120D01*
G01X-338980Y-864977D01*
G01X-340123Y-863998D01*
G01X-342082Y-861549D01*
G01X-342490Y-860651D01*
G01X-342980Y-859671D01*
G01X-343306Y-858854D01*
G01X-343796Y-857058D01*
G01X-343960Y-856242D01*
G01X-344123Y-854773D01*
G01X-344123Y-853140D01*
G01X-344205Y-852405D01*
G01X-344123Y-851344D01*
G01X-344123Y-850201D01*
G01X-343878Y-847997D01*
G01X-343715Y-847343D01*
G01X-343633Y-846609D01*
G01X-343470Y-845466D01*
G01X-343225Y-844078D01*
G01X-343143Y-843017D01*
G01X-343062Y-842282D01*
G01X-342898Y-841629D01*
G01X-342490Y-837955D01*
G01X-342490Y-836322D01*
G01X-342409Y-835588D01*
G01X-342490Y-834526D01*
G01X-342490Y-832567D01*
G01X-342653Y-831424D01*
G01X-342898Y-830199D01*
G01X-343143Y-829301D01*
G01X-343470Y-828322D01*
G01X-344286Y-826199D01*
G01X-344857Y-825301D01*
G01X-345347Y-824648D01*
G01X-346001Y-823668D01*
G01X-346980Y-822362D01*
G01X-348695Y-820484D01*
G37*
G36*
G01X-374819Y-876325D02*
G01X-390902Y-860242D01*
G01X-395147Y-864488D01*
G01X-356614Y-903021D01*
G01X-355797Y-902205D01*
G01X-354981Y-901062D01*
G01X-354817Y-899592D01*
G01X-354328Y-896653D01*
G01X-353674Y-894041D01*
G01X-353266Y-892816D01*
G01X-352940Y-891673D01*
G01X-352613Y-890694D01*
G01X-351960Y-889061D01*
G01X-351715Y-888326D01*
G01X-351389Y-887510D01*
G01X-350981Y-886612D01*
G01X-350001Y-884652D01*
G01X-349919Y-883918D01*
G01X-351879Y-881632D01*
G01X-353838Y-879672D01*
G01X-354409Y-880244D01*
G01X-355062Y-881223D01*
G01X-355879Y-883020D01*
G01X-356695Y-885142D01*
G01X-357348Y-887101D01*
G01X-357593Y-888163D01*
G01X-357920Y-889469D01*
G01X-358165Y-890530D01*
G01X-358246Y-891265D01*
G01X-358491Y-892000D01*
G01X-358736Y-892408D01*
G01X-374819Y-876325D01*
G37*
G36*
G01X-303952Y-946140D02*
G01X-307185Y-945909D01*
G01X-307300Y-920048D01*
G01X-307206Y-898573D01*
G01X-300835Y-898573D01*
G01X-300835Y-907809D01*
G01X-300719Y-917392D01*
G01X-300719Y-917392D01*
G01X-300488Y-917854D01*
G01X-297025Y-917969D01*
G01X-292637Y-917854D01*
G01X-291252Y-917623D01*
G01X-288827Y-917277D01*
G01X-288019Y-917046D01*
G01X-286980Y-916584D01*
G01X-286056Y-916122D01*
G01X-285364Y-915660D01*
G01X-284671Y-915083D01*
G01X-284094Y-914506D01*
G01X-283401Y-913698D01*
G01X-282824Y-912774D01*
G01X-282362Y-911966D01*
G01X-282015Y-911158D01*
G01X-281785Y-909541D01*
G01X-281669Y-907694D01*
G01X-281900Y-905385D01*
G01X-282246Y-904230D01*
G01X-282593Y-903307D01*
G01X-283055Y-902499D01*
G01X-283632Y-901690D01*
G01X-284325Y-900882D01*
G01X-285017Y-900420D01*
G01X-285825Y-899959D01*
G01X-286749Y-899497D01*
G01X-287673Y-899150D01*
G01X-288481Y-898919D01*
G01X-290790Y-898689D01*
G01X-295985Y-898573D01*
G01X-300835Y-898573D01*
G01X-307206Y-898573D01*
G01X-307185Y-893609D01*
G01X-307069Y-892800D01*
G01X-298756Y-892800D01*
G01X-289405Y-892916D01*
G01X-288019Y-893147D01*
G01X-286865Y-893378D01*
G01X-285479Y-893609D01*
G01X-284325Y-893955D01*
G01X-282477Y-894648D01*
G01X-281323Y-895225D01*
G01X-280168Y-896033D01*
G01X-279245Y-896726D01*
G01X-278090Y-897880D01*
G01X-277513Y-898573D01*
G01X-277051Y-899266D01*
G01X-276127Y-900882D01*
G01X-275781Y-901806D01*
G01X-275435Y-902845D01*
G01X-275204Y-903653D01*
G01X-275088Y-904461D01*
G01X-274973Y-906193D01*
G01X-275088Y-908618D01*
G01X-275319Y-910234D01*
G01X-275665Y-911619D01*
G01X-276127Y-912774D01*
G01X-276474Y-913582D01*
G01X-276820Y-914275D01*
G01X-277975Y-916007D01*
G01X-278667Y-916815D01*
G01X-279591Y-917739D01*
G01X-280168Y-918200D01*
G01X-281092Y-918893D01*
G01X-282131Y-919586D01*
G01X-282939Y-920048D01*
G01X-283747Y-920394D01*
G01X-285595Y-921087D01*
G01X-286287Y-921433D01*
G01X-286383Y-921688D01*
G01X-286172Y-921895D01*
G01X-285248Y-922472D01*
G01X-284440Y-923049D01*
G01X-283863Y-923511D01*
G01X-282131Y-925243D01*
G01X-281669Y-925820D01*
G01X-280745Y-927206D01*
G01X-280168Y-928014D01*
G01X-279475Y-929169D01*
G01X-278783Y-930208D01*
G01X-278205Y-931131D01*
G01X-277744Y-931824D01*
G01X-276820Y-933440D01*
G01X-276243Y-934249D01*
G01X-274857Y-936558D01*
G01X-274280Y-937481D01*
G01X-273818Y-938174D01*
G01X-272664Y-940021D01*
G01X-272202Y-940829D01*
G01X-271625Y-941753D01*
G01X-270932Y-942792D01*
G01X-270239Y-943947D01*
G01X-269662Y-944870D01*
G01X-269200Y-945679D01*
G01X-268969Y-946140D01*
G01X-272664Y-946140D01*
G01X-275492Y-946054D01*
G01X-276589Y-945794D01*
G01X-277166Y-944870D01*
G01X-278552Y-942561D01*
G01X-279129Y-941638D01*
G01X-279591Y-940829D01*
G01X-280168Y-939790D01*
G01X-281554Y-937481D01*
G01X-282131Y-936558D01*
G01X-282593Y-935749D01*
G01X-283170Y-934710D01*
G01X-285248Y-931247D01*
G01X-286634Y-929169D01*
G01X-287788Y-927552D01*
G01X-288481Y-926744D01*
G01X-289635Y-925589D01*
G01X-290444Y-925012D01*
G01X-291483Y-924435D01*
G01X-292637Y-923973D01*
G01X-293561Y-923627D01*
G01X-297371Y-923511D01*
G01X-300835Y-923511D01*
G01X-300835Y-946140D01*
G01X-303952Y-946140D01*
G37*
G36*
G01X-251305Y-947295D02*
G01X-253498Y-947179D01*
G01X-254768Y-946949D01*
G01X-256615Y-946718D01*
G01X-258001Y-946487D01*
G01X-259386Y-946140D01*
G01X-260772Y-945679D01*
G01X-261926Y-945101D01*
G01X-262504Y-944755D01*
G01X-262504Y-941638D01*
G01X-262417Y-939329D01*
G01X-262157Y-938636D01*
G01X-261234Y-939098D01*
G01X-260195Y-939675D01*
G01X-259271Y-940137D01*
G01X-258116Y-940599D01*
G01X-256846Y-941060D01*
G01X-255923Y-941407D01*
G01X-254306Y-941638D01*
G01X-251305Y-941753D01*
G01X-247841Y-941522D01*
G01X-246686Y-941176D01*
G01X-245647Y-940829D01*
G01X-244377Y-940252D01*
G01X-243569Y-939675D01*
G01X-242992Y-939329D01*
G01X-242415Y-938867D01*
G01X-241260Y-937712D01*
G01X-240798Y-937135D01*
G01X-240452Y-936558D01*
G01X-239990Y-935749D01*
G01X-239528Y-934595D01*
G01X-239182Y-933556D01*
G01X-238951Y-932517D01*
G01X-238835Y-931478D01*
G01X-238720Y-930554D01*
G01X-239066Y-927783D01*
G01X-239297Y-926744D01*
G01X-239644Y-925705D01*
G01X-240105Y-924781D01*
G01X-240567Y-923973D01*
G01X-241029Y-923396D01*
G01X-242184Y-922241D01*
G01X-242876Y-921664D01*
G01X-243800Y-921087D01*
G01X-244955Y-920509D01*
G01X-246109Y-920048D01*
G01X-248187Y-919586D01*
G01X-249688Y-919355D01*
G01X-251074Y-919239D01*
G01X-252344Y-919124D01*
G01X-253614Y-919239D01*
G01X-259617Y-919470D01*
G01X-260656Y-919586D01*
G01X-261205Y-919470D01*
G01X-261465Y-919124D01*
G01X-261465Y-918316D01*
G01X-261234Y-916699D01*
G01X-261003Y-913467D01*
G01X-260772Y-908618D01*
G01X-260541Y-906770D01*
G01X-260310Y-903307D01*
G01X-260079Y-898919D01*
G01X-259848Y-896610D01*
G01X-259733Y-895109D01*
G01X-259617Y-893378D01*
G01X-259502Y-892800D01*
G01X-235025Y-892800D01*
G01X-235025Y-898342D01*
G01X-244262Y-898342D01*
G01X-253960Y-898573D01*
G01X-254306Y-899208D01*
G01X-254422Y-900651D01*
G01X-254537Y-902845D01*
G01X-254768Y-904692D01*
G01X-254999Y-908156D01*
G01X-255230Y-912543D01*
G01X-255345Y-913351D01*
G01X-255230Y-913727D01*
G01X-254884Y-913929D01*
G01X-254075Y-913929D01*
G01X-251535Y-913813D01*
G01X-248995Y-913929D01*
G01X-247725Y-914044D01*
G01X-246225Y-914159D01*
G01X-245301Y-914390D01*
G01X-244146Y-914621D01*
G01X-242992Y-914968D01*
G01X-241145Y-915660D01*
G01X-239759Y-916353D01*
G01X-239066Y-916815D01*
G01X-238489Y-917277D01*
G01X-237681Y-917854D01*
G01X-236873Y-918547D01*
G01X-235718Y-919701D01*
G01X-235141Y-920509D01*
G01X-234564Y-921433D01*
G01X-234102Y-922241D01*
G01X-233640Y-923165D01*
G01X-233294Y-924089D01*
G01X-232832Y-925705D01*
G01X-232601Y-927321D01*
G01X-232370Y-928707D01*
G01X-232370Y-930092D01*
G01X-232716Y-932517D01*
G01X-232832Y-933556D01*
G01X-233294Y-935403D01*
G01X-233640Y-936442D01*
G01X-234102Y-937481D01*
G01X-234564Y-938405D01*
G01X-235025Y-939213D01*
G01X-235718Y-940252D01*
G01X-236411Y-941176D01*
G01X-238143Y-942908D01*
G01X-239066Y-943600D01*
G01X-240798Y-944755D01*
G01X-241491Y-945101D01*
G01X-242415Y-945448D01*
G01X-243569Y-945909D01*
G01X-244608Y-946256D01*
G01X-246225Y-946718D01*
G01X-247033Y-946833D01*
G01X-248072Y-946949D01*
G01X-248995Y-947179D01*
G01X-251305Y-947295D01*
G37*
G04 Text End*
G54D10*

M02*

