G04 Layer: CustomLayer3*
G04 EasyEDA Pro v2.2.39.2, 2025-05-28 09:36:40*
G04 Gerber Generator version 0.3*
G04 Scale: 100 percent, Rotated: No, Reflected: No*
G04 Dimensions in millimeters*
G04 Leading zeros omitted, absolute positions, 4 integers and 5 decimals*
G04 Generated by one-click*
%FSLAX45Y45*%
%MOMM*%
%ADD10C,0.254*%
%ADD11C,0.0645*%
G75*


G04 Text Start*
G36*
G01X-322398Y665133D02*
G01X-322398Y672753D01*
G01X-334233Y672753D01*
G01X-346124Y672811D01*
G01X-346182Y674427D01*
G01X-346182Y675986D01*
G01X-322398Y675986D01*
G01X-322398Y683606D01*
G01X-322110Y683664D01*
G01X-320724Y683721D01*
G01X-319628Y683721D01*
G01X-319570Y683433D01*
G01X-319512Y674196D01*
G01X-319512Y665249D01*
G01X-319801Y665191D01*
G01X-321244Y665133D01*
G01X-322398Y665133D01*
G37*
G36*
G01X-346240Y733713D02*
G01X-346355Y734117D01*
G01X-346471Y734810D01*
G01X-346586Y735387D01*
G01X-346644Y736542D01*
G01X-343931Y736542D01*
G01X-343873Y735734D01*
G01X-343758Y734983D01*
G01X-343584Y734464D01*
G01X-343411Y734002D01*
G01X-343180Y733598D01*
G01X-342834Y733078D01*
G01X-342430Y732674D01*
G01X-341853Y732212D01*
G01X-341506Y731981D01*
G01X-341044Y731750D01*
G01X-340352Y731519D01*
G01X-339774Y731346D01*
G01X-338504Y731231D01*
G01X-338158Y731231D01*
G01X-337581Y731289D01*
G01X-337003Y731404D01*
G01X-336484Y731577D01*
G01X-336022Y731750D01*
G01X-335618Y731981D01*
G01X-335214Y732270D01*
G01X-334637Y732732D01*
G01X-334175Y733309D01*
G01X-333944Y733655D01*
G01X-333713Y734117D01*
G01X-333367Y735041D01*
G01X-333251Y735560D01*
G01X-333193Y735964D01*
G01X-333157Y736369D01*
G01X-330596Y736369D01*
G01X-330538Y735849D01*
G01X-330423Y735445D01*
G01X-330307Y734925D01*
G01X-330076Y734464D01*
G01X-329788Y734002D01*
G01X-329557Y733713D01*
G01X-329326Y733482D01*
G01X-328748Y733020D01*
G01X-328344Y732789D01*
G01X-327883Y732559D01*
G01X-327305Y732385D01*
G01X-326728Y732270D01*
G01X-325862Y732212D01*
G01X-324996Y732270D01*
G01X-324477Y732443D01*
G01X-323957Y732674D01*
G01X-323553Y732905D01*
G01X-323207Y733194D01*
G01X-322918Y733482D01*
G01X-322572Y733886D01*
G01X-322225Y734464D01*
G01X-321994Y735041D01*
G01X-321821Y735503D01*
G01X-321706Y736599D01*
G01X-321821Y737754D01*
G01X-322052Y738331D01*
G01X-322283Y738793D01*
G01X-322745Y739486D01*
G01X-323149Y739832D01*
G01X-323668Y740236D01*
G01X-324188Y740525D01*
G01X-324823Y740756D01*
G01X-325689Y740929D01*
G01X-326728Y740929D01*
G01X-327536Y740756D01*
G01X-328113Y740525D01*
G01X-328691Y740179D01*
G01X-329153Y739832D01*
G01X-329499Y739428D01*
G01X-330076Y738620D01*
G01X-330307Y738043D01*
G01X-330307Y738043D01*
G01X-330538Y737119D01*
G01X-330596Y736369D01*
G01X-333157Y736369D01*
G01X-333136Y736599D01*
G01X-333193Y737234D01*
G01X-333251Y737639D01*
G01X-333367Y738100D01*
G01X-333540Y738678D01*
G01X-333713Y739139D01*
G01X-334175Y739832D01*
G01X-334406Y740121D01*
G01X-334983Y740698D01*
G01X-335272Y740929D01*
G01X-335560Y741102D01*
G01X-335907Y741275D01*
G01X-336311Y741449D01*
G01X-336888Y741622D01*
G01X-337465Y741737D01*
G01X-337927Y741853D01*
G01X-338851Y741910D01*
G01X-339659Y741853D01*
G01X-340813Y741506D01*
G01X-341160Y741333D01*
G01X-341564Y741102D01*
G01X-342083Y740756D01*
G01X-342603Y740236D01*
G01X-343007Y739717D01*
G01X-343296Y739197D01*
G01X-343527Y738678D01*
G01X-343527Y738678D01*
G01X-343700Y738100D01*
G01X-343815Y737581D01*
G01X-343931Y736542D01*
G01X-346644Y736542D01*
G01X-346586Y737812D01*
G01X-346471Y738620D01*
G01X-346355Y739139D01*
G01X-346182Y739717D01*
G01X-345836Y740640D01*
G01X-345663Y741044D01*
G01X-345489Y741391D01*
G01X-344912Y742314D01*
G01X-343758Y743469D01*
G01X-343469Y743700D01*
G01X-343065Y743931D01*
G01X-342603Y744219D01*
G01X-342199Y744450D01*
G01X-341391Y744797D01*
G01X-340987Y744912D01*
G01X-340525Y745028D01*
G01X-339774Y745143D01*
G01X-339082Y745201D01*
G01X-338678Y745259D01*
G01X-338273Y745201D01*
G01X-337350Y745085D01*
G01X-336773Y744912D01*
G01X-336080Y744681D01*
G01X-335560Y744450D01*
G01X-335156Y744219D01*
G01X-334694Y743931D01*
G01X-334290Y743642D01*
G01X-334002Y743411D01*
G01X-333136Y742545D01*
G01X-332905Y742257D01*
G01X-332616Y741853D01*
G01X-332270Y741333D01*
G01X-332039Y740871D01*
G01X-331883Y740570D01*
G01X-331635Y740611D01*
G01X-331115Y741218D01*
G01X-330653Y741795D01*
G01X-330076Y742372D01*
G01X-329499Y742834D01*
G01X-329153Y743065D01*
G01X-328691Y743354D01*
G01X-328171Y743584D01*
G01X-327709Y743758D01*
G01X-327248Y743873D01*
G01X-326843Y743931D01*
G01X-326382Y744046D01*
G01X-325573Y744104D01*
G01X-324823Y743989D01*
G01X-324361Y743873D01*
G01X-323957Y743815D01*
G01X-323495Y743642D01*
G01X-322572Y743180D01*
G01X-322168Y742892D01*
G01X-321590Y742430D01*
G01X-321302Y742141D01*
G01X-320609Y741333D01*
G01X-320378Y741044D01*
G01X-319685Y739659D01*
G01X-319454Y738966D01*
G01X-319281Y738389D01*
G01X-319166Y737581D01*
G01X-319108Y736773D01*
G01X-319108Y736080D01*
G01X-319166Y735214D01*
G01X-319281Y734637D01*
G01X-319454Y734002D01*
G01X-319628Y733424D01*
G01X-320089Y732501D01*
G01X-320320Y732154D01*
G01X-321013Y731231D01*
G01X-321590Y730654D01*
G01X-321879Y730423D01*
G01X-322168Y730249D01*
G01X-322514Y730019D01*
G01X-322918Y729788D01*
G01X-323380Y729557D01*
G01X-324015Y729326D01*
G01X-324650Y729153D01*
G01X-326093Y729095D01*
G01X-327421Y729210D01*
G01X-327940Y729384D01*
G01X-328402Y729557D01*
G01X-329210Y730019D01*
G01X-329499Y730249D01*
G01X-329961Y730596D01*
G01X-330365Y731000D01*
G01X-330827Y731577D01*
G01X-331115Y731866D01*
G01X-331404Y732270D01*
G01X-331548Y732486D01*
G01X-331938Y732486D01*
G01X-332270Y731750D01*
G01X-332558Y731289D01*
G01X-332905Y730769D01*
G01X-333886Y729788D01*
G01X-334348Y729441D01*
G01X-334925Y729037D01*
G01X-335445Y728749D01*
G01X-335964Y728518D01*
G01X-336888Y728171D01*
G01X-337696Y727998D01*
G01X-339197Y727940D01*
G01X-340352Y727998D01*
G01X-341275Y728229D01*
G01X-341737Y728402D01*
G01X-342314Y728691D01*
G01X-342892Y729037D01*
G01X-343353Y729326D01*
G01X-343931Y729788D01*
G01X-344508Y730365D01*
G01X-345201Y731231D01*
G01X-345605Y732039D01*
G01X-345836Y732559D01*
G01X-346067Y733136D01*
G01X-346240Y733713D01*
G37*
G36*
G01X-319512Y687878D02*
G01X-319801Y687820D01*
G01X-333078Y687762D01*
G01X-346124Y687820D01*
G01X-346182Y689436D01*
G01X-346182Y690995D01*
G01X-336253Y690995D01*
G01X-336195Y691284D01*
G01X-336146Y693304D01*
G01X-333251Y693304D01*
G01X-333193Y691053D01*
G01X-327767Y690995D01*
G01X-322398Y690995D01*
G01X-322398Y693131D01*
G01X-322456Y695440D01*
G01X-322572Y696710D01*
G01X-322687Y697172D01*
G01X-323033Y698211D01*
G01X-323207Y698615D01*
G01X-323438Y698961D01*
G01X-323726Y699308D01*
G01X-324015Y699596D01*
G01X-324419Y699943D01*
G01X-324996Y700289D01*
G01X-325631Y700520D01*
G01X-326208Y700693D01*
G01X-327709Y700809D01*
G01X-329153Y700751D01*
G01X-329614Y700578D01*
G01X-330134Y700404D01*
G01X-330596Y700174D01*
G01X-331058Y699885D01*
G01X-331404Y699596D01*
G01X-331693Y699308D01*
G01X-331923Y699019D01*
G01X-332212Y698557D01*
G01X-332501Y697980D01*
G01X-332674Y697518D01*
G01X-332905Y696941D01*
G01X-333078Y696190D01*
G01X-333078Y696190D01*
G01X-333193Y695671D01*
G01X-333251Y693304D01*
G01X-336146Y693304D01*
G01X-336138Y693650D01*
G01X-336080Y695902D01*
G01X-336022Y696479D01*
G01X-335907Y697114D01*
G01X-335733Y697807D01*
G01X-335560Y698442D01*
G01X-335387Y698904D01*
G01X-335156Y699423D01*
G01X-334868Y699943D01*
G01X-334637Y700347D01*
G01X-334406Y700693D01*
G01X-333540Y701732D01*
G01X-333251Y702021D01*
G01X-332385Y702714D01*
G01X-331981Y702944D01*
G01X-331462Y703233D01*
G01X-331000Y703464D01*
G01X-330538Y703637D01*
G01X-330018Y703810D01*
G01X-329557Y703926D01*
G01X-329153Y703984D01*
G01X-328691Y704099D01*
G01X-327190Y704157D01*
G01X-325747Y704041D01*
G01X-324708Y703810D01*
G01X-324130Y703579D01*
G01X-323611Y703349D01*
G01X-323207Y703118D01*
G01X-322687Y702771D01*
G01X-322110Y702309D01*
G01X-321648Y701790D01*
G01X-321302Y701386D01*
G01X-321013Y700982D01*
G01X-320724Y700462D01*
G01X-320493Y700000D01*
G01X-320320Y699596D01*
G01X-320147Y699134D01*
G01X-319974Y698615D01*
G01X-319801Y697864D01*
G01X-319628Y696941D01*
G01X-319512Y692207D01*
G01X-319512Y687878D01*
G37*
G36*
G01X-323668Y715529D02*
G01X-323495Y715875D01*
G01X-326295Y716005D01*
G01X-334810Y716049D01*
G01X-346182Y716049D01*
G01X-346182Y719166D01*
G01X-319050Y719166D01*
G01X-318993Y718877D01*
G01X-318935Y718242D01*
G01X-318978Y717954D01*
G01X-319801Y716914D01*
G01X-319974Y716626D01*
G01X-320263Y716222D01*
G01X-321302Y714490D01*
G01X-322052Y712989D01*
G01X-322283Y712412D01*
G01X-322514Y711892D01*
G01X-323033Y710507D01*
G01X-323207Y710103D01*
G01X-323668Y709973D01*
G01X-324823Y709929D01*
G01X-326324Y709929D01*
G01X-326266Y710276D01*
G01X-325747Y711834D01*
G01X-324592Y714144D01*
G01X-324361Y714548D01*
G01X-324015Y715067D01*
G01X-323668Y715529D01*
G37*
G36*
G01X-122398Y670213D02*
G01X-122398Y677833D01*
G01X-134232Y677833D01*
G01X-146124Y677891D01*
G01X-146182Y679507D01*
G01X-146182Y681066D01*
G01X-122398Y681066D01*
G01X-122398Y688686D01*
G01X-122109Y688744D01*
G01X-120724Y688801D01*
G01X-119627Y688801D01*
G01X-119569Y688513D01*
G01X-119512Y679276D01*
G01X-119512Y670329D01*
G01X-119801Y670271D01*
G01X-121244Y670213D01*
G01X-122398Y670213D01*
G37*
G36*
G01X-146355Y736195D02*
G01X-146471Y737004D01*
G01X-146586Y737927D01*
G01X-146702Y738274D01*
G01X-146759Y739428D01*
G01X-146644Y740640D01*
G01X-146528Y741160D01*
G01X-146471Y741622D01*
G01X-146067Y742834D01*
G01X-145836Y743411D01*
G01X-145547Y743931D01*
G01X-145201Y744508D01*
G01X-144797Y745085D01*
G01X-144450Y745489D01*
G01X-144219Y745778D01*
G01X-143931Y746067D01*
G01X-143353Y746529D01*
G01X-143064Y746817D01*
G01X-142776Y747048D01*
G01X-142487Y747221D01*
G01X-141275Y747914D01*
G01X-140352Y748376D01*
G01X-139774Y748607D01*
G01X-139312Y748780D01*
G01X-138793Y748953D01*
G01X-138042Y749184D01*
G01X-137292Y749357D01*
G01X-136772Y749473D01*
G01X-136079Y749588D01*
G01X-135272Y749704D01*
G01X-134694Y749819D01*
G01X-133771Y749877D01*
G01X-132962Y749934D01*
G01X-131231Y749992D01*
G01X-129499Y749934D01*
G01X-127767Y749819D01*
G01X-127305Y749704D01*
G01X-126151Y749473D01*
G01X-125689Y749357D01*
G01X-125112Y749184D01*
G01X-124534Y748953D01*
G01X-124072Y748780D01*
G01X-123668Y748607D01*
G01X-122976Y748260D01*
G01X-122109Y747683D01*
G01X-121648Y747337D01*
G01X-120782Y746471D01*
G01X-120436Y746009D01*
G01X-120089Y745432D01*
G01X-119627Y744508D01*
G01X-119454Y743989D01*
G01X-119339Y743584D01*
G01X-119223Y743007D01*
G01X-119166Y742314D01*
G01X-119108Y741853D01*
G01X-119050Y741449D01*
G01X-119108Y741044D01*
G01X-119223Y739890D01*
G01X-119454Y738966D01*
G01X-119627Y738447D01*
G01X-119858Y737869D01*
G01X-120089Y737350D01*
G01X-120378Y736946D01*
G01X-120609Y736657D01*
G01X-120897Y736195D01*
G01X-121879Y735214D01*
G01X-122456Y734752D01*
G01X-122802Y734521D01*
G01X-123264Y734233D01*
G01X-123842Y733944D01*
G01X-124361Y733713D01*
G01X-124938Y733482D01*
G01X-125631Y733309D01*
G01X-126151Y733194D01*
G01X-127189Y733078D01*
G01X-128171Y733020D01*
G01X-129152Y733078D01*
G01X-129614Y733136D01*
G01X-130134Y733251D01*
G01X-131057Y733482D01*
G01X-131634Y733713D01*
G01X-132154Y733944D01*
G01X-132558Y734175D01*
G01X-133020Y734464D01*
G01X-133424Y734752D01*
G01X-134694Y736022D01*
G01X-134983Y736369D01*
G01X-135214Y736773D01*
G01X-135676Y737696D01*
G01X-135849Y738100D01*
G01X-135964Y738504D01*
G01X-136079Y738966D01*
G01X-136311Y740121D01*
G01X-136368Y741275D01*
G01X-136356Y741391D01*
G01X-133597Y741391D01*
G01X-133539Y741044D01*
G01X-133482Y740583D01*
G01X-133367Y739948D01*
G01X-133193Y739428D01*
G01X-133020Y738966D01*
G01X-132789Y738562D01*
G01X-132212Y737869D01*
G01X-131923Y737581D01*
G01X-131634Y737408D01*
G01X-131231Y737119D01*
G01X-130653Y736830D01*
G01X-129729Y736484D01*
G01X-128922Y736311D01*
G01X-127363Y736253D01*
G01X-126151Y736311D01*
G01X-125342Y736542D01*
G01X-124881Y736715D01*
G01X-124419Y736946D01*
G01X-124014Y737177D01*
G01X-123668Y737465D01*
G01X-123091Y737927D01*
G01X-122860Y738216D01*
G01X-122572Y738620D01*
G01X-122225Y739197D01*
G01X-121994Y739832D01*
G01X-121879Y740352D01*
G01X-121763Y741044D01*
G01X-121763Y741968D01*
G01X-121879Y742603D01*
G01X-121994Y743007D01*
G01X-122167Y743469D01*
G01X-122398Y743873D01*
G01X-122687Y744277D01*
G01X-123033Y744681D01*
G01X-123322Y744970D01*
G01X-123611Y745201D01*
G01X-124014Y745432D01*
G01X-124534Y745720D01*
G01X-125573Y746182D01*
G01X-126266Y746355D01*
G01X-126843Y746471D01*
G01X-127305Y746586D01*
G01X-128517Y746644D01*
G01X-129614Y746586D01*
G01X-130076Y746413D01*
G01X-130596Y746240D01*
G01X-130942Y746067D01*
G01X-131808Y745489D01*
G01X-132212Y745085D01*
G01X-132558Y744624D01*
G01X-132904Y744046D01*
G01X-133136Y743584D01*
G01X-133309Y743123D01*
G01X-133424Y742661D01*
G01X-133424Y742661D01*
G01X-133539Y741853D01*
G01X-133597Y741391D01*
G01X-136356Y741391D01*
G01X-136253Y742372D01*
G01X-136079Y743007D01*
G01X-135907Y743584D01*
G01X-135733Y743989D01*
G01X-135502Y744450D01*
G01X-135156Y744970D01*
G01X-134809Y745374D01*
G01X-134521Y745663D01*
G01X-134117Y746009D01*
G01X-133713Y746298D01*
G01X-133488Y746504D01*
G01X-133424Y746759D01*
G01X-133771Y746817D01*
G01X-134867Y746759D01*
G01X-135849Y746702D01*
G01X-136311Y746644D01*
G01X-137349Y746413D01*
G01X-137812Y746355D01*
G01X-139024Y745951D01*
G01X-139659Y745720D01*
G01X-140121Y745489D01*
G01X-140524Y745259D01*
G01X-140987Y744970D01*
G01X-141391Y744681D01*
G01X-141852Y744335D01*
G01X-142257Y743931D01*
G01X-142949Y743065D01*
G01X-143180Y742661D01*
G01X-143411Y742199D01*
G01X-143757Y741275D01*
G01X-143873Y740814D01*
G01X-143931Y740352D01*
G01X-143988Y739024D01*
G01X-143931Y737696D01*
G01X-143584Y736311D01*
G01X-143411Y735791D01*
G01X-143180Y735214D01*
G01X-142925Y734824D01*
G01X-143007Y734579D01*
G01X-144508Y734521D01*
G01X-145836Y734521D01*
G01X-145893Y734810D01*
G01X-146067Y735329D01*
G01X-146239Y735791D01*
G01X-146355Y736195D01*
G37*
G36*
G01X-119512Y692958D02*
G01X-119801Y692900D01*
G01X-133078Y692842D01*
G01X-146124Y692900D01*
G01X-146182Y694516D01*
G01X-146182Y696075D01*
G01X-136253Y696075D01*
G01X-136195Y696364D01*
G01X-136146Y698384D01*
G01X-133251Y698384D01*
G01X-133193Y696133D01*
G01X-127767Y696075D01*
G01X-122398Y696075D01*
G01X-122398Y698211D01*
G01X-122456Y700520D01*
G01X-122572Y701790D01*
G01X-122687Y702252D01*
G01X-123033Y703291D01*
G01X-123207Y703695D01*
G01X-123437Y704041D01*
G01X-123726Y704388D01*
G01X-124014Y704676D01*
G01X-124419Y705023D01*
G01X-124996Y705369D01*
G01X-125631Y705600D01*
G01X-126208Y705773D01*
G01X-127709Y705889D01*
G01X-129152Y705831D01*
G01X-129614Y705658D01*
G01X-130134Y705484D01*
G01X-130596Y705254D01*
G01X-131057Y704965D01*
G01X-131404Y704676D01*
G01X-131692Y704388D01*
G01X-131923Y704099D01*
G01X-132212Y703637D01*
G01X-132501Y703060D01*
G01X-132674Y702598D01*
G01X-132904Y702021D01*
G01X-133078Y701270D01*
G01X-133078Y701270D01*
G01X-133193Y700751D01*
G01X-133251Y698384D01*
G01X-136146Y698384D01*
G01X-136137Y698730D01*
G01X-136079Y700982D01*
G01X-136022Y701559D01*
G01X-135907Y702194D01*
G01X-135733Y702887D01*
G01X-135560Y703522D01*
G01X-135387Y703984D01*
G01X-135156Y704503D01*
G01X-134867Y705023D01*
G01X-134637Y705427D01*
G01X-134406Y705773D01*
G01X-133539Y706812D01*
G01X-133251Y707101D01*
G01X-132385Y707794D01*
G01X-131981Y708024D01*
G01X-131462Y708313D01*
G01X-130999Y708544D01*
G01X-130538Y708717D01*
G01X-130018Y708890D01*
G01X-129557Y709006D01*
G01X-129152Y709064D01*
G01X-128691Y709179D01*
G01X-127189Y709237D01*
G01X-125747Y709121D01*
G01X-124707Y708890D01*
G01X-124130Y708659D01*
G01X-123611Y708429D01*
G01X-123207Y708198D01*
G01X-122687Y707851D01*
G01X-122109Y707389D01*
G01X-121648Y706870D01*
G01X-121302Y706466D01*
G01X-121013Y706062D01*
G01X-120724Y705542D01*
G01X-120493Y705080D01*
G01X-120320Y704676D01*
G01X-120147Y704214D01*
G01X-119974Y703695D01*
G01X-119801Y702944D01*
G01X-119627Y702021D01*
G01X-119512Y697287D01*
G01X-119512Y692958D01*
G37*
G36*
G01X-123668Y720609D02*
G01X-123495Y720955D01*
G01X-126295Y721085D01*
G01X-134809Y721129D01*
G01X-146182Y721129D01*
G01X-146182Y724246D01*
G01X-119050Y724246D01*
G01X-118992Y723957D01*
G01X-118934Y723322D01*
G01X-118978Y723034D01*
G01X-119801Y721994D01*
G01X-119974Y721706D01*
G01X-120262Y721302D01*
G01X-121302Y719570D01*
G01X-122052Y718069D01*
G01X-122283Y717492D01*
G01X-122514Y716972D01*
G01X-123033Y715587D01*
G01X-123207Y715183D01*
G01X-123668Y715053D01*
G01X-124823Y715009D01*
G01X-126324Y715009D01*
G01X-126266Y715356D01*
G01X-125747Y716914D01*
G01X-124592Y719224D01*
G01X-124361Y719628D01*
G01X-124014Y720147D01*
G01X-123668Y720609D01*
G37*
G36*
G01X-474431Y491893D02*
G01X-466811Y491893D01*
G01X-466811Y503727D01*
G01X-466753Y515619D01*
G01X-465137Y515677D01*
G01X-463578Y515677D01*
G01X-463578Y491893D01*
G01X-455958Y491893D01*
G01X-455900Y491604D01*
G01X-455843Y490219D01*
G01X-455843Y489122D01*
G01X-456131Y489064D01*
G01X-465368Y489007D01*
G01X-474315Y489007D01*
G01X-474373Y489295D01*
G01X-474431Y490738D01*
G01X-474431Y491893D01*
G37*
G36*
G01X-406313Y515561D02*
G01X-405793Y515792D01*
G01X-405100Y515965D01*
G01X-404292Y516138D01*
G01X-403311Y516254D01*
G01X-402560Y516196D01*
G01X-401983Y516081D01*
G01X-401290Y515965D01*
G01X-400713Y515792D01*
G01X-400136Y515561D01*
G01X-399674Y515330D01*
G01X-398750Y514753D01*
G01X-398289Y514407D01*
G01X-397596Y513714D01*
G01X-397307Y513368D01*
G01X-397076Y513021D01*
G01X-396788Y512617D01*
G01X-396499Y512155D01*
G01X-396037Y511232D01*
G01X-395575Y510193D01*
G01X-395229Y509153D01*
G01X-395114Y508749D01*
G01X-395056Y508345D01*
G01X-394883Y507826D01*
G01X-394767Y507191D01*
G01X-394594Y505805D01*
G01X-394479Y505343D01*
G01X-394421Y503843D01*
G01X-394363Y502457D01*
G01X-394305Y502053D01*
G01X-394363Y501649D01*
G01X-394479Y498647D01*
G01X-394594Y497954D01*
G01X-394709Y497146D01*
G01X-394767Y496627D01*
G01X-395056Y495472D01*
G01X-395229Y494837D01*
G01X-395575Y493798D01*
G01X-396037Y492759D01*
G01X-396499Y491951D01*
G01X-396788Y491489D01*
G01X-397134Y491085D01*
G01X-398000Y490219D01*
G01X-398404Y489873D01*
G01X-398981Y489526D01*
G01X-399559Y489238D01*
G01X-400482Y488891D01*
G01X-401290Y488718D01*
G01X-402041Y488660D01*
G01X-402445Y488603D01*
G01X-402907Y488545D01*
G01X-403369Y488603D01*
G01X-404639Y488718D01*
G01X-405158Y488891D01*
G01X-405735Y489064D01*
G01X-406774Y489584D01*
G01X-407121Y489815D01*
G01X-408160Y490681D01*
G01X-408449Y490969D01*
G01X-408737Y491316D01*
G01X-408968Y491662D01*
G01X-409199Y491951D01*
G01X-409430Y492297D01*
G01X-409719Y492759D01*
G01X-410007Y493336D01*
G01X-410238Y493856D01*
G01X-410469Y494433D01*
G01X-410700Y495068D01*
G01X-410873Y495703D01*
G01X-411046Y496280D01*
G01X-411162Y496742D01*
G01X-411219Y497146D01*
G01X-411450Y498185D01*
G01X-411566Y499224D01*
G01X-411681Y500841D01*
G01X-411797Y501995D01*
G01X-411824Y502457D01*
G01X-408622Y502457D01*
G01X-408564Y501476D01*
G01X-408564Y500725D01*
G01X-408506Y500033D01*
G01X-408449Y499455D01*
G01X-408333Y498185D01*
G01X-408275Y497723D01*
G01X-408160Y497262D01*
G01X-408044Y496742D01*
G01X-407987Y496223D01*
G01X-407583Y495010D01*
G01X-407352Y494433D01*
G01X-407121Y493971D01*
G01X-406832Y493452D01*
G01X-406428Y492874D01*
G01X-405909Y492355D01*
G01X-405504Y492008D01*
G01X-405100Y491778D01*
G01X-404581Y491547D01*
G01X-404061Y491373D01*
G01X-403484Y491258D01*
G01X-402734Y491200D01*
G01X-402099Y491258D01*
G01X-401637Y491373D01*
G01X-401175Y491547D01*
G01X-400713Y491778D01*
G01X-400309Y492066D01*
G01X-399732Y492643D01*
G01X-399501Y492990D01*
G01X-399212Y493452D01*
G01X-398924Y494029D01*
G01X-398693Y494548D01*
G01X-398462Y495126D01*
G01X-398289Y495761D01*
G01X-398115Y496280D01*
G01X-398000Y496800D01*
G01X-397942Y497262D01*
G01X-397827Y498301D01*
G01X-397711Y498763D01*
G01X-397654Y499455D01*
G01X-397596Y500033D01*
G01X-397538Y502688D01*
G01X-397596Y505343D01*
G01X-397711Y506613D01*
G01X-397827Y507075D01*
G01X-397884Y507595D01*
G01X-397942Y507999D01*
G01X-398058Y508518D01*
G01X-398231Y509096D01*
G01X-398577Y510135D01*
G01X-398808Y510654D01*
G01X-399039Y511116D01*
G01X-399328Y511578D01*
G01X-399674Y511982D01*
G01X-399905Y512271D01*
G01X-400251Y512617D01*
G01X-400713Y512906D01*
G01X-401117Y513137D01*
G01X-401521Y513310D01*
G01X-401521Y513310D01*
G01X-401983Y513425D01*
G01X-403195Y513483D01*
G01X-404177Y513425D01*
G01X-404465Y513368D01*
G01X-404869Y513252D01*
G01X-405274Y513021D01*
G01X-405793Y512675D01*
G01X-406197Y512271D01*
G01X-406659Y511693D01*
G01X-406948Y511289D01*
G01X-407236Y510770D01*
G01X-407467Y510250D01*
G01X-407698Y509615D01*
G01X-407871Y509038D01*
G01X-407987Y508461D01*
G01X-408160Y507826D01*
G01X-408275Y507306D01*
G01X-408333Y506844D01*
G01X-408449Y505459D01*
G01X-408506Y504882D01*
G01X-408564Y504362D01*
G01X-408564Y503612D01*
G01X-408622Y502457D01*
G01X-411824Y502457D01*
G01X-411854Y502977D01*
G01X-411797Y503958D01*
G01X-411681Y505113D01*
G01X-411566Y506613D01*
G01X-411450Y507537D01*
G01X-411335Y507999D01*
G01X-411219Y508634D01*
G01X-410873Y509788D01*
G01X-410700Y510308D01*
G01X-410354Y511232D01*
G01X-409892Y512155D01*
G01X-409661Y512559D01*
G01X-409314Y513079D01*
G01X-408968Y513541D01*
G01X-407814Y514695D01*
G01X-407525Y514926D01*
G01X-407179Y515099D01*
G01X-406774Y515330D01*
G01X-406313Y515561D01*
G37*
G36*
G01X-451686Y489007D02*
G01X-451744Y489295D01*
G01X-451779Y497262D01*
G01X-448569Y497262D01*
G01X-448569Y491893D01*
G01X-446433Y491893D01*
G01X-444124Y491951D01*
G01X-442854Y492066D01*
G01X-442392Y492182D01*
G01X-441353Y492528D01*
G01X-440949Y492701D01*
G01X-440603Y492932D01*
G01X-440256Y493221D01*
G01X-439968Y493509D01*
G01X-439621Y493913D01*
G01X-439275Y494491D01*
G01X-439044Y495126D01*
G01X-438871Y495703D01*
G01X-438755Y497204D01*
G01X-438813Y498647D01*
G01X-438986Y499109D01*
G01X-439159Y499628D01*
G01X-439390Y500090D01*
G01X-439679Y500552D01*
G01X-439968Y500898D01*
G01X-440256Y501187D01*
G01X-440545Y501418D01*
G01X-441007Y501707D01*
G01X-441584Y501995D01*
G01X-442046Y502168D01*
G01X-442623Y502399D01*
G01X-443374Y502573D01*
G01X-443374Y502573D01*
G01X-443893Y502688D01*
G01X-446260Y502746D01*
G01X-448511Y502688D01*
G01X-448569Y497262D01*
G01X-451779Y497262D01*
G01X-451802Y502573D01*
G01X-451744Y515619D01*
G01X-450128Y515677D01*
G01X-448569Y515677D01*
G01X-448569Y505748D01*
G01X-448280Y505690D01*
G01X-445914Y505632D01*
G01X-443662Y505574D01*
G01X-443085Y505517D01*
G01X-442450Y505401D01*
G01X-441757Y505228D01*
G01X-441122Y505055D01*
G01X-440660Y504882D01*
G01X-440141Y504651D01*
G01X-439621Y504362D01*
G01X-439217Y504131D01*
G01X-438871Y503900D01*
G01X-437832Y503034D01*
G01X-437543Y502746D01*
G01X-436850Y501880D01*
G01X-436619Y501476D01*
G01X-436331Y500956D01*
G01X-436100Y500494D01*
G01X-435927Y500033D01*
G01X-435754Y499513D01*
G01X-435638Y499051D01*
G01X-435580Y498647D01*
G01X-435465Y498185D01*
G01X-435407Y496684D01*
G01X-435523Y495241D01*
G01X-435754Y494202D01*
G01X-435984Y493625D01*
G01X-436215Y493105D01*
G01X-436446Y492701D01*
G01X-436793Y492182D01*
G01X-437254Y491604D01*
G01X-437774Y491143D01*
G01X-438178Y490796D01*
G01X-438582Y490508D01*
G01X-439102Y490219D01*
G01X-439564Y489988D01*
G01X-439968Y489815D01*
G01X-440429Y489642D01*
G01X-440949Y489468D01*
G01X-441699Y489295D01*
G01X-442623Y489122D01*
G01X-447357Y489007D01*
G01X-451686Y489007D01*
G37*
G36*
G01X-431539Y511636D02*
G01X-431655Y512155D01*
G01X-431770Y512963D01*
G01X-431828Y514407D01*
G01X-431828Y515677D01*
G01X-415434Y515677D01*
G01X-415434Y513021D01*
G01X-428595Y513021D01*
G01X-428595Y512444D01*
G01X-428538Y511693D01*
G01X-428364Y511116D01*
G01X-428134Y510539D01*
G01X-427903Y510135D01*
G01X-427672Y509788D01*
G01X-427441Y509500D01*
G01X-426286Y508345D01*
G01X-425247Y507479D01*
G01X-424901Y507248D01*
G01X-424035Y506556D01*
G01X-423631Y506267D01*
G01X-423111Y505921D01*
G01X-422707Y505632D01*
G01X-422419Y505401D01*
G01X-421957Y505055D01*
G01X-421379Y504651D01*
G01X-420975Y504304D01*
G01X-420398Y503843D01*
G01X-418724Y502168D01*
G01X-418435Y501822D01*
G01X-418204Y501476D01*
G01X-417916Y501072D01*
G01X-417627Y500610D01*
G01X-417281Y499917D01*
G01X-416934Y499109D01*
G01X-416761Y498532D01*
G01X-416530Y497377D01*
G01X-416473Y496511D01*
G01X-416415Y495876D01*
G01X-416415Y495414D01*
G01X-416473Y494606D01*
G01X-416588Y493856D01*
G01X-416761Y493278D01*
G01X-416934Y492759D01*
G01X-417165Y492297D01*
G01X-417396Y491893D01*
G01X-417858Y491200D01*
G01X-418089Y490912D01*
G01X-418378Y490623D01*
G01X-418782Y490334D01*
G01X-419301Y489988D01*
G01X-419705Y489699D01*
G01X-420109Y489468D01*
G01X-420629Y489238D01*
G01X-421091Y489064D01*
G01X-421495Y488949D01*
G01X-423227Y488603D01*
G01X-424497Y488545D01*
G01X-425536Y488603D01*
G01X-426113Y488718D01*
G01X-426921Y488891D01*
G01X-427499Y489064D01*
G01X-427960Y489238D01*
G01X-428422Y489468D01*
G01X-428826Y489699D01*
G01X-429346Y489988D01*
G01X-429923Y490392D01*
G01X-430327Y490738D01*
G01X-430616Y490969D01*
G01X-430847Y491489D01*
G01X-430904Y493048D01*
G01X-430861Y493913D01*
G01X-430731Y494202D01*
G01X-430443Y494029D01*
G01X-429230Y492990D01*
G01X-428307Y492413D01*
G01X-427729Y492066D01*
G01X-427152Y491835D01*
G01X-426690Y491662D01*
G01X-426171Y491489D01*
G01X-425651Y491373D01*
G01X-424266Y491316D01*
G01X-422880Y491373D01*
G01X-422419Y491489D01*
G01X-422014Y491662D01*
G01X-421149Y492239D01*
G01X-420629Y492759D01*
G01X-420283Y493221D01*
G01X-420052Y493683D01*
G01X-419879Y494144D01*
G01X-419648Y495068D01*
G01X-419590Y496280D01*
G01X-419648Y497493D01*
G01X-419763Y498012D01*
G01X-419936Y498589D01*
G01X-420167Y499167D01*
G01X-420398Y499686D01*
G01X-420687Y500148D01*
G01X-420975Y500552D01*
G01X-421206Y500841D01*
G01X-421495Y501129D01*
G01X-421957Y501707D01*
G01X-422534Y502284D01*
G01X-422996Y502630D01*
G01X-423400Y502977D01*
G01X-423689Y503208D01*
G01X-424150Y503554D01*
G01X-424728Y503958D01*
G01X-425132Y504247D01*
G01X-425998Y504939D01*
G01X-426921Y505632D01*
G01X-427210Y505921D01*
G01X-428364Y506844D01*
G01X-429519Y507999D01*
G01X-429865Y508461D01*
G01X-430269Y508980D01*
G01X-430616Y509500D01*
G01X-430904Y510019D01*
G01X-431366Y511058D01*
G01X-431539Y511636D01*
G37*
G36*
G01X60053Y727479D02*
G01X67673Y727479D01*
G01X67673Y739313D01*
G01X67731Y751204D01*
G01X69347Y751262D01*
G01X70906Y751262D01*
G01X70906Y727479D01*
G01X78526Y727479D01*
G01X78583Y727190D01*
G01X78641Y725804D01*
G01X78641Y724708D01*
G01X78352Y724650D01*
G01X69116Y724592D01*
G01X60168Y724592D01*
G01X60111Y724881D01*
G01X60053Y726324D01*
G01X60053Y727479D01*
G37*
G36*
G01X129614Y751493D02*
G01X130307Y751609D01*
G01X130769Y751666D01*
G01X131057Y751782D01*
G01X131866Y751839D01*
G01X132732Y751782D01*
G01X133309Y751666D01*
G01X134117Y751493D01*
G01X134752Y751262D01*
G01X135560Y750916D01*
G01X136079Y750627D01*
G01X136542Y750339D01*
G01X137003Y749992D01*
G01X137984Y749011D01*
G01X138216Y748722D01*
G01X138504Y748318D01*
G01X138851Y747799D01*
G01X139139Y747279D01*
G01X139370Y746759D01*
G01X139543Y746298D01*
G01X139659Y745894D01*
G01X140005Y744739D01*
G01X140121Y743584D01*
G01X140178Y742661D01*
G01X140121Y741737D01*
G01X140063Y741160D01*
G01X139947Y740583D01*
G01X139832Y740179D01*
G01X139717Y739717D01*
G01X139486Y739139D01*
G01X139197Y738504D01*
G01X138851Y737927D01*
G01X138562Y737465D01*
G01X138273Y737177D01*
G01X137927Y736773D01*
G01X137581Y736426D01*
G01X137292Y736195D01*
G01X136946Y735907D01*
G01X136542Y735676D01*
G01X135618Y735214D01*
G01X135041Y734983D01*
G01X134348Y734810D01*
G01X133771Y734694D01*
G01X132327Y734637D01*
G01X130999Y734694D01*
G01X130076Y734925D01*
G01X129614Y735099D01*
G01X129094Y735329D01*
G01X128575Y735618D01*
G01X127998Y736022D01*
G01X127305Y736715D01*
G01X127074Y737004D01*
G01X126901Y737292D01*
G01X126742Y737547D01*
G01X126497Y737465D01*
G01X126439Y736484D01*
G01X126497Y735503D01*
G01X126612Y734694D01*
G01X126728Y734233D01*
G01X126843Y733540D01*
G01X127017Y732963D01*
G01X127363Y731924D01*
G01X127594Y731404D01*
G01X127824Y730942D01*
G01X127998Y730654D01*
G01X128171Y730307D01*
G01X128459Y729845D01*
G01X128748Y729441D01*
G01X128979Y729153D01*
G01X129557Y728575D01*
G01X130249Y727998D01*
G01X130596Y727767D01*
G01X130999Y727594D01*
G01X131462Y727363D01*
G01X132154Y727132D01*
G01X132847Y726959D01*
G01X133424Y726844D01*
G01X134290Y726786D01*
G01X135041Y726844D01*
G01X135560Y726901D01*
G01X136137Y727017D01*
G01X136599Y727132D01*
G01X137003Y727190D01*
G01X137465Y727363D01*
G01X137984Y727594D01*
G01X138389Y727709D01*
G01X138519Y727378D01*
G01X138562Y726382D01*
G01X138562Y725054D01*
G01X138273Y724881D01*
G01X137638Y724650D01*
G01X137061Y724477D01*
G01X136542Y724361D01*
G01X136079Y724304D01*
G01X134579Y724188D01*
G01X134117Y724130D01*
G01X133655Y724188D01*
G01X132269Y724304D01*
G01X131866Y724361D01*
G01X131462Y724477D01*
G01X130538Y724823D01*
G01X129614Y725285D01*
G01X129152Y725574D01*
G01X128575Y725920D01*
G01X128171Y726266D01*
G01X127882Y726497D01*
G01X127536Y726844D01*
G01X127247Y727190D01*
G01X126728Y727709D01*
G01X126439Y728056D01*
G01X125631Y729268D01*
G01X125342Y729788D01*
G01X124823Y730827D01*
G01X124649Y731231D01*
G01X124477Y731693D01*
G01X124130Y732732D01*
G01X123957Y733367D01*
G01X123668Y734521D01*
G01X123495Y735734D01*
G01X123379Y736195D01*
G01X123322Y737004D01*
G01X123264Y737696D01*
G01X123207Y739659D01*
G01X123264Y741622D01*
G01X123322Y742372D01*
G01X123338Y742488D01*
G01X126554Y742488D01*
G01X126612Y741853D01*
G01X126843Y740814D01*
G01X127017Y740352D01*
G01X127247Y739890D01*
G01X127536Y739428D01*
G01X127882Y739024D01*
G01X128344Y738562D01*
G01X128633Y738331D01*
G01X129037Y738043D01*
G01X129557Y737754D01*
G01X130076Y737581D01*
G01X130653Y737408D01*
G01X131346Y737292D01*
G01X131866Y737234D01*
G01X132154Y737234D01*
G01X132732Y737292D01*
G01X133309Y737408D01*
G01X133828Y737581D01*
G01X134290Y737754D01*
G01X135156Y738331D01*
G01X135560Y738735D01*
G01X135849Y739139D01*
G01X136195Y739659D01*
G01X136484Y740294D01*
G01X136714Y740987D01*
G01X136830Y741564D01*
G01X136888Y741968D01*
G01X136946Y743354D01*
G01X136888Y744739D01*
G01X136772Y745201D01*
G01X136599Y745720D01*
G01X136426Y746182D01*
G01X136253Y746586D01*
G01X135964Y747048D01*
G01X135618Y747452D01*
G01X135041Y748029D01*
G01X134694Y748260D01*
G01X134232Y748549D01*
G01X133713Y748780D01*
G01X133309Y748895D01*
G01X133309Y748895D01*
G01X132847Y749011D01*
G01X131692Y749069D01*
G01X130769Y749011D01*
G01X129903Y748722D01*
G01X129383Y748434D01*
G01X128922Y748145D01*
G01X128344Y747568D01*
G01X127998Y747164D01*
G01X127652Y746644D01*
G01X127363Y746124D01*
G01X127132Y745547D01*
G01X126959Y745085D01*
G01X126728Y743931D01*
G01X126612Y743123D01*
G01X126554Y742488D01*
G01X123338Y742488D01*
G01X123437Y743180D01*
G01X123553Y743642D01*
G01X123611Y744046D01*
G01X123726Y744566D01*
G01X123899Y745143D01*
G01X124246Y746182D01*
G01X124419Y746644D01*
G01X124592Y747048D01*
G01X124823Y747510D01*
G01X125112Y748029D01*
G01X125458Y748549D01*
G01X125804Y748953D01*
G01X126266Y749530D01*
G01X126554Y749819D01*
G01X126901Y750108D01*
G01X127594Y750569D01*
G01X127998Y750800D01*
G01X128459Y751031D01*
G01X128979Y751262D01*
G01X129614Y751493D01*
G37*
G36*
G01X82797Y724592D02*
G01X82739Y724881D01*
G01X82705Y732847D01*
G01X85914Y732847D01*
G01X85914Y727479D01*
G01X88051Y727479D01*
G01X90359Y727536D01*
G01X91629Y727652D01*
G01X92092Y727767D01*
G01X93131Y728114D01*
G01X93534Y728287D01*
G01X93881Y728518D01*
G01X94227Y728806D01*
G01X94516Y729095D01*
G01X94862Y729499D01*
G01X95209Y730076D01*
G01X95439Y730711D01*
G01X95613Y731289D01*
G01X95728Y732789D01*
G01X95671Y734233D01*
G01X95497Y734694D01*
G01X95324Y735214D01*
G01X95093Y735676D01*
G01X94804Y736138D01*
G01X94516Y736484D01*
G01X94227Y736773D01*
G01X93939Y737004D01*
G01X93477Y737292D01*
G01X92899Y737581D01*
G01X92438Y737754D01*
G01X91861Y737985D01*
G01X91110Y738158D01*
G01X91110Y738158D01*
G01X90591Y738274D01*
G01X88224Y738331D01*
G01X85972Y738274D01*
G01X85914Y732847D01*
G01X82705Y732847D01*
G01X82682Y738158D01*
G01X82739Y751204D01*
G01X84356Y751262D01*
G01X85914Y751262D01*
G01X85914Y741333D01*
G01X86203Y741275D01*
G01X88570Y741218D01*
G01X90822Y741160D01*
G01X91399Y741102D01*
G01X92034Y740987D01*
G01X92727Y740814D01*
G01X93362Y740640D01*
G01X93823Y740467D01*
G01X94343Y740236D01*
G01X94862Y739948D01*
G01X95267Y739717D01*
G01X95613Y739486D01*
G01X96652Y738620D01*
G01X96941Y738331D01*
G01X97633Y737465D01*
G01X97864Y737061D01*
G01X98153Y736542D01*
G01X98384Y736080D01*
G01X98557Y735618D01*
G01X98730Y735099D01*
G01X98846Y734637D01*
G01X98903Y734233D01*
G01X99019Y733771D01*
G01X99077Y732270D01*
G01X98961Y730827D01*
G01X98730Y729788D01*
G01X98499Y729210D01*
G01X98268Y728691D01*
G01X98037Y728287D01*
G01X97691Y727767D01*
G01X97229Y727190D01*
G01X96709Y726728D01*
G01X96306Y726382D01*
G01X95902Y726093D01*
G01X95382Y725804D01*
G01X94920Y725574D01*
G01X94516Y725400D01*
G01X94054Y725227D01*
G01X93534Y725054D01*
G01X92784Y724881D01*
G01X91861Y724708D01*
G01X87127Y724592D01*
G01X82797Y724592D01*
G37*
G36*
G01X110449Y728749D02*
G01X110795Y728575D01*
G01X110925Y731375D01*
G01X110968Y739890D01*
G01X110968Y751262D01*
G01X114086Y751262D01*
G01X114086Y724130D01*
G01X113797Y724073D01*
G01X113162Y724015D01*
G01X112873Y724058D01*
G01X111834Y724881D01*
G01X111546Y725054D01*
G01X111142Y725343D01*
G01X109409Y726382D01*
G01X107909Y727132D01*
G01X107332Y727363D01*
G01X106812Y727594D01*
G01X105427Y728114D01*
G01X105022Y728287D01*
G01X104892Y728749D01*
G01X104849Y729903D01*
G01X104849Y731404D01*
G01X105196Y731346D01*
G01X106754Y730827D01*
G01X109063Y729672D01*
G01X109467Y729441D01*
G01X109987Y729095D01*
G01X110449Y728749D01*
G37*
G36*
G01X-322398Y444813D02*
G01X-322398Y452433D01*
G01X-334233Y452433D01*
G01X-346124Y452491D01*
G01X-346182Y454107D01*
G01X-346182Y455666D01*
G01X-322398Y455666D01*
G01X-322398Y463286D01*
G01X-322110Y463343D01*
G01X-320724Y463401D01*
G01X-319628Y463401D01*
G01X-319570Y463113D01*
G01X-319512Y453876D01*
G01X-319512Y444928D01*
G01X-319801Y444871D01*
G01X-321244Y444813D01*
G01X-322398Y444813D01*
G37*
G36*
G01X-319512Y467558D02*
G01X-319801Y467500D01*
G01X-333078Y467442D01*
G01X-346124Y467500D01*
G01X-346182Y469116D01*
G01X-346182Y470675D01*
G01X-336253Y470675D01*
G01X-336195Y470963D01*
G01X-336146Y472984D01*
G01X-333251Y472984D01*
G01X-333193Y470733D01*
G01X-327767Y470675D01*
G01X-322398Y470675D01*
G01X-322398Y472811D01*
G01X-322456Y475120D01*
G01X-322572Y476390D01*
G01X-322687Y476852D01*
G01X-323033Y477891D01*
G01X-323207Y478295D01*
G01X-323438Y478641D01*
G01X-323726Y478988D01*
G01X-324015Y479276D01*
G01X-324419Y479623D01*
G01X-324996Y479969D01*
G01X-325631Y480200D01*
G01X-326208Y480373D01*
G01X-327709Y480488D01*
G01X-329153Y480431D01*
G01X-329614Y480258D01*
G01X-330134Y480084D01*
G01X-330596Y479853D01*
G01X-331058Y479565D01*
G01X-331404Y479276D01*
G01X-331693Y478988D01*
G01X-331923Y478699D01*
G01X-332212Y478237D01*
G01X-332501Y477660D01*
G01X-332674Y477198D01*
G01X-332905Y476621D01*
G01X-333078Y475870D01*
G01X-333078Y475870D01*
G01X-333193Y475351D01*
G01X-333251Y472984D01*
G01X-336146Y472984D01*
G01X-336138Y473330D01*
G01X-336080Y475582D01*
G01X-336022Y476159D01*
G01X-335907Y476794D01*
G01X-335733Y477487D01*
G01X-335560Y478122D01*
G01X-335387Y478583D01*
G01X-335156Y479103D01*
G01X-334868Y479623D01*
G01X-334637Y480027D01*
G01X-334406Y480373D01*
G01X-333540Y481412D01*
G01X-333251Y481701D01*
G01X-332385Y482393D01*
G01X-331981Y482624D01*
G01X-331462Y482913D01*
G01X-331000Y483144D01*
G01X-330538Y483317D01*
G01X-330018Y483490D01*
G01X-329557Y483606D01*
G01X-329153Y483663D01*
G01X-328691Y483779D01*
G01X-327190Y483837D01*
G01X-325747Y483721D01*
G01X-324708Y483490D01*
G01X-324130Y483259D01*
G01X-323611Y483028D01*
G01X-323207Y482798D01*
G01X-322687Y482451D01*
G01X-322110Y481989D01*
G01X-321648Y481470D01*
G01X-321302Y481066D01*
G01X-321013Y480662D01*
G01X-320724Y480142D01*
G01X-320493Y479680D01*
G01X-320320Y479276D01*
G01X-320147Y478814D01*
G01X-319974Y478295D01*
G01X-319801Y477544D01*
G01X-319628Y476621D01*
G01X-319512Y471887D01*
G01X-319512Y467558D01*
G37*
G36*
G01X-346355Y511142D02*
G01X-346471Y511834D01*
G01X-346586Y512758D01*
G01X-346702Y513335D01*
G01X-346759Y514490D01*
G01X-346702Y515644D01*
G01X-346586Y516222D01*
G01X-346471Y517030D01*
G01X-345951Y518762D01*
G01X-345720Y519281D01*
G01X-345432Y519858D01*
G01X-345085Y520378D01*
G01X-344681Y520955D01*
G01X-343700Y521937D01*
G01X-343123Y522398D01*
G01X-342776Y522629D01*
G01X-342372Y522860D01*
G01X-341448Y523322D01*
G01X-340929Y523495D01*
G01X-340467Y523611D01*
G01X-339890Y523726D01*
G01X-339197Y523842D01*
G01X-338678Y523899D01*
G01X-337869Y524015D01*
G01X-337465Y523957D01*
G01X-336542Y523842D01*
G01X-335907Y523726D01*
G01X-335272Y523553D01*
G01X-334348Y523207D01*
G01X-333944Y522976D01*
G01X-333251Y522514D01*
G01X-332905Y522225D01*
G01X-332039Y521359D01*
G01X-331750Y521013D01*
G01X-331462Y520551D01*
G01X-331173Y520032D01*
G01X-330942Y519570D01*
G01X-330769Y519166D01*
G01X-330596Y518704D01*
G01X-330423Y518069D01*
G01X-330307Y517492D01*
G01X-330192Y517030D01*
G01X-330134Y516279D01*
G01X-330076Y515644D01*
G01X-330018Y514374D01*
G01X-330076Y513104D01*
G01X-330076Y512700D01*
G01X-329788Y512469D01*
G01X-329383Y512527D01*
G01X-327536Y512643D01*
G01X-326843Y512758D01*
G01X-325516Y512816D01*
G01X-323553Y512931D01*
G01X-322889Y512975D01*
G01X-322514Y513104D01*
G01X-322341Y514418D01*
G01X-322283Y518011D01*
G01X-322283Y522745D01*
G01X-319628Y522745D01*
G01X-319570Y522456D01*
G01X-319512Y516279D01*
G01X-319512Y510391D01*
G01X-319916Y510333D01*
G01X-320955Y510276D01*
G01X-321763Y510218D01*
G01X-322572Y510103D01*
G01X-324881Y509987D01*
G01X-326843Y509872D01*
G01X-327767Y509756D01*
G01X-331923Y509525D01*
G01X-332501Y509468D01*
G01X-332905Y509468D01*
G01X-332905Y509872D01*
G01X-332847Y510449D01*
G01X-332732Y513451D01*
G01X-332674Y514086D01*
G01X-332789Y515356D01*
G01X-332905Y516048D01*
G01X-333136Y517088D01*
G01X-333367Y517665D01*
G01X-333655Y518300D01*
G01X-334002Y518819D01*
G01X-334290Y519166D01*
G01X-334579Y519397D01*
G01X-334868Y519685D01*
G01X-335214Y519974D01*
G01X-335676Y520205D01*
G01X-336253Y520436D01*
G01X-336888Y520609D01*
G01X-337408Y520667D01*
G01X-337812Y520724D01*
G01X-338447Y520782D01*
G01X-339082Y520724D01*
G01X-339543Y520667D01*
G01X-340005Y520551D01*
G01X-340929Y520205D01*
G01X-341333Y519974D01*
G01X-341679Y519743D01*
G01X-341968Y519512D01*
G01X-342314Y519223D01*
G01X-342603Y518877D01*
G01X-342949Y518415D01*
G01X-343296Y517838D01*
G01X-343527Y517318D01*
G01X-343758Y516683D01*
G01X-343931Y515875D01*
G01X-343988Y514317D01*
G01X-343931Y512989D01*
G01X-343815Y512354D01*
G01X-343642Y511719D01*
G01X-343296Y510795D01*
G01X-343065Y510276D01*
G01X-342834Y509814D01*
G01X-342603Y509410D01*
G01X-342488Y509006D01*
G01X-343988Y508890D01*
G01X-345489Y508890D01*
G01X-345663Y509179D01*
G01X-345893Y509641D01*
G01X-346067Y510045D01*
G01X-346240Y510622D01*
G01X-346355Y511142D01*
G37*
G36*
G01X-323668Y495209D02*
G01X-323495Y495555D01*
G01X-326295Y495685D01*
G01X-334810Y495728D01*
G01X-346182Y495728D01*
G01X-346182Y498846D01*
G01X-319050Y498846D01*
G01X-318993Y498557D01*
G01X-318935Y497922D01*
G01X-318978Y497633D01*
G01X-319801Y496594D01*
G01X-319974Y496306D01*
G01X-320263Y495902D01*
G01X-321302Y494170D01*
G01X-322052Y492669D01*
G01X-322283Y492092D01*
G01X-322514Y491572D01*
G01X-323033Y490187D01*
G01X-323207Y489783D01*
G01X-323668Y489653D01*
G01X-324823Y489609D01*
G01X-326324Y489609D01*
G01X-326266Y489956D01*
G01X-325747Y491514D01*
G01X-324592Y493823D01*
G01X-324361Y494228D01*
G01X-324015Y494747D01*
G01X-323668Y495209D01*
G37*
G36*
G01X271999Y454948D02*
G01X271999Y462568D01*
G01X260165Y462568D01*
G01X248273Y462625D01*
G01X248215Y464242D01*
G01X248215Y465800D01*
G01X271999Y465800D01*
G01X271999Y473420D01*
G01X272287Y473478D01*
G01X273673Y473536D01*
G01X274770Y473536D01*
G01X274827Y473247D01*
G01X274885Y464011D01*
G01X274885Y455063D01*
G01X274596Y455005D01*
G01X273153Y454948D01*
G01X271999Y454948D01*
G37*
G36*
G01X274885Y477692D02*
G01X274596Y477634D01*
G01X261319Y477577D01*
G01X248273Y477634D01*
G01X248215Y479251D01*
G01X248215Y480809D01*
G01X258144Y480809D01*
G01X258202Y481098D01*
G01X258251Y483118D01*
G01X261146Y483118D01*
G01X261204Y480867D01*
G01X266630Y480809D01*
G01X271999Y480809D01*
G01X271999Y482945D01*
G01X271941Y485254D01*
G01X271825Y486524D01*
G01X271710Y486986D01*
G01X271364Y488025D01*
G01X271190Y488429D01*
G01X270960Y488776D01*
G01X270671Y489122D01*
G01X270382Y489411D01*
G01X269978Y489757D01*
G01X269401Y490103D01*
G01X268766Y490334D01*
G01X268189Y490508D01*
G01X266688Y490623D01*
G01X265245Y490565D01*
G01X264783Y490392D01*
G01X264263Y490219D01*
G01X263801Y489988D01*
G01X263340Y489699D01*
G01X262993Y489411D01*
G01X262705Y489122D01*
G01X262474Y488833D01*
G01X262185Y488372D01*
G01X261896Y487794D01*
G01X261723Y487333D01*
G01X261492Y486755D01*
G01X261319Y486005D01*
G01X261319Y486005D01*
G01X261204Y485485D01*
G01X261146Y483118D01*
G01X258251Y483118D01*
G01X258260Y483465D01*
G01X258317Y485716D01*
G01X258375Y486293D01*
G01X258490Y486928D01*
G01X258664Y487621D01*
G01X258837Y488256D01*
G01X259010Y488718D01*
G01X259241Y489238D01*
G01X259530Y489757D01*
G01X259760Y490161D01*
G01X259991Y490508D01*
G01X260857Y491547D01*
G01X261146Y491835D01*
G01X262012Y492528D01*
G01X262416Y492759D01*
G01X262935Y493048D01*
G01X263397Y493278D01*
G01X263859Y493452D01*
G01X264379Y493625D01*
G01X264840Y493740D01*
G01X265245Y493798D01*
G01X265706Y493913D01*
G01X267207Y493971D01*
G01X268650Y493856D01*
G01X269690Y493625D01*
G01X270267Y493394D01*
G01X270786Y493163D01*
G01X271190Y492932D01*
G01X271710Y492586D01*
G01X272287Y492124D01*
G01X272749Y491604D01*
G01X273095Y491200D01*
G01X273384Y490796D01*
G01X273673Y490277D01*
G01X273904Y489815D01*
G01X274077Y489411D01*
G01X274250Y488949D01*
G01X274423Y488429D01*
G01X274596Y487679D01*
G01X274770Y486755D01*
G01X274885Y482022D01*
G01X274885Y477692D01*
G37*
G36*
G01X270786Y525894D02*
G01X270902Y526241D01*
G01X268102Y526371D01*
G01X259587Y526414D01*
G01X248215Y526414D01*
G01X248215Y529531D01*
G01X275347Y529531D01*
G01X275405Y529243D01*
G01X275462Y528608D01*
G01X275419Y528319D01*
G01X274596Y527280D01*
G01X274308Y526818D01*
G01X273961Y526298D01*
G01X273730Y525894D01*
G01X273442Y525433D01*
G01X273153Y524855D01*
G01X272691Y524047D01*
G01X272460Y523585D01*
G01X271999Y522546D01*
G01X271306Y520699D01*
G01X271133Y520410D01*
G01X270671Y520237D01*
G01X269343Y520179D01*
G01X268270Y520250D01*
G01X268146Y520483D01*
G01X268189Y520814D01*
G01X268362Y521392D01*
G01X268535Y521853D01*
G01X268766Y522431D01*
G01X269690Y524278D01*
G01X269978Y524798D01*
G01X270267Y525259D01*
G01X270555Y525606D01*
G01X270786Y525894D01*
G37*
G36*
G01X270729Y505343D02*
G01X270902Y505690D01*
G01X268102Y505820D01*
G01X259587Y505863D01*
G01X248215Y505863D01*
G01X248215Y508980D01*
G01X275347Y508980D01*
G01X275405Y508692D01*
G01X275462Y508057D01*
G01X275419Y507768D01*
G01X274596Y506729D01*
G01X274423Y506440D01*
G01X274135Y506036D01*
G01X273095Y504304D01*
G01X272345Y502803D01*
G01X272114Y502226D01*
G01X271883Y501707D01*
G01X271364Y500321D01*
G01X271190Y499917D01*
G01X270729Y499787D01*
G01X269574Y499744D01*
G01X268073Y499744D01*
G01X268131Y500090D01*
G01X268650Y501649D01*
G01X269805Y503958D01*
G01X270036Y504362D01*
G01X270382Y504882D01*
G01X270729Y505343D01*
G37*
G36*
G01X126955Y145002D02*
G01X126955Y137382D01*
G01X138789Y137382D01*
G01X150681Y137324D01*
G01X150739Y135708D01*
G01X150739Y134149D01*
G01X126955Y134149D01*
G01X126955Y126529D01*
G01X126666Y126471D01*
G01X125281Y126414D01*
G01X124184Y126414D01*
G01X124126Y126702D01*
G01X124069Y135939D01*
G01X124069Y144886D01*
G01X124357Y144944D01*
G01X125800Y145002D01*
G01X126955Y145002D01*
G37*
G36*
G01X124069Y122257D02*
G01X124357Y122315D01*
G01X137634Y122373D01*
G01X150681Y122315D01*
G01X150739Y120699D01*
G01X150739Y119140D01*
G01X140809Y119140D01*
G01X140752Y118851D01*
G01X140694Y116485D01*
G01X140636Y114233D01*
G01X140579Y113656D01*
G01X140463Y113021D01*
G01X140290Y112328D01*
G01X140117Y111693D01*
G01X139944Y111231D01*
G01X139713Y110712D01*
G01X139424Y110192D01*
G01X139193Y109788D01*
G01X138962Y109442D01*
G01X138096Y108403D01*
G01X137808Y108114D01*
G01X136942Y107421D01*
G01X136538Y107191D01*
G01X136018Y106902D01*
G01X135556Y106671D01*
G01X135094Y106498D01*
G01X134575Y106325D01*
G01X134113Y106209D01*
G01X133709Y106151D01*
G01X133247Y106036D01*
G01X131746Y105978D01*
G01X130303Y106094D01*
G01X129264Y106325D01*
G01X128687Y106556D01*
G01X128167Y106786D01*
G01X127763Y107017D01*
G01X127244Y107364D01*
G01X126666Y107826D01*
G01X126204Y108345D01*
G01X125858Y108749D01*
G01X125569Y109153D01*
G01X125281Y109673D01*
G01X125050Y110135D01*
G01X124877Y110539D01*
G01X124704Y111001D01*
G01X124530Y111520D01*
G01X124357Y112271D01*
G01X124184Y113194D01*
G01X124069Y117928D01*
G01X124069Y119140D01*
G01X126955Y119140D01*
G01X126955Y117004D01*
G01X127013Y114695D01*
G01X127128Y113425D01*
G01X127244Y112963D01*
G01X127590Y111924D01*
G01X127763Y111520D01*
G01X127994Y111174D01*
G01X128283Y110827D01*
G01X128571Y110539D01*
G01X128975Y110192D01*
G01X129553Y109846D01*
G01X130188Y109615D01*
G01X130765Y109442D01*
G01X132266Y109326D01*
G01X133709Y109384D01*
G01X134171Y109557D01*
G01X134690Y109731D01*
G01X135152Y109961D01*
G01X135614Y110250D01*
G01X135960Y110539D01*
G01X136249Y110827D01*
G01X136480Y111116D01*
G01X136769Y111578D01*
G01X137057Y112155D01*
G01X137230Y112617D01*
G01X137461Y113194D01*
G01X137634Y113945D01*
G01X137634Y113945D01*
G01X137750Y114464D01*
G01X137808Y116831D01*
G01X137750Y119082D01*
G01X132324Y119140D01*
G01X126955Y119140D01*
G01X124069Y119140D01*
G01X124069Y122257D01*
G37*
G36*
G01X150854Y99455D02*
G01X150969Y98993D01*
G01X151200Y97146D01*
G01X151258Y96800D01*
G01X151316Y95818D01*
G01X151258Y94721D01*
G01X151143Y94144D01*
G01X151027Y93336D01*
G01X150854Y92701D01*
G01X150681Y92124D01*
G01X150508Y91604D01*
G01X150161Y90796D01*
G01X149930Y90392D01*
G01X149469Y89699D01*
G01X149180Y89353D01*
G01X148314Y88487D01*
G01X147910Y88141D01*
G01X147102Y87563D01*
G01X146294Y87159D01*
G01X145370Y86813D01*
G01X144966Y86697D01*
G01X144562Y86640D01*
G01X143984Y86524D01*
G01X143292Y86466D01*
G01X142830Y86409D01*
G01X142426Y86351D01*
G01X142022Y86409D01*
G01X140867Y86524D01*
G01X140405Y86640D01*
G01X139770Y86813D01*
G01X139193Y87044D01*
G01X138674Y87275D01*
G01X138269Y87506D01*
G01X137923Y87736D01*
G01X137577Y88025D01*
G01X136480Y89122D01*
G01X136249Y89411D01*
G01X136018Y89815D01*
G01X135729Y90334D01*
G01X135499Y90796D01*
G01X135152Y91604D01*
G01X135037Y92008D01*
G01X134806Y92932D01*
G01X134748Y93336D01*
G01X134633Y94721D01*
G01X134575Y95991D01*
G01X134633Y97261D01*
G01X134633Y97666D01*
G01X134055Y97839D01*
G01X133016Y97781D01*
G01X132324Y97723D01*
G01X131400Y97608D01*
G01X129091Y97492D01*
G01X127244Y97377D01*
G01X126955Y97204D01*
G01X126839Y92355D01*
G01X126839Y87621D01*
G01X124184Y87621D01*
G01X124126Y87910D01*
G01X124069Y94086D01*
G01X124069Y99975D01*
G01X124473Y100032D01*
G01X125569Y100090D01*
G01X126435Y100148D01*
G01X127590Y100263D01*
G01X129437Y100379D01*
G01X131515Y100494D01*
G01X133247Y100610D01*
G01X134402Y100725D01*
G01X136711Y100841D01*
G01X137173Y100898D01*
G01X137461Y100898D01*
G01X137461Y100494D01*
G01X137404Y99917D01*
G01X137288Y96915D01*
G01X137230Y96280D01*
G01X137288Y95645D01*
G01X137346Y94952D01*
G01X137461Y94260D01*
G01X137577Y93798D01*
G01X137692Y93278D01*
G01X137865Y92816D01*
G01X138096Y92297D01*
G01X138443Y91720D01*
G01X138847Y91142D01*
G01X139251Y90796D01*
G01X139828Y90334D01*
G01X140174Y90161D01*
G01X140636Y89988D01*
G01X141156Y89815D01*
G01X141791Y89699D01*
G01X142368Y89641D01*
G01X143003Y89584D01*
G01X143638Y89641D01*
G01X144100Y89699D01*
G01X144619Y89815D01*
G01X145081Y89988D01*
G01X145601Y90219D01*
G01X146120Y90507D01*
G01X146813Y91085D01*
G01X147159Y91431D01*
G01X147506Y91951D01*
G01X147852Y92528D01*
G01X148083Y92990D01*
G01X148256Y93509D01*
G01X148372Y94029D01*
G01X148487Y94491D01*
G01X148545Y95991D01*
G01X148487Y97377D01*
G01X148372Y98012D01*
G01X148199Y98647D01*
G01X148025Y99109D01*
G01X147679Y99917D01*
G01X147448Y100436D01*
G01X147159Y100898D01*
G01X146986Y101245D01*
G01X147217Y101418D01*
G01X148776Y101476D01*
G01X149757Y101418D01*
G01X150161Y101245D01*
G01X150392Y100725D01*
G01X150623Y100263D01*
G01X150854Y99455D01*
G37*
G36*
G01X-51856Y486608D02*
G01X-48738Y486608D01*
G01X-48738Y483606D01*
G01X-54973Y483606D01*
G01X-54973Y480142D01*
G01X-57744Y480142D01*
G01X-57744Y483606D01*
G01X-75408Y483606D01*
G01X-75408Y486781D01*
G01X-70271Y486781D01*
G01X-68741Y486651D01*
G01X-64036Y486608D01*
G01X-64036Y486608D01*
G01X-57744Y486608D01*
G01X-57744Y490995D01*
G01X-57776Y495440D01*
G01X-58032Y495440D01*
G01X-58321Y495267D01*
G01X-59187Y494574D01*
G01X-59476Y494285D01*
G01X-60342Y493593D01*
G01X-60630Y493419D01*
G01X-61496Y492727D01*
G01X-62419Y492034D01*
G01X-62824Y491745D01*
G01X-63343Y491399D01*
G01X-63747Y491110D01*
G01X-64440Y490648D01*
G01X-64844Y490360D01*
G01X-65364Y490013D01*
G01X-65768Y489725D01*
G01X-66114Y489494D01*
G01X-66576Y489205D01*
G01X-67096Y488859D01*
G01X-67557Y488570D01*
G01X-68250Y488108D01*
G01X-68654Y487878D01*
G01X-69116Y487589D01*
G01X-69636Y487300D01*
G01X-70039Y487069D01*
G01X-70271Y486781D01*
G01X-75408Y486781D01*
G01X-75408Y486838D01*
G01X-75119Y486954D01*
G01X-73042Y487993D01*
G01X-72637Y488224D01*
G01X-72349Y488397D01*
G01X-72002Y488570D01*
G01X-71541Y488859D01*
G01X-71021Y489148D01*
G01X-70617Y489378D01*
G01X-69924Y489840D01*
G01X-69462Y490129D01*
G01X-68885Y490475D01*
G01X-66807Y491861D01*
G01X-65652Y492669D01*
G01X-65248Y492958D01*
G01X-64959Y493188D01*
G01X-63112Y494574D01*
G01X-62535Y495036D01*
G01X-62073Y495382D01*
G01X-61669Y495728D01*
G01X-60803Y496421D01*
G01X-60514Y496710D01*
G01X-59937Y497172D01*
G01X-59244Y497749D01*
G01X-58667Y498211D01*
G01X-57974Y498788D01*
G01X-57571Y499077D01*
G01X-56185Y499192D01*
G01X-55088Y499192D01*
G01X-55031Y498903D01*
G01X-54973Y492611D01*
G01X-54973Y486608D01*
G01X-51856Y486608D01*
G37*
G36*
G01X-72522Y539948D02*
G01X-72522Y532328D01*
G01X-60688Y532328D01*
G01X-48796Y532270D01*
G01X-48738Y530653D01*
G01X-48738Y529095D01*
G01X-72522Y529095D01*
G01X-72522Y521475D01*
G01X-72811Y521417D01*
G01X-74196Y521359D01*
G01X-75293Y521359D01*
G01X-75351Y521648D01*
G01X-75408Y530884D01*
G01X-75408Y539832D01*
G01X-75119Y539890D01*
G01X-73677Y539948D01*
G01X-72522Y539948D01*
G37*
G36*
G01X-75408Y517203D02*
G01X-75119Y517261D01*
G01X-61842Y517318D01*
G01X-48796Y517261D01*
G01X-48738Y515644D01*
G01X-48738Y514086D01*
G01X-58667Y514086D01*
G01X-58725Y513797D01*
G01X-58783Y511430D01*
G01X-58841Y509179D01*
G01X-58898Y508602D01*
G01X-59014Y507967D01*
G01X-59187Y507274D01*
G01X-59360Y506639D01*
G01X-59533Y506177D01*
G01X-59764Y505658D01*
G01X-60053Y505138D01*
G01X-60284Y504734D01*
G01X-60514Y504388D01*
G01X-61381Y503348D01*
G01X-61669Y503060D01*
G01X-62535Y502367D01*
G01X-62939Y502136D01*
G01X-63459Y501848D01*
G01X-63921Y501617D01*
G01X-64382Y501443D01*
G01X-64902Y501270D01*
G01X-65364Y501155D01*
G01X-65768Y501097D01*
G01X-66229Y500982D01*
G01X-67731Y500924D01*
G01X-69174Y501039D01*
G01X-70213Y501270D01*
G01X-70790Y501501D01*
G01X-71309Y501732D01*
G01X-71714Y501963D01*
G01X-72233Y502309D01*
G01X-72811Y502771D01*
G01X-73272Y503291D01*
G01X-73619Y503695D01*
G01X-73907Y504099D01*
G01X-74196Y504618D01*
G01X-74427Y505080D01*
G01X-74600Y505484D01*
G01X-74773Y505946D01*
G01X-74947Y506466D01*
G01X-75119Y507216D01*
G01X-75293Y508140D01*
G01X-75408Y512873D01*
G01X-75408Y514086D01*
G01X-72522Y514086D01*
G01X-72522Y511950D01*
G01X-72464Y509641D01*
G01X-72349Y508371D01*
G01X-72233Y507909D01*
G01X-71887Y506870D01*
G01X-71714Y506466D01*
G01X-71483Y506119D01*
G01X-71194Y505773D01*
G01X-70906Y505484D01*
G01X-70502Y505138D01*
G01X-69924Y504792D01*
G01X-69289Y504561D01*
G01X-68712Y504388D01*
G01X-67211Y504272D01*
G01X-65768Y504330D01*
G01X-65306Y504503D01*
G01X-64787Y504676D01*
G01X-64324Y504907D01*
G01X-63863Y505196D01*
G01X-63517Y505484D01*
G01X-63228Y505773D01*
G01X-62997Y506062D01*
G01X-62708Y506523D01*
G01X-62419Y507101D01*
G01X-62247Y507563D01*
G01X-62016Y508140D01*
G01X-61842Y508890D01*
G01X-61842Y508890D01*
G01X-61727Y509410D01*
G01X-61669Y511777D01*
G01X-61727Y514028D01*
G01X-67153Y514086D01*
G01X-72522Y514086D01*
G01X-75408Y514086D01*
G01X-75408Y517203D01*
G37*
G36*
G01X436010Y271926D02*
G01X436010Y279546D01*
G01X424175Y279546D01*
G01X412284Y279604D01*
G01X412226Y281220D01*
G01X412226Y282779D01*
G01X436010Y282779D01*
G01X436010Y290399D01*
G01X436298Y290457D01*
G01X437684Y290514D01*
G01X438780Y290514D01*
G01X438838Y290226D01*
G01X438896Y280989D01*
G01X438896Y272042D01*
G01X438607Y271984D01*
G01X437164Y271926D01*
G01X436010Y271926D01*
G37*
G36*
G01X414939Y335138D02*
G01X413900Y335022D01*
G01X412919Y334964D01*
G01X412341Y335022D01*
G01X412226Y343277D01*
G01X412226Y351474D01*
G01X414881Y351474D01*
G01X414881Y344893D01*
G01X414939Y339943D01*
G01X415112Y338255D01*
G01X415516Y338255D01*
G01X415920Y338313D01*
G01X416382Y338428D01*
G01X416902Y338601D01*
G01X417364Y338774D01*
G01X417768Y339005D01*
G01X418114Y339236D01*
G01X418403Y339467D01*
G01X419557Y340622D01*
G01X420250Y341430D01*
G01X420943Y342296D01*
G01X421116Y342584D01*
G01X421347Y342873D01*
G01X421693Y343335D01*
G01X422501Y344489D01*
G01X423540Y345875D01*
G01X424002Y346452D01*
G01X425734Y348184D01*
G01X426023Y348415D01*
G01X426311Y348588D01*
G01X426600Y348819D01*
G01X426946Y349050D01*
G01X427350Y349281D01*
G01X428274Y349743D01*
G01X428736Y349916D01*
G01X429140Y350031D01*
G01X429717Y350204D01*
G01X430525Y350378D01*
G01X432373Y350435D01*
G01X434047Y350320D01*
G01X434624Y350147D01*
G01X435086Y349973D01*
G01X435894Y349569D01*
G01X436356Y349281D01*
G01X437049Y348703D01*
G01X437337Y348415D01*
G01X437799Y347838D01*
G01X438088Y347376D01*
G01X438434Y346798D01*
G01X438665Y346279D01*
G01X438838Y345817D01*
G01X438954Y345413D01*
G01X439300Y343681D01*
G01X439358Y342411D01*
G01X439300Y341372D01*
G01X439185Y340795D01*
G01X439011Y339987D01*
G01X438838Y339409D01*
G01X438665Y338948D01*
G01X438088Y337793D01*
G01X437799Y337389D01*
G01X437568Y337100D01*
G01X437395Y336812D01*
G01X437164Y336523D01*
G01X436875Y336234D01*
G01X436529Y336061D01*
G01X434970Y336003D01*
G01X433946Y336047D01*
G01X433643Y336177D01*
G01X433874Y336465D01*
G01X434162Y336754D01*
G01X435086Y337908D01*
G01X435317Y338255D01*
G01X435605Y338717D01*
G01X435836Y339178D01*
G01X436010Y339583D01*
G01X436356Y340506D01*
G01X436529Y341257D01*
G01X436587Y342815D01*
G01X436529Y344028D01*
G01X436414Y344489D01*
G01X436240Y344893D01*
G01X435663Y345759D01*
G01X434970Y346452D01*
G01X434624Y346683D01*
G01X434220Y346856D01*
G01X433700Y347029D01*
G01X433181Y347145D01*
G01X432257Y347260D01*
G01X431622Y347318D01*
G01X430987Y347260D01*
G01X429833Y347145D01*
G01X429313Y346972D01*
G01X428736Y346741D01*
G01X428216Y346452D01*
G01X427639Y346106D01*
G01X427235Y345817D01*
G01X426946Y345586D01*
G01X426658Y345298D01*
G01X426080Y344836D01*
G01X425792Y344547D01*
G01X425330Y343970D01*
G01X424984Y343566D01*
G01X424695Y343162D01*
G01X424464Y342873D01*
G01X422732Y340564D01*
G01X421809Y339409D01*
G01X421462Y338948D01*
G01X419730Y337216D01*
G01X418865Y336523D01*
G01X418518Y336350D01*
G01X418056Y336061D01*
G01X417537Y335830D01*
G01X417133Y335657D01*
G01X416671Y335484D01*
G01X415747Y335253D01*
G01X414939Y335138D01*
G37*
G36*
G01X438896Y294671D02*
G01X438607Y294613D01*
G01X425330Y294555D01*
G01X412284Y294613D01*
G01X412226Y296229D01*
G01X412226Y297788D01*
G01X422155Y297788D01*
G01X422213Y298077D01*
G01X422262Y300097D01*
G01X425157Y300097D01*
G01X425215Y297846D01*
G01X430641Y297788D01*
G01X436010Y297788D01*
G01X436010Y299924D01*
G01X435952Y302233D01*
G01X435836Y303503D01*
G01X435721Y303965D01*
G01X435375Y305004D01*
G01X435201Y305408D01*
G01X434970Y305754D01*
G01X434682Y306101D01*
G01X434393Y306389D01*
G01X433989Y306736D01*
G01X433412Y307082D01*
G01X432777Y307313D01*
G01X432200Y307486D01*
G01X430699Y307602D01*
G01X429255Y307544D01*
G01X428794Y307371D01*
G01X428274Y307198D01*
G01X427812Y306967D01*
G01X427350Y306678D01*
G01X427004Y306389D01*
G01X426715Y306101D01*
G01X426485Y305812D01*
G01X426196Y305350D01*
G01X425907Y304773D01*
G01X425734Y304311D01*
G01X425503Y303734D01*
G01X425330Y302983D01*
G01X425330Y302983D01*
G01X425215Y302464D01*
G01X425157Y300097D01*
G01X422262Y300097D01*
G01X422270Y300443D01*
G01X422328Y302695D01*
G01X422386Y303272D01*
G01X422501Y303907D01*
G01X422675Y304600D01*
G01X422848Y305235D01*
G01X423021Y305697D01*
G01X423252Y306216D01*
G01X423540Y306736D01*
G01X423771Y307140D01*
G01X424002Y307486D01*
G01X424868Y308525D01*
G01X425157Y308814D01*
G01X426023Y309507D01*
G01X426427Y309738D01*
G01X426946Y310026D01*
G01X427408Y310257D01*
G01X427870Y310430D01*
G01X428390Y310603D01*
G01X428851Y310719D01*
G01X429255Y310777D01*
G01X429717Y310892D01*
G01X431218Y310950D01*
G01X432661Y310834D01*
G01X433700Y310603D01*
G01X434278Y310373D01*
G01X434797Y310142D01*
G01X435201Y309911D01*
G01X435721Y309564D01*
G01X436298Y309103D01*
G01X436760Y308583D01*
G01X437106Y308179D01*
G01X437395Y307775D01*
G01X437684Y307255D01*
G01X437915Y306793D01*
G01X438088Y306389D01*
G01X438261Y305928D01*
G01X438434Y305408D01*
G01X438607Y304658D01*
G01X438780Y303734D01*
G01X438896Y299000D01*
G01X438896Y294671D01*
G37*
G36*
G01X434740Y322322D02*
G01X434913Y322668D01*
G01X432113Y322798D01*
G01X423598Y322842D01*
G01X412226Y322842D01*
G01X412226Y325959D01*
G01X439358Y325959D01*
G01X439415Y325670D01*
G01X439473Y325035D01*
G01X439430Y324747D01*
G01X438607Y323708D01*
G01X438434Y323419D01*
G01X438145Y323015D01*
G01X437106Y321283D01*
G01X436356Y319782D01*
G01X436125Y319205D01*
G01X435894Y318685D01*
G01X435375Y317300D01*
G01X435201Y316896D01*
G01X434740Y316766D01*
G01X433585Y316723D01*
G01X432084Y316723D01*
G01X432142Y317069D01*
G01X432661Y318628D01*
G01X433816Y320937D01*
G01X434047Y321341D01*
G01X434393Y321860D01*
G01X434740Y322322D01*
G37*
G36*
G01X122398Y545028D02*
G01X122398Y537408D01*
G01X134232Y537408D01*
G01X146124Y537350D01*
G01X146182Y535733D01*
G01X146182Y534175D01*
G01X122398Y534175D01*
G01X122398Y526555D01*
G01X122109Y526497D01*
G01X120724Y526439D01*
G01X119627Y526439D01*
G01X119569Y526728D01*
G01X119512Y535964D01*
G01X119512Y544912D01*
G01X119801Y544970D01*
G01X121244Y545028D01*
G01X122398Y545028D01*
G37*
G36*
G01X119512Y522283D02*
G01X119801Y522341D01*
G01X133078Y522398D01*
G01X146124Y522341D01*
G01X146182Y520724D01*
G01X146182Y519166D01*
G01X136253Y519166D01*
G01X136195Y518877D01*
G01X136137Y516510D01*
G01X136079Y514259D01*
G01X136022Y513682D01*
G01X135907Y513047D01*
G01X135733Y512354D01*
G01X135560Y511719D01*
G01X135387Y511257D01*
G01X135156Y510738D01*
G01X134867Y510218D01*
G01X134637Y509814D01*
G01X134406Y509468D01*
G01X133539Y508428D01*
G01X133251Y508140D01*
G01X132385Y507447D01*
G01X131981Y507216D01*
G01X131462Y506928D01*
G01X130999Y506697D01*
G01X130538Y506523D01*
G01X130018Y506350D01*
G01X129557Y506235D01*
G01X129152Y506177D01*
G01X128691Y506062D01*
G01X127189Y506004D01*
G01X125747Y506119D01*
G01X124707Y506350D01*
G01X124130Y506581D01*
G01X123611Y506812D01*
G01X123207Y507043D01*
G01X122687Y507389D01*
G01X122109Y507851D01*
G01X121648Y508371D01*
G01X121302Y508775D01*
G01X121013Y509179D01*
G01X120724Y509698D01*
G01X120493Y510160D01*
G01X120320Y510564D01*
G01X120147Y511026D01*
G01X119974Y511546D01*
G01X119801Y512296D01*
G01X119627Y513220D01*
G01X119512Y517953D01*
G01X119512Y519166D01*
G01X122398Y519166D01*
G01X122398Y517030D01*
G01X122456Y514721D01*
G01X122572Y513451D01*
G01X122687Y512989D01*
G01X123033Y511950D01*
G01X123207Y511546D01*
G01X123437Y511199D01*
G01X123726Y510853D01*
G01X124014Y510564D01*
G01X124419Y510218D01*
G01X124996Y509872D01*
G01X125631Y509641D01*
G01X126208Y509468D01*
G01X127709Y509352D01*
G01X129152Y509410D01*
G01X129614Y509583D01*
G01X130134Y509756D01*
G01X130596Y509987D01*
G01X131057Y510276D01*
G01X131404Y510564D01*
G01X131692Y510853D01*
G01X131923Y511142D01*
G01X132212Y511603D01*
G01X132501Y512181D01*
G01X132674Y512643D01*
G01X132904Y513220D01*
G01X133078Y513970D01*
G01X133078Y513970D01*
G01X133193Y514490D01*
G01X133251Y516857D01*
G01X133193Y519108D01*
G01X127767Y519166D01*
G01X122398Y519166D01*
G01X119512Y519166D01*
G01X119512Y522283D01*
G37*
G36*
G01X146413Y499192D02*
G01X146471Y498788D01*
G01X146644Y497403D01*
G01X146702Y497056D01*
G01X146759Y496017D01*
G01X146702Y494863D01*
G01X146586Y494401D01*
G01X146471Y493593D01*
G01X146297Y492900D01*
G01X145951Y491861D01*
G01X145604Y491053D01*
G01X145143Y490244D01*
G01X144912Y489898D01*
G01X144566Y489436D01*
G01X143873Y488743D01*
G01X143469Y488397D01*
G01X142661Y487820D01*
G01X142083Y487531D01*
G01X141564Y487300D01*
G01X140987Y487069D01*
G01X140236Y486896D01*
G01X139659Y486781D01*
G01X138619Y486723D01*
G01X137581Y486781D01*
G01X137003Y486954D01*
G01X136311Y487185D01*
G01X135733Y487473D01*
G01X135214Y487762D01*
G01X134521Y488339D01*
G01X134174Y488686D01*
G01X133886Y489032D01*
G01X133597Y489436D01*
G01X133309Y489956D01*
G01X133078Y490360D01*
G01X132904Y490764D01*
G01X132558Y491688D01*
G01X132443Y492207D01*
G01X132269Y492611D01*
G01X132039Y492496D01*
G01X131866Y492034D01*
G01X131519Y491226D01*
G01X131231Y490706D01*
G01X130827Y490129D01*
G01X129845Y489148D01*
G01X129557Y488917D01*
G01X129210Y488686D01*
G01X128806Y488455D01*
G01X128402Y488282D01*
G01X127940Y488108D01*
G01X127478Y487993D01*
G01X127074Y487878D01*
G01X125458Y487762D01*
G01X123842Y487878D01*
G01X123322Y488051D01*
G01X122860Y488224D01*
G01X122514Y488455D01*
G01X122109Y488686D01*
G01X121763Y488917D01*
G01X121071Y489494D01*
G01X120782Y489840D01*
G01X120493Y490302D01*
G01X120147Y490822D01*
G01X119858Y491457D01*
G01X119627Y491976D01*
G01X119454Y492496D01*
G01X119339Y493015D01*
G01X119223Y493593D01*
G01X119166Y494458D01*
G01X119108Y495093D01*
G01X119108Y495671D01*
G01X119166Y496594D01*
G01X119223Y497287D01*
G01X119281Y497691D01*
G01X119397Y498153D01*
G01X119569Y498730D01*
G01X119743Y499250D01*
G01X120089Y500173D01*
G01X120320Y500635D01*
G01X120667Y501097D01*
G01X121157Y501227D01*
G01X122167Y501270D01*
G01X123437Y501270D01*
G01X123379Y500982D01*
G01X123149Y500462D01*
G01X122860Y499943D01*
G01X122629Y499538D01*
G01X122456Y499192D01*
G01X122283Y498788D01*
G01X122109Y498211D01*
G01X121937Y497576D01*
G01X121821Y496941D01*
G01X121763Y496363D01*
G01X121706Y495671D01*
G01X121763Y494978D01*
G01X121821Y494516D01*
G01X121937Y493997D01*
G01X122109Y493419D01*
G01X122283Y492900D01*
G01X122514Y492496D01*
G01X122802Y492149D01*
G01X123091Y491861D01*
G01X123379Y491630D01*
G01X123726Y491457D01*
G01X124246Y491226D01*
G01X124881Y491053D01*
G01X125458Y490937D01*
G01X126439Y490879D01*
G01X127305Y490937D01*
G01X127709Y491053D01*
G01X128171Y491226D01*
G01X128575Y491399D01*
G01X128922Y491572D01*
G01X129268Y491803D01*
G01X129557Y492149D01*
G01X130018Y492727D01*
G01X130249Y493131D01*
G01X130422Y493535D01*
G01X130596Y493997D01*
G01X130769Y494516D01*
G01X130884Y494978D01*
G01X130999Y495671D01*
G01X131057Y497807D01*
G01X131057Y499423D01*
G01X131346Y499481D01*
G01X132674Y499538D01*
G01X133713Y499538D01*
G01X133771Y499134D01*
G01X133828Y496941D01*
G01X133886Y494978D01*
G01X134002Y494170D01*
G01X134174Y493650D01*
G01X134348Y493015D01*
G01X134521Y492553D01*
G01X134752Y492149D01*
G01X135098Y491630D01*
G01X135502Y491226D01*
G01X136079Y490764D01*
G01X136484Y490475D01*
G01X137061Y490244D01*
G01X137581Y490071D01*
G01X138331Y489956D01*
G01X139024Y489898D01*
G01X139312Y489898D01*
G01X139774Y489956D01*
G01X140294Y490071D01*
G01X140813Y490244D01*
G01X141275Y490418D01*
G01X141737Y490706D01*
G01X142141Y491053D01*
G01X142429Y491341D01*
G01X142776Y491745D01*
G01X143064Y492149D01*
G01X143296Y492553D01*
G01X143527Y493073D01*
G01X143699Y493650D01*
G01X143815Y494170D01*
G01X143931Y494747D01*
G01X143988Y496421D01*
G01X143931Y497864D01*
G01X143699Y498673D01*
G01X143527Y499250D01*
G01X143296Y499885D01*
G01X143064Y500404D01*
G01X142834Y500866D01*
G01X142257Y501790D01*
G01X142141Y502078D01*
G01X142429Y502252D01*
G01X143873Y502309D01*
G01X144782Y502266D01*
G01X145201Y502136D01*
G01X145489Y501674D01*
G01X145951Y500751D01*
G01X146124Y500116D01*
G01X146297Y499596D01*
G01X146413Y499192D01*
G37*
G36*
G01X608012Y134499D02*
G01X608012Y142119D01*
G01X596178Y142119D01*
G01X584286Y142177D01*
G01X584228Y143793D01*
G01X584228Y145352D01*
G01X608012Y145352D01*
G01X608012Y152972D01*
G01X608301Y153030D01*
G01X609686Y153087D01*
G01X610783Y153087D01*
G01X610841Y152799D01*
G01X610898Y143562D01*
G01X610898Y134615D01*
G01X610609Y134557D01*
G01X609166Y134499D01*
G01X608012Y134499D01*
G37*
G36*
G01X610898Y157244D02*
G01X610609Y157186D01*
G01X597332Y157128D01*
G01X584286Y157186D01*
G01X584228Y158802D01*
G01X584228Y160361D01*
G01X594157Y160361D01*
G01X594215Y160650D01*
G01X594264Y162670D01*
G01X597159Y162670D01*
G01X597217Y160419D01*
G01X602643Y160361D01*
G01X608012Y160361D01*
G01X608012Y162497D01*
G01X607954Y164806D01*
G01X607839Y166076D01*
G01X607723Y166538D01*
G01X607377Y167577D01*
G01X607204Y167981D01*
G01X606973Y168327D01*
G01X606684Y168674D01*
G01X606396Y168962D01*
G01X605991Y169309D01*
G01X605414Y169655D01*
G01X604779Y169886D01*
G01X604202Y170059D01*
G01X602701Y170175D01*
G01X601258Y170117D01*
G01X600796Y169944D01*
G01X600276Y169771D01*
G01X599814Y169540D01*
G01X599353Y169251D01*
G01X599006Y168962D01*
G01X598718Y168674D01*
G01X598487Y168385D01*
G01X598198Y167923D01*
G01X597909Y167346D01*
G01X597736Y166884D01*
G01X597506Y166307D01*
G01X597332Y165556D01*
G01X597332Y165556D01*
G01X597217Y165037D01*
G01X597159Y162670D01*
G01X594264Y162670D01*
G01X594273Y163016D01*
G01X594331Y165268D01*
G01X594388Y165845D01*
G01X594504Y166480D01*
G01X594677Y167173D01*
G01X594850Y167808D01*
G01X595023Y168270D01*
G01X595254Y168789D01*
G01X595543Y169309D01*
G01X595774Y169713D01*
G01X596004Y170059D01*
G01X596871Y171098D01*
G01X597159Y171387D01*
G01X598025Y172080D01*
G01X598429Y172311D01*
G01X598949Y172599D01*
G01X599411Y172830D01*
G01X599872Y173003D01*
G01X600392Y173176D01*
G01X600854Y173292D01*
G01X601258Y173350D01*
G01X601719Y173465D01*
G01X603221Y173523D01*
G01X604664Y173407D01*
G01X605703Y173176D01*
G01X606280Y172946D01*
G01X606799Y172715D01*
G01X607204Y172484D01*
G01X607723Y172137D01*
G01X608301Y171676D01*
G01X608762Y171156D01*
G01X609109Y170752D01*
G01X609397Y170348D01*
G01X609686Y169828D01*
G01X609917Y169366D01*
G01X610090Y168962D01*
G01X610263Y168501D01*
G01X610436Y167981D01*
G01X610609Y167231D01*
G01X610783Y166307D01*
G01X610898Y161573D01*
G01X610898Y157244D01*
G37*
G36*
G01X583997Y200886D02*
G01X583824Y202098D01*
G01X583766Y202560D01*
G01X583709Y202906D01*
G01X583651Y204003D01*
G01X583709Y205215D01*
G01X583824Y205677D01*
G01X583939Y206485D01*
G01X584113Y207178D01*
G01X584459Y208217D01*
G01X584806Y209025D01*
G01X585267Y209833D01*
G01X585498Y210180D01*
G01X585844Y210641D01*
G01X586537Y211334D01*
G01X586941Y211681D01*
G01X587346Y211969D01*
G01X587692Y212200D01*
G01X588096Y212431D01*
G01X588558Y212662D01*
G01X589135Y212893D01*
G01X589712Y213066D01*
G01X590405Y213181D01*
G01X590982Y213297D01*
G01X591791Y213355D01*
G01X592599Y213297D01*
G01X593176Y213181D01*
G01X593811Y213008D01*
G01X594331Y212777D01*
G01X594792Y212546D01*
G01X595139Y212316D01*
G01X595601Y211969D01*
G01X596120Y211450D01*
G01X596466Y211046D01*
G01X596697Y210757D01*
G01X596928Y210411D01*
G01X597159Y209949D01*
G01X597390Y209545D01*
G01X597563Y209141D01*
G01X597909Y208101D01*
G01X598007Y207600D01*
G01X598198Y207409D01*
G01X598429Y207755D01*
G01X598660Y208332D01*
G01X598891Y208852D01*
G01X599122Y209256D01*
G01X599584Y209949D01*
G01X600449Y210815D01*
G01X600738Y211046D01*
G01X601142Y211334D01*
G01X601662Y211623D01*
G01X602181Y211854D01*
G01X602759Y212027D01*
G01X603394Y212200D01*
G01X605010Y212316D01*
G01X606511Y212200D01*
G01X607031Y212027D01*
G01X607492Y211854D01*
G01X608301Y211392D01*
G01X608647Y211161D01*
G01X608936Y210872D01*
G01X609224Y210641D01*
G01X609571Y210295D01*
G01X610263Y209256D01*
G01X610494Y208736D01*
G01X610667Y208332D01*
G01X610841Y207871D01*
G01X611014Y207293D01*
G01X611129Y206774D01*
G01X611187Y206370D01*
G01X611302Y204984D01*
G01X611302Y204407D01*
G01X611244Y203483D01*
G01X611187Y202791D01*
G01X611129Y202386D01*
G01X611014Y201925D01*
G01X610841Y201347D01*
G01X610494Y200308D01*
G01X610321Y199846D01*
G01X610090Y199442D01*
G01X609744Y198981D01*
G01X609253Y198851D01*
G01X608243Y198807D01*
G01X606973Y198807D01*
G01X607031Y199096D01*
G01X607261Y199616D01*
G01X607550Y200077D01*
G01X607781Y200481D01*
G01X608127Y201290D01*
G01X608301Y201867D01*
G01X608474Y202502D01*
G01X608589Y203137D01*
G01X608647Y203714D01*
G01X608704Y204407D01*
G01X608647Y205100D01*
G01X608589Y205561D01*
G01X608474Y206081D01*
G01X608301Y206658D01*
G01X608127Y207178D01*
G01X607839Y207640D01*
G01X607492Y208044D01*
G01X607204Y208275D01*
G01X606799Y208563D01*
G01X606107Y208852D01*
G01X605529Y209025D01*
G01X604837Y209141D01*
G01X603856Y209198D01*
G01X603221Y209141D01*
G01X602759Y209025D01*
G01X602239Y208852D01*
G01X601835Y208679D01*
G01X601489Y208506D01*
G01X601142Y208217D01*
G01X600738Y207755D01*
G01X600334Y207236D01*
G01X600046Y206658D01*
G01X599814Y206081D01*
G01X599641Y205561D01*
G01X599526Y205100D01*
G01X599411Y204407D01*
G01X599353Y202271D01*
G01X599353Y200655D01*
G01X599064Y200597D01*
G01X597736Y200539D01*
G01X596697Y200539D01*
G01X596639Y200943D01*
G01X596582Y203137D01*
G01X596524Y205100D01*
G01X596409Y205908D01*
G01X596236Y206427D01*
G01X596062Y207062D01*
G01X595889Y207524D01*
G01X595658Y207928D01*
G01X595312Y208448D01*
G01X594908Y208852D01*
G01X594619Y209083D01*
G01X593811Y209660D01*
G01X593349Y209833D01*
G01X592829Y209949D01*
G01X592021Y210064D01*
G01X591271Y210122D01*
G01X590521Y210064D01*
G01X589943Y209949D01*
G01X589366Y209776D01*
G01X588962Y209545D01*
G01X588442Y209198D01*
G01X587749Y208506D01*
G01X587519Y208217D01*
G01X587288Y207813D01*
G01X586999Y207293D01*
G01X586826Y206716D01*
G01X586653Y206196D01*
G01X586537Y205735D01*
G01X586479Y205331D01*
G01X586422Y203714D01*
G01X586479Y202098D01*
G01X586653Y201636D01*
G01X586826Y200943D01*
G01X586999Y200366D01*
G01X587634Y199096D01*
G01X587807Y198807D01*
G01X588096Y198403D01*
G01X588269Y197941D01*
G01X587908Y197812D01*
G01X586826Y197768D01*
G01X585700Y197812D01*
G01X585209Y197941D01*
G01X584921Y198403D01*
G01X584459Y199327D01*
G01X584286Y199904D01*
G01X584113Y200424D01*
G01X583997Y200886D01*
G37*
G36*
G01X606742Y184895D02*
G01X606915Y185241D01*
G01X604115Y185371D01*
G01X595601Y185415D01*
G01X584228Y185415D01*
G01X584228Y188532D01*
G01X611360Y188532D01*
G01X611418Y188243D01*
G01X611476Y187608D01*
G01X611432Y187320D01*
G01X610609Y186281D01*
G01X610436Y185992D01*
G01X610148Y185588D01*
G01X609109Y183856D01*
G01X608358Y182355D01*
G01X608127Y181778D01*
G01X607896Y181258D01*
G01X607377Y179873D01*
G01X607204Y179469D01*
G01X606742Y179339D01*
G01X605587Y179296D01*
G01X604086Y179296D01*
G01X604144Y179642D01*
G01X604664Y181201D01*
G01X605818Y183510D01*
G01X606049Y183914D01*
G01X606396Y184433D01*
G01X606742Y184895D01*
G37*
G36*
G01X-77602Y329788D02*
G01X-77602Y322168D01*
G01X-65768Y322168D01*
G01X-53876Y322110D01*
G01X-53818Y320493D01*
G01X-53818Y318935D01*
G01X-77602Y318935D01*
G01X-77602Y311315D01*
G01X-77891Y311257D01*
G01X-79276Y311199D01*
G01X-80373Y311199D01*
G01X-80431Y311488D01*
G01X-80488Y320724D01*
G01X-80488Y329672D01*
G01X-80199Y329730D01*
G01X-78757Y329788D01*
G01X-77602Y329788D01*
G37*
G36*
G01X-57859Y286896D02*
G01X-57339Y287012D01*
G01X-56532Y287127D01*
G01X-55088Y287185D01*
G01X-53818Y287185D01*
G01X-53818Y270790D01*
G01X-56474Y270790D01*
G01X-56474Y283952D01*
G01X-57051Y283952D01*
G01X-57802Y283894D01*
G01X-58379Y283721D01*
G01X-58956Y283490D01*
G01X-59360Y283259D01*
G01X-59707Y283028D01*
G01X-59995Y282798D01*
G01X-61149Y281643D01*
G01X-62016Y280604D01*
G01X-62247Y280258D01*
G01X-62939Y279392D01*
G01X-63228Y278988D01*
G01X-63574Y278468D01*
G01X-63863Y278064D01*
G01X-64094Y277775D01*
G01X-64440Y277313D01*
G01X-64844Y276736D01*
G01X-65191Y276332D01*
G01X-65652Y275755D01*
G01X-67327Y274081D01*
G01X-67673Y273792D01*
G01X-68019Y273561D01*
G01X-68423Y273273D01*
G01X-68885Y272984D01*
G01X-69578Y272638D01*
G01X-70386Y272291D01*
G01X-70963Y272118D01*
G01X-72118Y271887D01*
G01X-72984Y271829D01*
G01X-73619Y271772D01*
G01X-74081Y271772D01*
G01X-74889Y271829D01*
G01X-75639Y271945D01*
G01X-76217Y272118D01*
G01X-76736Y272291D01*
G01X-77198Y272522D01*
G01X-77602Y272753D01*
G01X-78294Y273215D01*
G01X-78583Y273446D01*
G01X-78872Y273734D01*
G01X-79161Y274138D01*
G01X-79507Y274658D01*
G01X-79796Y275062D01*
G01X-80027Y275466D01*
G01X-80257Y275986D01*
G01X-80431Y276448D01*
G01X-80546Y276852D01*
G01X-80892Y278583D01*
G01X-80950Y279853D01*
G01X-80892Y280893D01*
G01X-80777Y281470D01*
G01X-80604Y282278D01*
G01X-80431Y282855D01*
G01X-80257Y283317D01*
G01X-80027Y283779D01*
G01X-79796Y284183D01*
G01X-79507Y284703D01*
G01X-79103Y285280D01*
G01X-78757Y285684D01*
G01X-78526Y285973D01*
G01X-78006Y286203D01*
G01X-76447Y286261D01*
G01X-75582Y286218D01*
G01X-75293Y286088D01*
G01X-75466Y285799D01*
G01X-76505Y284587D01*
G01X-77082Y283663D01*
G01X-77429Y283086D01*
G01X-77659Y282509D01*
G01X-77833Y282047D01*
G01X-78006Y281528D01*
G01X-78122Y281008D01*
G01X-78179Y279623D01*
G01X-78122Y278237D01*
G01X-78006Y277775D01*
G01X-77833Y277371D01*
G01X-77256Y276505D01*
G01X-76736Y275986D01*
G01X-76274Y275639D01*
G01X-75812Y275408D01*
G01X-75351Y275235D01*
G01X-74427Y275004D01*
G01X-73214Y274947D01*
G01X-72002Y275004D01*
G01X-71483Y275120D01*
G01X-70906Y275293D01*
G01X-70328Y275524D01*
G01X-69809Y275755D01*
G01X-69347Y276043D01*
G01X-68943Y276332D01*
G01X-68654Y276563D01*
G01X-68366Y276852D01*
G01X-67788Y277313D01*
G01X-67211Y277891D01*
G01X-66864Y278353D01*
G01X-66518Y278757D01*
G01X-66287Y279045D01*
G01X-65941Y279507D01*
G01X-65537Y280084D01*
G01X-65248Y280488D01*
G01X-64556Y281354D01*
G01X-63863Y282278D01*
G01X-63574Y282567D01*
G01X-62651Y283721D01*
G01X-61496Y284876D01*
G01X-61034Y285222D01*
G01X-60514Y285626D01*
G01X-59995Y285973D01*
G01X-59476Y286261D01*
G01X-58437Y286723D01*
G01X-57859Y286896D01*
G37*
G36*
G01X-80488Y307043D02*
G01X-80199Y307101D01*
G01X-66922Y307158D01*
G01X-53876Y307101D01*
G01X-53818Y305484D01*
G01X-53818Y303926D01*
G01X-63747Y303926D01*
G01X-63805Y303637D01*
G01X-63863Y301270D01*
G01X-63921Y299019D01*
G01X-63978Y298442D01*
G01X-64094Y297807D01*
G01X-64267Y297114D01*
G01X-64440Y296479D01*
G01X-64613Y296017D01*
G01X-64844Y295498D01*
G01X-65133Y294978D01*
G01X-65364Y294574D01*
G01X-65594Y294228D01*
G01X-66461Y293188D01*
G01X-66749Y292900D01*
G01X-67615Y292207D01*
G01X-68019Y291976D01*
G01X-68539Y291688D01*
G01X-69001Y291457D01*
G01X-69462Y291283D01*
G01X-69982Y291110D01*
G01X-70444Y290995D01*
G01X-70848Y290937D01*
G01X-71309Y290822D01*
G01X-72811Y290764D01*
G01X-74254Y290879D01*
G01X-75293Y291110D01*
G01X-75870Y291341D01*
G01X-76389Y291572D01*
G01X-76794Y291803D01*
G01X-77313Y292149D01*
G01X-77891Y292611D01*
G01X-78352Y293131D01*
G01X-78699Y293535D01*
G01X-78987Y293939D01*
G01X-79276Y294458D01*
G01X-79507Y294920D01*
G01X-79680Y295324D01*
G01X-79853Y295786D01*
G01X-80027Y296306D01*
G01X-80199Y297056D01*
G01X-80373Y297980D01*
G01X-80488Y302713D01*
G01X-80488Y303926D01*
G01X-77602Y303926D01*
G01X-77602Y301790D01*
G01X-77544Y299481D01*
G01X-77429Y298211D01*
G01X-77313Y297749D01*
G01X-76967Y296710D01*
G01X-76794Y296306D01*
G01X-76563Y295959D01*
G01X-76274Y295613D01*
G01X-75986Y295324D01*
G01X-75582Y294978D01*
G01X-75004Y294632D01*
G01X-74369Y294401D01*
G01X-73792Y294228D01*
G01X-72291Y294112D01*
G01X-70848Y294170D01*
G01X-70386Y294343D01*
G01X-69867Y294516D01*
G01X-69404Y294747D01*
G01X-68943Y295036D01*
G01X-68597Y295324D01*
G01X-68308Y295613D01*
G01X-68077Y295902D01*
G01X-67788Y296363D01*
G01X-67499Y296941D01*
G01X-67327Y297403D01*
G01X-67096Y297980D01*
G01X-66922Y298730D01*
G01X-66922Y298730D01*
G01X-66807Y299250D01*
G01X-66749Y301617D01*
G01X-66807Y303868D01*
G01X-72233Y303926D01*
G01X-77602Y303926D01*
G01X-80488Y303926D01*
G01X-80488Y307043D01*
G37*
G36*
G01X-545551Y322777D02*
G01X-545551Y324105D01*
G01X-542780Y324105D01*
G01X-542747Y319884D01*
G01X-542491Y319948D01*
G01X-541337Y320872D01*
G01X-541048Y321161D01*
G01X-540182Y321853D01*
G01X-539894Y322027D01*
G01X-539028Y322719D01*
G01X-538566Y323066D01*
G01X-537989Y323470D01*
G01X-536776Y324336D01*
G01X-536084Y324797D01*
G01X-535679Y325086D01*
G01X-533601Y326472D01*
G01X-533024Y326818D01*
G01X-532562Y327107D01*
G01X-531869Y327568D01*
G01X-531408Y327857D01*
G01X-530888Y328146D01*
G01X-530484Y328377D01*
G01X-530215Y328541D01*
G01X-530311Y328709D01*
G01X-530599Y328781D01*
G01X-536834Y328838D01*
G01X-542664Y328838D01*
G01X-542664Y328838D01*
G01X-542722Y328550D01*
G01X-542780Y324105D01*
G01X-545551Y324105D01*
G01X-545551Y328723D01*
G01X-545839Y328781D01*
G01X-548957Y328838D01*
G01X-551785Y328838D01*
G01X-551785Y331840D01*
G01X-545551Y331840D01*
G01X-545551Y335304D01*
G01X-542780Y335304D01*
G01X-542780Y331840D01*
G01X-525231Y331840D01*
G01X-525173Y331552D01*
G01X-525115Y329935D01*
G01X-525115Y328607D01*
G01X-525404Y328492D01*
G01X-527251Y327568D01*
G01X-528059Y327107D01*
G01X-528521Y326876D01*
G01X-528983Y326587D01*
G01X-529503Y326298D01*
G01X-529907Y326067D01*
G01X-530599Y325606D01*
G01X-531523Y325028D01*
G01X-531869Y324797D01*
G01X-532331Y324509D01*
G01X-532735Y324220D01*
G01X-533082Y323989D01*
G01X-533544Y323701D01*
G01X-534756Y322835D01*
G01X-535679Y322142D01*
G01X-536488Y321565D01*
G01X-536949Y321218D01*
G01X-537527Y320757D01*
G01X-537989Y320410D01*
G01X-538566Y319948D01*
G01X-538854Y319660D01*
G01X-540586Y318274D01*
G01X-541279Y317697D01*
G01X-542087Y317004D01*
G01X-542664Y316542D01*
G01X-543184Y316312D01*
G01X-544512Y316254D01*
G01X-545435Y316254D01*
G01X-545493Y316542D01*
G01X-545551Y322777D01*
G37*
G36*
G01X-528002Y254947D02*
G01X-528002Y262567D01*
G01X-539836Y262567D01*
G01X-551728Y262625D01*
G01X-551785Y264242D01*
G01X-551785Y265800D01*
G01X-528002Y265800D01*
G01X-528002Y273420D01*
G01X-527713Y273478D01*
G01X-526328Y273536D01*
G01X-525231Y273536D01*
G01X-525173Y273247D01*
G01X-525115Y264011D01*
G01X-525115Y255063D01*
G01X-525404Y255005D01*
G01X-526847Y254947D01*
G01X-528002Y254947D01*
G37*
G36*
G01X-525115Y277692D02*
G01X-525404Y277634D01*
G01X-538681Y277577D01*
G01X-551728Y277634D01*
G01X-551785Y279251D01*
G01X-551785Y280809D01*
G01X-541856Y280809D01*
G01X-541799Y281098D01*
G01X-541749Y283118D01*
G01X-538854Y283118D01*
G01X-538797Y280867D01*
G01X-533370Y280809D01*
G01X-528002Y280809D01*
G01X-528002Y282945D01*
G01X-528059Y285254D01*
G01X-528175Y286524D01*
G01X-528290Y286986D01*
G01X-528637Y288025D01*
G01X-528810Y288429D01*
G01X-529041Y288776D01*
G01X-529329Y289122D01*
G01X-529618Y289411D01*
G01X-530022Y289757D01*
G01X-530599Y290103D01*
G01X-531234Y290334D01*
G01X-531812Y290507D01*
G01X-533313Y290623D01*
G01X-534756Y290565D01*
G01X-535218Y290392D01*
G01X-535737Y290219D01*
G01X-536199Y289988D01*
G01X-536661Y289699D01*
G01X-537007Y289411D01*
G01X-537296Y289122D01*
G01X-537527Y288833D01*
G01X-537815Y288372D01*
G01X-538104Y287794D01*
G01X-538277Y287332D01*
G01X-538508Y286755D01*
G01X-538681Y286005D01*
G01X-538681Y286005D01*
G01X-538797Y285485D01*
G01X-538854Y283118D01*
G01X-541749Y283118D01*
G01X-541741Y283465D01*
G01X-541683Y285716D01*
G01X-541625Y286293D01*
G01X-541510Y286928D01*
G01X-541337Y287621D01*
G01X-541164Y288256D01*
G01X-540990Y288718D01*
G01X-540759Y289237D01*
G01X-540471Y289757D01*
G01X-540240Y290161D01*
G01X-540009Y290507D01*
G01X-539143Y291547D01*
G01X-538854Y291835D01*
G01X-537989Y292528D01*
G01X-537584Y292759D01*
G01X-537065Y293047D01*
G01X-536603Y293278D01*
G01X-536141Y293452D01*
G01X-535622Y293625D01*
G01X-535160Y293740D01*
G01X-534756Y293798D01*
G01X-534294Y293913D01*
G01X-532793Y293971D01*
G01X-531350Y293856D01*
G01X-530311Y293625D01*
G01X-529734Y293394D01*
G01X-529214Y293163D01*
G01X-528810Y292932D01*
G01X-528290Y292586D01*
G01X-527713Y292124D01*
G01X-527251Y291604D01*
G01X-526905Y291200D01*
G01X-526616Y290796D01*
G01X-526328Y290277D01*
G01X-526097Y289815D01*
G01X-525924Y289411D01*
G01X-525750Y288949D01*
G01X-525577Y288429D01*
G01X-525404Y287679D01*
G01X-525231Y286755D01*
G01X-525115Y282022D01*
G01X-525115Y277692D01*
G37*
G36*
G01X-529272Y305343D02*
G01X-529099Y305690D01*
G01X-531898Y305820D01*
G01X-540413Y305863D01*
G01X-551785Y305863D01*
G01X-551785Y308980D01*
G01X-524654Y308980D01*
G01X-524596Y308692D01*
G01X-524538Y308057D01*
G01X-524581Y307768D01*
G01X-525404Y306729D01*
G01X-525577Y306440D01*
G01X-525866Y306036D01*
G01X-526905Y304304D01*
G01X-527655Y302803D01*
G01X-527886Y302226D01*
G01X-528117Y301707D01*
G01X-528637Y300321D01*
G01X-528810Y299917D01*
G01X-529272Y299787D01*
G01X-530426Y299744D01*
G01X-531927Y299744D01*
G01X-531869Y300090D01*
G01X-531350Y301649D01*
G01X-530195Y303958D01*
G01X-529964Y304362D01*
G01X-529618Y304882D01*
G01X-529272Y305343D01*
G37*
G36*
G01X127478Y334868D02*
G01X127478Y327248D01*
G01X139312Y327248D01*
G01X151204Y327190D01*
G01X151262Y325573D01*
G01X151262Y324015D01*
G01X127478Y324015D01*
G01X127478Y316395D01*
G01X127189Y316337D01*
G01X125804Y316279D01*
G01X124707Y316279D01*
G01X124649Y316568D01*
G01X124592Y325804D01*
G01X124592Y334752D01*
G01X124881Y334810D01*
G01X126324Y334868D01*
G01X127478Y334868D01*
G37*
G36*
G01X124592Y312123D02*
G01X124881Y312181D01*
G01X138158Y312238D01*
G01X151204Y312181D01*
G01X151262Y310564D01*
G01X151262Y309006D01*
G01X141333Y309006D01*
G01X141275Y308717D01*
G01X141217Y306350D01*
G01X141159Y304099D01*
G01X141102Y303522D01*
G01X140987Y302887D01*
G01X140813Y302194D01*
G01X140640Y301559D01*
G01X140467Y301097D01*
G01X140236Y300578D01*
G01X139947Y300058D01*
G01X139717Y299654D01*
G01X139486Y299308D01*
G01X138619Y298268D01*
G01X138331Y297980D01*
G01X137465Y297287D01*
G01X137061Y297056D01*
G01X136542Y296768D01*
G01X136079Y296537D01*
G01X135618Y296363D01*
G01X135098Y296190D01*
G01X134637Y296075D01*
G01X134232Y296017D01*
G01X133771Y295902D01*
G01X132269Y295844D01*
G01X130827Y295959D01*
G01X129787Y296190D01*
G01X129210Y296421D01*
G01X128691Y296652D01*
G01X128287Y296883D01*
G01X127767Y297229D01*
G01X127189Y297691D01*
G01X126728Y298211D01*
G01X126382Y298615D01*
G01X126093Y299019D01*
G01X125804Y299538D01*
G01X125573Y300000D01*
G01X125400Y300404D01*
G01X125227Y300866D01*
G01X125054Y301386D01*
G01X124881Y302136D01*
G01X124707Y303060D01*
G01X124592Y307793D01*
G01X124592Y309006D01*
G01X127478Y309006D01*
G01X127478Y306870D01*
G01X127536Y304561D01*
G01X127652Y303291D01*
G01X127767Y302829D01*
G01X128113Y301790D01*
G01X128287Y301386D01*
G01X128517Y301039D01*
G01X128806Y300693D01*
G01X129094Y300404D01*
G01X129499Y300058D01*
G01X130076Y299712D01*
G01X130711Y299481D01*
G01X131288Y299308D01*
G01X132789Y299192D01*
G01X134232Y299250D01*
G01X134694Y299423D01*
G01X135214Y299596D01*
G01X135676Y299827D01*
G01X136137Y300116D01*
G01X136484Y300404D01*
G01X136772Y300693D01*
G01X137003Y300982D01*
G01X137292Y301443D01*
G01X137581Y302021D01*
G01X137754Y302483D01*
G01X137984Y303060D01*
G01X138158Y303810D01*
G01X138158Y303810D01*
G01X138273Y304330D01*
G01X138331Y306697D01*
G01X138273Y308948D01*
G01X132847Y309006D01*
G01X127478Y309006D01*
G01X124592Y309006D01*
G01X124592Y312123D01*
G37*
G36*
G01X128748Y284472D02*
G01X128575Y284125D01*
G01X131375Y283995D01*
G01X139889Y283952D01*
G01X151262Y283952D01*
G01X151262Y280835D01*
G01X124130Y280835D01*
G01X124072Y281123D01*
G01X124014Y281758D01*
G01X124058Y282047D01*
G01X124881Y283086D01*
G01X125054Y283375D01*
G01X125342Y283779D01*
G01X126382Y285511D01*
G01X127132Y287012D01*
G01X127363Y287589D01*
G01X127594Y288108D01*
G01X128113Y289494D01*
G01X128287Y289898D01*
G01X128748Y290028D01*
G01X129903Y290071D01*
G01X131404Y290071D01*
G01X131346Y289725D01*
G01X130827Y288166D01*
G01X129672Y285857D01*
G01X129441Y285453D01*
G01X129094Y284933D01*
G01X128748Y284472D01*
G37*
G36*
G01X334344Y672497D02*
G01X326724Y672497D01*
G01X326724Y660663D01*
G01X326666Y648771D01*
G01X325050Y648713D01*
G01X323491Y648713D01*
G01X323491Y672497D01*
G01X315871Y672497D01*
G01X315814Y672786D01*
G01X315756Y674171D01*
G01X315756Y675268D01*
G01X316045Y675326D01*
G01X325281Y675383D01*
G01X334229Y675383D01*
G01X334286Y675094D01*
G01X334344Y673651D01*
G01X334344Y672497D01*
G37*
G36*
G01X263397Y671284D02*
G01X263051Y671400D01*
G01X262921Y668600D01*
G01X262878Y660086D01*
G01X262878Y648713D01*
G01X259760Y648713D01*
G01X259760Y675845D01*
G01X260049Y675903D01*
G01X260684Y675961D01*
G01X260973Y675917D01*
G01X262012Y675094D01*
G01X262474Y674806D01*
G01X262993Y674459D01*
G01X263397Y674229D01*
G01X263859Y673940D01*
G01X264436Y673651D01*
G01X265245Y673189D01*
G01X265706Y672959D01*
G01X266745Y672497D01*
G01X268593Y671804D01*
G01X268881Y671631D01*
G01X269055Y671169D01*
G01X269112Y669841D01*
G01X269042Y668768D01*
G01X268809Y668644D01*
G01X268477Y668687D01*
G01X267900Y668860D01*
G01X267438Y669033D01*
G01X266861Y669264D01*
G01X265014Y670188D01*
G01X264494Y670476D01*
G01X264032Y670765D01*
G01X263686Y671054D01*
G01X263397Y671284D01*
G37*
G36*
G01X291453Y652754D02*
G01X291568Y652234D01*
G01X291684Y651426D01*
G01X291741Y649983D01*
G01X291741Y648713D01*
G01X275347Y648713D01*
G01X275347Y651369D01*
G01X288509Y651369D01*
G01X288509Y651946D01*
G01X288451Y652696D01*
G01X288278Y653274D01*
G01X288047Y653851D01*
G01X287816Y654255D01*
G01X287585Y654601D01*
G01X287354Y654890D01*
G01X286200Y656044D01*
G01X285160Y656911D01*
G01X284814Y657141D01*
G01X283948Y657834D01*
G01X283544Y658123D01*
G01X283025Y658469D01*
G01X282620Y658758D01*
G01X282332Y658989D01*
G01X281870Y659335D01*
G01X281293Y659739D01*
G01X280889Y660086D01*
G01X280311Y660547D01*
G01X278637Y662221D01*
G01X278349Y662568D01*
G01X278118Y662914D01*
G01X277829Y663318D01*
G01X277540Y663780D01*
G01X277194Y664473D01*
G01X276848Y665281D01*
G01X276675Y665858D01*
G01X276444Y667013D01*
G01X276386Y667879D01*
G01X276328Y668514D01*
G01X276328Y668976D01*
G01X276386Y669784D01*
G01X276501Y670534D01*
G01X276675Y671111D01*
G01X276848Y671631D01*
G01X277079Y672093D01*
G01X277310Y672497D01*
G01X277771Y673189D01*
G01X278002Y673478D01*
G01X278291Y673767D01*
G01X278695Y674056D01*
G01X279215Y674402D01*
G01X279619Y674691D01*
G01X280023Y674921D01*
G01X280542Y675152D01*
G01X281004Y675326D01*
G01X281408Y675441D01*
G01X283140Y675787D01*
G01X284410Y675845D01*
G01X285449Y675787D01*
G01X286026Y675672D01*
G01X286835Y675499D01*
G01X287412Y675326D01*
G01X287874Y675152D01*
G01X288335Y674921D01*
G01X288740Y674691D01*
G01X289259Y674402D01*
G01X289836Y673998D01*
G01X290240Y673651D01*
G01X290529Y673421D01*
G01X290760Y672901D01*
G01X290818Y671342D01*
G01X290775Y670476D01*
G01X290645Y670188D01*
G01X290356Y670361D01*
G01X289144Y671400D01*
G01X288220Y671977D01*
G01X287643Y672324D01*
G01X287065Y672554D01*
G01X286604Y672728D01*
G01X286084Y672901D01*
G01X285565Y673016D01*
G01X284179Y673074D01*
G01X282794Y673016D01*
G01X282332Y672901D01*
G01X281928Y672728D01*
G01X281062Y672151D01*
G01X280542Y671631D01*
G01X280196Y671169D01*
G01X279965Y670707D01*
G01X279792Y670246D01*
G01X279561Y669322D01*
G01X279503Y668109D01*
G01X279561Y666897D01*
G01X279676Y666378D01*
G01X279850Y665801D01*
G01X280080Y665223D01*
G01X280311Y664704D01*
G01X280600Y664242D01*
G01X280889Y663838D01*
G01X281120Y663549D01*
G01X281408Y663261D01*
G01X281870Y662683D01*
G01X282447Y662106D01*
G01X282909Y661759D01*
G01X283313Y661413D01*
G01X283602Y661182D01*
G01X284064Y660836D01*
G01X284641Y660432D01*
G01X285045Y660143D01*
G01X285911Y659451D01*
G01X286835Y658758D01*
G01X287123Y658469D01*
G01X288278Y657546D01*
G01X289432Y656391D01*
G01X289779Y655929D01*
G01X290183Y655409D01*
G01X290529Y654890D01*
G01X290818Y654371D01*
G01X291280Y653331D01*
G01X291453Y652754D01*
G37*
G36*
G01X311600Y675383D02*
G01X311657Y675094D01*
G01X311715Y661817D01*
G01X311657Y648771D01*
G01X310041Y648713D01*
G01X308482Y648713D01*
G01X308482Y658642D01*
G01X308194Y658700D01*
G01X305827Y658758D01*
G01X303575Y658816D01*
G01X302998Y658873D01*
G01X302363Y658989D01*
G01X301670Y659162D01*
G01X301035Y659335D01*
G01X300574Y659508D01*
G01X300054Y659739D01*
G01X299535Y660028D01*
G01X299130Y660259D01*
G01X298784Y660489D01*
G01X297745Y661356D01*
G01X297456Y661644D01*
G01X296764Y662510D01*
G01X296533Y662914D01*
G01X296244Y663434D01*
G01X296013Y663896D01*
G01X295840Y664357D01*
G01X295667Y664877D01*
G01X295551Y665339D01*
G01X295494Y665743D01*
G01X295378Y666204D01*
G01X295341Y667186D01*
G01X298669Y667186D01*
G01X298726Y665743D01*
G01X298900Y665281D01*
G01X299073Y664761D01*
G01X299304Y664299D01*
G01X299592Y663838D01*
G01X299881Y663491D01*
G01X300170Y663203D01*
G01X300458Y662972D01*
G01X300920Y662683D01*
G01X301497Y662394D01*
G01X301959Y662221D01*
G01X302536Y661991D01*
G01X303287Y661817D01*
G01X303287Y661817D01*
G01X303806Y661702D01*
G01X306173Y661644D01*
G01X308425Y661702D01*
G01X308482Y667128D01*
G01X308482Y672497D01*
G01X306346Y672497D01*
G01X304037Y672439D01*
G01X302767Y672324D01*
G01X302305Y672208D01*
G01X301266Y671862D01*
G01X300862Y671689D01*
G01X300516Y671458D01*
G01X300170Y671169D01*
G01X299881Y670881D01*
G01X299535Y670476D01*
G01X299188Y669899D01*
G01X298957Y669264D01*
G01X298784Y668687D01*
G01X298669Y667186D01*
G01X295341Y667186D01*
G01X295320Y667706D01*
G01X295436Y669149D01*
G01X295667Y670188D01*
G01X295898Y670765D01*
G01X296129Y671284D01*
G01X296360Y671689D01*
G01X296706Y672208D01*
G01X297168Y672786D01*
G01X297687Y673247D01*
G01X298091Y673594D01*
G01X298495Y673882D01*
G01X299015Y674171D01*
G01X299477Y674402D01*
G01X299881Y674575D01*
G01X300343Y674748D01*
G01X300862Y674921D01*
G01X301613Y675094D01*
G01X302536Y675268D01*
G01X307270Y675383D01*
G01X311600Y675383D01*
G37*
G36*
G01X835599Y452200D02*
G01X835599Y444580D01*
G01X847433Y444580D01*
G01X859325Y444522D01*
G01X859383Y442906D01*
G01X859383Y441347D01*
G01X835599Y441347D01*
G01X835599Y433727D01*
G01X835310Y433669D01*
G01X833925Y433612D01*
G01X832828Y433612D01*
G01X832770Y433900D01*
G01X832713Y443137D01*
G01X832713Y452084D01*
G01X833002Y452142D01*
G01X834445Y452200D01*
G01X835599Y452200D01*
G37*
G36*
G01X859268Y384082D02*
G01X859498Y383562D01*
G01X859672Y382869D01*
G01X859845Y382061D01*
G01X859960Y381080D01*
G01X859903Y380329D01*
G01X859787Y379752D01*
G01X859672Y379059D01*
G01X859498Y378482D01*
G01X859268Y377905D01*
G01X859037Y377443D01*
G01X858459Y376519D01*
G01X858113Y376057D01*
G01X857420Y375365D01*
G01X857074Y375076D01*
G01X856728Y374845D01*
G01X856323Y374557D01*
G01X855862Y374268D01*
G01X854938Y373806D01*
G01X853899Y373344D01*
G01X852860Y372998D01*
G01X852455Y372882D01*
G01X852052Y372825D01*
G01X851532Y372652D01*
G01X850897Y372536D01*
G01X849512Y372363D01*
G01X849050Y372247D01*
G01X847549Y372190D01*
G01X846163Y372132D01*
G01X845759Y372074D01*
G01X845355Y372132D01*
G01X842353Y372247D01*
G01X841660Y372363D01*
G01X840853Y372478D01*
G01X840333Y372536D01*
G01X839178Y372825D01*
G01X838543Y372998D01*
G01X837504Y373344D01*
G01X836465Y373806D01*
G01X835657Y374268D01*
G01X835195Y374557D01*
G01X834791Y374903D01*
G01X833925Y375769D01*
G01X833579Y376173D01*
G01X833233Y376750D01*
G01X832944Y377327D01*
G01X832598Y378251D01*
G01X832424Y379059D01*
G01X832367Y379810D01*
G01X832309Y380214D01*
G01X832273Y380502D01*
G01X834907Y380502D01*
G01X834964Y379867D01*
G01X835080Y379406D01*
G01X835253Y378944D01*
G01X835484Y378482D01*
G01X835773Y378078D01*
G01X836350Y377501D01*
G01X836696Y377270D01*
G01X837158Y376981D01*
G01X837735Y376692D01*
G01X838255Y376462D01*
G01X838832Y376231D01*
G01X839467Y376057D01*
G01X839987Y375884D01*
G01X840506Y375769D01*
G01X840968Y375711D01*
G01X842007Y375596D01*
G01X842469Y375480D01*
G01X843162Y375422D01*
G01X843739Y375365D01*
G01X846394Y375307D01*
G01X849050Y375365D01*
G01X850320Y375480D01*
G01X850782Y375596D01*
G01X851301Y375653D01*
G01X851705Y375711D01*
G01X852225Y375827D01*
G01X852802Y376000D01*
G01X853841Y376346D01*
G01X854360Y376577D01*
G01X854823Y376808D01*
G01X855284Y377097D01*
G01X855688Y377443D01*
G01X855977Y377674D01*
G01X856323Y378020D01*
G01X856612Y378482D01*
G01X856843Y378886D01*
G01X857016Y379290D01*
G01X857016Y379290D01*
G01X857132Y379752D01*
G01X857189Y380964D01*
G01X857132Y381946D01*
G01X857074Y382234D01*
G01X856958Y382638D01*
G01X856728Y383042D01*
G01X856381Y383562D01*
G01X855977Y383966D01*
G01X855400Y384428D01*
G01X854995Y384717D01*
G01X854476Y385005D01*
G01X853957Y385236D01*
G01X853322Y385467D01*
G01X852744Y385640D01*
G01X852167Y385756D01*
G01X851532Y385929D01*
G01X851013Y386044D01*
G01X850550Y386102D01*
G01X849165Y386217D01*
G01X848588Y386275D01*
G01X848068Y386333D01*
G01X847318Y386333D01*
G01X846163Y386391D01*
G01X845182Y386333D01*
G01X844432Y386333D01*
G01X843739Y386275D01*
G01X843162Y386217D01*
G01X841892Y386102D01*
G01X841430Y386044D01*
G01X840968Y385929D01*
G01X840448Y385813D01*
G01X839929Y385756D01*
G01X838717Y385352D01*
G01X838139Y385121D01*
G01X837678Y384890D01*
G01X837158Y384601D01*
G01X836580Y384197D01*
G01X836061Y383677D01*
G01X835715Y383273D01*
G01X835484Y382869D01*
G01X835253Y382350D01*
G01X835080Y381830D01*
G01X834964Y381253D01*
G01X834907Y380502D01*
G01X832273Y380502D01*
G01X832251Y380676D01*
G01X832309Y381137D01*
G01X832424Y382407D01*
G01X832598Y382927D01*
G01X832770Y383504D01*
G01X833290Y384543D01*
G01X833521Y384890D01*
G01X834387Y385929D01*
G01X834675Y386217D01*
G01X835022Y386506D01*
G01X835368Y386737D01*
G01X835657Y386968D01*
G01X836003Y387199D01*
G01X836465Y387487D01*
G01X837043Y387776D01*
G01X837562Y388007D01*
G01X838139Y388238D01*
G01X838774Y388469D01*
G01X839409Y388642D01*
G01X839987Y388815D01*
G01X840448Y388931D01*
G01X840853Y388988D01*
G01X841892Y389219D01*
G01X842930Y389335D01*
G01X844547Y389450D01*
G01X845702Y389566D01*
G01X846683Y389623D01*
G01X847664Y389566D01*
G01X848819Y389450D01*
G01X850320Y389335D01*
G01X851243Y389219D01*
G01X851705Y389104D01*
G01X852340Y388988D01*
G01X853495Y388642D01*
G01X854014Y388469D01*
G01X854938Y388122D01*
G01X855862Y387661D01*
G01X856265Y387430D01*
G01X856785Y387083D01*
G01X857247Y386737D01*
G01X858402Y385582D01*
G01X858633Y385294D01*
G01X858805Y384947D01*
G01X859037Y384543D01*
G01X859268Y384082D01*
G37*
G36*
G01X836869Y401804D02*
G01X836696Y401457D01*
G01X839496Y401328D01*
G01X848010Y401284D01*
G01X859383Y401284D01*
G01X859383Y398167D01*
G01X832251Y398167D01*
G01X832193Y398456D01*
G01X832135Y399091D01*
G01X832179Y399379D01*
G01X833002Y400418D01*
G01X833175Y400707D01*
G01X833463Y401111D01*
G01X834503Y402843D01*
G01X835253Y404344D01*
G01X835484Y404921D01*
G01X835715Y405441D01*
G01X836234Y406826D01*
G01X836408Y407230D01*
G01X836869Y407360D01*
G01X838024Y407403D01*
G01X839525Y407403D01*
G01X839467Y407057D01*
G01X838948Y405498D01*
G01X837793Y403189D01*
G01X837562Y402785D01*
G01X837215Y402266D01*
G01X836869Y401804D01*
G37*
G36*
G01X832713Y429455D02*
G01X833002Y429513D01*
G01X846279Y429571D01*
G01X859325Y429513D01*
G01X859383Y427897D01*
G01X859383Y426338D01*
G01X849454Y426338D01*
G01X849396Y426049D01*
G01X849338Y423682D01*
G01X849280Y421431D01*
G01X849223Y420854D01*
G01X849108Y420219D01*
G01X848934Y419526D01*
G01X848761Y418891D01*
G01X848588Y418429D01*
G01X848357Y417910D01*
G01X848068Y417390D01*
G01X847838Y416986D01*
G01X847607Y416640D01*
G01X846740Y415601D01*
G01X846452Y415312D01*
G01X845586Y414619D01*
G01X845182Y414388D01*
G01X844663Y414100D01*
G01X844200Y413869D01*
G01X843739Y413696D01*
G01X843219Y413522D01*
G01X842758Y413407D01*
G01X842353Y413349D01*
G01X841892Y413234D01*
G01X840390Y413176D01*
G01X838948Y413292D01*
G01X837908Y413522D01*
G01X837331Y413753D01*
G01X836812Y413984D01*
G01X836408Y414215D01*
G01X835888Y414562D01*
G01X835310Y415023D01*
G01X834849Y415543D01*
G01X834503Y415947D01*
G01X834214Y416351D01*
G01X833925Y416871D01*
G01X833694Y417332D01*
G01X833521Y417737D01*
G01X833348Y418198D01*
G01X833175Y418718D01*
G01X833002Y419468D01*
G01X832828Y420392D01*
G01X832713Y425126D01*
G01X832713Y426338D01*
G01X835599Y426338D01*
G01X835599Y424202D01*
G01X835657Y421893D01*
G01X835773Y420623D01*
G01X835888Y420161D01*
G01X836234Y419122D01*
G01X836408Y418718D01*
G01X836638Y418372D01*
G01X836927Y418025D01*
G01X837215Y417737D01*
G01X837620Y417390D01*
G01X838197Y417044D01*
G01X838832Y416813D01*
G01X839409Y416640D01*
G01X840910Y416524D01*
G01X842353Y416582D01*
G01X842815Y416755D01*
G01X843335Y416928D01*
G01X843797Y417159D01*
G01X844258Y417448D01*
G01X844605Y417737D01*
G01X844893Y418025D01*
G01X845124Y418314D01*
G01X845413Y418776D01*
G01X845702Y419353D01*
G01X845875Y419815D01*
G01X846105Y420392D01*
G01X846279Y421142D01*
G01X846279Y421142D01*
G01X846394Y421662D01*
G01X846452Y424029D01*
G01X846394Y426280D01*
G01X840968Y426338D01*
G01X835599Y426338D01*
G01X832713Y426338D01*
G01X832713Y429455D01*
G37*
G36*
G01X707744Y-85531D02*
G01X715364Y-85531D01*
G01X715364Y-73697D01*
G01X715422Y-61805D01*
G01X717038Y-61747D01*
G01X718597Y-61747D01*
G01X718597Y-85531D01*
G01X726217Y-85531D01*
G01X726275Y-85820D01*
G01X726333Y-87205D01*
G01X726333Y-88302D01*
G01X726044Y-88360D01*
G01X716808Y-88417D01*
G01X707860Y-88417D01*
G01X707802Y-88129D01*
G01X707744Y-86686D01*
G01X707744Y-85531D01*
G37*
G36*
G01X755600Y-61747D02*
G01X756178Y-61574D01*
G01X756870Y-61459D01*
G01X757448Y-61343D01*
G01X758602Y-61286D01*
G01X759872Y-61343D01*
G01X760680Y-61459D01*
G01X761719Y-61690D01*
G01X762239Y-61863D01*
G01X762758Y-62094D01*
G01X763451Y-62440D01*
G01X764375Y-63017D01*
G01X765529Y-64172D01*
G01X766107Y-64980D01*
G01X766338Y-65327D01*
G01X766857Y-66539D01*
G01X766973Y-66943D01*
G01X767088Y-67405D01*
G01X767203Y-68155D01*
G01X767261Y-68848D01*
G01X767319Y-69252D01*
G01X767261Y-69656D01*
G01X767203Y-70176D01*
G01X767088Y-70753D01*
G01X766915Y-71330D01*
G01X766742Y-71850D01*
G01X766568Y-72254D01*
G01X766395Y-72600D01*
G01X766164Y-72947D01*
G01X765933Y-73351D01*
G01X765703Y-73697D01*
G01X764548Y-74852D01*
G01X764202Y-75140D01*
G01X763509Y-75602D01*
G01X763047Y-75833D01*
G01X762701Y-76064D01*
G01X762701Y-76352D01*
G01X762989Y-76583D01*
G01X763278Y-76757D01*
G01X763567Y-76987D01*
G01X764433Y-77853D01*
G01X764894Y-78431D01*
G01X765125Y-78777D01*
G01X765414Y-79239D01*
G01X765645Y-79758D01*
G01X765818Y-80220D01*
G01X765991Y-80913D01*
G01X766107Y-81548D01*
G01X766164Y-82298D01*
G01X766107Y-83049D01*
G01X765933Y-83626D01*
G01X765760Y-84261D01*
G01X765587Y-84665D01*
G01X765356Y-85127D01*
G01X765068Y-85647D01*
G01X764779Y-86051D01*
G01X763913Y-86917D01*
G01X763624Y-87147D01*
G01X762816Y-87725D01*
G01X762470Y-87898D01*
G01X762066Y-88071D01*
G01X761604Y-88302D01*
G01X760449Y-88648D01*
G01X759583Y-88764D01*
G01X758833Y-88822D01*
G01X758140Y-88822D01*
G01X757274Y-88764D01*
G01X756755Y-88648D01*
G01X756351Y-88533D01*
G01X755947Y-88475D01*
G01X755485Y-88302D01*
G01X754561Y-87840D01*
G01X754157Y-87552D01*
G01X753868Y-87321D01*
G01X753580Y-87147D01*
G01X753291Y-86917D01*
G01X752252Y-85704D01*
G01X751906Y-85127D01*
G01X751617Y-84550D01*
G01X751386Y-83857D01*
G01X751213Y-83280D01*
G01X751165Y-82183D01*
G01X754273Y-82183D01*
G01X754330Y-82818D01*
G01X754446Y-83222D01*
G01X754619Y-83684D01*
G01X754850Y-84203D01*
G01X755138Y-84607D01*
G01X755716Y-85185D01*
G01X756062Y-85416D01*
G01X756524Y-85704D01*
G01X757101Y-85935D01*
G01X757563Y-86108D01*
G01X758718Y-86224D01*
G01X759872Y-86108D01*
G01X760911Y-85647D01*
G01X761258Y-85416D01*
G01X761546Y-85185D01*
G01X761777Y-84954D01*
G01X762008Y-84665D01*
G01X762297Y-84261D01*
G01X762585Y-83742D01*
G01X762816Y-83107D01*
G01X762989Y-82356D01*
G01X763047Y-81663D01*
G01X762989Y-81202D01*
G01X762932Y-80797D01*
G01X762816Y-80336D01*
G01X762585Y-79816D01*
G01X762354Y-79354D01*
G01X762123Y-79008D01*
G01X761835Y-78719D01*
G01X761258Y-78257D01*
G01X760853Y-77969D01*
G01X760276Y-77680D01*
G01X760276Y-77680D01*
G01X759526Y-77449D01*
G01X758544Y-77334D01*
G01X757909Y-77392D01*
G01X757505Y-77507D01*
G01X756928Y-77680D01*
G01X756466Y-77911D01*
G01X755947Y-78257D01*
G01X755427Y-78777D01*
G01X755023Y-79297D01*
G01X754734Y-79816D01*
G01X754503Y-80393D01*
G01X754330Y-81202D01*
G01X754273Y-82183D01*
G01X751165Y-82183D01*
G01X751155Y-81952D01*
G01X751271Y-80567D01*
G01X751444Y-80047D01*
G01X751617Y-79585D01*
G01X752079Y-78777D01*
G01X752310Y-78431D01*
G01X752656Y-77969D01*
G01X753060Y-77565D01*
G01X753638Y-77103D01*
G01X753926Y-76814D01*
G01X754273Y-76583D01*
G01X754561Y-76237D01*
G01X754330Y-75891D01*
G01X753811Y-75660D01*
G01X753349Y-75371D01*
G01X752829Y-75025D01*
G01X752137Y-74332D01*
G01X751444Y-73524D01*
G01X751213Y-73177D01*
G01X750982Y-72716D01*
G01X750693Y-72196D01*
G01X750463Y-71677D01*
G01X750289Y-71157D01*
G01X750058Y-70233D01*
G01X750030Y-69541D01*
G01X753349Y-69541D01*
G01X753464Y-70868D01*
G01X753638Y-71446D01*
G01X753811Y-71907D01*
G01X754042Y-72312D01*
G01X754330Y-72716D01*
G01X754908Y-73408D01*
G01X755369Y-73755D01*
G01X755947Y-74101D01*
G01X756408Y-74332D01*
G01X756870Y-74505D01*
G01X757332Y-74621D01*
G01X758025Y-74736D01*
G01X758833Y-74794D01*
G01X759757Y-74678D01*
G01X760218Y-74563D01*
G01X760738Y-74390D01*
G01X761200Y-74217D01*
G01X761893Y-73755D01*
G01X762181Y-73524D01*
G01X762585Y-73120D01*
G01X763047Y-72542D01*
G01X763336Y-72081D01*
G01X763509Y-71734D01*
G01X763682Y-71157D01*
G01X763798Y-70580D01*
G01X763913Y-70118D01*
G01X763971Y-69079D01*
G01X763913Y-68155D01*
G01X763740Y-67636D01*
G01X763567Y-67058D01*
G01X763393Y-66712D01*
G01X763047Y-66135D01*
G01X762816Y-65846D01*
G01X762008Y-65038D01*
G01X761662Y-64807D01*
G01X761258Y-64634D01*
G01X760738Y-64403D01*
G01X760103Y-64230D01*
G01X760103Y-64230D01*
G01X759641Y-64114D01*
G01X758718Y-63999D01*
G01X758429Y-63999D01*
G01X757794Y-64057D01*
G01X757043Y-64172D01*
G01X756524Y-64345D01*
G01X756062Y-64518D01*
G01X755658Y-64749D01*
G01X755312Y-64980D01*
G01X755023Y-65211D01*
G01X754734Y-65500D01*
G01X754273Y-66077D01*
G01X754042Y-66423D01*
G01X753868Y-66770D01*
G01X753695Y-67174D01*
G01X753522Y-67751D01*
G01X753407Y-68271D01*
G01X753349Y-69541D01*
G01X750030Y-69541D01*
G01X750001Y-68848D01*
G01X750058Y-67578D01*
G01X750174Y-67116D01*
G01X750347Y-66597D01*
G01X750520Y-66135D01*
G01X750693Y-65731D01*
G01X750924Y-65327D01*
G01X751213Y-64865D01*
G01X751502Y-64461D01*
G01X751848Y-63999D01*
G01X752252Y-63595D01*
G01X753118Y-62902D01*
G01X753464Y-62671D01*
G01X753868Y-62440D01*
G01X754330Y-62209D01*
G01X754908Y-61978D01*
G01X755600Y-61747D01*
G37*
G36*
G01X730489Y-88417D02*
G01X730431Y-88129D01*
G01X730397Y-80162D01*
G01X733606Y-80162D01*
G01X733606Y-85531D01*
G01X735742Y-85531D01*
G01X738051Y-85473D01*
G01X739321Y-85358D01*
G01X739783Y-85242D01*
G01X740822Y-84896D01*
G01X741226Y-84723D01*
G01X741573Y-84492D01*
G01X741919Y-84203D01*
G01X742208Y-83915D01*
G01X742554Y-83511D01*
G01X742900Y-82933D01*
G01X743131Y-82298D01*
G01X743304Y-81721D01*
G01X743420Y-80220D01*
G01X743362Y-78777D01*
G01X743189Y-78315D01*
G01X743016Y-77796D01*
G01X742785Y-77334D01*
G01X742496Y-76872D01*
G01X742208Y-76526D01*
G01X741919Y-76237D01*
G01X741630Y-76006D01*
G01X741168Y-75717D01*
G01X740591Y-75429D01*
G01X740129Y-75256D01*
G01X739552Y-75025D01*
G01X738802Y-74852D01*
G01X738802Y-74852D01*
G01X738282Y-74736D01*
G01X735915Y-74678D01*
G01X733664Y-74736D01*
G01X733606Y-80162D01*
G01X730397Y-80162D01*
G01X730373Y-74852D01*
G01X730431Y-61805D01*
G01X732048Y-61747D01*
G01X733606Y-61747D01*
G01X733606Y-71677D01*
G01X733895Y-71734D01*
G01X736262Y-71792D01*
G01X738513Y-71850D01*
G01X739090Y-71907D01*
G01X739725Y-72023D01*
G01X740418Y-72196D01*
G01X741053Y-72369D01*
G01X741515Y-72542D01*
G01X742034Y-72773D01*
G01X742554Y-73062D01*
G01X742958Y-73293D01*
G01X743304Y-73524D01*
G01X744343Y-74390D01*
G01X744632Y-74678D01*
G01X745325Y-75544D01*
G01X745556Y-75948D01*
G01X745844Y-76468D01*
G01X746075Y-76930D01*
G01X746248Y-77392D01*
G01X746422Y-77911D01*
G01X746537Y-78373D01*
G01X746595Y-78777D01*
G01X746710Y-79239D01*
G01X746768Y-80740D01*
G01X746653Y-82183D01*
G01X746422Y-83222D01*
G01X746191Y-83799D01*
G01X745960Y-84319D01*
G01X745729Y-84723D01*
G01X745383Y-85242D01*
G01X744921Y-85820D01*
G01X744401Y-86282D01*
G01X743997Y-86628D01*
G01X743593Y-86917D01*
G01X743073Y-87205D01*
G01X742612Y-87436D01*
G01X742208Y-87609D01*
G01X741746Y-87782D01*
G01X741226Y-87956D01*
G01X740476Y-88129D01*
G01X739552Y-88302D01*
G01X734818Y-88417D01*
G01X730489Y-88417D01*
G37*
G36*
G01X509249Y-75337D02*
G01X509249Y-67717D01*
G01X497415Y-67717D01*
G01X485523Y-67659D01*
G01X485465Y-66043D01*
G01X485465Y-64484D01*
G01X509249Y-64484D01*
G01X509249Y-56864D01*
G01X509538Y-56806D01*
G01X510923Y-56749D01*
G01X512020Y-56749D01*
G01X512078Y-57037D01*
G01X512135Y-66274D01*
G01X512135Y-75221D01*
G01X511847Y-75279D01*
G01X510404Y-75337D01*
G01X509249Y-75337D01*
G37*
G36*
G01X487544Y-28578D02*
G01X487139Y-28635D01*
G01X486216Y-28751D01*
G01X485754Y-28866D01*
G01X485465Y-28924D01*
G01X485465Y-25576D01*
G01X485869Y-25576D01*
G01X486447Y-25518D01*
G01X487024Y-25403D01*
G01X488409Y-25172D01*
G01X488987Y-24999D01*
G01X489391Y-24883D01*
G01X489795Y-24825D01*
G01X490719Y-24595D01*
G01X491296Y-24421D01*
G01X492046Y-24190D01*
G01X492739Y-24017D01*
G01X493259Y-23844D01*
G01X493720Y-23671D01*
G01X494240Y-23498D01*
G01X494875Y-23267D01*
G01X495568Y-23036D01*
G01X496203Y-22805D01*
G01X496780Y-22574D01*
G01X497242Y-22401D01*
G01X498050Y-22055D01*
G01X498512Y-21881D01*
G01X499089Y-21650D01*
G01X499609Y-21420D01*
G01X500821Y-20900D01*
G01X501514Y-20554D01*
G01X501918Y-20380D01*
G01X502437Y-20150D01*
G01X503245Y-19745D01*
G01X503649Y-19572D01*
G01X506420Y-18187D01*
G01X506824Y-17956D01*
G01X507864Y-17379D01*
G01X508325Y-17148D01*
G01X509364Y-16570D01*
G01X510173Y-16109D01*
G01X511212Y-15993D01*
G01X512020Y-15993D01*
G01X512078Y-16282D01*
G01X512135Y-24710D01*
G01X512135Y-32850D01*
G01X511847Y-32907D01*
G01X510461Y-32965D01*
G01X509364Y-32965D01*
G01X509307Y-32561D01*
G01X509249Y-26095D01*
G01X509349Y-19947D01*
G01X509134Y-19803D01*
G01X508729Y-19919D01*
G01X508268Y-20207D01*
G01X507690Y-20496D01*
G01X507171Y-20785D01*
G01X506363Y-21189D01*
G01X505554Y-21650D01*
G01X503592Y-22632D01*
G01X503188Y-22805D01*
G01X501802Y-23498D01*
G01X500763Y-23960D01*
G01X500301Y-24190D01*
G01X498743Y-24883D01*
G01X498165Y-25114D01*
G01X497126Y-25576D01*
G01X495279Y-26269D01*
G01X494759Y-26442D01*
G01X494298Y-26615D01*
G01X491700Y-27481D01*
G01X491180Y-27596D01*
G01X490719Y-27770D01*
G01X490026Y-27943D01*
G01X489391Y-28116D01*
G01X487544Y-28578D01*
G37*
G36*
G01X512135Y-52592D02*
G01X511847Y-52650D01*
G01X498569Y-52708D01*
G01X485523Y-52650D01*
G01X485465Y-51034D01*
G01X485465Y-49475D01*
G01X495394Y-49475D01*
G01X495452Y-49186D01*
G01X495501Y-47166D01*
G01X498396Y-47166D01*
G01X498454Y-49417D01*
G01X503880Y-49475D01*
G01X509249Y-49475D01*
G01X509249Y-47339D01*
G01X509191Y-45030D01*
G01X509076Y-43760D01*
G01X508960Y-43298D01*
G01X508614Y-42259D01*
G01X508441Y-41855D01*
G01X508210Y-41509D01*
G01X507921Y-41162D01*
G01X507633Y-40874D01*
G01X507229Y-40527D01*
G01X506651Y-40181D01*
G01X506016Y-39950D01*
G01X505439Y-39777D01*
G01X503938Y-39661D01*
G01X502495Y-39719D01*
G01X502033Y-39892D01*
G01X501514Y-40065D01*
G01X501052Y-40296D01*
G01X500590Y-40585D01*
G01X500244Y-40874D01*
G01X499955Y-41162D01*
G01X499724Y-41451D01*
G01X499435Y-41913D01*
G01X499147Y-42490D01*
G01X498974Y-42952D01*
G01X498743Y-43529D01*
G01X498569Y-44280D01*
G01X498569Y-44280D01*
G01X498454Y-44799D01*
G01X498396Y-47166D01*
G01X495501Y-47166D01*
G01X495510Y-46820D01*
G01X495568Y-44568D01*
G01X495625Y-43991D01*
G01X495741Y-43356D01*
G01X495914Y-42663D01*
G01X496087Y-42028D01*
G01X496260Y-41566D01*
G01X496491Y-41047D01*
G01X496780Y-40527D01*
G01X497011Y-40123D01*
G01X497242Y-39777D01*
G01X498108Y-38738D01*
G01X498396Y-38449D01*
G01X499262Y-37756D01*
G01X499666Y-37525D01*
G01X500186Y-37237D01*
G01X500648Y-37006D01*
G01X501109Y-36833D01*
G01X501629Y-36660D01*
G01X502091Y-36544D01*
G01X502495Y-36486D01*
G01X502957Y-36371D01*
G01X504458Y-36313D01*
G01X505901Y-36429D01*
G01X506940Y-36660D01*
G01X507517Y-36890D01*
G01X508037Y-37121D01*
G01X508441Y-37352D01*
G01X508960Y-37699D01*
G01X509538Y-38160D01*
G01X509999Y-38680D01*
G01X510346Y-39084D01*
G01X510634Y-39488D01*
G01X510923Y-40008D01*
G01X511154Y-40470D01*
G01X511327Y-40874D01*
G01X511500Y-41335D01*
G01X511674Y-41855D01*
G01X511847Y-42605D01*
G01X512020Y-43529D01*
G01X512135Y-48263D01*
G01X512135Y-52592D01*
G37*
G36*
G01X803515Y-382541D02*
G01X803515Y-374921D01*
G01X791681Y-374921D01*
G01X779789Y-374863D01*
G01X779731Y-373247D01*
G01X779731Y-371688D01*
G01X803515Y-371688D01*
G01X803515Y-364068D01*
G01X803804Y-364011D01*
G01X805189Y-363953D01*
G01X806286Y-363953D01*
G01X806344Y-364242D01*
G01X806401Y-373478D01*
G01X806401Y-382426D01*
G01X806113Y-382483D01*
G01X804670Y-382541D01*
G01X803515Y-382541D01*
G37*
G36*
G01X779558Y-333646D02*
G01X779443Y-333184D01*
G01X779327Y-332492D01*
G01X779212Y-332030D01*
G01X779167Y-331452D01*
G01X781925Y-331452D01*
G01X781983Y-332376D01*
G01X782271Y-333242D01*
G01X782560Y-333762D01*
G01X782964Y-334339D01*
G01X783657Y-335032D01*
G01X783946Y-335262D01*
G01X784754Y-335724D01*
G01X785158Y-335897D01*
G01X785620Y-336071D01*
G01X786024Y-336186D01*
G01X786486Y-336302D01*
G01X787063Y-336417D01*
G01X787640Y-336475D01*
G01X788102Y-336532D01*
G01X788506Y-336590D01*
G01X789718Y-336417D01*
G01X790296Y-336244D01*
G01X790873Y-336013D01*
G01X791277Y-335782D01*
G01X791796Y-335436D01*
G01X792316Y-334916D01*
G01X792662Y-334512D01*
G01X792951Y-334108D01*
G01X793240Y-333531D01*
G01X793413Y-333069D01*
G01X793644Y-332261D01*
G01X793759Y-331222D01*
G01X793759Y-330875D01*
G01X793701Y-330356D01*
G01X793586Y-329836D01*
G01X793413Y-329317D01*
G01X793240Y-328855D01*
G01X793009Y-328451D01*
G01X792720Y-328047D01*
G01X792431Y-327758D01*
G01X792027Y-327412D01*
G01X791508Y-327065D01*
G01X790988Y-326777D01*
G01X790411Y-326546D01*
G01X789718Y-326372D01*
G01X789026Y-326257D01*
G01X787582Y-326199D01*
G01X786255Y-326257D01*
G01X785735Y-326372D01*
G01X785216Y-326546D01*
G01X784407Y-326892D01*
G01X784003Y-327123D01*
G01X783657Y-327354D01*
G01X783311Y-327758D01*
G01X782906Y-328162D01*
G01X782618Y-328566D01*
G01X782387Y-329028D01*
G01X782214Y-329432D01*
G01X782098Y-329836D01*
G01X782098Y-329836D01*
G01X781983Y-330298D01*
G01X781925Y-331452D01*
G01X779167Y-331452D01*
G01X779154Y-331279D01*
G01X779212Y-330413D01*
G01X779327Y-329836D01*
G01X779501Y-329028D01*
G01X779731Y-328393D01*
G01X779905Y-327931D01*
G01X780078Y-327527D01*
G01X780655Y-326603D01*
G01X781001Y-326142D01*
G01X781983Y-325160D01*
G01X782560Y-324698D01*
G01X782964Y-324410D01*
G01X783484Y-324121D01*
G01X783946Y-323890D01*
G01X784754Y-323544D01*
G01X785331Y-323371D01*
G01X785966Y-323197D01*
G01X786659Y-323082D01*
G01X787294Y-323024D01*
G01X788333Y-322967D01*
G01X789372Y-323024D01*
G01X789891Y-323082D01*
G01X790469Y-323197D01*
G01X791104Y-323371D01*
G01X791681Y-323544D01*
G01X792605Y-324006D01*
G01X793009Y-324237D01*
G01X793528Y-324583D01*
G01X794106Y-325045D01*
G01X794510Y-325449D01*
G01X794741Y-325737D01*
G01X795029Y-326142D01*
G01X795376Y-326661D01*
G01X795606Y-327123D01*
G01X795780Y-327527D01*
G01X796011Y-328104D01*
G01X796184Y-328797D01*
G01X796299Y-329374D01*
G01X796357Y-330817D01*
G01X796299Y-332145D01*
G01X796068Y-333069D01*
G01X795895Y-333531D01*
G01X795664Y-334050D01*
G01X795376Y-334570D01*
G01X795087Y-334974D01*
G01X794856Y-335262D01*
G01X794279Y-335840D01*
G01X793990Y-336071D01*
G01X793701Y-336244D01*
G01X793447Y-336403D01*
G01X793528Y-336648D01*
G01X794394Y-336706D01*
G01X795260Y-336648D01*
G01X796299Y-336532D01*
G01X796761Y-336417D01*
G01X797396Y-336302D01*
G01X798955Y-335782D01*
G01X799416Y-335609D01*
G01X799821Y-335436D01*
G01X800629Y-334974D01*
G01X801495Y-334397D01*
G01X801956Y-334050D01*
G01X802534Y-333473D01*
G01X802996Y-332896D01*
G01X803226Y-332549D01*
G01X803400Y-332145D01*
G01X803631Y-331683D01*
G01X803804Y-331106D01*
G01X803977Y-330587D01*
G01X804092Y-330125D01*
G01X804150Y-329721D01*
G01X804208Y-328912D01*
G01X804150Y-328104D01*
G01X804092Y-327527D01*
G01X803977Y-326950D01*
G01X803861Y-326546D01*
G01X803804Y-326142D01*
G01X803631Y-325680D01*
G01X803400Y-325160D01*
G01X803284Y-324756D01*
G01X803616Y-324626D01*
G01X804612Y-324583D01*
G01X805940Y-324583D01*
G01X806113Y-324872D01*
G01X806344Y-325507D01*
G01X806517Y-326026D01*
G01X806632Y-326546D01*
G01X806690Y-327065D01*
G01X806806Y-328566D01*
G01X806863Y-329028D01*
G01X806806Y-329490D01*
G01X806690Y-330875D01*
G01X806632Y-331279D01*
G01X806517Y-331683D01*
G01X806171Y-332607D01*
G01X805709Y-333531D01*
G01X805420Y-333992D01*
G01X805074Y-334570D01*
G01X804381Y-335378D01*
G01X804035Y-335724D01*
G01X803746Y-335955D01*
G01X803169Y-336532D01*
G01X802880Y-336763D01*
G01X802591Y-336937D01*
G01X802245Y-337167D01*
G01X801783Y-337456D01*
G01X801264Y-337745D01*
G01X800340Y-338207D01*
G01X799821Y-338437D01*
G01X799416Y-338611D01*
G01X798551Y-338899D01*
G01X797800Y-339130D01*
G01X796646Y-339419D01*
G01X796068Y-339534D01*
G01X795260Y-339650D01*
G01X794683Y-339765D01*
G01X793297Y-339881D01*
G01X791392Y-339938D01*
G01X789487Y-339881D01*
G01X788102Y-339765D01*
G01X787640Y-339650D01*
G01X786947Y-339534D01*
G01X786255Y-339361D01*
G01X785620Y-339188D01*
G01X785100Y-339015D01*
G01X784638Y-338842D01*
G01X784234Y-338668D01*
G01X783541Y-338322D01*
G01X783253Y-338149D01*
G01X782849Y-337918D01*
G01X782387Y-337629D01*
G01X782041Y-337341D01*
G01X781752Y-337052D01*
G01X781348Y-336706D01*
G01X781001Y-336302D01*
G01X780713Y-336013D01*
G01X780482Y-335667D01*
G01X780309Y-335320D01*
G01X780078Y-334916D01*
G01X779847Y-334454D01*
G01X779674Y-334050D01*
G01X779558Y-333646D01*
G37*
G36*
G01X806401Y-359797D02*
G01X806113Y-359854D01*
G01X792836Y-359912D01*
G01X779789Y-359854D01*
G01X779731Y-358238D01*
G01X779731Y-356679D01*
G01X789661Y-356679D01*
G01X789718Y-356391D01*
G01X789767Y-354370D01*
G01X792662Y-354370D01*
G01X792720Y-356622D01*
G01X798146Y-356679D01*
G01X803515Y-356679D01*
G01X803515Y-354543D01*
G01X803457Y-352234D01*
G01X803342Y-350964D01*
G01X803226Y-350502D01*
G01X802880Y-349463D01*
G01X802707Y-349059D01*
G01X802476Y-348713D01*
G01X802187Y-348367D01*
G01X801899Y-348078D01*
G01X801495Y-347732D01*
G01X800917Y-347385D01*
G01X800282Y-347154D01*
G01X799705Y-346981D01*
G01X798204Y-346866D01*
G01X796761Y-346923D01*
G01X796299Y-347097D01*
G01X795780Y-347270D01*
G01X795318Y-347501D01*
G01X794856Y-347789D01*
G01X794510Y-348078D01*
G01X794221Y-348367D01*
G01X793990Y-348655D01*
G01X793701Y-349117D01*
G01X793413Y-349694D01*
G01X793240Y-350156D01*
G01X793009Y-350733D01*
G01X792836Y-351484D01*
G01X792836Y-351484D01*
G01X792720Y-352003D01*
G01X792662Y-354370D01*
G01X789767Y-354370D01*
G01X789776Y-354024D01*
G01X789834Y-351772D01*
G01X789891Y-351195D01*
G01X790007Y-350560D01*
G01X790180Y-349867D01*
G01X790353Y-349232D01*
G01X790526Y-348771D01*
G01X790757Y-348251D01*
G01X791046Y-347732D01*
G01X791277Y-347327D01*
G01X791508Y-346981D01*
G01X792374Y-345942D01*
G01X792662Y-345653D01*
G01X793528Y-344961D01*
G01X793932Y-344730D01*
G01X794452Y-344441D01*
G01X794914Y-344210D01*
G01X795376Y-344037D01*
G01X795895Y-343864D01*
G01X796357Y-343748D01*
G01X796761Y-343691D01*
G01X797223Y-343575D01*
G01X798724Y-343517D01*
G01X800167Y-343633D01*
G01X801206Y-343864D01*
G01X801783Y-344095D01*
G01X802303Y-344326D01*
G01X802707Y-344557D01*
G01X803226Y-344903D01*
G01X803804Y-345365D01*
G01X804266Y-345884D01*
G01X804612Y-346288D01*
G01X804901Y-346692D01*
G01X805189Y-347212D01*
G01X805420Y-347674D01*
G01X805593Y-348078D01*
G01X805766Y-348540D01*
G01X805940Y-349059D01*
G01X806113Y-349810D01*
G01X806286Y-350733D01*
G01X806401Y-355467D01*
G01X806401Y-359797D01*
G37*
G36*
G01X1561366Y-1068885D02*
G01X1568986Y-1068885D01*
G01X1568986Y-1057051D01*
G01X1569044Y-1045159D01*
G01X1570661Y-1045101D01*
G01X1572219Y-1045101D01*
G01X1572219Y-1068885D01*
G01X1579839Y-1068885D01*
G01X1579897Y-1069174D01*
G01X1579955Y-1070559D01*
G01X1579955Y-1071656D01*
G01X1579666Y-1071714D01*
G01X1570430Y-1071771D01*
G01X1561482Y-1071771D01*
G01X1561424Y-1071482D01*
G01X1561366Y-1070040D01*
G01X1561366Y-1068885D01*
G37*
G36*
G01X1606451Y-1045044D02*
G01X1606913Y-1044928D01*
G01X1607606Y-1044812D01*
G01X1608587Y-1044640D01*
G01X1610031Y-1044524D01*
G01X1611243Y-1044640D01*
G01X1611762Y-1044755D01*
G01X1612224Y-1044812D01*
G01X1612628Y-1044928D01*
G01X1614014Y-1045447D01*
G01X1614533Y-1045736D01*
G01X1615111Y-1046082D01*
G01X1615572Y-1046371D01*
G01X1615861Y-1046660D01*
G01X1616438Y-1047122D01*
G01X1617016Y-1047699D01*
G01X1617708Y-1048622D01*
G01X1617939Y-1048969D01*
G01X1618228Y-1049431D01*
G01X1618978Y-1050932D01*
G01X1619209Y-1051509D01*
G01X1619382Y-1051971D01*
G01X1619729Y-1053010D01*
G01X1619960Y-1053934D01*
G01X1620075Y-1054511D01*
G01X1620191Y-1055204D01*
G01X1620306Y-1055781D01*
G01X1620421Y-1056589D01*
G01X1620479Y-1057570D01*
G01X1620537Y-1058205D01*
G01X1620652Y-1059591D01*
G01X1620710Y-1060110D01*
G01X1620652Y-1060630D01*
G01X1620537Y-1062015D01*
G01X1620421Y-1063516D01*
G01X1620191Y-1064671D01*
G01X1620075Y-1065190D01*
G01X1619902Y-1065767D01*
G01X1619556Y-1066807D01*
G01X1619382Y-1067269D01*
G01X1619209Y-1067672D01*
G01X1618978Y-1068135D01*
G01X1618690Y-1068654D01*
G01X1618401Y-1069058D01*
G01X1617939Y-1069635D01*
G01X1617073Y-1070501D01*
G01X1616611Y-1070847D01*
G01X1616092Y-1071194D01*
G01X1615572Y-1071425D01*
G01X1615111Y-1071656D01*
G01X1614649Y-1071829D01*
G01X1614187Y-1071945D01*
G01X1613610Y-1072060D01*
G01X1612917Y-1072117D01*
G01X1612455Y-1072175D01*
G01X1612051Y-1072233D01*
G01X1611647Y-1072175D01*
G01X1610492Y-1072060D01*
G01X1609569Y-1071829D01*
G01X1609049Y-1071656D01*
G01X1608472Y-1071425D01*
G01X1608010Y-1071194D01*
G01X1607548Y-1070905D01*
G01X1607144Y-1070617D01*
G01X1606682Y-1070270D01*
G01X1605701Y-1069289D01*
G01X1605412Y-1068885D01*
G01X1605066Y-1068365D01*
G01X1604777Y-1067904D01*
G01X1604604Y-1067557D01*
G01X1604431Y-1067153D01*
G01X1604200Y-1066576D01*
G01X1604027Y-1066056D01*
G01X1603796Y-1065017D01*
G01X1603681Y-1064094D01*
G01X1603667Y-1063862D01*
G01X1606856Y-1063862D01*
G01X1606913Y-1065132D01*
G01X1607086Y-1065652D01*
G01X1607260Y-1066230D01*
G01X1607433Y-1066634D01*
G01X1607664Y-1067037D01*
G01X1608010Y-1067557D01*
G01X1608356Y-1068019D01*
G01X1608645Y-1068307D01*
G01X1609049Y-1068596D01*
G01X1609511Y-1068885D01*
G01X1609915Y-1069116D01*
G01X1610435Y-1069289D01*
G01X1610954Y-1069405D01*
G01X1611647Y-1069520D01*
G01X1612686Y-1069520D01*
G01X1613379Y-1069347D01*
G01X1613898Y-1069174D01*
G01X1614360Y-1068942D01*
G01X1614649Y-1068712D01*
G01X1615111Y-1068423D01*
G01X1615515Y-1068019D01*
G01X1615746Y-1067730D01*
G01X1616034Y-1067326D01*
G01X1616323Y-1066807D01*
G01X1616785Y-1065767D01*
G01X1617131Y-1064382D01*
G01X1617189Y-1063978D01*
G01X1617246Y-1062766D01*
G01X1617131Y-1061496D01*
G01X1616958Y-1060976D01*
G01X1616727Y-1060457D01*
G01X1616438Y-1059995D01*
G01X1616092Y-1059475D01*
G01X1615688Y-1059071D01*
G01X1615226Y-1058725D01*
G01X1614649Y-1058379D01*
G01X1614187Y-1058147D01*
G01X1613725Y-1057975D01*
G01X1613263Y-1057859D01*
G01X1613263Y-1057859D01*
G01X1612455Y-1057744D01*
G01X1611993Y-1057686D01*
G01X1611647Y-1057744D01*
G01X1611185Y-1057801D01*
G01X1610550Y-1057917D01*
G01X1610031Y-1058090D01*
G01X1609569Y-1058263D01*
G01X1609165Y-1058494D01*
G01X1608818Y-1058782D01*
G01X1608241Y-1059360D01*
G01X1608010Y-1059649D01*
G01X1607721Y-1060052D01*
G01X1607433Y-1060630D01*
G01X1607260Y-1061092D01*
G01X1607086Y-1061611D01*
G01X1606913Y-1062362D01*
G01X1606856Y-1063862D01*
G01X1603667Y-1063862D01*
G01X1603623Y-1063112D01*
G01X1603681Y-1062131D01*
G01X1603796Y-1061322D01*
G01X1603911Y-1060861D01*
G01X1604085Y-1060284D01*
G01X1604316Y-1059649D01*
G01X1604546Y-1059129D01*
G01X1605124Y-1058205D01*
G01X1605470Y-1057744D01*
G01X1606625Y-1056589D01*
G01X1607029Y-1056300D01*
G01X1607837Y-1055839D01*
G01X1608299Y-1055607D01*
G01X1608703Y-1055435D01*
G01X1609107Y-1055319D01*
G01X1610146Y-1055088D01*
G01X1610723Y-1054972D01*
G01X1611936Y-1054915D01*
G01X1612975Y-1055030D01*
G01X1613610Y-1055204D01*
G01X1614187Y-1055377D01*
G01X1614591Y-1055550D01*
G01X1615053Y-1055781D01*
G01X1615572Y-1056127D01*
G01X1615976Y-1056474D01*
G01X1616265Y-1056762D01*
G01X1616611Y-1057166D01*
G01X1616900Y-1057570D01*
G01X1617246Y-1057801D01*
G01X1617477Y-1057917D01*
G01X1617420Y-1057397D01*
G01X1617362Y-1056185D01*
G01X1617304Y-1055319D01*
G01X1617189Y-1054395D01*
G01X1617016Y-1053818D01*
G01X1616842Y-1053067D01*
G01X1616669Y-1052548D01*
G01X1616323Y-1051625D01*
G01X1615861Y-1050701D01*
G01X1615630Y-1050355D01*
G01X1614937Y-1049431D01*
G01X1614360Y-1048854D01*
G01X1613783Y-1048392D01*
G01X1613436Y-1048161D01*
G01X1613032Y-1047987D01*
G01X1612571Y-1047757D01*
G01X1612051Y-1047584D01*
G01X1611647Y-1047468D01*
G01X1610954Y-1047352D01*
G01X1609453Y-1047295D01*
G01X1608299Y-1047352D01*
G01X1606913Y-1047699D01*
G01X1606394Y-1047872D01*
G01X1605816Y-1048103D01*
G01X1605427Y-1048358D01*
G01X1605181Y-1048276D01*
G01X1605124Y-1046775D01*
G01X1605124Y-1045447D01*
G01X1605412Y-1045390D01*
G01X1606451Y-1045044D01*
G37*
G36*
G01X1584111Y-1071771D02*
G01X1584053Y-1071482D01*
G01X1584019Y-1063516D01*
G01X1587228Y-1063516D01*
G01X1587228Y-1068885D01*
G01X1589364Y-1068885D01*
G01X1591673Y-1068827D01*
G01X1592943Y-1068712D01*
G01X1593405Y-1068596D01*
G01X1594444Y-1068250D01*
G01X1594848Y-1068077D01*
G01X1595195Y-1067846D01*
G01X1595541Y-1067557D01*
G01X1595830Y-1067269D01*
G01X1596176Y-1066865D01*
G01X1596522Y-1066287D01*
G01X1596753Y-1065652D01*
G01X1596926Y-1065075D01*
G01X1597042Y-1063574D01*
G01X1596984Y-1062131D01*
G01X1596811Y-1061669D01*
G01X1596638Y-1061150D01*
G01X1596407Y-1060687D01*
G01X1596118Y-1060226D01*
G01X1595830Y-1059880D01*
G01X1595541Y-1059591D01*
G01X1595252Y-1059360D01*
G01X1594791Y-1059071D01*
G01X1594213Y-1058782D01*
G01X1593751Y-1058610D01*
G01X1593174Y-1058379D01*
G01X1592424Y-1058205D01*
G01X1592424Y-1058205D01*
G01X1591904Y-1058090D01*
G01X1589537Y-1058032D01*
G01X1587286Y-1058090D01*
G01X1587228Y-1063516D01*
G01X1584019Y-1063516D01*
G01X1583996Y-1058205D01*
G01X1584053Y-1045159D01*
G01X1585670Y-1045101D01*
G01X1587228Y-1045101D01*
G01X1587228Y-1055030D01*
G01X1587517Y-1055088D01*
G01X1589884Y-1055146D01*
G01X1592135Y-1055204D01*
G01X1592712Y-1055261D01*
G01X1593347Y-1055377D01*
G01X1594040Y-1055550D01*
G01X1594675Y-1055723D01*
G01X1595137Y-1055896D01*
G01X1595656Y-1056127D01*
G01X1596176Y-1056416D01*
G01X1596580Y-1056647D01*
G01X1596926Y-1056877D01*
G01X1597966Y-1057744D01*
G01X1598254Y-1058032D01*
G01X1598947Y-1058898D01*
G01X1599178Y-1059302D01*
G01X1599466Y-1059822D01*
G01X1599697Y-1060284D01*
G01X1599871Y-1060745D01*
G01X1600044Y-1061265D01*
G01X1600159Y-1061727D01*
G01X1600217Y-1062131D01*
G01X1600332Y-1062592D01*
G01X1600390Y-1064094D01*
G01X1600275Y-1065537D01*
G01X1600044Y-1066576D01*
G01X1599813Y-1067153D01*
G01X1599582Y-1067672D01*
G01X1599351Y-1068077D01*
G01X1599005Y-1068596D01*
G01X1598543Y-1069174D01*
G01X1598023Y-1069635D01*
G01X1597619Y-1069982D01*
G01X1597215Y-1070270D01*
G01X1596696Y-1070559D01*
G01X1596234Y-1070790D01*
G01X1595830Y-1070963D01*
G01X1595368Y-1071136D01*
G01X1594848Y-1071310D01*
G01X1594098Y-1071482D01*
G01X1593174Y-1071656D01*
G01X1588441Y-1071771D01*
G01X1584111Y-1071771D01*
G37*
G36*
G01X-530711Y727363D02*
G01X-523091Y727363D01*
G01X-523091Y739197D01*
G01X-523033Y751089D01*
G01X-521417Y751147D01*
G01X-519858Y751147D01*
G01X-519858Y727363D01*
G01X-512238Y727363D01*
G01X-512181Y727074D01*
G01X-512123Y725689D01*
G01X-512123Y724592D01*
G01X-512411Y724534D01*
G01X-521648Y724477D01*
G01X-530596Y724477D01*
G01X-530653Y724765D01*
G01X-530711Y726208D01*
G01X-530711Y727363D01*
G37*
G36*
G01X-463459Y749472D02*
G01X-463574Y750281D01*
G01X-463690Y750742D01*
G01X-463747Y751089D01*
G01X-462073Y751147D01*
G01X-460399Y751147D01*
G01X-460399Y750742D01*
G01X-460341Y750165D01*
G01X-460226Y749357D01*
G01X-460111Y748895D01*
G01X-459995Y748202D01*
G01X-459822Y747567D01*
G01X-459476Y746067D01*
G01X-459302Y745489D01*
G01X-459187Y744970D01*
G01X-459014Y744508D01*
G01X-458841Y743873D01*
G01X-458321Y742314D01*
G01X-458148Y741852D01*
G01X-457975Y741333D01*
G01X-457513Y740063D01*
G01X-457282Y739486D01*
G01X-457051Y738851D01*
G01X-456589Y737812D01*
G01X-456358Y737234D01*
G01X-455896Y736195D01*
G01X-455666Y735618D01*
G01X-455435Y735156D01*
G01X-455261Y734752D01*
G01X-454915Y734059D01*
G01X-454742Y733655D01*
G01X-454280Y732732D01*
G01X-454107Y732327D01*
G01X-453587Y731288D01*
G01X-453356Y730884D01*
G01X-452664Y729499D01*
G01X-452375Y729037D01*
G01X-452086Y728460D01*
G01X-451509Y727421D01*
G01X-451047Y726612D01*
G01X-450874Y726151D01*
G01X-450816Y725285D01*
G01X-450816Y724592D01*
G01X-451105Y724534D01*
G01X-459533Y724477D01*
G01X-467673Y724477D01*
G01X-467731Y724765D01*
G01X-467788Y726151D01*
G01X-467788Y727247D01*
G01X-467384Y727305D01*
G01X-460919Y727363D01*
G01X-454770Y727263D01*
G01X-454626Y727478D01*
G01X-454800Y727940D01*
G01X-455088Y728460D01*
G01X-455319Y728922D01*
G01X-455608Y729383D01*
G01X-456127Y730422D01*
G01X-456358Y730827D01*
G01X-456589Y731288D01*
G01X-456878Y731808D01*
G01X-457628Y733309D01*
G01X-457801Y733713D01*
G01X-458148Y734406D01*
G01X-458321Y734810D01*
G01X-458783Y735733D01*
G01X-459476Y737350D01*
G01X-459937Y738389D01*
G01X-460284Y739197D01*
G01X-461150Y741506D01*
G01X-461323Y742026D01*
G01X-461554Y742603D01*
G01X-461785Y743238D01*
G01X-461958Y743815D01*
G01X-462131Y744335D01*
G01X-462651Y746067D01*
G01X-462766Y746586D01*
G01X-462997Y747394D01*
G01X-463112Y747972D01*
G01X-463286Y748549D01*
G01X-463401Y749011D01*
G01X-463459Y749472D01*
G37*
G36*
G01X-507966Y724477D02*
G01X-508024Y724765D01*
G01X-508059Y732732D01*
G01X-504849Y732732D01*
G01X-504849Y727363D01*
G01X-502713Y727363D01*
G01X-500404Y727421D01*
G01X-499134Y727536D01*
G01X-498672Y727652D01*
G01X-497633Y727998D01*
G01X-497229Y728171D01*
G01X-496883Y728402D01*
G01X-496536Y728691D01*
G01X-496248Y728979D01*
G01X-495901Y729383D01*
G01X-495555Y729961D01*
G01X-495324Y730596D01*
G01X-495151Y731173D01*
G01X-495036Y732674D01*
G01X-495093Y734117D01*
G01X-495266Y734579D01*
G01X-495440Y735098D01*
G01X-495671Y735560D01*
G01X-495959Y736022D01*
G01X-496248Y736368D01*
G01X-496536Y736657D01*
G01X-496825Y736888D01*
G01X-497287Y737177D01*
G01X-497864Y737465D01*
G01X-498326Y737638D01*
G01X-498903Y737869D01*
G01X-499654Y738042D01*
G01X-499654Y738042D01*
G01X-500173Y738158D01*
G01X-502540Y738216D01*
G01X-504791Y738158D01*
G01X-504849Y732732D01*
G01X-508059Y732732D01*
G01X-508082Y738042D01*
G01X-508024Y751089D01*
G01X-506408Y751147D01*
G01X-504849Y751147D01*
G01X-504849Y741217D01*
G01X-504561Y741160D01*
G01X-502194Y741102D01*
G01X-499942Y741044D01*
G01X-499365Y740987D01*
G01X-498730Y740871D01*
G01X-498037Y740698D01*
G01X-497402Y740525D01*
G01X-496941Y740352D01*
G01X-496421Y740121D01*
G01X-495901Y739832D01*
G01X-495497Y739601D01*
G01X-495151Y739370D01*
G01X-494112Y738504D01*
G01X-493823Y738216D01*
G01X-493131Y737350D01*
G01X-492900Y736946D01*
G01X-492611Y736426D01*
G01X-492380Y735964D01*
G01X-492207Y735502D01*
G01X-492034Y734983D01*
G01X-491918Y734521D01*
G01X-491861Y734117D01*
G01X-491745Y733655D01*
G01X-491687Y732154D01*
G01X-491803Y730711D01*
G01X-492034Y729672D01*
G01X-492265Y729095D01*
G01X-492496Y728575D01*
G01X-492726Y728171D01*
G01X-493073Y727652D01*
G01X-493535Y727074D01*
G01X-494054Y726612D01*
G01X-494458Y726266D01*
G01X-494862Y725977D01*
G01X-495382Y725689D01*
G01X-495844Y725458D01*
G01X-496248Y725285D01*
G01X-496710Y725112D01*
G01X-497229Y724938D01*
G01X-497980Y724765D01*
G01X-498903Y724592D01*
G01X-503637Y724477D01*
G01X-507966Y724477D01*
G37*
G36*
G01X-480315Y728633D02*
G01X-479969Y728460D01*
G01X-479839Y731260D01*
G01X-479796Y739774D01*
G01X-479796Y751147D01*
G01X-476678Y751147D01*
G01X-476678Y724015D01*
G01X-476967Y723957D01*
G01X-477602Y723899D01*
G01X-477891Y723943D01*
G01X-478930Y724765D01*
G01X-479218Y724938D01*
G01X-479622Y725227D01*
G01X-481354Y726266D01*
G01X-482855Y727017D01*
G01X-483432Y727247D01*
G01X-483952Y727478D01*
G01X-485337Y727998D01*
G01X-485741Y728171D01*
G01X-485872Y728633D01*
G01X-485915Y729787D01*
G01X-485915Y731288D01*
G01X-485568Y731231D01*
G01X-484010Y730711D01*
G01X-481701Y729557D01*
G01X-481296Y729326D01*
G01X-480777Y728979D01*
G01X-480315Y728633D01*
G37*
G04 Text End*
G54D10*

M02*

