G04 Layer: TopSilkscreenLayer*
G04 EasyEDA Pro v2.2.39.2, 2025-05-28 09:36:40*
G04 Gerber Generator version 0.3*
G04 Scale: 100 percent, Rotated: No, Reflected: No*
G04 Dimensions in millimeters*
G04 Leading zeros omitted, absolute positions, 4 integers and 5 decimals*
G04 Generated by one-click*
%FSLAX45Y45*%
%MOMM*%
%ADD10C,0.1524*%
%ADD11C,0.15199*%
%ADD12C,0.1*%
%ADD13C,0.05*%
%ADD14C,0.18001*%
%ADD15C,0.2511*%
%ADD16C,0.254*%
%ADD17C,0.09906*%
%ADD18C,0.2*%
G75*


G04 Text Start*
G36*
G01X595746Y-128616D02*
G01X597093Y-128963D01*
G01X600826Y-129078D01*
G01X605751Y-129078D01*
G01X605906Y-128309D01*
G01X606213Y-127077D01*
G01X606675Y-125691D01*
G01X607137Y-123998D01*
G01X607445Y-122767D01*
G01X607907Y-121227D01*
G01X609754Y-114762D01*
G01X610216Y-113223D01*
G01X610831Y-110759D01*
G01X611293Y-109374D01*
G01X611755Y-107681D01*
G01X612217Y-106295D01*
G01X612525Y-105064D01*
G01X613141Y-102909D01*
G01X613449Y-101677D01*
G01X613910Y-100291D01*
G01X614834Y-96597D01*
G01X615296Y-95211D01*
G01X615757Y-93518D01*
G01X616219Y-92133D01*
G01X616835Y-89670D01*
G01X617297Y-88284D01*
G01X617605Y-87053D01*
G01X618221Y-84897D01*
G01X618836Y-82434D01*
G01X619298Y-81049D01*
G01X619914Y-79048D01*
G01X620837Y-75353D01*
G01X621146Y-73660D01*
G01X621299Y-73198D01*
G01X621761Y-73044D01*
G01X622223Y-73352D01*
G01X622377Y-74276D01*
G01X622685Y-75969D01*
G01X622993Y-77047D01*
G01X623301Y-78278D01*
G01X623763Y-79817D01*
G01X624070Y-81203D01*
G01X624532Y-82743D01*
G01X625148Y-84897D01*
G01X625610Y-86745D01*
G01X626533Y-89824D01*
G01X626841Y-91055D01*
G01X627457Y-93210D01*
G01X627919Y-94750D01*
G01X628534Y-96905D01*
G01X628996Y-98752D01*
G01X629920Y-101831D01*
G01X630228Y-103063D01*
G01X631459Y-107373D01*
G01X632075Y-109836D01*
G01X632999Y-112914D01*
G01X633614Y-115070D01*
G01X634230Y-117533D01*
G01X634692Y-118918D01*
G01X635154Y-120611D01*
G01X635462Y-121843D01*
G01X635924Y-123229D01*
G01X636386Y-125076D01*
G01X636847Y-126615D01*
G01X637309Y-128001D01*
G01X637617Y-128616D01*
G01X638233Y-128924D01*
G01X643313Y-129078D01*
G01X647623Y-129078D01*
G01X647777Y-128001D01*
G01X648239Y-126461D01*
G01X649163Y-123229D01*
G01X649470Y-121997D01*
G01X649932Y-120457D01*
G01X650240Y-119072D01*
G01X650702Y-117533D01*
G01X651933Y-113223D01*
G01X652395Y-111683D01*
G01X653011Y-109528D01*
G01X653627Y-107065D01*
G01X654089Y-105679D01*
G01X654550Y-103832D01*
G01X655012Y-102293D01*
G01X655474Y-100907D01*
G01X655782Y-99676D01*
G01X657013Y-95366D01*
G01X657629Y-92903D01*
G01X658091Y-91517D01*
G01X658553Y-89670D01*
G01X659014Y-88130D01*
G01X659476Y-86745D01*
G01X659784Y-85513D01*
G01X660400Y-83358D01*
G01X661016Y-80895D01*
G01X661477Y-79510D01*
G01X661939Y-77663D01*
G01X662401Y-76123D01*
G01X662863Y-74737D01*
G01X663171Y-73506D01*
G01X664403Y-69196D01*
G01X665018Y-66733D01*
G01X665480Y-65347D01*
G01X665942Y-63500D01*
G01X666404Y-61961D01*
G01X666866Y-60575D01*
G01X667173Y-59344D01*
G01X667173Y-58420D01*
G01X666019Y-58074D01*
G01X662863Y-57958D01*
G01X658707Y-57958D01*
G01X658399Y-58882D01*
G01X657783Y-60883D01*
G01X657321Y-62730D01*
G01X656859Y-64270D01*
G01X656397Y-65963D01*
G01X656090Y-67349D01*
G01X655474Y-69811D01*
G01X655012Y-71351D01*
G01X654550Y-73198D01*
G01X654089Y-74737D01*
G01X653627Y-76431D01*
G01X653319Y-77816D01*
G01X652703Y-79971D01*
G01X652087Y-82434D01*
G01X651626Y-83974D01*
G01X651164Y-85975D01*
G01X650702Y-87514D01*
G01X650394Y-88746D01*
G01X649470Y-91979D01*
G01X648854Y-94442D01*
G01X648547Y-95519D01*
G01X648239Y-96751D01*
G01X647315Y-100137D01*
G01X646391Y-103832D01*
G01X645468Y-107065D01*
G01X644852Y-109528D01*
G01X644544Y-110606D01*
G01X643313Y-115531D01*
G01X643005Y-117071D01*
G01X642889Y-117725D01*
G01X642543Y-117841D01*
G01X642197Y-117494D01*
G01X642081Y-116763D01*
G01X641927Y-115377D01*
G01X640696Y-110451D01*
G01X640234Y-109066D01*
G01X639772Y-107219D01*
G01X639464Y-105833D01*
G01X639003Y-104448D01*
G01X638541Y-102754D01*
G01X638079Y-101215D01*
G01X637617Y-99522D01*
G01X637309Y-98136D01*
G01X636077Y-93826D01*
G01X635616Y-92287D01*
G01X634846Y-89208D01*
G01X634384Y-87669D01*
G01X633923Y-85821D01*
G01X632999Y-82743D01*
G01X632075Y-79048D01*
G01X631613Y-77663D01*
G01X631151Y-75815D01*
G01X630690Y-74276D01*
G01X630382Y-73044D01*
G01X629766Y-70889D01*
G01X629458Y-69657D01*
G01X628996Y-68118D01*
G01X628689Y-66733D01*
G01X628073Y-64577D01*
G01X627765Y-63346D01*
G01X627303Y-61961D01*
G01X626687Y-59497D01*
G01X626226Y-58420D01*
G01X625148Y-58074D01*
G01X622223Y-57958D01*
G01X618374Y-57958D01*
G01X618067Y-58728D01*
G01X617605Y-60113D01*
G01X617297Y-61191D01*
G01X616989Y-62423D01*
G01X616527Y-63808D01*
G01X616066Y-65347D01*
G01X615757Y-66733D01*
G01X615296Y-68118D01*
G01X614834Y-69657D01*
G01X614526Y-70735D01*
G01X613910Y-73198D01*
G01X613449Y-74584D01*
G01X612833Y-76585D01*
G01X609754Y-87361D01*
G01X609138Y-89362D01*
G01X608676Y-91055D01*
G01X608369Y-92287D01*
G01X607137Y-96597D01*
G01X606675Y-97983D01*
G01X606213Y-99676D01*
G01X605906Y-100907D01*
G01X605444Y-102293D01*
G01X604982Y-103986D01*
G01X604520Y-105371D01*
G01X604212Y-106603D01*
G01X603289Y-109836D01*
G01X602827Y-111221D01*
G01X602519Y-112607D01*
G01X602057Y-113992D01*
G01X601595Y-116147D01*
G01X601364Y-117148D01*
G01X600979Y-117687D01*
G01X600633Y-117725D01*
G01X600517Y-117225D01*
G01X600364Y-115993D01*
G01X599748Y-113223D01*
G01X599132Y-111067D01*
G01X598516Y-108604D01*
G01X598054Y-107219D01*
G01X597593Y-105526D01*
G01X597285Y-104294D01*
G01X596823Y-102754D01*
G01X596361Y-100907D01*
G01X595437Y-97829D01*
G01X594514Y-94134D01*
G01X594052Y-92749D01*
G01X593590Y-91055D01*
G01X593283Y-89824D01*
G01X592821Y-88284D01*
G01X592205Y-86129D01*
G01X591743Y-84282D01*
G01X590819Y-81203D01*
G01X589896Y-77509D01*
G01X589434Y-76123D01*
G01X588972Y-74276D01*
G01X588049Y-71197D01*
G01X587741Y-69811D01*
G01X585893Y-63346D01*
G01X585277Y-60883D01*
G01X584816Y-59344D01*
G01X584393Y-58497D01*
G01X583738Y-58112D01*
G01X579274Y-57958D01*
G01X576464Y-58074D01*
G01X575426Y-58420D01*
G01X575426Y-59344D01*
G01X576041Y-61499D01*
G01X576503Y-62884D01*
G01X576965Y-64577D01*
G01X577273Y-65809D01*
G01X577734Y-67194D01*
G01X578350Y-69196D01*
G01X578966Y-71351D01*
G01X579428Y-72890D01*
G01X580659Y-77201D01*
G01X581121Y-78586D01*
G01X581583Y-80279D01*
G01X581891Y-81511D01*
G01X582353Y-82896D01*
G01X582969Y-84897D01*
G01X584200Y-89208D01*
G01X584662Y-90747D01*
G01X585277Y-93210D01*
G01X585739Y-94596D01*
G01X586355Y-96597D01*
G01X586817Y-98136D01*
G01X588664Y-104602D01*
G01X589126Y-105987D01*
G01X589742Y-107989D01*
G01X591589Y-114454D01*
G01X592051Y-115993D01*
G01X592667Y-118149D01*
G01X592974Y-119380D01*
G01X593436Y-120766D01*
G01X593898Y-122305D01*
G01X594206Y-123690D01*
G01X594668Y-124922D01*
G01X595130Y-126461D01*
G01X595437Y-127693D01*
G01X595746Y-128616D01*
G37*
G36*
G01X678103Y-94288D02*
G01X678103Y-129078D01*
G01X715664Y-129078D01*
G01X715818Y-128309D01*
G01X715972Y-124768D01*
G01X715972Y-121997D01*
G01X715203Y-121843D01*
G01X700578Y-121689D01*
G01X686724Y-121689D01*
G01X686570Y-120919D01*
G01X686416Y-108450D01*
G01X686416Y-96751D01*
G01X711970Y-96751D01*
G01X712124Y-95981D01*
G01X712277Y-92287D01*
G01X712277Y-89362D01*
G01X711200Y-89208D01*
G01X698269Y-89054D01*
G01X686416Y-89054D01*
G01X686416Y-65963D01*
G01X687186Y-65809D01*
G01X701040Y-65655D01*
G01X714125Y-65655D01*
G01X714125Y-57958D01*
G01X678411Y-57958D01*
G01X678257Y-58728D01*
G01X678103Y-94288D01*
G37*
G36*
G01X419793Y-144318D02*
G01X415483Y-144010D01*
G01X415329Y-109528D01*
G01X415454Y-80895D01*
G01X423949Y-80895D01*
G01X423949Y-93210D01*
G01X424103Y-105987D01*
G01X424103Y-105987D01*
G01X424411Y-106603D01*
G01X429029Y-106757D01*
G01X434879Y-106603D01*
G01X436726Y-106295D01*
G01X439959Y-105833D01*
G01X441036Y-105526D01*
G01X442422Y-104910D01*
G01X443653Y-104294D01*
G01X444577Y-103678D01*
G01X445501Y-102909D01*
G01X446270Y-102139D01*
G01X447194Y-101061D01*
G01X447964Y-99830D01*
G01X448579Y-98752D01*
G01X449041Y-97674D01*
G01X449349Y-95519D01*
G01X449503Y-93056D01*
G01X449195Y-89977D01*
G01X448733Y-88438D01*
G01X448271Y-87207D01*
G01X447656Y-86129D01*
G01X446886Y-85051D01*
G01X445963Y-83974D01*
G01X445039Y-83358D01*
G01X443961Y-82743D01*
G01X442730Y-82127D01*
G01X441498Y-81665D01*
G01X440421Y-81357D01*
G01X437342Y-81049D01*
G01X430414Y-80895D01*
G01X423949Y-80895D01*
G01X415454Y-80895D01*
G01X415483Y-74276D01*
G01X415636Y-73198D01*
G01X426720Y-73198D01*
G01X439189Y-73352D01*
G01X441036Y-73660D01*
G01X442576Y-73968D01*
G01X444423Y-74276D01*
G01X445963Y-74737D01*
G01X448426Y-75661D01*
G01X449965Y-76431D01*
G01X451504Y-77509D01*
G01X452736Y-78432D01*
G01X454275Y-79971D01*
G01X455045Y-80895D01*
G01X455661Y-81819D01*
G01X456892Y-83974D01*
G01X457354Y-85206D01*
G01X457816Y-86591D01*
G01X458124Y-87669D01*
G01X458277Y-88746D01*
G01X458431Y-91055D01*
G01X458277Y-94288D01*
G01X457970Y-96443D01*
G01X457508Y-98290D01*
G01X456892Y-99830D01*
G01X456430Y-100907D01*
G01X455969Y-101831D01*
G01X454429Y-104140D01*
G01X453506Y-105217D01*
G01X452274Y-106449D01*
G01X451504Y-107065D01*
G01X450273Y-107989D01*
G01X448887Y-108912D01*
G01X447810Y-109528D01*
G01X446732Y-109990D01*
G01X444269Y-110913D01*
G01X443346Y-111375D01*
G01X443230Y-111683D01*
G01X443499Y-111991D01*
G01X444731Y-112761D01*
G01X445809Y-113530D01*
G01X446578Y-114146D01*
G01X448887Y-116455D01*
G01X449503Y-117225D01*
G01X450734Y-119072D01*
G01X451504Y-120150D01*
G01X452428Y-121689D01*
G01X453351Y-123074D01*
G01X454121Y-124306D01*
G01X454737Y-125230D01*
G01X455969Y-127385D01*
G01X456738Y-128463D01*
G01X458586Y-131541D01*
G01X459355Y-132773D01*
G01X459971Y-133696D01*
G01X461510Y-136159D01*
G01X462126Y-137237D01*
G01X462896Y-138469D01*
G01X463819Y-139854D01*
G01X464743Y-141393D01*
G01X465513Y-142625D01*
G01X466129Y-143703D01*
G01X466436Y-144318D01*
G01X461510Y-144318D01*
G01X457739Y-144203D01*
G01X456276Y-143856D01*
G01X455507Y-142625D01*
G01X453659Y-139546D01*
G01X452890Y-138314D01*
G01X452274Y-137237D01*
G01X451504Y-135851D01*
G01X449657Y-132773D01*
G01X448887Y-131541D01*
G01X448271Y-130464D01*
G01X447502Y-129078D01*
G01X444731Y-124460D01*
G01X442884Y-121689D01*
G01X441344Y-119534D01*
G01X440421Y-118456D01*
G01X438881Y-116917D01*
G01X437804Y-116147D01*
G01X436418Y-115377D01*
G01X434879Y-114762D01*
G01X433647Y-114300D01*
G01X428567Y-114146D01*
G01X423949Y-114146D01*
G01X423949Y-144318D01*
G01X419793Y-144318D01*
G37*
G36*
G01X476289Y-144318D02*
G01X476289Y-109528D01*
G01X476443Y-73968D01*
G01X476596Y-73198D01*
G01X493837Y-73198D01*
G01X511849Y-73352D01*
G01X512618Y-73506D01*
G01X512618Y-76431D01*
G01X512464Y-80126D01*
G01X512310Y-80895D01*
G01X499226Y-80895D01*
G01X485371Y-81049D01*
G01X484601Y-81203D01*
G01X484601Y-104294D01*
G01X496454Y-104294D01*
G01X509386Y-104448D01*
G01X510463Y-104602D01*
G01X510463Y-107527D01*
G01X510309Y-111221D01*
G01X510155Y-111991D01*
G01X498148Y-111991D01*
G01X485371Y-112145D01*
G01X484601Y-112299D01*
G01X484601Y-123844D01*
G01X484755Y-136159D01*
G01X484909Y-136929D01*
G01X498764Y-136929D01*
G01X513388Y-137083D01*
G01X514157Y-137237D01*
G01X514157Y-144318D01*
G01X476289Y-144318D01*
G37*
G36*
G01X591589Y-810876D02*
G01X596977Y-811030D01*
G01X602057Y-810876D01*
G01X604828Y-810568D01*
G01X607291Y-810260D01*
G01X608830Y-809798D01*
G01X610677Y-809336D01*
G01X612063Y-808874D01*
G01X613294Y-808413D01*
G01X614372Y-807951D01*
G01X615296Y-807489D01*
G01X616066Y-806873D01*
G01X616373Y-802717D01*
G01X616373Y-799023D01*
G01X615604Y-799176D01*
G01X614526Y-799638D01*
G01X613756Y-800100D01*
G01X612833Y-800562D01*
G01X611601Y-801024D01*
G01X610216Y-801486D01*
G01X608523Y-801947D01*
G01X606983Y-802255D01*
G01X605751Y-802563D01*
G01X604212Y-802871D01*
G01X602365Y-803025D01*
G01X597747Y-803487D01*
G01X596515Y-803487D01*
G01X594976Y-803333D01*
G01X591281Y-802871D01*
G01X589126Y-802255D01*
G01X587741Y-801793D01*
G01X586355Y-801177D01*
G01X584200Y-799946D01*
G01X582969Y-799176D01*
G01X581891Y-798407D01*
G01X581121Y-797791D01*
G01X578812Y-795482D01*
G01X576965Y-793019D01*
G01X576349Y-792095D01*
G01X575117Y-789632D01*
G01X574502Y-788247D01*
G01X573886Y-786707D01*
G01X572963Y-783321D01*
G01X572654Y-781781D01*
G01X572501Y-780396D01*
G01X572347Y-774700D01*
G01X572501Y-769004D01*
G01X572654Y-767773D01*
G01X572963Y-766387D01*
G01X573886Y-763001D01*
G01X574502Y-761461D01*
G01X575117Y-760076D01*
G01X576041Y-758229D01*
G01X576657Y-757151D01*
G01X577581Y-755766D01*
G01X578812Y-754226D01*
G01X581429Y-751609D01*
G01X582969Y-750377D01*
G01X585739Y-748530D01*
G01X586971Y-747914D01*
G01X588356Y-747299D01*
G01X589896Y-746683D01*
G01X591743Y-746221D01*
G01X593129Y-745913D01*
G01X594668Y-745606D01*
G01X596361Y-745451D01*
G01X597439Y-745297D01*
G01X599748Y-745144D01*
G01X602057Y-745297D01*
G01X605751Y-745606D01*
G01X608523Y-746221D01*
G01X609754Y-746529D01*
G01X610986Y-746991D01*
G01X612371Y-747453D01*
G01X613603Y-747914D01*
G01X614680Y-748530D01*
G01X615911Y-748992D01*
G01X616258Y-748030D01*
G01X616373Y-744836D01*
G01X616373Y-740526D01*
G01X615604Y-740217D01*
G01X613910Y-739602D01*
G01X612063Y-738986D01*
G01X610062Y-738524D01*
G01X608523Y-738216D01*
G01X606367Y-737909D01*
G01X601441Y-737601D01*
G01X598516Y-737447D01*
G01X595591Y-737601D01*
G01X592821Y-737909D01*
G01X590050Y-738524D01*
G01X588818Y-738832D01*
G01X586047Y-739756D01*
G01X584970Y-740217D01*
G01X584046Y-740679D01*
G01X582969Y-741141D01*
G01X581737Y-741757D01*
G01X580351Y-742527D01*
G01X578966Y-743450D01*
G01X577889Y-744220D01*
G01X577119Y-744836D01*
G01X576349Y-745606D01*
G01X574502Y-747145D01*
G01X572963Y-748684D01*
G01X572039Y-749916D01*
G01X570961Y-750993D01*
G01X570346Y-751763D01*
G01X569884Y-752687D01*
G01X568652Y-754534D01*
G01X568036Y-755766D01*
G01X567267Y-757151D01*
G01X566651Y-758536D01*
G01X565727Y-760691D01*
G01X565266Y-762077D01*
G01X564342Y-765464D01*
G01X564034Y-767003D01*
G01X563880Y-768389D01*
G01X563264Y-773314D01*
G01X563110Y-776239D01*
G01X563264Y-779164D01*
G01X563572Y-781011D01*
G01X563880Y-783783D01*
G01X564342Y-785937D01*
G01X564804Y-787785D01*
G01X565266Y-789324D01*
G01X566189Y-791787D01*
G01X567421Y-794250D01*
G01X568652Y-796406D01*
G01X569422Y-797637D01*
G01X570346Y-798714D01*
G01X571885Y-800562D01*
G01X573116Y-802101D01*
G01X574348Y-803025D01*
G01X575426Y-803949D01*
G01X576965Y-805180D01*
G01X577889Y-805796D01*
G01X579120Y-806566D01*
G01X580506Y-807335D01*
G01X581737Y-807951D01*
G01X583123Y-808567D01*
G01X584816Y-809183D01*
G01X586355Y-809644D01*
G01X587741Y-810106D01*
G01X589126Y-810414D01*
G01X590357Y-810568D01*
G01X591589Y-810876D01*
G37*
G36*
G01X630844Y-775008D02*
G01X630844Y-809798D01*
G01X668713Y-809798D01*
G01X668713Y-802717D01*
G01X667943Y-802563D01*
G01X653319Y-802409D01*
G01X639464Y-802409D01*
G01X639310Y-801639D01*
G01X639156Y-789324D01*
G01X639156Y-777779D01*
G01X639926Y-777625D01*
G01X652703Y-777471D01*
G01X664710Y-777471D01*
G01X664864Y-776701D01*
G01X665018Y-773007D01*
G01X665018Y-770082D01*
G01X663941Y-769928D01*
G01X651010Y-769774D01*
G01X639156Y-769774D01*
G01X639156Y-746683D01*
G01X639926Y-746529D01*
G01X653781Y-746375D01*
G01X666866Y-746375D01*
G01X667019Y-745297D01*
G01X667173Y-741603D01*
G01X667173Y-738986D01*
G01X666404Y-738832D01*
G01X648393Y-738678D01*
G01X631151Y-738678D01*
G01X630997Y-739448D01*
G01X630844Y-775008D01*
G37*
G36*
G01X238571Y753414D02*
G01X235881Y753911D01*
G01X235385Y755069D01*
G01X235054Y756393D01*
G01X234558Y757717D01*
G01X231579Y766653D01*
G01X231082Y767977D01*
G01X230586Y769466D01*
G01X229924Y771286D01*
G01X228600Y775258D01*
G01X227938Y777078D01*
G01X227442Y778733D01*
G01X225952Y783201D01*
G01X225456Y784525D01*
G01X223967Y788993D01*
G01X223470Y790317D01*
G01X222973Y791972D01*
G01X222311Y793627D01*
G01X221815Y795282D01*
G01X221319Y796771D01*
G01X220326Y799419D01*
G01X219829Y800908D01*
G01X219333Y802563D01*
G01X217347Y808521D01*
G01X216685Y810341D01*
G01X215361Y814313D01*
G01X214699Y815967D01*
G01X212217Y823414D01*
G01X211720Y825069D01*
G01X211059Y826724D01*
G01X210562Y828213D01*
G01X210397Y829206D01*
G01X212631Y829578D01*
G01X219333Y829702D01*
G01X228600Y829371D01*
G01X229262Y828213D01*
G01X229758Y826889D01*
G01X230089Y825400D01*
G01X231082Y822090D01*
G01X231579Y820601D01*
G01X233068Y815636D01*
G01X233564Y813816D01*
G01X234061Y812327D01*
G01X234558Y810506D01*
G01X235881Y806204D01*
G01X236378Y804714D01*
G01X236709Y803391D01*
G01X237205Y801901D01*
G01X237702Y800081D01*
G01X238198Y798426D01*
G01X238694Y796936D01*
G01X239191Y795116D01*
G01X239688Y793792D01*
G01X240019Y792303D01*
G01X240515Y790648D01*
G01X241011Y789159D01*
G01X241508Y787504D01*
G01X242004Y786180D01*
G01X242335Y784691D01*
G01X244817Y776417D01*
G01X246141Y771121D01*
G01X246472Y770294D01*
G01X246721Y770376D01*
G01X246803Y770956D01*
G01X247134Y772445D01*
G01X247631Y774265D01*
G01X248127Y776417D01*
G01X248624Y777906D01*
G01X248955Y779230D01*
G01X249451Y780719D01*
G01X250444Y784029D01*
G01X250941Y785849D01*
G01X251437Y787504D01*
G01X251933Y788993D01*
G01X252430Y790814D01*
G01X252926Y792138D01*
G01X253257Y793627D01*
G01X253754Y795116D01*
G01X256236Y803391D01*
G01X256733Y805211D01*
G01X257229Y806700D01*
G01X257725Y808521D01*
G01X258387Y810672D01*
G01X258884Y812327D01*
G01X259380Y813816D01*
G01X259877Y815636D01*
G01X260373Y817126D01*
G01X260869Y818946D01*
G01X262855Y825566D01*
G01X263352Y827386D01*
G01X263848Y828875D01*
G01X264014Y829702D01*
G01X281886Y829702D01*
G01X281721Y828875D01*
G01X281224Y827386D01*
G01X280728Y825731D01*
G01X280231Y824241D01*
G01X279735Y822918D01*
G01X278246Y818449D01*
G01X277749Y817126D01*
G01X277252Y815471D01*
G01X276591Y813816D01*
G01X276094Y812327D01*
G01X275598Y811003D01*
G01X273612Y805045D01*
G01X273116Y803722D01*
G01X272619Y802232D01*
G01X272122Y801074D01*
G01X271791Y799750D01*
G01X271295Y798426D01*
G01X269309Y792469D01*
G01X268813Y791144D01*
G01X268316Y789655D01*
G01X267820Y788331D01*
G01X267324Y786677D01*
G01X266661Y785022D01*
G01X266165Y783532D01*
G01X265669Y782208D01*
G01X264676Y779230D01*
G01X264179Y777906D01*
G01X263683Y776251D01*
G01X263021Y774265D01*
G01X262359Y772445D01*
G01X261863Y770956D01*
G01X261366Y769631D01*
G01X259380Y763674D01*
G01X258884Y762350D01*
G01X257394Y757882D01*
G01X256733Y756227D01*
G01X255739Y753248D01*
G01X245976Y753248D01*
G01X238571Y753414D01*
G37*
G36*
G01X-275301Y751594D02*
G01X-278611Y751759D01*
G01X-279935Y752090D01*
G01X-283245Y752421D01*
G01X-285562Y752752D01*
G01X-287051Y753083D01*
G01X-288706Y753579D01*
G01X-291684Y754573D01*
G01X-293008Y755069D01*
G01X-294167Y755565D01*
G01X-296484Y756724D01*
G01X-297807Y757551D01*
G01X-298800Y758213D01*
G01X-299628Y758875D01*
G01X-300786Y759703D01*
G01X-301945Y760695D01*
G01X-305585Y764336D01*
G01X-306247Y765164D01*
G01X-307075Y766322D01*
G01X-308067Y767811D01*
G01X-308895Y769135D01*
G01X-309557Y770294D01*
G01X-310550Y772610D01*
G01X-311211Y774100D01*
G01X-312370Y777575D01*
G01X-313032Y780553D01*
G01X-313197Y781712D01*
G01X-313363Y783201D01*
G01X-313694Y784525D01*
G01X-313859Y789159D01*
G01X-313694Y794123D01*
G01X-313363Y795447D01*
G01X-313032Y798426D01*
G01X-312867Y799584D01*
G01X-311873Y803556D01*
G01X-310881Y806535D01*
G01X-310384Y807693D01*
G01X-308564Y811334D01*
G01X-306909Y813982D01*
G01X-306247Y814974D01*
G01X-305585Y815802D01*
G01X-304758Y816960D01*
G01X-303765Y818119D01*
G01X-300124Y821759D01*
G01X-298800Y822752D01*
G01X-297973Y823414D01*
G01X-295656Y825069D01*
G01X-294498Y825731D01*
G01X-290526Y827717D01*
G01X-289202Y828213D01*
G01X-286223Y829206D01*
G01X-284237Y829702D01*
G01X-282583Y830199D01*
G01X-277287Y830861D01*
G01X-272984Y831027D01*
G01X-268682Y830861D01*
G01X-265372Y830530D01*
G01X-264048Y830365D01*
G01X-262393Y830199D01*
G01X-261070Y829868D01*
G01X-257760Y829206D01*
G01X-256601Y828875D01*
G01X-254947Y828379D01*
G01X-253954Y828048D01*
G01X-253954Y820105D01*
G01X-254078Y814106D01*
G01X-254450Y811996D01*
G01X-255278Y812161D01*
G01X-258587Y813816D01*
G01X-260408Y814478D01*
G01X-261732Y814974D01*
G01X-263056Y815140D01*
G01X-264545Y815471D01*
G01X-266200Y815802D01*
G01X-267689Y815967D01*
G01X-270999Y816133D01*
G01X-274309Y815967D01*
G01X-276956Y815636D01*
G01X-278280Y815305D01*
G01X-280101Y814809D01*
G01X-281755Y814147D01*
G01X-283245Y813485D01*
G01X-284900Y812658D01*
G01X-286058Y811830D01*
G01X-287051Y811168D01*
G01X-288044Y810341D01*
G01X-289698Y808686D01*
G01X-291023Y807031D01*
G01X-292677Y804383D01*
G01X-293174Y803225D01*
G01X-293670Y801901D01*
G01X-294332Y800081D01*
G01X-295159Y796771D01*
G01X-295490Y793792D01*
G01X-295656Y791641D01*
G01X-295490Y789490D01*
G01X-295159Y786180D01*
G01X-294828Y784856D01*
G01X-294498Y783201D01*
G01X-294167Y781878D01*
G01X-293836Y780719D01*
G01X-293339Y779561D01*
G01X-292677Y778237D01*
G01X-291850Y776747D01*
G01X-291188Y775589D01*
G01X-290526Y774761D01*
G01X-289698Y773934D01*
G01X-288871Y772941D01*
G01X-288044Y772279D01*
G01X-287382Y771617D01*
G01X-286223Y770625D01*
G01X-284568Y769631D01*
G01X-282914Y768804D01*
G01X-281259Y768142D01*
G01X-279935Y767646D01*
G01X-276625Y766984D01*
G01X-272819Y766818D01*
G01X-269013Y766984D01*
G01X-265041Y767646D01*
G01X-263883Y767811D01*
G01X-262559Y768142D01*
G01X-259580Y769135D01*
G01X-257926Y769797D01*
G01X-256105Y770625D01*
G01X-254616Y771286D01*
G01X-253954Y771452D01*
G01X-253954Y764005D01*
G01X-254285Y756062D01*
G01X-255278Y755400D01*
G01X-257595Y754407D01*
G01X-259249Y753911D01*
G01X-260739Y753414D01*
G01X-261897Y753248D01*
G01X-264545Y752587D01*
G01X-265703Y752421D01*
G01X-272323Y751759D01*
G01X-275301Y751594D01*
G37*
G36*
G01X-240715Y791475D02*
G01X-240715Y806369D01*
G01X-223505Y806369D01*
G01X-223339Y795778D01*
G01X-218374Y795613D01*
G01X-212583Y795944D01*
G01X-210597Y796605D01*
G01X-208942Y797433D01*
G01X-207783Y798261D01*
G01X-206460Y799584D01*
G01X-205467Y800743D01*
G01X-204639Y802232D01*
G01X-204143Y804218D01*
G01X-203812Y806038D01*
G01X-203812Y807197D01*
G01X-204143Y809017D01*
G01X-204639Y811168D01*
G01X-205301Y812492D01*
G01X-205798Y813319D01*
G01X-206460Y814147D01*
G01X-207287Y814809D01*
G01X-208611Y815471D01*
G01X-210266Y816133D01*
G01X-211755Y816464D01*
G01X-213079Y816629D01*
G01X-218540Y816795D01*
G01X-223505Y816795D01*
G01X-223505Y806369D01*
G01X-223505Y806369D01*
G01X-240715Y806369D01*
G01X-240715Y829702D01*
G01X-224994Y829702D01*
G01X-208777Y829537D01*
G01X-205467Y829206D01*
G01X-203977Y828875D01*
G01X-202157Y828544D01*
G01X-199509Y827882D01*
G01X-198020Y827386D01*
G01X-196530Y826724D01*
G01X-195207Y826062D01*
G01X-193883Y825235D01*
G01X-191566Y823580D01*
G01X-190408Y822587D01*
G01X-188422Y820105D01*
G01X-187760Y818946D01*
G01X-187098Y817622D01*
G01X-186602Y816133D01*
G01X-186105Y814478D01*
G01X-185774Y812161D01*
G01X-185608Y810010D01*
G01X-185608Y809183D01*
G01X-185774Y806866D01*
G01X-186105Y804218D01*
G01X-186602Y802563D01*
G01X-187098Y801074D01*
G01X-187594Y799915D01*
G01X-188256Y798426D01*
G01X-190242Y795447D01*
G01X-191235Y794289D01*
G01X-192063Y793461D01*
G01X-193221Y792469D01*
G01X-194379Y791641D01*
G01X-196365Y790317D01*
G01X-197524Y789655D01*
G01X-198847Y788993D01*
G01X-200171Y788497D01*
G01X-201661Y787835D01*
G01X-202074Y787421D01*
G01X-201991Y787173D01*
G01X-201164Y786677D01*
G01X-200171Y786180D01*
G01X-199344Y785518D01*
G01X-198186Y784525D01*
G01X-196696Y783201D01*
G01X-195869Y782043D01*
G01X-194379Y780553D01*
G01X-193717Y779726D01*
G01X-191235Y776251D01*
G01X-190242Y774596D01*
G01X-188256Y771617D01*
G01X-187429Y770294D01*
G01X-186767Y769135D01*
G01X-186105Y768142D01*
G01X-185278Y766984D01*
G01X-184285Y765329D01*
G01X-183457Y764005D01*
G01X-182133Y762019D01*
G01X-181472Y760861D01*
G01X-180644Y759537D01*
G01X-179651Y758048D01*
G01X-178824Y756724D01*
G01X-177500Y754738D01*
G01X-177003Y753745D01*
G01X-179279Y753373D01*
G01X-186436Y753248D01*
G01X-193800Y753414D01*
G01X-196696Y753911D01*
G01X-197689Y755234D01*
G01X-198351Y756227D01*
G01X-199675Y758544D01*
G01X-200337Y759537D01*
G01X-201164Y761026D01*
G01X-201991Y762185D01*
G01X-202653Y763343D01*
G01X-203481Y764833D01*
G01X-204308Y766156D01*
G01X-205136Y767646D01*
G01X-207122Y770956D01*
G01X-208114Y772445D01*
G01X-208942Y773769D01*
G01X-209769Y775258D01*
G01X-210597Y776417D01*
G01X-211093Y777244D01*
G01X-212417Y778899D01*
G01X-213410Y780057D01*
G01X-215065Y781216D01*
G01X-216554Y782043D01*
G01X-220360Y782374D01*
G01X-223505Y782374D01*
G01X-223505Y753248D01*
G01X-240715Y753248D01*
G01X-240715Y791475D01*
G37*
G36*
G01X-153008Y751594D02*
G01X-156318Y751759D01*
G01X-157476Y752090D01*
G01X-160455Y752421D01*
G01X-161613Y752587D01*
G01X-163268Y752917D01*
G01X-165089Y753414D01*
G01X-166743Y753911D01*
G01X-168067Y754407D01*
G01X-169225Y754738D01*
G01X-169722Y756434D01*
G01X-169887Y761192D01*
G01X-169722Y767977D01*
G01X-169391Y768266D01*
G01X-168729Y768142D01*
G01X-167571Y767480D01*
G01X-166578Y766984D01*
G01X-165254Y766487D01*
G01X-163764Y765991D01*
G01X-162441Y765660D01*
G01X-158469Y764998D01*
G01X-155490Y764833D01*
G01X-152512Y764998D01*
G01X-151188Y765329D01*
G01X-149533Y765660D01*
G01X-147878Y766156D01*
G01X-146389Y766818D01*
G01X-145230Y767480D01*
G01X-144403Y768142D01*
G01X-143576Y768639D01*
G01X-142417Y769631D01*
G01X-141424Y770956D01*
G01X-140762Y771783D01*
G01X-139769Y773438D01*
G01X-139273Y774431D01*
G01X-138280Y776747D01*
G01X-137784Y778568D01*
G01X-137287Y780222D01*
G01X-136956Y782539D01*
G01X-136790Y785022D01*
G01X-137121Y787173D01*
G01X-137784Y786677D01*
G01X-138611Y785683D01*
G01X-139438Y784856D01*
G01X-140597Y783863D01*
G01X-141920Y783036D01*
G01X-142914Y782374D01*
G01X-144237Y781712D01*
G01X-146223Y781050D01*
G01X-147878Y780553D01*
G01X-151850Y780388D01*
G01X-156483Y780719D01*
G01X-158138Y781216D01*
G01X-159297Y781547D01*
G01X-160620Y782043D01*
G01X-162110Y782705D01*
G01X-163764Y783698D01*
G01X-165089Y784525D01*
G01X-165916Y785187D01*
G01X-166743Y786014D01*
G01X-167571Y786677D01*
G01X-168233Y787339D01*
G01X-168895Y788166D01*
G01X-169887Y789490D01*
G01X-170715Y790814D01*
G01X-171211Y791641D01*
G01X-171873Y792965D01*
G01X-172535Y794454D01*
G01X-173032Y796109D01*
G01X-173528Y797930D01*
G01X-173859Y800081D01*
G01X-174025Y802066D01*
G01X-174190Y803556D01*
G01X-174025Y805045D01*
G01X-173859Y807031D01*
G01X-157476Y807031D01*
G01X-157476Y805045D01*
G01X-157311Y803391D01*
G01X-156980Y801239D01*
G01X-156483Y799750D01*
G01X-155987Y798426D01*
G01X-155159Y796936D01*
G01X-154332Y795778D01*
G01X-153504Y794951D01*
G01X-152512Y794289D01*
G01X-151353Y793792D01*
G01X-151353Y793792D01*
G01X-150526Y793461D01*
G01X-148209Y793296D01*
G01X-144899Y793461D01*
G01X-143245Y793958D01*
G01X-142086Y794454D01*
G01X-141093Y795116D01*
G01X-140266Y795944D01*
G01X-139273Y797102D01*
G01X-138445Y798426D01*
G01X-137949Y799915D01*
G01X-137618Y801405D01*
G01X-137453Y803391D01*
G01X-137618Y806369D01*
G01X-137949Y808686D01*
G01X-138280Y810010D01*
G01X-138776Y811334D01*
G01X-139438Y812823D01*
G01X-140266Y814313D01*
G01X-141590Y815802D01*
G01X-143079Y816795D01*
G01X-144237Y817457D01*
G01X-145892Y817953D01*
G01X-148209Y817953D01*
G01X-149864Y817622D01*
G01X-151188Y817126D01*
G01X-152677Y816298D01*
G01X-153836Y815471D01*
G01X-154828Y814313D01*
G01X-155656Y813154D01*
G01X-156318Y811830D01*
G01X-156814Y810341D01*
G01X-157145Y809183D01*
G01X-157476Y807031D01*
G01X-173859Y807031D01*
G01X-173694Y809348D01*
G01X-173197Y811334D01*
G01X-172701Y812988D01*
G01X-172370Y814147D01*
G01X-171873Y815471D01*
G01X-171377Y816629D01*
G01X-170881Y817457D01*
G01X-169556Y819774D01*
G01X-168895Y820766D01*
G01X-168067Y821759D01*
G01X-164923Y824904D01*
G01X-163268Y826227D01*
G01X-162110Y827055D01*
G01X-160951Y827717D01*
G01X-159959Y828213D01*
G01X-158800Y828710D01*
G01X-157311Y829371D01*
G01X-155821Y829868D01*
G01X-152842Y830530D01*
G01X-150195Y830861D01*
G01X-148043Y831027D01*
G01X-145230Y830861D01*
G01X-142582Y830530D01*
G01X-140597Y830199D01*
G01X-139438Y829868D01*
G01X-138115Y829371D01*
G01X-135136Y828048D01*
G01X-133646Y827220D01*
G01X-132488Y826393D01*
G01X-131495Y825731D01*
G01X-130502Y824904D01*
G01X-128516Y822918D01*
G01X-127523Y821759D01*
G01X-125868Y819277D01*
G01X-124876Y817622D01*
G01X-124214Y816298D01*
G01X-123717Y815140D01*
G01X-123221Y813816D01*
G01X-121732Y809348D01*
G01X-121401Y808024D01*
G01X-120738Y804714D01*
G01X-120407Y800743D01*
G01X-120242Y795447D01*
G01X-120407Y790152D01*
G01X-120738Y785849D01*
G01X-121401Y781878D01*
G01X-121566Y780553D01*
G01X-121897Y779064D01*
G01X-122393Y777244D01*
G01X-122890Y775589D01*
G01X-123883Y772610D01*
G01X-124545Y771286D01*
G01X-125207Y769631D01*
G01X-126034Y767977D01*
G01X-127689Y765329D01*
G01X-128516Y764170D01*
G01X-129178Y763178D01*
G01X-130006Y762185D01*
G01X-131992Y759868D01*
G01X-133646Y758544D01*
G01X-136294Y756558D01*
G01X-137453Y755896D01*
G01X-138942Y755069D01*
G01X-140762Y754242D01*
G01X-142251Y753579D01*
G01X-143410Y753248D01*
G01X-144734Y752917D01*
G01X-146554Y752421D01*
G01X-148540Y752090D01*
G01X-149864Y751759D01*
G01X-153008Y751594D01*
G37*
G36*
G01X-110975Y753248D02*
G01X-110975Y757220D01*
G01X-110810Y761688D01*
G01X-110479Y764667D01*
G01X-109485Y767977D01*
G01X-108989Y769300D01*
G01X-107665Y771948D01*
G01X-107003Y773438D01*
G01X-105018Y776417D01*
G01X-104190Y777575D01*
G01X-103197Y778733D01*
G01X-101542Y780719D01*
G01X-100715Y781547D01*
G01X-98398Y783532D01*
G01X-97240Y784691D01*
G01X-95585Y786014D01*
G01X-91613Y788993D01*
G01X-89296Y790648D01*
G01X-88469Y791310D01*
G01X-87641Y791806D01*
G01X-86814Y792469D01*
G01X-84828Y794123D01*
G01X-81188Y797764D01*
G01X-80195Y799088D01*
G01X-79533Y799915D01*
G01X-78871Y801074D01*
G01X-78209Y802397D01*
G01X-77713Y803887D01*
G01X-77382Y806038D01*
G01X-77382Y807693D01*
G01X-77547Y809348D01*
G01X-77878Y811499D01*
G01X-78540Y812988D01*
G01X-79036Y813982D01*
G01X-79698Y814809D01*
G01X-80526Y815471D01*
G01X-81353Y815967D01*
G01X-82346Y816464D01*
G01X-83670Y816960D01*
G01X-84994Y817291D01*
G01X-87972Y817457D01*
G01X-90951Y817291D01*
G01X-92275Y817126D01*
G01X-93765Y816795D01*
G01X-95585Y816298D01*
G01X-97240Y815802D01*
G01X-98729Y815140D01*
G01X-100549Y814313D01*
G01X-102204Y813319D01*
G01X-103693Y812327D01*
G01X-104852Y811665D01*
G01X-105679Y811003D01*
G01X-106672Y810175D01*
G01X-107334Y809844D01*
G01X-107334Y816960D01*
G01X-107210Y822421D01*
G01X-106838Y824572D01*
G01X-105514Y825566D01*
G01X-104190Y826393D01*
G01X-101542Y827717D01*
G01X-97571Y829206D01*
G01X-93599Y830199D01*
G01X-91613Y830530D01*
G01X-89958Y830861D01*
G01X-85325Y831027D01*
G01X-80691Y830861D01*
G01X-77713Y830199D01*
G01X-76554Y830033D01*
G01X-75396Y829702D01*
G01X-73906Y829206D01*
G01X-72583Y828710D01*
G01X-70597Y827717D01*
G01X-68280Y826393D01*
G01X-67452Y825896D01*
G01X-66625Y825235D01*
G01X-64970Y823580D01*
G01X-63977Y822256D01*
G01X-62322Y819774D01*
G01X-61826Y818780D01*
G01X-61330Y817622D01*
G01X-60833Y816298D01*
G01X-60502Y814974D01*
G01X-60171Y812658D01*
G01X-60005Y809513D01*
G01X-60171Y806038D01*
G01X-60502Y804052D01*
G01X-60833Y802397D01*
G01X-61330Y800908D01*
G01X-61991Y799088D01*
G01X-63315Y796440D01*
G01X-63977Y795282D01*
G01X-64805Y794123D01*
G01X-65963Y792469D01*
G01X-66956Y791144D01*
G01X-71424Y786677D01*
G01X-72748Y785683D01*
G01X-75230Y783698D01*
G01X-76388Y782870D01*
G01X-77878Y781878D01*
G01X-79036Y781050D01*
G01X-80360Y780057D01*
G01X-82015Y778899D01*
G01X-83174Y778071D01*
G01X-84828Y776747D01*
G01X-85821Y776086D01*
G01X-86814Y775258D01*
G01X-87641Y774596D01*
G01X-88800Y773603D01*
G01X-89793Y772279D01*
G01X-90620Y771452D01*
G01X-91448Y770294D01*
G01X-92110Y769135D01*
G01X-92441Y767977D01*
G01X-92441Y767149D01*
G01X-77050Y767149D01*
G01X-60833Y766984D01*
G01X-60005Y766818D01*
G01X-60005Y753248D01*
G01X-110975Y753248D01*
G37*
G36*
G01X-22109Y751594D02*
G01X-24923Y751925D01*
G01X-26247Y752256D01*
G01X-27405Y752421D01*
G01X-29060Y752752D01*
G01X-30880Y753248D01*
G01X-32535Y753911D01*
G01X-34356Y754738D01*
G01X-36010Y755731D01*
G01X-37169Y756558D01*
G01X-37996Y757055D01*
G01X-38823Y757717D01*
G01X-40478Y759372D01*
G01X-41140Y760199D01*
G01X-41968Y761357D01*
G01X-42961Y762847D01*
G01X-43622Y764005D01*
G01X-45443Y767646D01*
G01X-46932Y772114D01*
G01X-47925Y776582D01*
G01X-48091Y777740D01*
G01X-48256Y779230D01*
G01X-48587Y780553D01*
G01X-48753Y789490D01*
G01X-48720Y791310D01*
G01X-31542Y791310D01*
G01X-31377Y783201D01*
G01X-31046Y779892D01*
G01X-30384Y776582D01*
G01X-30218Y775423D01*
G01X-29887Y774100D01*
G01X-29391Y772610D01*
G01X-28895Y771286D01*
G01X-28233Y769962D01*
G01X-27405Y768473D01*
G01X-26578Y767315D01*
G01X-25750Y766487D01*
G01X-24757Y765825D01*
G01X-23434Y765329D01*
G01X-23434Y765329D01*
G01X-22440Y764998D01*
G01X-21282Y764833D01*
G01X-19462Y764998D01*
G01X-18138Y765495D01*
G01X-16814Y766156D01*
G01X-15656Y766984D01*
G01X-14994Y767811D01*
G01X-14332Y768970D01*
G01X-13670Y770294D01*
G01X-13008Y771948D01*
G01X-12346Y773769D01*
G01X-11850Y775920D01*
G01X-11518Y778237D01*
G01X-11187Y779561D01*
G01X-10856Y783532D01*
G01X-10691Y791144D01*
G01X-10856Y798757D01*
G01X-11187Y802397D01*
G01X-11518Y804052D01*
G01X-12181Y808024D01*
G01X-12677Y809844D01*
G01X-13173Y811334D01*
G01X-13835Y812988D01*
G01X-14828Y814644D01*
G01X-15656Y815802D01*
G01X-16317Y816464D01*
G01X-17311Y817126D01*
G01X-18634Y817788D01*
G01X-19958Y818119D01*
G01X-21448Y817953D01*
G01X-22772Y817622D01*
G01X-24095Y817126D01*
G01X-25254Y816464D01*
G01X-26081Y815802D01*
G01X-26909Y814974D01*
G01X-27736Y813816D01*
G01X-28564Y812327D01*
G01X-29225Y810837D01*
G01X-29556Y809513D01*
G01X-29887Y808355D01*
G01X-30384Y806535D01*
G01X-30715Y804383D01*
G01X-31046Y803060D01*
G01X-31377Y799419D01*
G01X-31542Y791310D01*
G01X-48720Y791310D01*
G01X-48587Y798757D01*
G01X-48256Y800081D01*
G01X-47760Y804052D01*
G01X-47429Y805873D01*
G01X-46932Y807693D01*
G01X-46270Y810341D01*
G01X-45774Y811830D01*
G01X-44781Y814478D01*
G01X-44284Y815636D01*
G01X-43622Y816960D01*
G01X-42630Y818615D01*
G01X-41802Y819939D01*
G01X-41140Y820932D01*
G01X-39817Y822587D01*
G01X-37003Y825400D01*
G01X-35679Y826393D01*
G01X-34521Y827220D01*
G01X-33031Y828048D01*
G01X-31708Y828710D01*
G01X-30218Y829371D01*
G01X-28729Y829868D01*
G01X-26081Y830530D01*
G01X-23434Y830861D01*
G01X-20455Y831027D01*
G01X-17476Y830861D01*
G01X-13504Y830199D01*
G01X-12015Y829868D01*
G01X-10360Y829371D01*
G01X-9202Y828875D01*
G01X-7878Y828213D01*
G01X-6554Y827386D01*
G01X-5395Y826724D01*
G01X-4403Y825896D01*
G01X-762Y822256D01*
G01X396Y820601D01*
G01X1224Y819111D01*
G01X1886Y817953D01*
G01X2548Y816629D01*
G01X3210Y815140D01*
G01X4202Y812161D01*
G01X4699Y810506D01*
G01X5196Y808355D01*
G01X5692Y805707D01*
G01X6023Y803722D01*
G01X6354Y801405D01*
G01X6519Y793296D01*
G01X6354Y784194D01*
G01X6023Y781547D01*
G01X5361Y777575D01*
G01X5030Y775920D01*
G01X4699Y774431D01*
G01X4202Y772776D01*
G01X3210Y769797D01*
G01X2713Y768473D01*
G01X2217Y767315D01*
G01X1555Y765991D01*
G01X727Y764501D01*
G01X-100Y763178D01*
G01X-1424Y761192D01*
G01X-2251Y760199D01*
G01X-5561Y756889D01*
G01X-6554Y756227D01*
G01X-7712Y755565D01*
G01X-8705Y754903D01*
G01X-9698Y754407D01*
G01X-12015Y753414D01*
G01X-13339Y752917D01*
G01X-15325Y752421D01*
G01X-17807Y752090D01*
G01X-19462Y751759D01*
G01X-22109Y751594D01*
G37*
G36*
G01X17772Y782374D02*
G01X17772Y788331D01*
G01X46898Y788331D01*
G01X46898Y776417D01*
G01X17772Y776417D01*
G01X17772Y782374D01*
G37*
G36*
G01X80160Y751594D02*
G01X77181Y751759D01*
G01X76189Y751925D01*
G01X74864Y752090D01*
G01X71886Y752421D01*
G01X70728Y752587D01*
G01X69073Y752917D01*
G01X67583Y753414D01*
G01X66094Y753745D01*
G01X64439Y754242D01*
G01X62950Y754903D01*
G01X60467Y755896D01*
G01X60467Y762847D01*
G01X60798Y769962D01*
G01X61626Y769797D01*
G01X62784Y769135D01*
G01X64108Y768308D01*
G01X65598Y767480D01*
G01X67418Y766818D01*
G01X68907Y766322D01*
G01X71224Y765660D01*
G01X72382Y765495D01*
G01X73706Y765164D01*
G01X77016Y764833D01*
G01X80491Y764998D01*
G01X81815Y765329D01*
G01X83304Y765495D01*
G01X84959Y765825D01*
G01X86448Y766487D01*
G01X87772Y767149D01*
G01X88765Y767811D01*
G01X90420Y769466D01*
G01X91247Y770625D01*
G01X91744Y771948D01*
G01X91909Y774927D01*
G01X91578Y778402D01*
G01X90751Y780222D01*
G01X89593Y781712D01*
G01X88434Y782705D01*
G01X87442Y783367D01*
G01X86117Y784029D01*
G01X84794Y784525D01*
G01X82477Y785187D01*
G01X80160Y785518D01*
G01X76850Y785849D01*
G01X72382Y786014D01*
G01X68411Y786014D01*
G01X68411Y798922D01*
G01X72217Y798922D01*
G01X76520Y799088D01*
G01X78174Y799253D01*
G01X80160Y799419D01*
G01X82146Y799750D01*
G01X83801Y800246D01*
G01X85125Y800908D01*
G01X86614Y801736D01*
G01X87772Y802563D01*
G01X88600Y803722D01*
G01X89262Y805045D01*
G01X89593Y806204D01*
G01X89758Y807362D01*
G01X89924Y808686D01*
G01X89758Y810010D01*
G01X89427Y811665D01*
G01X88931Y813154D01*
G01X88269Y814313D01*
G01X87442Y815471D01*
G01X86283Y816298D01*
G01X84959Y816960D01*
G01X83304Y817457D01*
G01X81815Y817953D01*
G01X79664Y818119D01*
G01X77512Y817953D01*
G01X75692Y817788D01*
G01X73706Y817457D01*
G01X71059Y816795D01*
G01X67749Y815471D01*
G01X66425Y814809D01*
G01X64108Y813485D01*
G01X63446Y813154D01*
G01X63446Y819608D01*
G01X63777Y826724D01*
G01X64232Y827262D01*
G01X64936Y827551D01*
G01X67252Y828544D01*
G01X68576Y829041D01*
G01X72217Y830033D01*
G01X73706Y830365D01*
G01X75195Y830530D01*
G01X79167Y830861D01*
G01X81650Y831027D01*
G01X84132Y830861D01*
G01X87772Y830530D01*
G01X88931Y830365D01*
G01X90420Y830199D01*
G01X92241Y829702D01*
G01X93730Y829206D01*
G01X94888Y828875D01*
G01X96212Y828379D01*
G01X97536Y827717D01*
G01X99025Y826724D01*
G01X100349Y825731D01*
G01X102004Y824407D01*
G01X102831Y823580D01*
G01X104817Y820932D01*
G01X105479Y819608D01*
G01X106141Y818119D01*
G01X106638Y816629D01*
G01X106969Y815305D01*
G01X107134Y812327D01*
G01X106969Y809017D01*
G01X106638Y807693D01*
G01X106307Y806204D01*
G01X105810Y804549D01*
G01X105314Y803225D01*
G01X104486Y801736D01*
G01X103494Y800246D01*
G01X102666Y799253D01*
G01X101011Y797599D01*
G01X100184Y796936D01*
G01X99025Y796109D01*
G01X97702Y795282D01*
G01X95385Y794289D01*
G01X94061Y793792D01*
G01X93068Y793130D01*
G01X93316Y792717D01*
G01X94392Y792469D01*
G01X96378Y791972D01*
G01X97702Y791475D01*
G01X99191Y790979D01*
G01X100680Y790152D01*
G01X101839Y789324D01*
G01X104321Y787339D01*
G01X105148Y786511D01*
G01X106141Y785187D01*
G01X107134Y783698D01*
G01X107796Y782539D01*
G01X108292Y781381D01*
G01X108789Y780057D01*
G01X109120Y778402D01*
G01X109286Y776913D01*
G01X109451Y774927D01*
G01X109286Y772941D01*
G01X109120Y771286D01*
G01X108789Y769466D01*
G01X108292Y767811D01*
G01X107796Y766322D01*
G01X107134Y764998D01*
G01X106307Y763509D01*
G01X105479Y762185D01*
G01X104652Y761192D01*
G01X103990Y760364D01*
G01X103163Y759537D01*
G01X102169Y758709D01*
G01X101342Y757882D01*
G01X100515Y757220D01*
G01X99522Y756558D01*
G01X98033Y755731D01*
G01X96378Y754903D01*
G01X94888Y754242D01*
G01X93068Y753579D01*
G01X91413Y753083D01*
G01X88765Y752421D01*
G01X87607Y752256D01*
G01X85456Y752090D01*
G01X83470Y751759D01*
G01X80160Y751594D01*
G37*
G36*
G01X131957Y751925D02*
G01X128813Y752256D01*
G01X127489Y752917D01*
G01X126330Y753414D01*
G01X125338Y754076D01*
G01X124510Y754903D01*
G01X123683Y755896D01*
G01X123021Y756889D01*
G01X122524Y758213D01*
G01X122193Y759703D01*
G01X122193Y760861D01*
G01X122524Y762681D01*
G01X123186Y764667D01*
G01X124013Y765825D01*
G01X124675Y766653D01*
G01X125834Y767646D01*
G01X127158Y768473D01*
G01X128482Y768970D01*
G01X129805Y769300D01*
G01X131460Y769466D01*
G01X133446Y769300D01*
G01X135101Y768970D01*
G01X136756Y768473D01*
G01X137914Y767811D01*
G01X138907Y767149D01*
G01X139735Y766322D01*
G01X140396Y765495D01*
G01X141058Y764501D01*
G01X141555Y763178D01*
G01X141886Y760861D01*
G01X141555Y758213D01*
G01X140893Y756724D01*
G01X140066Y755400D01*
G01X139073Y754242D01*
G01X137914Y753414D01*
G01X136260Y752587D01*
G01X134770Y752090D01*
G01X131957Y751925D01*
G37*
G36*
G01X177134Y751594D02*
G01X174818Y751759D01*
G01X173659Y752090D01*
G01X171839Y752421D01*
G01X169191Y753083D01*
G01X167536Y753579D01*
G01X166047Y754242D01*
G01X164723Y754903D01*
G01X163399Y755731D01*
G01X161910Y756724D01*
G01X160751Y757717D01*
G01X158765Y759703D01*
G01X157441Y761357D01*
G01X156449Y762847D01*
G01X155787Y764005D01*
G01X154794Y765991D01*
G01X153801Y768308D01*
G01X153139Y769962D01*
G01X152643Y771617D01*
G01X151980Y774265D01*
G01X151815Y775423D01*
G01X151484Y776747D01*
G01X151153Y778568D01*
G01X150988Y780222D01*
G01X150657Y784856D01*
G01X150491Y789821D01*
G01X150541Y791310D01*
G01X167701Y791310D01*
G01X167867Y786511D01*
G01X168198Y782539D01*
G01X168529Y778899D01*
G01X168695Y777575D01*
G01X169357Y774927D01*
G01X169687Y773438D01*
G01X170680Y770790D01*
G01X171342Y769466D01*
G01X172666Y767480D01*
G01X173493Y766487D01*
G01X174487Y765825D01*
G01X175810Y765329D01*
G01X175810Y765329D01*
G01X176803Y764998D01*
G01X178458Y764833D01*
G01X180609Y765164D01*
G01X181933Y765660D01*
G01X182926Y766322D01*
G01X183754Y767149D01*
G01X184581Y768142D01*
G01X185243Y769300D01*
G01X185905Y770625D01*
G01X186567Y772114D01*
G01X187560Y776086D01*
G01X187891Y777575D01*
G01X188056Y778899D01*
G01X188387Y783201D01*
G01X188718Y786180D01*
G01X188884Y791144D01*
G01X188718Y796109D01*
G01X188387Y799088D01*
G01X188056Y803060D01*
G01X187891Y804714D01*
G01X187560Y806535D01*
G01X186567Y810506D01*
G01X185243Y813485D01*
G01X184415Y814809D01*
G01X183588Y815967D01*
G01X182595Y816795D01*
G01X181602Y817457D01*
G01X180279Y817953D01*
G01X177796Y817953D01*
G01X175810Y817457D01*
G01X174487Y816795D01*
G01X172997Y815636D01*
G01X172004Y814313D01*
G01X171342Y813319D01*
G01X170680Y811830D01*
G01X170018Y810175D01*
G01X169522Y808521D01*
G01X168529Y804052D01*
G01X168198Y800412D01*
G01X167867Y796109D01*
G01X167701Y791310D01*
G01X150541Y791310D01*
G01X150657Y794785D01*
G01X150988Y799088D01*
G01X151153Y800577D01*
G01X151318Y802397D01*
G01X151649Y803722D01*
G01X152312Y807362D01*
G01X153304Y810672D01*
G01X153635Y811830D01*
G01X154628Y814478D01*
G01X155125Y815636D01*
G01X156118Y817622D01*
G01X156779Y818615D01*
G01X157607Y819939D01*
G01X158435Y821097D01*
G01X159427Y822256D01*
G01X160420Y823580D01*
G01X161579Y824738D01*
G01X163234Y826062D01*
G01X164723Y827055D01*
G01X167701Y828710D01*
G01X170349Y829702D01*
G01X171839Y830199D01*
G01X173162Y830530D01*
G01X175810Y830861D01*
G01X178458Y831027D01*
G01X181768Y830861D01*
G01X184084Y830530D01*
G01X186070Y830199D01*
G01X187891Y829702D01*
G01X189711Y829041D01*
G01X191201Y828379D01*
G01X192690Y827551D01*
G01X194179Y826558D01*
G01X195337Y825731D01*
G01X197820Y823249D01*
G01X198482Y822421D01*
G01X199309Y821263D01*
G01X200302Y819774D01*
G01X201129Y818284D01*
G01X201792Y816960D01*
G01X202288Y815802D01*
G01X202784Y814478D01*
G01X203777Y811499D01*
G01X204274Y809844D01*
G01X204605Y808355D01*
G01X205267Y805045D01*
G01X205598Y801736D01*
G01X205928Y798095D01*
G01X206094Y792634D01*
G01X205928Y787173D01*
G01X205598Y783532D01*
G01X205432Y782043D01*
G01X205267Y780222D01*
G01X204936Y778568D01*
G01X204605Y777244D01*
G01X204439Y775920D01*
G01X204108Y774431D01*
G01X203612Y772776D01*
G01X203115Y771286D01*
G01X202123Y768639D01*
G01X201461Y767315D01*
G01X200798Y765825D01*
G01X199971Y764336D01*
G01X199144Y763012D01*
G01X198647Y762019D01*
G01X196662Y759537D01*
G01X194676Y757551D01*
G01X193352Y756558D01*
G01X192524Y755896D01*
G01X191366Y755234D01*
G01X188056Y753579D01*
G01X186732Y753083D01*
G01X185574Y752752D01*
G01X184084Y752421D01*
G01X181768Y752090D01*
G01X179782Y751759D01*
G01X177134Y751594D01*
G37*
G36*
G01X-781704Y612217D02*
G01X-781704Y593129D01*
G01X-761384Y593129D01*
G01X-761384Y631306D01*
G01X-723207Y631306D01*
G01X-723207Y651626D01*
G01X-761384Y651626D01*
G01X-761384Y689803D01*
G01X-781704Y689803D01*
G01X-781704Y651626D01*
G01X-819881Y651626D01*
G01X-819881Y631306D01*
G01X-781704Y631306D01*
G01X-781704Y612217D01*
G37*
G36*
G01X-809336Y483754D02*
G01X-809336Y467129D01*
G01X-728056Y467129D01*
G01X-728056Y500380D01*
G01X-809336Y500380D01*
G01X-809336Y483754D01*
G37*
G36*
G01X499464Y-891540D02*
G01X248920Y-891540D01*
G01X248920Y-828821D01*
G01X252561Y-828821D01*
G01X252726Y-833455D01*
G01X253057Y-834779D01*
G01X253223Y-836268D01*
G01X253388Y-837427D01*
G01X254050Y-840405D01*
G01X255209Y-843880D01*
G01X255870Y-845370D01*
G01X256863Y-847686D01*
G01X257525Y-848845D01*
G01X258353Y-850169D01*
G01X259345Y-851658D01*
G01X260173Y-852816D01*
G01X260835Y-853644D01*
G01X264475Y-857285D01*
G01X265634Y-858277D01*
G01X266792Y-859105D01*
G01X267620Y-859767D01*
G01X268613Y-860429D01*
G01X269936Y-861256D01*
G01X272253Y-862415D01*
G01X273412Y-862911D01*
G01X274736Y-863407D01*
G01X277714Y-864401D01*
G01X279369Y-864897D01*
G01X280858Y-865228D01*
G01X283175Y-865559D01*
G01X286485Y-865890D01*
G01X286485Y-865890D01*
G01X287809Y-866221D01*
G01X291119Y-866386D01*
G01X294097Y-866221D01*
G01X300717Y-865559D01*
G01X301875Y-865393D01*
G01X304523Y-864732D01*
G01X305681Y-864566D01*
G01X307171Y-864069D01*
G01X308825Y-863573D01*
G01X311142Y-862580D01*
G01X312135Y-861918D01*
G01X312466Y-853975D01*
G01X312466Y-846528D01*
G01X311804Y-846694D01*
G01X310315Y-847355D01*
G01X308494Y-848183D01*
G01X306840Y-848845D01*
G01X303861Y-849838D01*
G01X302537Y-850169D01*
G01X301379Y-850334D01*
G01X297407Y-850996D01*
G01X293601Y-851162D01*
G01X289795Y-850996D01*
G01X286485Y-850334D01*
G01X285161Y-849838D01*
G01X283506Y-849176D01*
G01X281852Y-848349D01*
G01X280197Y-847355D01*
G01X279038Y-846363D01*
G01X278376Y-845701D01*
G01X277549Y-845039D01*
G01X276722Y-844046D01*
G01X275894Y-843219D01*
G01X275232Y-842391D01*
G01X274570Y-841233D01*
G01X273743Y-839743D01*
G01X273081Y-838419D01*
G01X272584Y-837261D01*
G01X272253Y-836102D01*
G01X271922Y-834779D01*
G01X271592Y-833124D01*
G01X271261Y-831800D01*
G01X270930Y-828490D01*
G01X320741Y-828490D01*
G01X320906Y-833124D01*
G01X321237Y-834448D01*
G01X321402Y-836102D01*
G01X321568Y-837427D01*
G01X322230Y-840074D01*
G01X322726Y-841729D01*
G01X323388Y-843549D01*
G01X323885Y-844873D01*
G01X324381Y-846032D01*
G01X325374Y-848018D01*
G01X326202Y-849341D01*
G01X327194Y-850831D01*
G01X328022Y-851989D01*
G01X329015Y-853313D01*
G01X332655Y-856954D01*
G01X335138Y-858940D01*
G01X336296Y-859602D01*
G01X337785Y-860594D01*
G01X340764Y-862084D01*
G01X342254Y-862746D01*
G01X343908Y-863407D01*
G01X345398Y-863904D01*
G01X346721Y-864235D01*
G01X348376Y-864732D01*
G01X350693Y-865228D01*
G01X353341Y-865559D01*
G01X355492Y-865724D01*
G01X356651Y-865890D01*
G01X356651Y-865890D01*
G01X357809Y-866221D01*
G01X361450Y-866386D01*
G01X364925Y-866221D01*
G01X367573Y-865890D01*
G01X370882Y-865559D01*
G01X372041Y-865393D01*
G01X373365Y-865063D01*
G01X375020Y-864732D01*
G01X376509Y-864566D01*
G01X377998Y-864069D01*
G01X379818Y-863573D01*
G01X380977Y-863077D01*
G01X382301Y-862580D01*
G01X383790Y-862084D01*
G01X386438Y-860760D01*
G01X387596Y-860098D01*
G01X388134Y-859643D01*
G01X388424Y-858940D01*
G01X388589Y-839909D01*
G01X388474Y-827166D01*
G01X403152Y-827166D01*
G01X403317Y-864566D01*
G01X411095Y-864732D01*
G01X418708Y-864732D01*
G01X418708Y-836764D01*
G01X418542Y-808301D01*
G01X418377Y-806977D01*
G01X418501Y-806315D01*
G01X418873Y-805984D01*
G01X419245Y-806067D01*
G01X419369Y-806646D01*
G01X419535Y-807970D01*
G01X420197Y-810949D01*
G01X420528Y-812107D01*
G01X421024Y-813431D01*
G01X422017Y-816410D01*
G01X422679Y-818230D01*
G01X423341Y-820216D01*
G01X424003Y-822036D01*
G01X424500Y-823526D01*
G01X424996Y-824850D01*
G01X425658Y-826670D01*
G01X426320Y-828656D01*
G01X426982Y-830311D01*
G01X427478Y-831635D01*
G01X427809Y-832793D01*
G01X428802Y-835772D01*
G01X429299Y-837096D01*
G01X429961Y-838916D01*
G01X430457Y-840405D01*
G01X430953Y-841729D01*
G01X431615Y-843549D01*
G01X432277Y-845204D01*
G01X433270Y-848183D01*
G01X433932Y-850003D01*
G01X434594Y-851989D01*
G01X435256Y-853644D01*
G01X435918Y-855630D01*
G01X436580Y-857450D01*
G01X437573Y-860429D01*
G01X438235Y-862249D01*
G01X438897Y-863904D01*
G01X439724Y-864566D01*
G01X446840Y-864732D01*
G01X453459Y-864732D01*
G01X453625Y-863904D01*
G01X455114Y-859436D01*
G01X456438Y-855795D01*
G01X458424Y-849838D01*
G01X459748Y-846197D01*
G01X460741Y-843219D01*
G01X461237Y-841894D01*
G01X461568Y-840736D01*
G01X462065Y-839412D01*
G01X462727Y-837427D01*
G01X463223Y-835772D01*
G01X463719Y-834448D01*
G01X464381Y-832627D01*
G01X466036Y-827663D01*
G01X466698Y-826008D01*
G01X468684Y-820050D01*
G01X469346Y-818230D01*
G01X470504Y-814755D01*
G01X471001Y-813431D01*
G01X471497Y-811942D01*
G01X472821Y-806646D01*
G01X473132Y-805503D01*
G01X473338Y-805348D01*
G01X473483Y-805653D01*
G01X473649Y-810453D01*
G01X473483Y-815252D01*
G01X473318Y-840074D01*
G01X473318Y-864401D01*
G01X474145Y-864566D01*
G01X482750Y-864732D01*
G01X490528Y-864732D01*
G01X490528Y-788278D01*
G01X465705Y-788278D01*
G01X465540Y-789105D01*
G01X465209Y-790429D01*
G01X464712Y-791753D01*
G01X464050Y-793573D01*
G01X462561Y-798041D01*
G01X462065Y-799365D01*
G01X461402Y-801185D01*
G01X460079Y-805157D01*
G01X459417Y-806977D01*
G01X458920Y-808632D01*
G01X457927Y-811280D01*
G01X457431Y-812769D01*
G01X456935Y-814093D01*
G01X456604Y-815252D01*
G01X456107Y-816575D01*
G01X455445Y-818561D01*
G01X454783Y-820381D01*
G01X453790Y-823360D01*
G01X453128Y-825180D01*
G01X451970Y-828656D01*
G01X450977Y-831303D01*
G01X450646Y-832462D01*
G01X450149Y-833951D01*
G01X449488Y-836102D01*
G01X448495Y-839412D01*
G01X447998Y-841398D01*
G01X447502Y-843053D01*
G01X447171Y-843591D01*
G01X446840Y-843549D01*
G01X446509Y-842557D01*
G01X446344Y-841398D01*
G01X446013Y-839743D01*
G01X445516Y-837923D01*
G01X445019Y-836268D01*
G01X444688Y-834779D01*
G01X443696Y-831800D01*
G01X443199Y-830476D01*
G01X442537Y-828656D01*
G01X440883Y-823691D01*
G01X440221Y-822036D01*
G01X439227Y-819058D01*
G01X438566Y-817237D01*
G01X437407Y-813762D01*
G01X437076Y-812604D01*
G01X436580Y-811114D01*
G01X435918Y-809459D01*
G01X435422Y-808136D01*
G01X435091Y-806977D01*
G01X434594Y-805653D01*
G01X434097Y-803998D01*
G01X433105Y-801351D01*
G01X430622Y-793904D01*
G01X429961Y-792249D01*
G01X429299Y-790263D01*
G01X428636Y-788774D01*
G01X425285Y-788402D01*
G01X415894Y-788278D01*
G01X403483Y-788278D01*
G01X403317Y-789105D01*
G01X403152Y-827166D01*
G01X403152Y-827166D01*
G01X388474Y-827166D01*
G01X388465Y-826174D01*
G01X388093Y-821375D01*
G01X371875Y-821044D01*
G01X356154Y-821044D01*
G01X355989Y-821871D01*
G01X355823Y-828821D01*
G01X355823Y-834944D01*
G01X371048Y-834944D01*
G01X371048Y-849838D01*
G01X370220Y-850169D01*
G01X368565Y-850665D01*
G01X367242Y-850996D01*
G01X365256Y-851327D01*
G01X360291Y-851493D01*
G01X356320Y-851327D01*
G01X354996Y-850996D01*
G01X352017Y-850003D01*
G01X350693Y-849507D01*
G01X349535Y-848845D01*
G01X348046Y-847852D01*
G01X346721Y-846859D01*
G01X345067Y-845204D01*
G01X344239Y-844211D01*
G01X343577Y-843219D01*
G01X342750Y-842060D01*
G01X341260Y-839081D01*
G01X340764Y-837923D01*
G01X340433Y-836764D01*
G01X340102Y-835441D01*
G01X339771Y-833786D01*
G01X339440Y-832462D01*
G01X339109Y-829152D01*
G01X338944Y-826505D01*
G01X339109Y-823857D01*
G01X339275Y-822367D01*
G01X339606Y-820713D01*
G01X339937Y-819389D01*
G01X340102Y-818230D01*
G01X340599Y-816741D01*
G01X341260Y-815086D01*
G01X341923Y-813597D01*
G01X342750Y-812107D01*
G01X343577Y-810949D01*
G01X344570Y-809625D01*
G01X347384Y-806812D01*
G01X348542Y-805984D01*
G01X350031Y-804992D01*
G01X351521Y-804164D01*
G01X353010Y-803502D01*
G01X354830Y-802840D01*
G01X356651Y-802344D01*
G01X358306Y-802013D01*
G01X360126Y-801847D01*
G01X361615Y-801682D01*
G01X363601Y-801516D01*
G01X365587Y-801682D01*
G01X371213Y-802013D01*
G01X374523Y-802675D01*
G01X376012Y-803006D01*
G01X377667Y-803502D01*
G01X379156Y-803998D01*
G01X380481Y-804495D01*
G01X383459Y-805819D01*
G01X384452Y-806315D01*
G01X384824Y-804412D01*
G01X384948Y-798372D01*
G01X384948Y-790263D01*
G01X384121Y-790098D01*
G01X382797Y-789767D01*
G01X381308Y-789270D01*
G01X379487Y-788774D01*
G01X377336Y-788443D01*
G01X375351Y-787947D01*
G01X372868Y-787615D01*
G01X370551Y-787450D01*
G01X365587Y-787119D01*
G01X362277Y-786953D01*
G01X358968Y-787119D01*
G01X354499Y-787615D01*
G01X352845Y-787947D01*
G01X351521Y-788278D01*
G01X350362Y-788443D01*
G01X348046Y-789105D01*
G01X346556Y-789601D01*
G01X344736Y-790263D01*
G01X340764Y-792249D01*
G01X339606Y-792911D01*
G01X338282Y-793739D01*
G01X336793Y-794731D01*
G01X335138Y-795890D01*
G01X329842Y-801185D01*
G01X329180Y-802013D01*
G01X328684Y-802840D01*
G01X327856Y-803998D01*
G01X327029Y-805322D01*
G01X326367Y-806481D01*
G01X325705Y-807474D01*
G01X325043Y-808632D01*
G01X324381Y-810287D01*
G01X323719Y-811611D01*
G01X323223Y-812935D01*
G01X322726Y-814424D01*
G01X321733Y-818396D01*
G01X321568Y-819554D01*
G01X321237Y-822202D01*
G01X320906Y-823526D01*
G01X320741Y-828490D01*
G01X270930Y-828490D01*
G01X270764Y-826339D01*
G01X270930Y-824188D01*
G01X271261Y-821209D01*
G01X272088Y-817899D01*
G01X272750Y-816079D01*
G01X273246Y-814755D01*
G01X273743Y-813597D01*
G01X275397Y-810949D01*
G01X276722Y-809294D01*
G01X278376Y-807639D01*
G01X279369Y-806812D01*
G01X280362Y-806150D01*
G01X281520Y-805322D01*
G01X283175Y-804495D01*
G01X284665Y-803833D01*
G01X286319Y-803171D01*
G01X288140Y-802675D01*
G01X289464Y-802344D01*
G01X292111Y-802013D01*
G01X295421Y-801847D01*
G01X298731Y-802013D01*
G01X300220Y-802178D01*
G01X301875Y-802509D01*
G01X303364Y-802840D01*
G01X304688Y-803006D01*
G01X306012Y-803502D01*
G01X307833Y-804164D01*
G01X311142Y-805819D01*
G01X311970Y-805984D01*
G01X312342Y-803874D01*
G01X312466Y-797875D01*
G01X312466Y-789932D01*
G01X311473Y-789601D01*
G01X309819Y-789105D01*
G01X308660Y-788774D01*
G01X305350Y-788112D01*
G01X304027Y-787781D01*
G01X302372Y-787615D01*
G01X301048Y-787450D01*
G01X297738Y-787119D01*
G01X293436Y-786953D01*
G01X289133Y-787119D01*
G01X283837Y-787781D01*
G01X282183Y-788278D01*
G01X280197Y-788774D01*
G01X277218Y-789767D01*
G01X275894Y-790263D01*
G01X271922Y-792249D01*
G01X270764Y-792911D01*
G01X268447Y-794566D01*
G01X267620Y-795228D01*
G01X266296Y-796221D01*
G01X262655Y-799861D01*
G01X261662Y-801020D01*
G01X260835Y-802178D01*
G01X260173Y-803006D01*
G01X259511Y-803998D01*
G01X257856Y-806646D01*
G01X256036Y-810287D01*
G01X255539Y-811445D01*
G01X254547Y-814424D01*
G01X253553Y-818396D01*
G01X253388Y-819554D01*
G01X253057Y-822533D01*
G01X252726Y-823857D01*
G01X252561Y-828821D01*
G01X248920Y-828821D01*
G01X248920Y-755180D01*
G01X499464Y-755180D01*
G01X499464Y-891540D01*
G37*
G04 Text End*

G04 PolygonModel Start*
G54D10*
G01X-410560Y-282064D02*
G01X-410560Y-245219D01*
G01X-488680Y-245219D02*
G01X-488680Y-282064D01*
G01X-473440Y-297304D02*
G01X-425800Y-297304D01*
G01X-410560Y-175136D02*
G01X-410560Y-211981D01*
G01X-488680Y-211981D02*
G01X-488680Y-175136D01*
G01X-473440Y-159896D02*
G01X-425800Y-159896D01*
G01X-488680Y-282064D02*
G03X-473440Y-297304I15240J0D01*
G01X-425800Y-297304D02*
G03X-410560Y-282064I0J15240D01*
G01X-488680Y-175136D02*
G02X-473440Y-159896I15240J0D01*
G01X-425800Y-159896D02*
G02X-410560Y-175136I0J-15240D01*
G01X-466039Y200530D02*
G01X-466039Y237375D01*
G01X-544160Y237375D02*
G01X-544160Y200530D01*
G01X-528920Y185290D02*
G01X-481279Y185290D01*
G01X-466039Y307459D02*
G01X-466039Y270614D01*
G01X-544160Y270614D02*
G01X-544160Y307459D01*
G01X-528920Y322699D02*
G01X-481279Y322699D01*
G01X-544160Y200530D02*
G03X-528920Y185290I15240J0D01*
G01X-481279Y185290D02*
G03X-466039Y200530I0J15240D01*
G01X-544160Y307459D02*
G02X-528920Y322699I15240J0D01*
G01X-481279Y322699D02*
G02X-466039Y307459I0J-15240D01*
G01X-542640Y199578D02*
G01X-542640Y236424D01*
G01X-620760Y236424D02*
G01X-620760Y199578D01*
G01X-605520Y184338D02*
G01X-557880Y184338D01*
G01X-542640Y306507D02*
G01X-542640Y269662D01*
G01X-620760Y269662D02*
G01X-620760Y306507D01*
G01X-605520Y321747D02*
G01X-557880Y321747D01*
G01X-620760Y199578D02*
G03X-605520Y184338I15240J0D01*
G01X-557880Y184338D02*
G03X-542640Y199578I0J15240D01*
G01X-620760Y306507D02*
G02X-605520Y321747I15240J0D01*
G01X-557880Y321747D02*
G02X-542640Y306507I0J-15240D01*
G01X499374Y504358D02*
G01X499374Y467513D01*
G01X577494Y467513D02*
G01X577494Y504358D01*
G01X562254Y519598D02*
G01X514614Y519598D01*
G01X499374Y397429D02*
G01X499374Y434274D01*
G01X577494Y434274D02*
G01X577494Y397429D01*
G01X562254Y382189D02*
G01X514614Y382189D01*
G01X577494Y504358D02*
G03X562254Y519598I-15240J0D01*
G01X514614Y519598D02*
G03X499374Y504358I0J-15240D01*
G01X577494Y397429D02*
G02X562254Y382189I-15240J0D01*
G01X514614Y382189D02*
G02X499374Y397429I0J15240D01*
G01X738657Y401085D02*
G01X738657Y437931D01*
G01X660537Y437931D02*
G01X660537Y401085D01*
G01X675777Y385845D02*
G01X723417Y385845D01*
G01X738657Y508014D02*
G01X738657Y471169D01*
G01X660537Y471169D02*
G01X660537Y508014D01*
G01X675777Y523254D02*
G01X723417Y523254D01*
G01X660537Y401085D02*
G03X675777Y385845I15240J0D01*
G01X723417Y385845D02*
G03X738657Y401085I0J15240D01*
G01X660537Y508014D02*
G02X675777Y523254I15240J0D01*
G01X723417Y523254D02*
G02X738657Y508014I0J-15240D01*
G01X433179Y26980D02*
G01X478732Y26980D01*
G01X478732Y26980D02*
G01X478732Y105100D01*
G01X478732Y105100D02*
G01X433179Y105100D01*
G01X399941Y26980D02*
G01X354388Y26980D01*
G01X354388Y26980D02*
G01X354388Y105100D01*
G01X354388Y105100D02*
G01X399941Y105100D01*
G01X742164Y506834D02*
G01X742164Y469989D01*
G01X820284Y469989D02*
G01X820284Y506834D01*
G01X805044Y522074D02*
G01X757404Y522074D01*
G01X742164Y399905D02*
G01X742164Y436751D01*
G01X820284Y436751D02*
G01X820284Y399905D01*
G01X805044Y384665D02*
G01X757404Y384665D01*
G01X820284Y506834D02*
G03X805044Y522074I-15240J0D01*
G01X757404Y522074D02*
G03X742164Y506834I0J-15240D01*
G01X820284Y399905D02*
G02X805044Y384665I-15240J0D01*
G01X757404Y384665D02*
G02X742164Y399905I0J15240D01*
G01X-548665Y-708045D02*
G01X-522612Y-681991D01*
G01X-577851Y-626752D02*
G01X-603905Y-652805D01*
G01X-603905Y-674358D02*
G01X-570218Y-708045D01*
G01X-473055Y-632435D02*
G01X-499109Y-658488D01*
G01X-554348Y-603249D02*
G01X-528295Y-577195D01*
G01X-506742Y-577195D02*
G01X-473055Y-610882D01*
G01X-603905Y-652805D02*
G03X-603905Y-674358I10776J-10776D01*
G01X-570218Y-708045D02*
G03X-548665Y-708045I10776J10776D01*
G01X-528295Y-577195D02*
G02X-506742Y-577195I10776J-10776D01*
G01X-473055Y-610882D02*
G02X-473055Y-632435I-10776J-10776D01*
G01X-401345Y-857905D02*
G01X-375292Y-831851D01*
G01X-430531Y-776612D02*
G01X-456585Y-802665D01*
G01X-456585Y-824218D02*
G01X-422898Y-857905D01*
G01X-325735Y-782295D02*
G01X-351789Y-808348D01*
G01X-407028Y-753109D02*
G01X-380975Y-727055D01*
G01X-359422Y-727055D02*
G01X-325735Y-760742D01*
G01X-456585Y-802665D02*
G03X-456585Y-824218I10776J-10776D01*
G01X-422898Y-857905D02*
G03X-401345Y-857905I10776J10776D01*
G01X-380975Y-727055D02*
G02X-359422Y-727055I10776J-10776D01*
G01X-325735Y-760742D02*
G02X-325735Y-782295I-10776J-10776D01*
G01X901824Y-115880D02*
G01X864979Y-115880D01*
G01X864979Y-194000D02*
G01X901824Y-194000D01*
G01X917064Y-178760D02*
G01X917064Y-131120D01*
G01X794896Y-115880D02*
G01X831741Y-115880D01*
G01X831741Y-194000D02*
G01X794896Y-194000D01*
G01X779656Y-178760D02*
G01X779656Y-131120D01*
G01X901824Y-194000D02*
G03X917064Y-178760I0J15240D01*
G01X917064Y-131120D02*
G03X901824Y-115880I-15240J0D01*
G01X794896Y-194000D02*
G02X779656Y-178760I0J15240D01*
G01X779656Y-131120D02*
G02X794896Y-115880I15240J0D01*
G01X581287Y505593D02*
G01X581287Y468748D01*
G01X659408Y468748D02*
G01X659408Y505593D01*
G01X644168Y520833D02*
G01X596527Y520833D01*
G01X581287Y398664D02*
G01X581287Y435510D01*
G01X659408Y435510D02*
G01X659408Y398664D01*
G01X644168Y383424D02*
G01X596527Y383424D01*
G01X659408Y505593D02*
G03X644168Y520833I-15240J0D01*
G01X596527Y520833D02*
G03X581287Y505593I0J-15240D01*
G01X659408Y398664D02*
G02X644168Y383424I-15240J0D01*
G01X596527Y383424D02*
G02X581287Y398664I0J15240D01*
G01X-516580Y-312296D02*
G01X-516580Y-349141D01*
G01X-438460Y-349141D02*
G01X-438460Y-312296D01*
G01X-453700Y-297056D02*
G01X-501340Y-297056D01*
G01X-516580Y-419224D02*
G01X-516580Y-382379D01*
G01X-438460Y-382379D02*
G01X-438460Y-419224D01*
G01X-453700Y-434464D02*
G01X-501340Y-434464D01*
G01X-438460Y-312296D02*
G03X-453700Y-297056I-15240J0D01*
G01X-501340Y-297056D02*
G03X-516580Y-312296I0J-15240D01*
G01X-438460Y-419224D02*
G02X-453700Y-434464I-15240J0D01*
G01X-501340Y-434464D02*
G02X-516580Y-419224I0J15240D01*
G01X399941Y23820D02*
G01X354388Y23820D01*
G01X354388Y23820D02*
G01X354388Y-54300D01*
G01X354388Y-54300D02*
G01X399941Y-54300D01*
G01X433179Y23820D02*
G01X478732Y23820D01*
G01X478732Y23820D02*
G01X478732Y-54300D01*
G01X478732Y-54300D02*
G01X433179Y-54300D01*
G01X-661510Y266178D02*
G01X-661510Y62978D01*
G01X-661510Y62978D02*
G01X-915510Y62978D01*
G01X-915510Y62978D02*
G01X-915510Y266178D01*
G01X-915510Y266178D02*
G01X-661510Y266178D01*
G01X-639666Y139178D02*
G01X-639666Y284974D01*
G01X-639666Y284974D02*
G01X-765396Y284974D01*
G54D11*
G01X-609768Y50747D02*
G01X-533568Y50747D01*
G01X-356766Y50747D02*
G01X-432966Y50747D01*
G01X-356766Y182868D02*
G01X-432966Y182868D01*
G54D10*
G01X-356766Y182868D02*
G01X-341536Y167625D01*
G01X-341536Y167625D02*
G01X-341536Y65982D01*
G01X-341536Y65982D02*
G01X-356766Y50747D01*
G54D11*
G01X-609768Y182868D02*
G01X-533568Y182868D01*
G54D10*
G01X-609768Y50747D02*
G01X-625010Y65982D01*
G01X-625010Y65982D02*
G01X-625010Y167625D01*
G01X-625010Y167625D02*
G01X-609768Y182868D01*
G54D12*
G01X585026Y14939D02*
G01X542613Y14939D01*
G01X542613Y14939D02*
G01X542613Y58324D01*
G01X541617Y291524D02*
G01X541617Y333937D01*
G01X541617Y333937D02*
G01X585003Y333937D01*
G01X818195Y334933D02*
G01X860611Y334933D01*
G01X860611Y334933D02*
G01X860611Y291547D01*
G01X861609Y58352D02*
G01X861609Y15940D01*
G01X861609Y15940D02*
G01X818223Y15940D01*
G54D13*
G01X-542661Y-146438D02*
G01X-842660Y-146438D01*
G01X-842660Y-446438D01*
G01X-542661Y-446438D01*
G01X-542661Y-146438D01*
G54D14*
G01X24997Y-901554D02*
G01X24997Y-1021554D01*
G54D11*
G01X-145000Y-871557D02*
G01X134999Y-871557D01*
G01X134999Y-871557D02*
G01X134999Y-1051557D01*
G01X134999Y-1051557D02*
G01X-145000Y-1051557D01*
G01X-145000Y-1051557D02*
G01X-145000Y-871557D01*
G54D16*
G01X594037Y709930D02*
G01X654040Y709930D01*
G01X654040Y709930D02*
G01X654040Y649928D01*
G01X554040Y549928D02*
G01X494038Y549928D01*
G01X494038Y549928D02*
G01X494038Y609930D01*
G01X654040Y619928D02*
G01X654040Y549928D01*
G01X654040Y549928D02*
G01X594037Y549928D01*
G01X554040Y709930D02*
G01X494038Y709930D01*
G01X494038Y709930D02*
G01X494038Y649928D01*
G54D10*
G01X272941Y23820D02*
G01X227388Y23820D01*
G01X227388Y23820D02*
G01X227388Y-54300D01*
G01X227388Y-54300D02*
G01X272941Y-54300D01*
G01X306179Y23820D02*
G01X351732Y23820D01*
G01X351732Y23820D02*
G01X351732Y-54300D01*
G01X351732Y-54300D02*
G01X306179Y-54300D01*
G01X-550220Y-597024D02*
G01X-550220Y-560179D01*
G01X-628340Y-560179D02*
G01X-628340Y-597024D01*
G01X-613100Y-612264D02*
G01X-565460Y-612264D01*
G01X-550220Y-490096D02*
G01X-550220Y-526941D01*
G01X-628340Y-526941D02*
G01X-628340Y-490096D01*
G01X-613100Y-474856D02*
G01X-565460Y-474856D01*
G01X-628340Y-597024D02*
G03X-613100Y-612264I15240J0D01*
G01X-565460Y-612264D02*
G03X-550220Y-597024I0J15240D01*
G01X-628340Y-490096D02*
G02X-613100Y-474856I15240J0D01*
G01X-565460Y-474856D02*
G02X-550220Y-490096I0J-15240D01*
G01X-567399Y-693136D02*
G01X-528604Y-654341D01*
G01X-501008Y-775971D02*
G01X-474955Y-802025D01*
G01X-474955Y-802025D02*
G01X-453402Y-802025D01*
G01X-453402Y-802025D02*
G01X-419715Y-768338D01*
G01X-419715Y-768338D02*
G01X-419715Y-746785D01*
G01X-419715Y-746785D02*
G01X-445769Y-720732D01*
G01X-524511Y-752468D02*
G01X-550565Y-726415D01*
G01X-550565Y-726415D02*
G01X-550565Y-704862D01*
G01X-550565Y-704862D02*
G01X-516878Y-671175D01*
G01X-516878Y-671175D02*
G01X-495325Y-671175D01*
G01X-495325Y-671175D02*
G01X-469272Y-697229D01*
G01X800339Y-115900D02*
G01X728536Y-115900D01*
G01X728536Y-115900D02*
G01X728536Y-16180D01*
G01X728536Y-16180D02*
G01X800339Y-16180D01*
G01X845581Y-115900D02*
G01X917385Y-115900D01*
G01X917385Y-115900D02*
G01X917385Y-16180D01*
G01X917385Y-16180D02*
G01X845581Y-16180D01*
G54D12*
G01X402509Y-154923D02*
G01X322631Y-607934D01*
G01X767872Y-219347D02*
G01X402509Y-154923D01*
G54D17*
G01X832250Y-366765D02*
G01X767872Y-219347D01*
G54D12*
G01X832250Y-366765D02*
G01X798910Y-555848D01*
G01X798910Y-555848D02*
G01X687994Y-672357D01*
G54D17*
G01X687994Y-672357D02*
G01X322631Y-607934D01*
G54D10*
G01X-497870Y-49860D02*
G01X-418861Y-49860D01*
G01X-418861Y49860D02*
G01X-497870Y49860D01*
G01X-513110Y34620D02*
G01X-513110Y-34620D01*
G01X-294610Y-49860D02*
G01X-373619Y-49860D01*
G01X-373619Y49860D02*
G01X-294610Y49860D01*
G01X-279370Y34620D02*
G01X-279370Y-34620D01*
G01X-497870Y49860D02*
G03X-513110Y34620I0J-15240D01*
G01X-513110Y-34620D02*
G03X-497870Y-49860I15240J0D01*
G01X-294610Y49860D02*
G02X-279370Y34620I0J-15240D01*
G01X-279370Y-34620D02*
G02X-294610Y-49860I-15240J0D01*
G01X156594Y-1018992D02*
G01X193439Y-1018992D01*
G01X193439Y-940872D02*
G01X156594Y-940872D01*
G01X141354Y-956112D02*
G01X141354Y-1003752D01*
G01X263522Y-1018992D02*
G01X226677Y-1018992D01*
G01X226677Y-940872D02*
G01X263522Y-940872D01*
G01X278762Y-956112D02*
G01X278762Y-1003752D01*
G01X156594Y-940872D02*
G03X141354Y-956112I0J-15240D01*
G01X141354Y-1003752D02*
G03X156594Y-1018992I15240J0D01*
G01X263522Y-940872D02*
G02X278762Y-956112I0J-15240D01*
G01X278762Y-1003752D02*
G02X263522Y-1018992I-15240J0D01*
G01X-348005Y-908705D02*
G01X-321952Y-882651D01*
G01X-377191Y-827412D02*
G01X-403245Y-853465D01*
G01X-403245Y-875018D02*
G01X-369558Y-908705D01*
G01X-272395Y-833095D02*
G01X-298449Y-859148D01*
G01X-353688Y-803909D02*
G01X-327635Y-777855D01*
G01X-306082Y-777855D02*
G01X-272395Y-811542D01*
G01X-403245Y-853465D02*
G03X-403245Y-875018I10776J-10776D01*
G01X-369558Y-908705D02*
G03X-348005Y-908705I10776J10776D01*
G01X-327635Y-777855D02*
G02X-306082Y-777855I10776J-10776D01*
G01X-272395Y-811542D02*
G02X-272395Y-833095I-10776J-10776D01*
G01X-255161Y-961080D02*
G01X-209608Y-961080D01*
G01X-209608Y-961080D02*
G01X-209608Y-882960D01*
G01X-209608Y-882960D02*
G01X-255161Y-882960D01*
G01X-288399Y-961080D02*
G01X-333952Y-961080D01*
G01X-333952Y-961080D02*
G01X-333952Y-882960D01*
G01X-333952Y-882960D02*
G01X-288399Y-882960D01*

G04 Rect Start*
G54D16*
G01X-905139Y-116645D02*
G01X-905139Y35755D01*
G01X-701939Y35755D01*
G01X-701939Y-116645D01*
G01X-905139Y-116645D01*
G01X-488787Y718945D02*
G01X-488787Y418945D01*
G01X-513387Y418945D01*
G01X-513387Y718945D01*
G01X-488787Y718945D01*
G04 Rect End*

G04 Circle Start*
G54D12*
G01X887108Y86038D02*
G03X897116Y86038I5004J0D01*
G03X887108Y86038I-5004J0D01*
G54D10*
G01X-880620Y-182138D02*
G03X-860300Y-182138I10160J0D01*
G03X-880620Y-182138I-10160J0D01*
G54D16*
G01X-491634Y571345D02*
G03X458367Y571345I475000J0D01*
G03X-491634Y571345I-475000J0D01*
G54D18*
G01X444040Y669930D02*
G03X464040Y669930I10000J0D01*
G03X444040Y669930I-10000J0D01*
G04 Circle End*

M02*

