G04 Layer: TopPasteMaskLayer*
G04 EasyEDA Pro v2.2.39.2, 2025-05-28 09:36:40*
G04 Gerber Generator version 0.3*
G04 Scale: 100 percent, Rotated: No, Reflected: No*
G04 Dimensions in millimeters*
G04 Leading zeros omitted, absolute positions, 4 integers and 5 decimals*
G04 Generated by one-click*
%FSLAX45Y45*%
%MOMM*%
%AMPolygonMacro1*4,1,6,0.175,-0.1,0.075,-0.1,-0.175,-0.1,-0.175,0.1,0.075,0.1,0.175,0.0,0.175,-0.1,0*%
%AMPolygonMacro2*4,1,6,0.075,-0.1,-0.175,-0.1,-0.175,0.1,0.075,0.1,0.175,0.1,0.175,0.0,0.075,-0.1,0*%
%AMPolygonMacro3*4,1,6,0.1,-0.175,-0.1,-0.175,-0.1,0.075,0.0,0.175,0.1,0.175,0.1,0.075,0.1,-0.175,0*%
%AMPolygonMacro4*4,1,6,0.1,-0.175,-0.1,-0.175,-0.1,0.075,-0.1,0.175,0.0,0.175,0.1,0.075,0.1,-0.175,0*%
%AMPolygonMacro5*4,1,6,0.175,-0.1,-0.075,-0.1,-0.175,0.0,-0.175,0.1,-0.075,0.1,0.175,0.1,0.175,-0.1,0*%
%AMPolygonMacro6*4,1,6,0.175,-0.1,-0.075,-0.1,-0.175,-0.1,-0.175,0.0,-0.075,0.1,0.175,0.1,0.175,-0.1,0*%
%AMPolygonMacro7*4,1,6,0.0,-0.175,-0.1,-0.175,-0.1,-0.075,-0.1,0.175,0.1,0.175,0.1,-0.075,0.0,-0.175,0*%
%AMPolygonMacro8*4,1,6,0.1,-0.175,0.0,-0.175,-0.1,-0.075,-0.1,0.175,0.1,0.175,0.1,-0.075,0.1,-0.175,0*%
%AMPolygonMacro9*4,1,5,-0.95,-0.95,-0.95,0.65,-0.65,0.95,0.95,0.95,0.95,-0.95,-0.95,-0.95,0*%
%AMPolygonMacro10*4,1,5,0.2,0.0,0.2,-0.2,-0.2,-0.2,-0.2,0.2,0.0,0.2,0.2,0.0,0*%
%AMOval*1,1,$1,$2,$3*1,1,$1,$4,$5*20,1,$1,$2,$3,$4,$5,0*%
%ADD10R,0.875X0.775*%
%ADD11R,0.5X1.0*%
%ADD12PolygonMacro1*%
%ADD13R,0.35X0.2*%
%ADD14PolygonMacro2*%
%ADD15PolygonMacro3*%
%ADD16R,0.2X0.35*%
%ADD17PolygonMacro4*%
%ADD18C,0.9039*%
%ADD19PolygonMacro5*%
%ADD20PolygonMacro6*%
%ADD21PolygonMacro7*%
%ADD22PolygonMacro8*%
%ADD23PolygonMacro9*%
%ADD24R,0.7X1.5*%
%ADD25R,1.6X1.0*%
%ADD26R,0.4X0.4*%
%ADD27PolygonMacro10*%
%ADD28Oval,0.5X-0.06078X-0.34468X0.06078X0.34468*%
%ADD29Oval,0.5X-0.06078X-0.34468X0.06078X0.34468*%
G75*


G04 PolygonModel Start*
G36*
G01X-463420Y-236700D02*
G01X-435820Y-236700D01*
G01X-433420Y-239100D01*
G01X-433420Y-272044D01*
G01X-435820Y-274444D01*
G01X-463420Y-274444D01*
G01X-465820Y-272044D01*
G01X-465820Y-239100D01*
G01X-463420Y-236700D01*
G37*
G36*
G01X-463420Y-220500D02*
G01X-435820Y-220500D01*
G01X-433420Y-218100D01*
G01X-433420Y-185156D01*
G01X-435820Y-182756D01*
G01X-463420Y-182756D01*
G01X-465820Y-185156D01*
G01X-465820Y-218100D01*
G01X-463420Y-220500D01*
G37*
G36*
G01X-518899Y245894D02*
G01X-491300Y245894D01*
G01X-488899Y243494D01*
G01X-488899Y210550D01*
G01X-491300Y208150D01*
G01X-518899Y208150D01*
G01X-521300Y210550D01*
G01X-521300Y243494D01*
G01X-518899Y245894D01*
G37*
G36*
G01X-518899Y262094D02*
G01X-491300Y262094D01*
G01X-488899Y264495D01*
G01X-488899Y297439D01*
G01X-491300Y299839D01*
G01X-518899Y299839D01*
G01X-521300Y297439D01*
G01X-521300Y264495D01*
G01X-518899Y262094D01*
G37*
G36*
G01X-595500Y244943D02*
G01X-567900Y244943D01*
G01X-565500Y242543D01*
G01X-565500Y209599D01*
G01X-567900Y207198D01*
G01X-595500Y207198D01*
G01X-597900Y209599D01*
G01X-597900Y242543D01*
G01X-595500Y244943D01*
G37*
G36*
G01X-595500Y261143D02*
G01X-567900Y261143D01*
G01X-565500Y263543D01*
G01X-565500Y296487D01*
G01X-567900Y298887D01*
G01X-595500Y298887D01*
G01X-597900Y296487D01*
G01X-597900Y263543D01*
G01X-595500Y261143D01*
G37*
G36*
G01X552234Y458993D02*
G01X524634Y458993D01*
G01X522234Y461394D01*
G01X522234Y494338D01*
G01X524634Y496738D01*
G01X552234Y496738D01*
G01X554634Y494338D01*
G01X554634Y461394D01*
G01X552234Y458993D01*
G37*
G36*
G01X552234Y442793D02*
G01X524634Y442793D01*
G01X522234Y440393D01*
G01X522234Y407449D01*
G01X524634Y405049D01*
G01X552234Y405049D01*
G01X554634Y407449D01*
G01X554634Y440393D01*
G01X552234Y442793D01*
G37*
G36*
G01X685797Y446450D02*
G01X713397Y446450D01*
G01X715797Y444049D01*
G01X715797Y411106D01*
G01X713397Y408705D01*
G01X685797Y408705D01*
G01X683397Y411106D01*
G01X683397Y444049D01*
G01X685797Y446450D01*
G37*
G36*
G01X685797Y462650D02*
G01X713397Y462650D01*
G01X715797Y465050D01*
G01X715797Y497994D01*
G01X713397Y500394D01*
G01X685797Y500394D01*
G01X683397Y497994D01*
G01X683397Y465050D01*
G01X685797Y462650D01*
G37*
G36*
G01X424660Y52240D02*
G01X424660Y79840D01*
G01X427060Y82240D01*
G01X453474Y82240D01*
G01X455872Y79840D01*
G01X455872Y52240D01*
G01X453474Y49840D01*
G01X427060Y49840D01*
G01X424660Y52240D01*
G37*
G36*
G01X408460Y52240D02*
G01X408460Y79840D01*
G01X406060Y82240D01*
G01X379646Y82240D01*
G01X377248Y79840D01*
G01X377248Y52240D01*
G01X379646Y49840D01*
G01X406060Y49840D01*
G01X408460Y52240D01*
G37*
G36*
G01X795024Y461470D02*
G01X767424Y461470D01*
G01X765024Y463870D01*
G01X765024Y496814D01*
G01X767424Y499214D01*
G01X795024Y499214D01*
G01X797424Y496814D01*
G01X797424Y463870D01*
G01X795024Y461470D01*
G37*
G36*
G01X795024Y445270D02*
G01X767424Y445270D01*
G01X765024Y442870D01*
G01X765024Y409926D01*
G01X767424Y407525D01*
G01X795024Y407525D01*
G01X797424Y409926D01*
G01X797424Y442870D01*
G01X795024Y445270D01*
G37*
G36*
G01X-553966Y-638590D02*
G01X-534450Y-658106D01*
G01X-534450Y-661500D01*
G01X-557744Y-684795D01*
G01X-561139Y-684795D01*
G01X-580655Y-665279D01*
G01X-580655Y-661884D01*
G01X-557360Y-638590D01*
G01X-553966Y-638590D01*
G37*
G36*
G01X-542510Y-627134D02*
G01X-522994Y-646650D01*
G01X-519600Y-646650D01*
G01X-496305Y-623356D01*
G01X-496305Y-619961D01*
G01X-515821Y-600445D01*
G01X-519216Y-600445D01*
G01X-542510Y-623740D01*
G01X-542510Y-627134D01*
G37*
G36*
G01X-406646Y-788450D02*
G01X-387130Y-807966D01*
G01X-387130Y-811360D01*
G01X-410424Y-834655D01*
G01X-413819Y-834655D01*
G01X-433335Y-815139D01*
G01X-433335Y-811744D01*
G01X-410040Y-788450D01*
G01X-406646Y-788450D01*
G37*
G36*
G01X-395190Y-776994D02*
G01X-375674Y-796510D01*
G01X-372280Y-796510D01*
G01X-348985Y-773216D01*
G01X-348985Y-769821D01*
G01X-368501Y-750305D01*
G01X-371896Y-750305D01*
G01X-395190Y-773600D01*
G01X-395190Y-776994D01*
G37*
G36*
G01X856460Y-168740D02*
G01X856460Y-141140D01*
G01X858860Y-138740D01*
G01X891804Y-138740D01*
G01X894204Y-141140D01*
G01X894204Y-168740D01*
G01X891804Y-171140D01*
G01X858860Y-171140D01*
G01X856460Y-168740D01*
G37*
G36*
G01X840260Y-168740D02*
G01X840260Y-141140D01*
G01X837860Y-138740D01*
G01X804916Y-138740D01*
G01X802516Y-141140D01*
G01X802516Y-168740D01*
G01X804916Y-171140D01*
G01X837860Y-171140D01*
G01X840260Y-168740D01*
G37*
G36*
G01X634147Y460229D02*
G01X606548Y460229D01*
G01X604147Y462629D01*
G01X604147Y495573D01*
G01X606548Y497973D01*
G01X634147Y497973D01*
G01X636548Y495573D01*
G01X636548Y462629D01*
G01X634147Y460229D01*
G37*
G36*
G01X634147Y444029D02*
G01X606548Y444029D01*
G01X604147Y441629D01*
G01X604147Y408685D01*
G01X606548Y406284D01*
G01X634147Y406284D01*
G01X636548Y408685D01*
G01X636548Y441629D01*
G01X634147Y444029D01*
G37*
G36*
G01X-463720Y-357660D02*
G01X-491320Y-357660D01*
G01X-493720Y-355260D01*
G01X-493720Y-322316D01*
G01X-491320Y-319916D01*
G01X-463720Y-319916D01*
G01X-461320Y-322316D01*
G01X-461320Y-355260D01*
G01X-463720Y-357660D01*
G37*
G36*
G01X-463720Y-373860D02*
G01X-491320Y-373860D01*
G01X-493720Y-376260D01*
G01X-493720Y-409204D01*
G01X-491320Y-411604D01*
G01X-463720Y-411604D01*
G01X-461320Y-409204D01*
G01X-461320Y-376260D01*
G01X-463720Y-373860D01*
G37*
G36*
G01X408460Y-1440D02*
G01X408460Y-29040D01*
G01X406060Y-31440D01*
G01X379646Y-31440D01*
G01X377248Y-29040D01*
G01X377248Y-1440D01*
G01X379646Y960D01*
G01X406060Y960D01*
G01X408460Y-1440D01*
G37*
G36*
G01X424660Y-1440D02*
G01X424660Y-29040D01*
G01X427060Y-31440D01*
G01X453474Y-31440D01*
G01X455872Y-29040D01*
G01X455872Y-1440D01*
G01X453474Y960D01*
G01X427060Y960D01*
G01X424660Y-1440D01*
G37*
G36*
G01X-507761Y130181D02*
G01X-507761Y102530D01*
G01X-535181Y73155D01*
G01X-585508Y73155D01*
G01X-591909Y79556D01*
G01X-591909Y153155D01*
G01X-585508Y159556D01*
G01X-535181Y159556D01*
G01X-507761Y130181D01*
G37*
G36*
G01X-456197Y131306D02*
G01X-456197Y103655D01*
G01X-428777Y74280D01*
G01X-378450Y74280D01*
G01X-372049Y80681D01*
G01X-372049Y154280D01*
G01X-378450Y160681D01*
G01X-428777Y160681D01*
G01X-456197Y131306D01*
G37*
G36*
G01X721612Y4939D02*
G01X721612Y49937D01*
G01X681612Y49937D01*
G01X681612Y4939D01*
G01X721612Y4939D01*
G37*
G36*
G01X612275Y4962D02*
G01X612928Y5028D01*
G01X613573Y5134D01*
G01X614210Y5282D01*
G01X614838Y5472D01*
G01X615450Y5703D01*
G01X616044Y5973D01*
G01X616623Y6280D01*
G01X617177Y6628D01*
G01X617710Y7009D01*
G01X618216Y7423D01*
G01X618693Y7870D01*
G01X619140Y8347D01*
G01X619555Y8853D01*
G01X619936Y9386D01*
G01X620283Y9943D01*
G01X620591Y10519D01*
G01X620860Y11114D01*
G01X621091Y11726D01*
G01X621282Y12353D01*
G01X621429Y12991D01*
G01X621536Y13636D01*
G01X621602Y14289D01*
G01X621622Y14941D01*
G01X621622Y39943D01*
G01X621602Y40595D01*
G01X621536Y41248D01*
G01X621429Y41893D01*
G01X621282Y42531D01*
G01X621091Y43158D01*
G01X620860Y43770D01*
G01X620591Y44365D01*
G01X620283Y44944D01*
G01X619936Y45497D01*
G01X619555Y46031D01*
G01X619140Y46536D01*
G01X618693Y47014D01*
G01X618216Y47461D01*
G01X617710Y47875D01*
G01X617177Y48256D01*
G01X616621Y48604D01*
G01X616044Y48911D01*
G01X615450Y49180D01*
G01X614838Y49412D01*
G01X614210Y49602D01*
G01X613573Y49749D01*
G01X612928Y49856D01*
G01X612275Y49922D01*
G01X611622Y49942D01*
G01X610969Y49922D01*
G01X610317Y49856D01*
G01X609671Y49749D01*
G01X609034Y49602D01*
G01X608406Y49412D01*
G01X607794Y49180D01*
G01X607200Y48911D01*
G01X606623Y48604D01*
G01X606067Y48256D01*
G01X605534Y47875D01*
G01X605028Y47461D01*
G01X604551Y47014D01*
G01X604104Y46536D01*
G01X603690Y46031D01*
G01X603309Y45497D01*
G01X602961Y44941D01*
G01X602653Y44365D01*
G01X602384Y43770D01*
G01X602153Y43158D01*
G01X601962Y42531D01*
G01X601815Y41893D01*
G01X601708Y41248D01*
G01X601642Y40595D01*
G01X601622Y39943D01*
G01X601622Y14941D01*
G01X601642Y14289D01*
G01X601708Y13636D01*
G01X601815Y12991D01*
G01X601962Y12353D01*
G01X602153Y11726D01*
G01X602384Y11114D01*
G01X602653Y10519D01*
G01X602961Y9940D01*
G01X603309Y9386D01*
G01X603690Y8853D01*
G01X604104Y8347D01*
G01X604551Y7870D01*
G01X605028Y7423D01*
G01X605534Y7009D01*
G01X606067Y6628D01*
G01X606623Y6280D01*
G01X607200Y5973D01*
G01X607794Y5703D01*
G01X608406Y5472D01*
G01X609034Y5282D01*
G01X609671Y5134D01*
G01X610317Y5028D01*
G01X610969Y4962D01*
G01X611622Y4941D01*
G01X612275Y4962D01*
G37*
G36*
G01X752254Y4962D02*
G01X752907Y5028D01*
G01X753552Y5134D01*
G01X754190Y5282D01*
G01X754817Y5472D01*
G01X755429Y5703D01*
G01X756024Y5973D01*
G01X756603Y6280D01*
G01X757156Y6628D01*
G01X757690Y7009D01*
G01X758195Y7423D01*
G01X758673Y7870D01*
G01X759120Y8347D01*
G01X759534Y8853D01*
G01X759915Y9386D01*
G01X760263Y9943D01*
G01X760570Y10519D01*
G01X760839Y11114D01*
G01X761071Y11726D01*
G01X761261Y12353D01*
G01X761408Y12991D01*
G01X761515Y13636D01*
G01X761581Y14289D01*
G01X761601Y14941D01*
G01X761601Y39943D01*
G01X761581Y40595D01*
G01X761515Y41248D01*
G01X761408Y41893D01*
G01X761261Y42531D01*
G01X761071Y43158D01*
G01X760839Y43770D01*
G01X760570Y44365D01*
G01X760263Y44944D01*
G01X759915Y45497D01*
G01X759534Y46031D01*
G01X759120Y46536D01*
G01X758673Y47014D01*
G01X758195Y47461D01*
G01X757690Y47875D01*
G01X757156Y48256D01*
G01X756600Y48604D01*
G01X756024Y48911D01*
G01X755429Y49180D01*
G01X754817Y49412D01*
G01X754190Y49602D01*
G01X753552Y49749D01*
G01X752907Y49856D01*
G01X752254Y49922D01*
G01X751601Y49942D01*
G01X750949Y49922D01*
G01X750296Y49856D01*
G01X749651Y49749D01*
G01X749013Y49602D01*
G01X748386Y49412D01*
G01X747774Y49180D01*
G01X747179Y48911D01*
G01X746603Y48604D01*
G01X746047Y48256D01*
G01X745513Y47875D01*
G01X745008Y47461D01*
G01X744530Y47014D01*
G01X744083Y46536D01*
G01X743669Y46031D01*
G01X743288Y45497D01*
G01X742940Y44941D01*
G01X742633Y44365D01*
G01X742364Y43770D01*
G01X742132Y43158D01*
G01X741942Y42531D01*
G01X741795Y41893D01*
G01X741688Y41248D01*
G01X741622Y40595D01*
G01X741602Y39943D01*
G01X741602Y14941D01*
G01X741622Y14289D01*
G01X741688Y13636D01*
G01X741795Y12991D01*
G01X741942Y12353D01*
G01X742132Y11726D01*
G01X742364Y11114D01*
G01X742633Y10519D01*
G01X742940Y9940D01*
G01X743288Y9386D01*
G01X743669Y8853D01*
G01X744083Y8347D01*
G01X744530Y7870D01*
G01X745008Y7423D01*
G01X745513Y7009D01*
G01X746047Y6628D01*
G01X746603Y6280D01*
G01X747179Y5973D01*
G01X747774Y5703D01*
G01X748386Y5472D01*
G01X749013Y5282D01*
G01X749651Y5134D01*
G01X750296Y5028D01*
G01X750949Y4962D01*
G01X751601Y4941D01*
G01X752254Y4962D01*
G37*
G36*
G01X652254Y4962D02*
G01X652907Y5028D01*
G01X653552Y5134D01*
G01X654190Y5282D01*
G01X654817Y5472D01*
G01X655429Y5703D01*
G01X656024Y5973D01*
G01X656603Y6280D01*
G01X657157Y6628D01*
G01X657690Y7009D01*
G01X658196Y7423D01*
G01X658673Y7870D01*
G01X659120Y8347D01*
G01X659534Y8853D01*
G01X659915Y9386D01*
G01X660263Y9943D01*
G01X660570Y10519D01*
G01X660840Y11114D01*
G01X661071Y11726D01*
G01X661261Y12353D01*
G01X661409Y12991D01*
G01X661515Y13636D01*
G01X661581Y14289D01*
G01X661602Y14941D01*
G01X661602Y39943D01*
G01X661581Y40595D01*
G01X661515Y41248D01*
G01X661409Y41893D01*
G01X661261Y42531D01*
G01X661071Y43158D01*
G01X660840Y43770D01*
G01X660570Y44365D01*
G01X660263Y44944D01*
G01X659915Y45497D01*
G01X659534Y46031D01*
G01X659120Y46536D01*
G01X658673Y47014D01*
G01X658196Y47461D01*
G01X657690Y47875D01*
G01X657157Y48256D01*
G01X656600Y48604D01*
G01X656024Y48911D01*
G01X655429Y49180D01*
G01X654817Y49412D01*
G01X654190Y49602D01*
G01X653552Y49749D01*
G01X652907Y49856D01*
G01X652254Y49922D01*
G01X651602Y49942D01*
G01X650949Y49922D01*
G01X650296Y49856D01*
G01X649651Y49749D01*
G01X649013Y49602D01*
G01X648386Y49412D01*
G01X647774Y49180D01*
G01X647180Y48911D01*
G01X646603Y48604D01*
G01X646047Y48256D01*
G01X645513Y47875D01*
G01X645008Y47461D01*
G01X644530Y47014D01*
G01X644083Y46536D01*
G01X643669Y46031D01*
G01X643288Y45497D01*
G01X642940Y44941D01*
G01X642633Y44365D01*
G01X642364Y43770D01*
G01X642133Y43158D01*
G01X641942Y42531D01*
G01X641795Y41893D01*
G01X641688Y41248D01*
G01X641622Y40595D01*
G01X641602Y39943D01*
G01X641602Y14941D01*
G01X641622Y14289D01*
G01X641688Y13636D01*
G01X641795Y12991D01*
G01X641942Y12353D01*
G01X642133Y11726D01*
G01X642364Y11114D01*
G01X642633Y10519D01*
G01X642940Y9940D01*
G01X643288Y9386D01*
G01X643669Y8853D01*
G01X644083Y8347D01*
G01X644530Y7870D01*
G01X645008Y7423D01*
G01X645513Y7009D01*
G01X646047Y6628D01*
G01X646603Y6280D01*
G01X647180Y5973D01*
G01X647774Y5703D01*
G01X648386Y5472D01*
G01X649013Y5282D01*
G01X649651Y5134D01*
G01X650296Y5028D01*
G01X650949Y4962D01*
G01X651602Y4941D01*
G01X652254Y4962D01*
G37*
G36*
G01X792259Y4962D02*
G01X792912Y5028D01*
G01X793557Y5134D01*
G01X794195Y5282D01*
G01X794822Y5472D01*
G01X795434Y5703D01*
G01X796029Y5973D01*
G01X796608Y6280D01*
G01X797161Y6628D01*
G01X797695Y7009D01*
G01X798200Y7423D01*
G01X798678Y7870D01*
G01X799125Y8347D01*
G01X799539Y8853D01*
G01X799920Y9386D01*
G01X800268Y9943D01*
G01X800575Y10519D01*
G01X800844Y11114D01*
G01X801076Y11726D01*
G01X801266Y12353D01*
G01X801413Y12991D01*
G01X801520Y13636D01*
G01X801586Y14289D01*
G01X801606Y14941D01*
G01X801606Y39943D01*
G01X801586Y40595D01*
G01X801520Y41248D01*
G01X801413Y41893D01*
G01X801266Y42531D01*
G01X801076Y43158D01*
G01X800844Y43770D01*
G01X800575Y44365D01*
G01X800268Y44944D01*
G01X799920Y45497D01*
G01X799539Y46031D01*
G01X799125Y46536D01*
G01X798678Y47014D01*
G01X798200Y47461D01*
G01X797695Y47875D01*
G01X797161Y48256D01*
G01X796605Y48604D01*
G01X796029Y48911D01*
G01X795434Y49180D01*
G01X794822Y49412D01*
G01X794195Y49602D01*
G01X793557Y49749D01*
G01X792912Y49856D01*
G01X792259Y49922D01*
G01X791606Y49942D01*
G01X790954Y49922D01*
G01X790301Y49856D01*
G01X789656Y49749D01*
G01X789018Y49602D01*
G01X788391Y49412D01*
G01X787779Y49180D01*
G01X787184Y48911D01*
G01X786608Y48604D01*
G01X786052Y48256D01*
G01X785518Y47875D01*
G01X785013Y47461D01*
G01X784535Y47014D01*
G01X784088Y46536D01*
G01X783674Y46031D01*
G01X783293Y45497D01*
G01X782945Y44941D01*
G01X782638Y44365D01*
G01X782369Y43770D01*
G01X782137Y43158D01*
G01X781947Y42531D01*
G01X781800Y41893D01*
G01X781693Y41248D01*
G01X781627Y40595D01*
G01X781607Y39943D01*
G01X781607Y14941D01*
G01X781627Y14289D01*
G01X781693Y13636D01*
G01X781800Y12991D01*
G01X781947Y12353D01*
G01X782137Y11726D01*
G01X782369Y11114D01*
G01X782638Y10519D01*
G01X782945Y9940D01*
G01X783293Y9386D01*
G01X783674Y8853D01*
G01X784088Y8347D01*
G01X784535Y7870D01*
G01X785013Y7423D01*
G01X785518Y7009D01*
G01X786052Y6628D01*
G01X786608Y6280D01*
G01X787184Y5973D01*
G01X787779Y5703D01*
G01X788391Y5472D01*
G01X789018Y5282D01*
G01X789656Y5134D01*
G01X790301Y5028D01*
G01X790954Y4962D01*
G01X791606Y4941D01*
G01X792259Y4962D01*
G37*
G36*
G01X581602Y29940D02*
G01X581602Y54939D01*
G01X556601Y54939D01*
G01X556601Y29940D01*
G01X581602Y29940D01*
G37*
G36*
G01X846623Y29940D02*
G01X846623Y54941D01*
G01X821624Y54941D01*
G01X821624Y29940D01*
G01X846623Y29940D01*
G37*
G36*
G01X862264Y74967D02*
G01X862917Y75033D01*
G01X863562Y75139D01*
G01X864200Y75287D01*
G01X864827Y75477D01*
G01X865439Y75708D01*
G01X866034Y75977D01*
G01X866613Y76285D01*
G01X867166Y76633D01*
G01X867700Y77014D01*
G01X868205Y77428D01*
G01X868683Y77875D01*
G01X869130Y78352D01*
G01X869544Y78858D01*
G01X869925Y79391D01*
G01X870273Y79948D01*
G01X870580Y80524D01*
G01X870849Y81118D01*
G01X871081Y81731D01*
G01X871271Y82358D01*
G01X871418Y82996D01*
G01X871525Y83641D01*
G01X871591Y84293D01*
G01X871611Y84946D01*
G01X871591Y85599D01*
G01X871525Y86252D01*
G01X871418Y86897D01*
G01X871271Y87534D01*
G01X871081Y88162D01*
G01X870849Y88774D01*
G01X870580Y89368D01*
G01X870273Y89947D01*
G01X869925Y90501D01*
G01X869544Y91035D01*
G01X869130Y91540D01*
G01X868683Y92018D01*
G01X868205Y92465D01*
G01X867700Y92879D01*
G01X867166Y93260D01*
G01X866610Y93608D01*
G01X866034Y93915D01*
G01X865439Y94184D01*
G01X864827Y94415D01*
G01X864200Y94606D01*
G01X863562Y94753D01*
G01X862917Y94860D01*
G01X862264Y94926D01*
G01X861611Y94946D01*
G01X836610Y94946D01*
G01X835957Y94926D01*
G01X835305Y94860D01*
G01X834659Y94753D01*
G01X834022Y94606D01*
G01X833395Y94415D01*
G01X832782Y94184D01*
G01X832188Y93915D01*
G01X831609Y93608D01*
G01X831055Y93260D01*
G01X830522Y92879D01*
G01X830016Y92465D01*
G01X829539Y92018D01*
G01X829092Y91540D01*
G01X828678Y91035D01*
G01X828297Y90501D01*
G01X827949Y89945D01*
G01X827641Y89368D01*
G01X827372Y88774D01*
G01X827141Y88162D01*
G01X826951Y87534D01*
G01X826803Y86897D01*
G01X826697Y86252D01*
G01X826631Y85599D01*
G01X826610Y84946D01*
G01X826631Y84293D01*
G01X826697Y83641D01*
G01X826803Y82996D01*
G01X826951Y82358D01*
G01X827141Y81731D01*
G01X827372Y81118D01*
G01X827641Y80524D01*
G01X827949Y79945D01*
G01X828297Y79391D01*
G01X828678Y78858D01*
G01X829092Y78352D01*
G01X829539Y77875D01*
G01X830016Y77428D01*
G01X830522Y77014D01*
G01X831055Y76633D01*
G01X831611Y76285D01*
G01X832188Y75977D01*
G01X832782Y75708D01*
G01X833395Y75477D01*
G01X834022Y75287D01*
G01X834659Y75139D01*
G01X835305Y75033D01*
G01X835957Y74967D01*
G01X836610Y74946D01*
G01X861611Y74946D01*
G01X862264Y74967D01*
G37*
G36*
G01X567269Y74967D02*
G01X567921Y75033D01*
G01X568567Y75139D01*
G01X569204Y75287D01*
G01X569831Y75477D01*
G01X570444Y75708D01*
G01X571038Y75977D01*
G01X571617Y76285D01*
G01X572171Y76633D01*
G01X572704Y77014D01*
G01X573210Y77428D01*
G01X573687Y77875D01*
G01X574134Y78352D01*
G01X574548Y78858D01*
G01X574929Y79391D01*
G01X575277Y79948D01*
G01X575585Y80524D01*
G01X575854Y81118D01*
G01X576085Y81731D01*
G01X576275Y82358D01*
G01X576423Y82996D01*
G01X576529Y83641D01*
G01X576595Y84293D01*
G01X576616Y84946D01*
G01X576595Y85599D01*
G01X576529Y86252D01*
G01X576423Y86897D01*
G01X576275Y87534D01*
G01X576085Y88162D01*
G01X575854Y88774D01*
G01X575585Y89368D01*
G01X575277Y89947D01*
G01X574929Y90501D01*
G01X574548Y91035D01*
G01X574134Y91540D01*
G01X573687Y92018D01*
G01X573210Y92465D01*
G01X572704Y92879D01*
G01X572171Y93260D01*
G01X571615Y93608D01*
G01X571038Y93915D01*
G01X570444Y94184D01*
G01X569831Y94415D01*
G01X569204Y94606D01*
G01X568567Y94753D01*
G01X567921Y94860D01*
G01X567269Y94926D01*
G01X566616Y94946D01*
G01X541615Y94946D01*
G01X540962Y94926D01*
G01X540309Y94860D01*
G01X539664Y94753D01*
G01X539026Y94606D01*
G01X538399Y94415D01*
G01X537787Y94184D01*
G01X537192Y93915D01*
G01X536613Y93608D01*
G01X536060Y93260D01*
G01X535526Y92879D01*
G01X535021Y92465D01*
G01X534543Y92018D01*
G01X534096Y91540D01*
G01X533682Y91035D01*
G01X533301Y90501D01*
G01X532953Y89945D01*
G01X532646Y89368D01*
G01X532377Y88774D01*
G01X532145Y88162D01*
G01X531955Y87534D01*
G01X531808Y86897D01*
G01X531701Y86252D01*
G01X531635Y85599D01*
G01X531615Y84946D01*
G01X531635Y84293D01*
G01X531701Y83641D01*
G01X531808Y82996D01*
G01X531955Y82358D01*
G01X532145Y81731D01*
G01X532377Y81118D01*
G01X532646Y80524D01*
G01X532953Y79945D01*
G01X533301Y79391D01*
G01X533682Y78858D01*
G01X534096Y78352D01*
G01X534543Y77875D01*
G01X535021Y77428D01*
G01X535526Y77014D01*
G01X536060Y76633D01*
G01X536616Y76285D01*
G01X537192Y75977D01*
G01X537787Y75708D01*
G01X538399Y75477D01*
G01X539026Y75287D01*
G01X539664Y75139D01*
G01X540309Y75033D01*
G01X540962Y74967D01*
G01X541615Y74946D01*
G01X566616Y74946D01*
G01X567269Y74967D01*
G37*
G36*
G01X862264Y114972D02*
G01X862917Y115038D01*
G01X863562Y115144D01*
G01X864200Y115292D01*
G01X864827Y115482D01*
G01X865439Y115713D01*
G01X866034Y115982D01*
G01X866613Y116290D01*
G01X867166Y116638D01*
G01X867700Y117019D01*
G01X868205Y117433D01*
G01X868683Y117880D01*
G01X869130Y118357D01*
G01X869544Y118863D01*
G01X869925Y119396D01*
G01X870273Y119953D01*
G01X870580Y120529D01*
G01X870849Y121123D01*
G01X871081Y121736D01*
G01X871271Y122363D01*
G01X871418Y123001D01*
G01X871525Y123646D01*
G01X871591Y124298D01*
G01X871611Y124951D01*
G01X871591Y125604D01*
G01X871525Y126257D01*
G01X871418Y126902D01*
G01X871271Y127539D01*
G01X871081Y128167D01*
G01X870849Y128779D01*
G01X870580Y129373D01*
G01X870273Y129952D01*
G01X869925Y130506D01*
G01X869544Y131040D01*
G01X869130Y131545D01*
G01X868683Y132023D01*
G01X868205Y132470D01*
G01X867700Y132884D01*
G01X867166Y133265D01*
G01X866610Y133613D01*
G01X866034Y133920D01*
G01X865439Y134189D01*
G01X864827Y134420D01*
G01X864200Y134611D01*
G01X863562Y134758D01*
G01X862917Y134865D01*
G01X862264Y134931D01*
G01X861611Y134951D01*
G01X836610Y134951D01*
G01X835957Y134931D01*
G01X835305Y134865D01*
G01X834659Y134758D01*
G01X834022Y134611D01*
G01X833395Y134420D01*
G01X832782Y134189D01*
G01X832188Y133920D01*
G01X831609Y133613D01*
G01X831055Y133265D01*
G01X830522Y132884D01*
G01X830016Y132470D01*
G01X829539Y132023D01*
G01X829092Y131545D01*
G01X828678Y131040D01*
G01X828297Y130506D01*
G01X827949Y129950D01*
G01X827641Y129373D01*
G01X827372Y128779D01*
G01X827141Y128167D01*
G01X826951Y127539D01*
G01X826803Y126902D01*
G01X826697Y126257D01*
G01X826631Y125604D01*
G01X826610Y124951D01*
G01X826631Y124298D01*
G01X826697Y123646D01*
G01X826803Y123001D01*
G01X826951Y122363D01*
G01X827141Y121736D01*
G01X827372Y121123D01*
G01X827641Y120529D01*
G01X827949Y119950D01*
G01X828297Y119396D01*
G01X828678Y118863D01*
G01X829092Y118357D01*
G01X829539Y117880D01*
G01X830016Y117433D01*
G01X830522Y117019D01*
G01X831055Y116638D01*
G01X831611Y116290D01*
G01X832188Y115982D01*
G01X832782Y115713D01*
G01X833395Y115482D01*
G01X834022Y115292D01*
G01X834659Y115144D01*
G01X835305Y115038D01*
G01X835957Y114972D01*
G01X836610Y114951D01*
G01X861611Y114951D01*
G01X862264Y114972D01*
G37*
G36*
G01X567269Y114972D02*
G01X567921Y115038D01*
G01X568567Y115144D01*
G01X569204Y115292D01*
G01X569831Y115482D01*
G01X570444Y115713D01*
G01X571038Y115982D01*
G01X571617Y116290D01*
G01X572171Y116638D01*
G01X572704Y117019D01*
G01X573210Y117433D01*
G01X573687Y117880D01*
G01X574134Y118357D01*
G01X574548Y118863D01*
G01X574929Y119396D01*
G01X575277Y119953D01*
G01X575585Y120529D01*
G01X575854Y121123D01*
G01X576085Y121736D01*
G01X576275Y122363D01*
G01X576423Y123001D01*
G01X576529Y123646D01*
G01X576595Y124298D01*
G01X576616Y124951D01*
G01X576595Y125604D01*
G01X576529Y126257D01*
G01X576423Y126902D01*
G01X576275Y127539D01*
G01X576085Y128167D01*
G01X575854Y128779D01*
G01X575585Y129373D01*
G01X575277Y129952D01*
G01X574929Y130506D01*
G01X574548Y131040D01*
G01X574134Y131545D01*
G01X573687Y132023D01*
G01X573210Y132470D01*
G01X572704Y132884D01*
G01X572171Y133265D01*
G01X571615Y133613D01*
G01X571038Y133920D01*
G01X570444Y134189D01*
G01X569831Y134420D01*
G01X569204Y134611D01*
G01X568567Y134758D01*
G01X567921Y134865D01*
G01X567269Y134931D01*
G01X566616Y134951D01*
G01X541615Y134951D01*
G01X540962Y134931D01*
G01X540309Y134865D01*
G01X539664Y134758D01*
G01X539026Y134611D01*
G01X538399Y134420D01*
G01X537787Y134189D01*
G01X537192Y133920D01*
G01X536613Y133613D01*
G01X536060Y133265D01*
G01X535526Y132884D01*
G01X535021Y132470D01*
G01X534543Y132023D01*
G01X534096Y131545D01*
G01X533682Y131040D01*
G01X533301Y130506D01*
G01X532953Y129950D01*
G01X532646Y129373D01*
G01X532377Y128779D01*
G01X532145Y128167D01*
G01X531955Y127539D01*
G01X531808Y126902D01*
G01X531701Y126257D01*
G01X531635Y125604D01*
G01X531615Y124951D01*
G01X531635Y124298D01*
G01X531701Y123646D01*
G01X531808Y123001D01*
G01X531955Y122363D01*
G01X532145Y121736D01*
G01X532377Y121123D01*
G01X532646Y120529D01*
G01X532953Y119950D01*
G01X533301Y119396D01*
G01X533682Y118863D01*
G01X534096Y118357D01*
G01X534543Y117880D01*
G01X535021Y117433D01*
G01X535526Y117019D01*
G01X536060Y116638D01*
G01X536616Y116290D01*
G01X537192Y115982D01*
G01X537787Y115713D01*
G01X538399Y115482D01*
G01X539026Y115292D01*
G01X539664Y115144D01*
G01X540309Y115038D01*
G01X540962Y114972D01*
G01X541615Y114951D01*
G01X566616Y114951D01*
G01X567269Y114972D01*
G37*
G36*
G01X871611Y154938D02*
G01X871611Y194938D01*
G01X826613Y194938D01*
G01X826613Y154938D01*
G01X871611Y154938D01*
G37*
G36*
G01X531612Y194938D02*
G01X531612Y154938D01*
G01X576611Y154938D01*
G01X576611Y194938D01*
G01X531612Y194938D01*
G37*
G36*
G01X862264Y214971D02*
G01X862917Y215037D01*
G01X863562Y215144D01*
G01X864200Y215291D01*
G01X864827Y215482D01*
G01X865439Y215713D01*
G01X866034Y215982D01*
G01X866613Y216290D01*
G01X867166Y216638D01*
G01X867700Y217019D01*
G01X868205Y217433D01*
G01X868683Y217880D01*
G01X869130Y218357D01*
G01X869544Y218863D01*
G01X869925Y219396D01*
G01X870273Y219952D01*
G01X870580Y220529D01*
G01X870849Y221123D01*
G01X871081Y221735D01*
G01X871271Y222363D01*
G01X871418Y223000D01*
G01X871525Y223645D01*
G01X871591Y224298D01*
G01X871611Y224951D01*
G01X871591Y225604D01*
G01X871525Y226257D01*
G01X871418Y226902D01*
G01X871271Y227539D01*
G01X871081Y228167D01*
G01X870849Y228779D01*
G01X870580Y229373D01*
G01X870273Y229952D01*
G01X869925Y230506D01*
G01X869544Y231039D01*
G01X869130Y231545D01*
G01X868683Y232022D01*
G01X868205Y232469D01*
G01X867700Y232883D01*
G01X867166Y233264D01*
G01X866610Y233612D01*
G01X866034Y233920D01*
G01X865439Y234189D01*
G01X864827Y234420D01*
G01X864200Y234611D01*
G01X863562Y234758D01*
G01X862917Y234865D01*
G01X862264Y234931D01*
G01X861611Y234951D01*
G01X836610Y234951D01*
G01X835957Y234931D01*
G01X835305Y234865D01*
G01X834659Y234758D01*
G01X834022Y234611D01*
G01X833395Y234420D01*
G01X832782Y234189D01*
G01X832188Y233920D01*
G01X831609Y233612D01*
G01X831055Y233264D01*
G01X830522Y232883D01*
G01X830016Y232469D01*
G01X829539Y232022D01*
G01X829092Y231545D01*
G01X828678Y231039D01*
G01X828297Y230506D01*
G01X827949Y229950D01*
G01X827641Y229373D01*
G01X827372Y228779D01*
G01X827141Y228167D01*
G01X826951Y227539D01*
G01X826803Y226902D01*
G01X826697Y226257D01*
G01X826631Y225604D01*
G01X826610Y224951D01*
G01X826631Y224298D01*
G01X826697Y223645D01*
G01X826803Y223000D01*
G01X826951Y222363D01*
G01X827141Y221735D01*
G01X827372Y221123D01*
G01X827641Y220529D01*
G01X827949Y219950D01*
G01X828297Y219396D01*
G01X828678Y218863D01*
G01X829092Y218357D01*
G01X829539Y217880D01*
G01X830016Y217433D01*
G01X830522Y217019D01*
G01X831055Y216638D01*
G01X831611Y216290D01*
G01X832188Y215982D01*
G01X832782Y215713D01*
G01X833395Y215482D01*
G01X834022Y215291D01*
G01X834659Y215144D01*
G01X835305Y215037D01*
G01X835957Y214971D01*
G01X836610Y214951D01*
G01X861611Y214951D01*
G01X862264Y214971D01*
G37*
G36*
G01X567269Y214971D02*
G01X567921Y215037D01*
G01X568567Y215144D01*
G01X569204Y215291D01*
G01X569831Y215482D01*
G01X570444Y215713D01*
G01X571038Y215982D01*
G01X571617Y216290D01*
G01X572171Y216638D01*
G01X572704Y217019D01*
G01X573210Y217433D01*
G01X573687Y217880D01*
G01X574134Y218357D01*
G01X574548Y218863D01*
G01X574929Y219396D01*
G01X575277Y219952D01*
G01X575585Y220529D01*
G01X575854Y221123D01*
G01X576085Y221735D01*
G01X576275Y222363D01*
G01X576423Y223000D01*
G01X576529Y223645D01*
G01X576595Y224298D01*
G01X576616Y224951D01*
G01X576595Y225604D01*
G01X576529Y226257D01*
G01X576423Y226902D01*
G01X576275Y227539D01*
G01X576085Y228167D01*
G01X575854Y228779D01*
G01X575585Y229373D01*
G01X575277Y229952D01*
G01X574929Y230506D01*
G01X574548Y231039D01*
G01X574134Y231545D01*
G01X573687Y232022D01*
G01X573210Y232469D01*
G01X572704Y232883D01*
G01X572171Y233264D01*
G01X571615Y233612D01*
G01X571038Y233920D01*
G01X570444Y234189D01*
G01X569831Y234420D01*
G01X569204Y234611D01*
G01X568567Y234758D01*
G01X567921Y234865D01*
G01X567269Y234931D01*
G01X566616Y234951D01*
G01X541615Y234951D01*
G01X540962Y234931D01*
G01X540309Y234865D01*
G01X539664Y234758D01*
G01X539026Y234611D01*
G01X538399Y234420D01*
G01X537787Y234189D01*
G01X537192Y233920D01*
G01X536613Y233612D01*
G01X536060Y233264D01*
G01X535526Y232883D01*
G01X535021Y232469D01*
G01X534543Y232022D01*
G01X534096Y231545D01*
G01X533682Y231039D01*
G01X533301Y230506D01*
G01X532953Y229950D01*
G01X532646Y229373D01*
G01X532377Y228779D01*
G01X532145Y228167D01*
G01X531955Y227539D01*
G01X531808Y226902D01*
G01X531701Y226257D01*
G01X531635Y225604D01*
G01X531615Y224951D01*
G01X531635Y224298D01*
G01X531701Y223645D01*
G01X531808Y223000D01*
G01X531955Y222363D01*
G01X532145Y221735D01*
G01X532377Y221123D01*
G01X532646Y220529D01*
G01X532953Y219950D01*
G01X533301Y219396D01*
G01X533682Y218863D01*
G01X534096Y218357D01*
G01X534543Y217880D01*
G01X535021Y217433D01*
G01X535526Y217019D01*
G01X536060Y216638D01*
G01X536616Y216290D01*
G01X537192Y215982D01*
G01X537787Y215713D01*
G01X538399Y215482D01*
G01X539026Y215291D01*
G01X539664Y215144D01*
G01X540309Y215037D01*
G01X540962Y214971D01*
G01X541615Y214951D01*
G01X566616Y214951D01*
G01X567269Y214971D01*
G37*
G36*
G01X862264Y254951D02*
G01X862917Y255017D01*
G01X863562Y255124D01*
G01X864200Y255271D01*
G01X864827Y255462D01*
G01X865439Y255693D01*
G01X866034Y255962D01*
G01X866613Y256269D01*
G01X867166Y256617D01*
G01X867700Y256998D01*
G01X868205Y257412D01*
G01X868683Y257859D01*
G01X869130Y258337D01*
G01X869544Y258842D01*
G01X869925Y259376D01*
G01X870273Y259932D01*
G01X870580Y260508D01*
G01X870849Y261103D01*
G01X871081Y261715D01*
G01X871271Y262342D01*
G01X871418Y262980D01*
G01X871525Y263625D01*
G01X871591Y264278D01*
G01X871611Y264931D01*
G01X871591Y265583D01*
G01X871525Y266236D01*
G01X871418Y266881D01*
G01X871271Y267519D01*
G01X871081Y268146D01*
G01X870849Y268758D01*
G01X870580Y269353D01*
G01X870273Y269932D01*
G01X869925Y270486D01*
G01X869544Y271019D01*
G01X869130Y271524D01*
G01X868683Y272002D01*
G01X868205Y272449D01*
G01X867700Y272863D01*
G01X867166Y273244D01*
G01X866610Y273592D01*
G01X866034Y273899D01*
G01X865439Y274169D01*
G01X864827Y274400D01*
G01X864200Y274590D01*
G01X863562Y274738D01*
G01X862917Y274844D01*
G01X862264Y274910D01*
G01X861611Y274931D01*
G01X836610Y274931D01*
G01X835957Y274910D01*
G01X835305Y274844D01*
G01X834659Y274738D01*
G01X834022Y274590D01*
G01X833395Y274400D01*
G01X832782Y274169D01*
G01X832188Y273899D01*
G01X831609Y273592D01*
G01X831055Y273244D01*
G01X830522Y272863D01*
G01X830016Y272449D01*
G01X829539Y272002D01*
G01X829092Y271524D01*
G01X828678Y271019D01*
G01X828297Y270486D01*
G01X827949Y269929D01*
G01X827641Y269353D01*
G01X827372Y268758D01*
G01X827141Y268146D01*
G01X826951Y267519D01*
G01X826803Y266881D01*
G01X826697Y266236D01*
G01X826631Y265583D01*
G01X826610Y264931D01*
G01X826631Y264278D01*
G01X826697Y263625D01*
G01X826803Y262980D01*
G01X826951Y262342D01*
G01X827141Y261715D01*
G01X827372Y261103D01*
G01X827641Y260508D01*
G01X827949Y259929D01*
G01X828297Y259376D01*
G01X828678Y258842D01*
G01X829092Y258337D01*
G01X829539Y257859D01*
G01X830016Y257412D01*
G01X830522Y256998D01*
G01X831055Y256617D01*
G01X831611Y256269D01*
G01X832188Y255962D01*
G01X832782Y255693D01*
G01X833395Y255462D01*
G01X834022Y255271D01*
G01X834659Y255124D01*
G01X835305Y255017D01*
G01X835957Y254951D01*
G01X836610Y254931D01*
G01X861611Y254931D01*
G01X862264Y254951D01*
G37*
G36*
G01X567269Y254951D02*
G01X567921Y255017D01*
G01X568567Y255124D01*
G01X569204Y255271D01*
G01X569831Y255462D01*
G01X570444Y255693D01*
G01X571038Y255962D01*
G01X571617Y256269D01*
G01X572171Y256617D01*
G01X572704Y256998D01*
G01X573210Y257412D01*
G01X573687Y257859D01*
G01X574134Y258337D01*
G01X574548Y258842D01*
G01X574929Y259376D01*
G01X575277Y259932D01*
G01X575585Y260508D01*
G01X575854Y261103D01*
G01X576085Y261715D01*
G01X576275Y262342D01*
G01X576423Y262980D01*
G01X576529Y263625D01*
G01X576595Y264278D01*
G01X576616Y264931D01*
G01X576595Y265583D01*
G01X576529Y266236D01*
G01X576423Y266881D01*
G01X576275Y267519D01*
G01X576085Y268146D01*
G01X575854Y268758D01*
G01X575585Y269353D01*
G01X575277Y269932D01*
G01X574929Y270486D01*
G01X574548Y271019D01*
G01X574134Y271524D01*
G01X573687Y272002D01*
G01X573210Y272449D01*
G01X572704Y272863D01*
G01X572171Y273244D01*
G01X571615Y273592D01*
G01X571038Y273899D01*
G01X570444Y274169D01*
G01X569831Y274400D01*
G01X569204Y274590D01*
G01X568567Y274738D01*
G01X567921Y274844D01*
G01X567269Y274910D01*
G01X566616Y274931D01*
G01X541615Y274931D01*
G01X540962Y274910D01*
G01X540309Y274844D01*
G01X539664Y274738D01*
G01X539026Y274590D01*
G01X538399Y274400D01*
G01X537787Y274169D01*
G01X537192Y273899D01*
G01X536613Y273592D01*
G01X536060Y273244D01*
G01X535526Y272863D01*
G01X535021Y272449D01*
G01X534543Y272002D01*
G01X534096Y271524D01*
G01X533682Y271019D01*
G01X533301Y270486D01*
G01X532953Y269929D01*
G01X532646Y269353D01*
G01X532377Y268758D01*
G01X532145Y268146D01*
G01X531955Y267519D01*
G01X531808Y266881D01*
G01X531701Y266236D01*
G01X531635Y265583D01*
G01X531615Y264931D01*
G01X531635Y264278D01*
G01X531701Y263625D01*
G01X531808Y262980D01*
G01X531955Y262342D01*
G01X532145Y261715D01*
G01X532377Y261103D01*
G01X532646Y260508D01*
G01X532953Y259929D01*
G01X533301Y259376D01*
G01X533682Y258842D01*
G01X534096Y258337D01*
G01X534543Y257859D01*
G01X535021Y257412D01*
G01X535526Y256998D01*
G01X536060Y256617D01*
G01X536616Y256269D01*
G01X537192Y255962D01*
G01X537787Y255693D01*
G01X538399Y255462D01*
G01X539026Y255271D01*
G01X539664Y255124D01*
G01X540309Y255017D01*
G01X540962Y254951D01*
G01X541615Y254931D01*
G01X566616Y254931D01*
G01X567269Y254951D01*
G37*
G36*
G01X556626Y319937D02*
G01X556626Y294936D01*
G01X581625Y294936D01*
G01X581625Y319937D01*
G01X556626Y319937D01*
G37*
G36*
G01X846623Y294938D02*
G01X846623Y319937D01*
G01X821622Y319937D01*
G01X821622Y294938D01*
G01X846623Y294938D01*
G37*
G36*
G01X721612Y299939D02*
G01X721612Y344938D01*
G01X681612Y344938D01*
G01X681612Y299939D01*
G01X721612Y299939D01*
G37*
G36*
G01X792259Y299957D02*
G01X792912Y300023D01*
G01X793557Y300130D01*
G01X794195Y300277D01*
G01X794822Y300468D01*
G01X795434Y300699D01*
G01X796029Y300968D01*
G01X796608Y301275D01*
G01X797161Y301623D01*
G01X797695Y302004D01*
G01X798200Y302418D01*
G01X798678Y302866D01*
G01X799125Y303343D01*
G01X799539Y303849D01*
G01X799920Y304382D01*
G01X800268Y304938D01*
G01X800575Y305515D01*
G01X800844Y306109D01*
G01X801076Y306721D01*
G01X801266Y307349D01*
G01X801413Y307986D01*
G01X801520Y308631D01*
G01X801586Y309284D01*
G01X801606Y309937D01*
G01X801606Y334938D01*
G01X801586Y335591D01*
G01X801520Y336244D01*
G01X801413Y336889D01*
G01X801266Y337526D01*
G01X801076Y338154D01*
G01X800844Y338766D01*
G01X800575Y339360D01*
G01X800268Y339939D01*
G01X799920Y340493D01*
G01X799539Y341026D01*
G01X799125Y341532D01*
G01X798678Y342009D01*
G01X798200Y342457D01*
G01X797695Y342871D01*
G01X797161Y343252D01*
G01X796605Y343600D01*
G01X796029Y343907D01*
G01X795434Y344176D01*
G01X794822Y344407D01*
G01X794195Y344598D01*
G01X793557Y344745D01*
G01X792912Y344852D01*
G01X792259Y344918D01*
G01X791606Y344938D01*
G01X790954Y344918D01*
G01X790301Y344852D01*
G01X789656Y344745D01*
G01X789018Y344598D01*
G01X788391Y344407D01*
G01X787779Y344176D01*
G01X787184Y343907D01*
G01X786608Y343600D01*
G01X786052Y343252D01*
G01X785518Y342871D01*
G01X785013Y342457D01*
G01X784535Y342009D01*
G01X784088Y341532D01*
G01X783674Y341026D01*
G01X783293Y340493D01*
G01X782945Y339937D01*
G01X782638Y339360D01*
G01X782369Y338766D01*
G01X782137Y338154D01*
G01X781947Y337526D01*
G01X781800Y336889D01*
G01X781693Y336244D01*
G01X781627Y335591D01*
G01X781607Y334938D01*
G01X781607Y309937D01*
G01X781627Y309284D01*
G01X781693Y308631D01*
G01X781800Y307986D01*
G01X781947Y307349D01*
G01X782137Y306721D01*
G01X782369Y306109D01*
G01X782638Y305515D01*
G01X782945Y304936D01*
G01X783293Y304382D01*
G01X783674Y303849D01*
G01X784088Y303343D01*
G01X784535Y302866D01*
G01X785013Y302418D01*
G01X785518Y302004D01*
G01X786052Y301623D01*
G01X786608Y301275D01*
G01X787184Y300968D01*
G01X787779Y300699D01*
G01X788391Y300468D01*
G01X789018Y300277D01*
G01X789656Y300130D01*
G01X790301Y300023D01*
G01X790954Y299957D01*
G01X791606Y299937D01*
G01X792259Y299957D01*
G37*
G36*
G01X652254Y299957D02*
G01X652907Y300023D01*
G01X653552Y300130D01*
G01X654190Y300277D01*
G01X654817Y300468D01*
G01X655429Y300699D01*
G01X656024Y300968D01*
G01X656603Y301275D01*
G01X657157Y301623D01*
G01X657690Y302004D01*
G01X658196Y302418D01*
G01X658673Y302866D01*
G01X659120Y303343D01*
G01X659534Y303849D01*
G01X659915Y304382D01*
G01X660263Y304938D01*
G01X660570Y305515D01*
G01X660840Y306109D01*
G01X661071Y306721D01*
G01X661261Y307349D01*
G01X661409Y307986D01*
G01X661515Y308631D01*
G01X661581Y309284D01*
G01X661602Y309937D01*
G01X661602Y334938D01*
G01X661581Y335591D01*
G01X661515Y336244D01*
G01X661409Y336889D01*
G01X661261Y337526D01*
G01X661071Y338154D01*
G01X660840Y338766D01*
G01X660570Y339360D01*
G01X660263Y339939D01*
G01X659915Y340493D01*
G01X659534Y341026D01*
G01X659120Y341532D01*
G01X658673Y342009D01*
G01X658196Y342457D01*
G01X657690Y342871D01*
G01X657157Y343252D01*
G01X656600Y343600D01*
G01X656024Y343907D01*
G01X655429Y344176D01*
G01X654817Y344407D01*
G01X654190Y344598D01*
G01X653552Y344745D01*
G01X652907Y344852D01*
G01X652254Y344918D01*
G01X651602Y344938D01*
G01X650949Y344918D01*
G01X650296Y344852D01*
G01X649651Y344745D01*
G01X649013Y344598D01*
G01X648386Y344407D01*
G01X647774Y344176D01*
G01X647180Y343907D01*
G01X646603Y343600D01*
G01X646047Y343252D01*
G01X645513Y342871D01*
G01X645008Y342457D01*
G01X644530Y342009D01*
G01X644083Y341532D01*
G01X643669Y341026D01*
G01X643288Y340493D01*
G01X642940Y339937D01*
G01X642633Y339360D01*
G01X642364Y338766D01*
G01X642133Y338154D01*
G01X641942Y337526D01*
G01X641795Y336889D01*
G01X641688Y336244D01*
G01X641622Y335591D01*
G01X641602Y334938D01*
G01X641602Y309937D01*
G01X641622Y309284D01*
G01X641688Y308631D01*
G01X641795Y307986D01*
G01X641942Y307349D01*
G01X642133Y306721D01*
G01X642364Y306109D01*
G01X642633Y305515D01*
G01X642940Y304936D01*
G01X643288Y304382D01*
G01X643669Y303849D01*
G01X644083Y303343D01*
G01X644530Y302866D01*
G01X645008Y302418D01*
G01X645513Y302004D01*
G01X646047Y301623D01*
G01X646603Y301275D01*
G01X647180Y300968D01*
G01X647774Y300699D01*
G01X648386Y300468D01*
G01X649013Y300277D01*
G01X649651Y300130D01*
G01X650296Y300023D01*
G01X650949Y299957D01*
G01X651602Y299937D01*
G01X652254Y299957D01*
G37*
G36*
G01X750296Y300023D02*
G01X750949Y299957D01*
G01X751601Y299937D01*
G01X752254Y299957D01*
G01X752907Y300023D01*
G01X753552Y300130D01*
G01X754190Y300277D01*
G01X754817Y300468D01*
G01X755429Y300699D01*
G01X756024Y300968D01*
G01X756603Y301275D01*
G01X757156Y301623D01*
G01X757690Y302004D01*
G01X758195Y302418D01*
G01X758673Y302866D01*
G01X759120Y303343D01*
G01X759534Y303849D01*
G01X759915Y304382D01*
G01X760263Y304938D01*
G01X760570Y305515D01*
G01X760839Y306109D01*
G01X761071Y306721D01*
G01X761261Y307349D01*
G01X761408Y307986D01*
G01X761515Y308631D01*
G01X761581Y309284D01*
G01X761601Y309937D01*
G01X761601Y334938D01*
G01X761581Y335591D01*
G01X761515Y336244D01*
G01X761408Y336889D01*
G01X761261Y337526D01*
G01X761071Y338154D01*
G01X760839Y338766D01*
G01X760570Y339360D01*
G01X760263Y339939D01*
G01X759915Y340493D01*
G01X759534Y341026D01*
G01X759120Y341532D01*
G01X758673Y342009D01*
G01X758195Y342457D01*
G01X757690Y342871D01*
G01X757156Y343252D01*
G01X756600Y343600D01*
G01X756024Y343907D01*
G01X755429Y344176D01*
G01X754817Y344407D01*
G01X754190Y344598D01*
G01X753552Y344745D01*
G01X752907Y344852D01*
G01X752254Y344918D01*
G01X751601Y344938D01*
G01X750949Y344918D01*
G01X750296Y344852D01*
G01X749651Y344745D01*
G01X749013Y344598D01*
G01X748386Y344407D01*
G01X747774Y344176D01*
G01X747179Y343907D01*
G01X746603Y343600D01*
G01X746047Y343252D01*
G01X745513Y342871D01*
G01X745008Y342457D01*
G01X744530Y342009D01*
G01X744083Y341532D01*
G01X743669Y341026D01*
G01X743288Y340493D01*
G01X742940Y339937D01*
G01X742633Y339360D01*
G01X742364Y338766D01*
G01X742132Y338154D01*
G01X741942Y337526D01*
G01X741795Y336889D01*
G01X741688Y336244D01*
G01X741622Y335591D01*
G01X741602Y334938D01*
G01X741602Y309937D01*
G01X741622Y309284D01*
G01X741688Y308631D01*
G01X741795Y307986D01*
G01X741942Y307349D01*
G01X742132Y306721D01*
G01X742364Y306109D01*
G01X742633Y305515D01*
G01X742940Y304936D01*
G01X743288Y304382D01*
G01X743669Y303849D01*
G01X744083Y303343D01*
G01X744530Y302866D01*
G01X745008Y302418D01*
G01X745513Y302004D01*
G01X746047Y301623D01*
G01X746603Y301275D01*
G01X747179Y300968D01*
G01X747774Y300699D01*
G01X748386Y300468D01*
G01X749013Y300277D01*
G01X749651Y300130D01*
G01X750296Y300023D01*
G37*
G36*
G01X610317Y300023D02*
G01X610969Y299957D01*
G01X611622Y299937D01*
G01X612275Y299957D01*
G01X612928Y300023D01*
G01X613573Y300130D01*
G01X614210Y300277D01*
G01X614838Y300468D01*
G01X615450Y300699D01*
G01X616044Y300968D01*
G01X616623Y301275D01*
G01X617177Y301623D01*
G01X617710Y302004D01*
G01X618216Y302418D01*
G01X618693Y302866D01*
G01X619140Y303343D01*
G01X619555Y303849D01*
G01X619936Y304382D01*
G01X620283Y304938D01*
G01X620591Y305515D01*
G01X620860Y306109D01*
G01X621091Y306721D01*
G01X621282Y307349D01*
G01X621429Y307986D01*
G01X621536Y308631D01*
G01X621602Y309284D01*
G01X621622Y309937D01*
G01X621622Y334938D01*
G01X621602Y335591D01*
G01X621536Y336244D01*
G01X621429Y336889D01*
G01X621282Y337526D01*
G01X621091Y338154D01*
G01X620860Y338766D01*
G01X620591Y339360D01*
G01X620283Y339939D01*
G01X619936Y340493D01*
G01X619555Y341026D01*
G01X619140Y341532D01*
G01X618693Y342009D01*
G01X618216Y342457D01*
G01X617710Y342871D01*
G01X617177Y343252D01*
G01X616621Y343600D01*
G01X616044Y343907D01*
G01X615450Y344176D01*
G01X614838Y344407D01*
G01X614210Y344598D01*
G01X613573Y344745D01*
G01X612928Y344852D01*
G01X612275Y344918D01*
G01X611622Y344938D01*
G01X610969Y344918D01*
G01X610317Y344852D01*
G01X609671Y344745D01*
G01X609034Y344598D01*
G01X608406Y344407D01*
G01X607794Y344176D01*
G01X607200Y343907D01*
G01X606623Y343600D01*
G01X606067Y343252D01*
G01X605534Y342871D01*
G01X605028Y342457D01*
G01X604551Y342009D01*
G01X604104Y341532D01*
G01X603690Y341026D01*
G01X603309Y340493D01*
G01X602961Y339937D01*
G01X602653Y339360D01*
G01X602384Y338766D01*
G01X602153Y338154D01*
G01X601962Y337526D01*
G01X601815Y336889D01*
G01X601708Y336244D01*
G01X601642Y335591D01*
G01X601622Y334938D01*
G01X601622Y309937D01*
G01X601642Y309284D01*
G01X601708Y308631D01*
G01X601815Y307986D01*
G01X601962Y307349D01*
G01X602153Y306721D01*
G01X602384Y306109D01*
G01X602653Y305515D01*
G01X602961Y304936D01*
G01X603309Y304382D01*
G01X603690Y303849D01*
G01X604104Y303343D01*
G01X604551Y302866D01*
G01X605028Y302418D01*
G01X605534Y302004D01*
G01X606067Y301623D01*
G01X606623Y301275D01*
G01X607200Y300968D01*
G01X607794Y300699D01*
G01X608406Y300468D01*
G01X609034Y300277D01*
G01X609671Y300130D01*
G01X610317Y300023D01*
G37*
G36*
G01X777611Y98939D02*
G01X625612Y98939D01*
G01X625612Y250938D01*
G01X777611Y250938D01*
G01X777611Y98939D01*
G37*
G36*
G01X281460Y-1440D02*
G01X281460Y-29040D01*
G01X279060Y-31440D01*
G01X252646Y-31440D01*
G01X250248Y-29040D01*
G01X250248Y-1440D01*
G01X252646Y960D01*
G01X279060Y960D01*
G01X281460Y-1440D01*
G37*
G36*
G01X297660Y-1440D02*
G01X297660Y-29040D01*
G01X300060Y-31440D01*
G01X326474Y-31440D01*
G01X328872Y-29040D01*
G01X328872Y-1440D01*
G01X326474Y960D01*
G01X300060Y960D01*
G01X297660Y-1440D01*
G37*
G36*
G01X-603080Y-551660D02*
G01X-575480Y-551660D01*
G01X-573080Y-554060D01*
G01X-573080Y-587004D01*
G01X-575480Y-589404D01*
G01X-603080Y-589404D01*
G01X-605480Y-587004D01*
G01X-605480Y-554060D01*
G01X-603080Y-551660D01*
G37*
G36*
G01X-603080Y-535460D02*
G01X-575480Y-535460D01*
G01X-573080Y-533060D01*
G01X-573080Y-500116D01*
G01X-575480Y-497716D01*
G01X-603080Y-497716D01*
G01X-605480Y-500116D01*
G01X-605480Y-533060D01*
G01X-603080Y-535460D01*
G37*
G36*
G01X-500626Y-740630D02*
G01X-481110Y-721114D01*
G01X-481110Y-717720D01*
G01X-504404Y-694425D01*
G01X-507799Y-694425D01*
G01X-527315Y-713941D01*
G01X-527315Y-717336D01*
G01X-504020Y-740630D01*
G01X-500626Y-740630D01*
G37*
G36*
G01X-489170Y-752086D02*
G01X-469654Y-732570D01*
G01X-466260Y-732570D01*
G01X-442965Y-755864D01*
G01X-442965Y-759259D01*
G01X-462481Y-778775D01*
G01X-465876Y-778775D01*
G01X-489170Y-755480D01*
G01X-489170Y-752086D01*
G37*
G36*
G01X836460Y-89040D02*
G01X836460Y-43040D01*
G01X840461Y-39040D01*
G01X890524Y-39040D01*
G01X894525Y-43040D01*
G01X894525Y-89040D01*
G01X890524Y-93040D01*
G01X840461Y-93040D01*
G01X836460Y-89040D01*
G37*
G36*
G01X809460Y-89040D02*
G01X809460Y-43040D01*
G01X805459Y-39040D01*
G01X755396Y-39040D01*
G01X751396Y-43040D01*
G01X751396Y-89040D01*
G01X755396Y-93040D01*
G01X805459Y-93040D01*
G01X809460Y-89040D01*
G37*
G36*
G01X-378236Y-22502D02*
G01X-378236Y22499D01*
G01X-371239Y27498D01*
G01X-323238Y27498D01*
G01X-318237Y22499D01*
G01X-318237Y-22502D01*
G01X-323238Y-27501D01*
G01X-371239Y-27501D01*
G01X-378236Y-22502D01*
G37*
G36*
G01X-474238Y-22502D02*
G01X-474238Y22499D01*
G01X-469237Y27498D01*
G01X-421239Y27498D01*
G01X-414238Y22499D01*
G01X-414238Y-22502D01*
G01X-421239Y-27501D01*
G01X-469237Y-27501D01*
G01X-474238Y-22502D01*
G37*
G36*
G01X201958Y-966132D02*
G01X201958Y-993732D01*
G01X199558Y-996132D01*
G01X166614Y-996132D01*
G01X164214Y-993732D01*
G01X164214Y-966132D01*
G01X166614Y-963732D01*
G01X199558Y-963732D01*
G01X201958Y-966132D01*
G37*
G36*
G01X218158Y-966132D02*
G01X218158Y-993732D01*
G01X220558Y-996132D01*
G01X253502Y-996132D01*
G01X255902Y-993732D01*
G01X255902Y-966132D01*
G01X253502Y-963732D01*
G01X220558Y-963732D01*
G01X218158Y-966132D01*
G37*
G36*
G01X-353306Y-839250D02*
G01X-333790Y-858766D01*
G01X-333790Y-862160D01*
G01X-357084Y-885455D01*
G01X-360479Y-885455D01*
G01X-379995Y-865939D01*
G01X-379995Y-862544D01*
G01X-356700Y-839250D01*
G01X-353306Y-839250D01*
G37*
G36*
G01X-341850Y-827794D02*
G01X-322334Y-847310D01*
G01X-318940Y-847310D01*
G01X-295645Y-824016D01*
G01X-295645Y-820621D01*
G01X-315161Y-801105D01*
G01X-318556Y-801105D01*
G01X-341850Y-824400D01*
G01X-341850Y-827794D01*
G37*
G36*
G01X-263680Y-935820D02*
G01X-263680Y-908220D01*
G01X-261280Y-905820D01*
G01X-234866Y-905820D01*
G01X-232468Y-908220D01*
G01X-232468Y-935820D01*
G01X-234866Y-938220D01*
G01X-261280Y-938220D01*
G01X-263680Y-935820D01*
G37*
G36*
G01X-279880Y-935820D02*
G01X-279880Y-908220D01*
G01X-282280Y-905820D01*
G01X-308694Y-905820D01*
G01X-311092Y-908220D01*
G01X-311092Y-935820D01*
G01X-308694Y-938220D01*
G01X-282280Y-938220D01*
G01X-279880Y-935820D01*
G37*

G04 Pad Start*
G54D10*
G01X-852315Y213372D03*
G01X-852315Y115785D03*
G01X-724706Y115785D03*
G01X-724706Y213372D03*
G54D11*
G01X-751037Y-40445D03*
G01X-856040Y-40445D03*
G54D12*
G01X-825160Y-191438D03*
G54D13*
G01X-825160Y-226438D03*
G01X-825160Y-261438D03*
G01X-825160Y-296438D03*
G01X-825160Y-331438D03*
G01X-825160Y-366438D03*
G54D14*
G01X-825160Y-401438D03*
G54D15*
G01X-797660Y-428938D03*
G54D16*
G01X-762660Y-428938D03*
G01X-727660Y-428938D03*
G01X-692660Y-428938D03*
G01X-657660Y-428938D03*
G01X-622660Y-428938D03*
G54D17*
G01X-587660Y-428938D03*
G54D19*
G01X-560161Y-401438D03*
G54D13*
G01X-560160Y-366438D03*
G01X-560160Y-331438D03*
G01X-560160Y-296438D03*
G01X-560160Y-261438D03*
G01X-560160Y-226438D03*
G54D20*
G01X-560161Y-191438D03*
G54D21*
G01X-587660Y-163938D03*
G54D16*
G01X-622660Y-163938D03*
G01X-657660Y-163938D03*
G01X-692660Y-163938D03*
G01X-727660Y-163938D03*
G01X-762660Y-163938D03*
G54D22*
G01X-797660Y-163938D03*
G54D23*
G01X-692660Y-296438D03*
G54D24*
G01X84992Y-961519D03*
G01X-94992Y-961595D03*
G54D25*
G01X-626233Y469745D03*
G01X-626233Y668145D03*
G54D26*
G01X606539Y662419D03*
G01X606539Y597421D03*
G01X541541Y597421D03*
G54D27*
G01X541541Y662429D03*
G54D28*
G01X527237Y-187332D03*
G01X670033Y-212510D03*
G54D29*
G01X650741Y-664221D03*
G01X389768Y-618204D03*
G04 Pad End*

M02*

