G04 Layer: DrillDrawingLayer*
G04 EasyEDA Pro v2.2.39.2, 2025-05-28 09:36:40*
G04 Gerber Generator version 0.3*
G04 Scale: 100 percent, Rotated: No, Reflected: No*
G04 Dimensions in millimeters*
G04 Leading zeros omitted, absolute positions, 4 integers and 5 decimals*
G04 Generated by one-click*
%FSLAX45Y45*%
%MOMM*%
%AMIconRect*4,1,4,0.2,-0.2,-0.2,-0.2,-0.2,0.2,0.2,0.2,0.2,-0.2,0*4,0,4,0.166667,-0.166667,0.166667,0.166667,-0.166667,0.166667,-0.166667,-0.166667,0.166667,-0.166667,0*%
%ADD10IconRect*%
G75*


G04 Drill Drawing Start*
G54D10*
G01X-1019305Y-108170D03*
G01X-1008380Y162560D03*
G01X-962374Y-158213D03*
G01X-932180Y32366D03*
G01X-932180Y94060D03*
G01X-932180Y156593D03*
G01X-932140Y220940D03*
G01X-929640Y-48260D03*
G01X-926701Y-108580D03*
G01X-922140Y439460D03*
G01X-919638Y-200663D03*
G01X-919270Y-297893D03*
G01X-886481Y-409009D03*
G01X-884859Y-348787D03*
G01X-883033Y-249364D03*
G01X-871220Y44509D03*
G01X-861829Y-122971D03*
G01X-855492Y-465826D03*
G01X-851522Y307340D03*
G01X-850900Y-556260D03*
G01X-792413Y-489924D03*
G01X-787480Y640279D03*
G01X-786070Y-550244D03*
G01X-772160Y307872D03*
G01X-772160Y379681D03*
G01X-772160Y444500D03*
G01X-761166Y-346281D03*
G01X-725750Y-548151D03*
G01X-712661Y-304226D03*
G01X-711304Y571345D03*
G01X-708660Y307340D03*
G01X-706120Y378460D03*
G01X-703066Y-363674D03*
G01X-693511Y-67098D03*
G01X-678220Y-764620D03*
G01X-676158Y467520D03*
G01X-670370Y-518226D03*
G01X-655738Y-120188D03*
G01X-648176Y-308783D03*
G01X-647660Y-580822D03*
G01X-639666Y307340D03*
G01X-626233Y583141D03*
G01X-624840Y381000D03*
G01X-622530Y-665032D03*
G01X-620550Y7340D03*
G01X-607528Y470020D03*
G01X-585029Y-715035D03*
G01X-580512Y-37928D03*
G01X-540554Y-487680D03*
G01X-540026Y-757537D03*
G01X-532526Y-550146D03*
G01X-517176Y-334044D03*
G01X-490024Y-810040D03*
G01X-490024Y-655032D03*
G01X-482319Y-591578D03*
G01X-477520Y-433372D03*
G01X-472440Y-530860D03*
G01X-467360Y906780D03*
G01X-458728Y379163D03*
G01X-447522Y-855042D03*
G01X-445501Y-699458D03*
G01X-430021Y-920045D03*
G01X-401160Y-739982D03*
G01X-398780Y-177800D03*
G01X-388126Y217806D03*
G01X-369701Y-906683D03*
G01X-368300Y-520700D03*
G01X-335016Y-735036D03*
G01X-330200Y374859D03*
G01X-325120Y-581660D03*
G01X-315363Y-975309D03*
G01X-292594Y294717D03*
G01X-290781Y-784940D03*
G01X-284965Y200739D03*
G01X-274320Y-632460D03*
G01X-253972Y-862809D03*
G01X-249933Y12580D03*
G01X-248674Y347643D03*
G01X-238760Y-995680D03*
G01X-236515Y635390D03*
G01X-230011Y-805039D03*
G01X-227511Y-740036D03*
G01X-215010Y-675033D03*
G01X-166005Y640550D03*
G01X-160008Y-720035D03*
G01X-130154Y173214D03*
G01X-80004Y-720035D03*
G01X-58420Y1021080D03*
G01X-57273Y88411D03*
G01X-31454Y220980D03*
G01X0Y-720035D03*
G01X14935Y697640D03*
G01X28866Y241300D03*
G01X72504Y-720035D03*
G01X155008Y-720035D03*
G01X193816Y352413D03*
G01X196138Y-661164D03*
G01X226180Y-720354D03*
G01X228680Y-788038D03*
G01X230011Y-925045D03*
G01X230011Y-857542D03*
G01X249197Y305757D03*
G01X266538Y121557D03*
G01X269240Y-601980D03*
G01X297180Y977900D03*
G01X309681Y-833080D03*
G01X310000Y-916422D03*
G01X311184Y-761268D03*
G01X314518Y300709D03*
G01X324207Y170254D03*
G01X335016Y412465D03*
G01X341750Y77046D03*
G01X372930Y131171D03*
G01X401397Y249780D03*
G01X408940Y-167640D03*
G01X468471Y127774D03*
G01X474122Y200856D03*
G01X475136Y662419D03*
G01X475240Y420675D03*
G01X488430Y44824D03*
G01X530860Y-855980D03*
G01X574540Y833899D03*
G01X580230Y-752958D03*
G01X583766Y-116840D03*
G01X632834Y373866D03*
G01X680720Y614680D03*
G01X699478Y364570D03*
G01X702097Y552053D03*
G01X703580Y238640D03*
G01X727383Y-43892D03*
G01X737174Y169858D03*
G01X772293Y108958D03*
G01X773604Y521442D03*
G01X777240Y-647700D03*
G01X806116Y-256209D03*
G01X808080Y-453806D03*
G01X828040Y571500D03*
G01X874263Y347253D03*
G01X881659Y-241460D03*
G01X898064Y448798D03*
G01X907491Y177478D03*
G01X995680Y-208280D03*
G01X995680Y93960D03*
G04 Drill Drawing End*

M02*

