G04 Layer: BottomLayer*
G04 EasyEDA Pro v2.2.39.2, 2025-05-28 09:36:40*
G04 Gerber Generator version 0.3*
G04 Scale: 100 percent, Rotated: No, Reflected: No*
G04 Dimensions in millimeters*
G04 Leading zeros omitted, absolute positions, 4 integers and 5 decimals*
G04 Generated by one-click*
%FSLAX45Y45*%
%MOMM*%
%ADD10C,0.2032*%
%ADD11C,0.254*%
%ADD12C,1.0*%
%ADD13C,0.4*%
%ADD14C,0.5*%
%ADD15C,0.1034*%
%ADD16C,0.1016*%
%ADD17C,0.1524*%
%ADD18C,0.381*%
G75*


G04 Copper Start*
G36*
G01X-833932Y620052D02*
G01X-793651Y670840D01*
G01X-750281Y719017D01*
G01X-703993Y764396D01*
G01X-654965Y806801D01*
G01X-603389Y846067D01*
G01X-549464Y882041D01*
G01X-493402Y914583D01*
G01X-435420Y943566D01*
G01X-375744Y968877D01*
G01X-314606Y990419D01*
G01X-252244Y1008107D01*
G01X-188900Y1021873D01*
G01X-124821Y1031662D01*
G01X-60257Y1037437D01*
G01X4542Y1039176D01*
G01X69323Y1036871D01*
G01X133835Y1030532D01*
G01X197826Y1020182D01*
G01X261047Y1005864D01*
G01X323252Y987631D01*
G01X384199Y965556D01*
G01X443652Y939723D01*
G01X501378Y910235D01*
G01X557154Y877204D01*
G01X610761Y840760D01*
G01X661993Y801045D01*
G01X710648Y758213D01*
G01X756538Y712431D01*
G01X799485Y663876D01*
G01X839320Y612739D01*
G01X875890Y559217D01*
G01X909052Y503520D01*
G01X896475Y504589D01*
G01X883978Y502805D01*
G01X872203Y498259D01*
G01X861750Y491183D01*
G01X853154Y481939D01*
G01X838138Y490587D01*
G01X821689Y496041D01*
G01X804481Y498080D01*
G01X787214Y496620D01*
G01X770592Y491720D01*
G01X755293Y483581D01*
G01X741941Y472535D01*
G01X731081Y459031D01*
G01X723156Y443621D01*
G01X718488Y426932D01*
G01X717267Y409647D01*
G01X719545Y392468D01*
G01X725227Y376097D01*
G01X734082Y361202D01*
G01X745750Y348389D01*
G01X759753Y338182D01*
G01X775522Y330996D01*
G01X792413Y327124D01*
G01X809737Y326725D01*
G01X826789Y329815D01*
G01X842871Y336267D01*
G01X857330Y345819D01*
G01X869575Y358081D01*
G01X879107Y372553D01*
G01X886099Y376451D01*
G01X892256Y381565D01*
G01X903991Y393300D01*
G01X917781Y396582D01*
G01X930299Y403233D01*
G01X940738Y412824D01*
G01X948424Y424734D01*
G01X971918Y367808D01*
G01X991999Y309589D01*
G01X1008596Y250284D01*
G01X1021650Y190099D01*
G01X1031117Y129247D01*
G01X1036963Y67940D01*
G01X1039166Y6396D01*
G01X1037720Y-55172D01*
G01X1032630Y-116545D01*
G01X1023913Y-177509D01*
G01X1011600Y-237850D01*
G01X995734Y-297355D01*
G01X976372Y-355817D01*
G01X953580Y-413028D01*
G01X927440Y-468789D01*
G01X898042Y-522904D01*
G01X865490Y-575182D01*
G01X829899Y-625440D01*
G01X791393Y-673501D01*
G01X750108Y-719198D01*
G01X706188Y-762368D01*
G01X659789Y-802861D01*
G01X611072Y-840535D01*
G01X560209Y-875256D01*
G01X507379Y-906904D01*
G01X452766Y-935366D01*
G01X396564Y-960544D01*
G01X338969Y-982348D01*
G01X280183Y-1000702D01*
G01X220414Y-1015542D01*
G01X220414Y-757804D01*
G01X399944Y-757804D01*
G01X402123Y-774822D01*
G01X407643Y-791067D01*
G01X416284Y-805889D01*
G01X427700Y-818696D01*
G01X441436Y-828977D01*
G01X456942Y-836320D01*
G01X473599Y-840432D01*
G01X490741Y-841149D01*
G01X507683Y-838443D01*
G01X523748Y-832420D01*
G01X538294Y-823323D01*
G01X550741Y-811514D01*
G01X553203Y-808628D01*
G01X556976Y-803697D01*
G01X570440Y-807907D01*
G01X584530Y-808606D01*
G01X598344Y-805751D01*
G01X611002Y-799523D01*
G01X621694Y-790321D01*
G01X629737Y-778731D01*
G01X634618Y-765495D01*
G01X636024Y-751459D01*
G01X636024Y-751459D01*
G01X633866Y-737518D01*
G01X628281Y-724563D01*
G01X619627Y-713423D01*
G01X608456Y-704808D01*
G01X595482Y-699269D01*
G01X581534Y-697160D01*
G01X567503Y-698615D01*
G01X554284Y-703542D01*
G01X550251Y-698821D01*
G01X547638Y-696071D01*
G01X534575Y-684948D01*
G01X519561Y-676645D01*
G01X503196Y-671494D01*
G01X486133Y-669702D01*
G01X469054Y-671339D01*
G01X452642Y-676340D01*
G01X437553Y-684505D01*
G01X424389Y-695509D01*
G01X413677Y-708911D01*
G01X405845Y-724176D01*
G01X401205Y-740693D01*
G01X399944Y-757804D01*
G01X220414Y-757804D01*
G01X220414Y-735597D01*
G01X219019Y-730390D01*
G01X215207Y-726579D01*
G01X210000Y-725183D01*
G01X-210000Y-725183D01*
G01X-215207Y-726579D01*
G01X-219019Y-730390D01*
G01X-220414Y-735597D01*
G01X-220414Y-1015542D01*
G01X-283302Y-999824D01*
G01X-345087Y-980215D01*
G01X-405530Y-956793D01*
G01X-464395Y-929648D01*
G01X-521452Y-898885D01*
G01X-538979Y-887973D01*
G01X-436609Y-887973D01*
G01X-433439Y-905476D01*
G01X-426728Y-921949D01*
G01X-416766Y-936685D01*
G01X-408143Y-947148D01*
G01X-397252Y-955223D01*
G01X-384735Y-960434D01*
G01X-384735Y-960434D01*
G01X-367740Y-965686D01*
G01X-350028Y-967321D01*
G01X-332359Y-965269D01*
G01X-315493Y-959619D01*
G01X-300154Y-950613D01*
G01X-287002Y-938638D01*
G01X-276600Y-924209D01*
G01X-269397Y-907946D01*
G01X-265701Y-890547D01*
G01X-265672Y-872759D01*
G01X-269311Y-855348D01*
G01X-276460Y-839061D01*
G01X-286814Y-824598D01*
G01X-299928Y-812580D01*
G01X-315237Y-803524D01*
G01X-332085Y-797818D01*
G01X-349746Y-795709D01*
G01X-367464Y-797285D01*
G01X-384475Y-802481D01*
G01X-400050Y-811072D01*
G01X-413520Y-822690D01*
G01X-424304Y-836835D01*
G01X-431941Y-852899D01*
G01X-436103Y-870193D01*
G01X-436609Y-887973D01*
G01X-538979Y-887973D01*
G01X-576481Y-864625D01*
G01X-629267Y-827001D01*
G01X-679604Y-786159D01*
G01X-727297Y-742257D01*
G01X-772160Y-695468D01*
G01X-814019Y-645973D01*
G01X-852710Y-593964D01*
G01X-888083Y-539644D01*
G01X-920001Y-483224D01*
G01X-948339Y-424924D01*
G01X-972987Y-364971D01*
G01X-993849Y-303598D01*
G01X-1010844Y-241043D01*
G01X-1023906Y-177550D01*
G01X-1026025Y-162565D01*
G01X-1018018Y-162565D01*
G01X-1015100Y-176520D01*
G01X-1008742Y-189280D01*
G01X-999358Y-200014D01*
G01X-987562Y-208020D01*
G01X-974121Y-212776D01*
G01X-970386Y-223897D01*
G01X-964409Y-233991D01*
G01X-956453Y-242613D01*
G01X-946872Y-249382D01*
G01X-956920Y-256691D01*
G01X-965103Y-266041D01*
G01X-971014Y-276970D01*
G01X-974361Y-288937D01*
G01X-974977Y-301347D01*
G01X-972833Y-313586D01*
G01X-968034Y-325047D01*
G01X-960818Y-335163D01*
G01X-951543Y-343431D01*
G01X-940669Y-349443D01*
G01X-938538Y-364074D01*
G01X-932641Y-377633D01*
G01X-938872Y-389764D01*
G01X-941975Y-403045D01*
G01X-941765Y-416682D01*
G01X-938254Y-429860D01*
G01X-931651Y-441794D01*
G01X-922352Y-451770D01*
G01X-910910Y-459193D01*
G01X-910851Y-472934D01*
G01X-907437Y-486245D01*
G01X-900873Y-498318D01*
G01X-891559Y-508421D01*
G01X-880058Y-515943D01*
G01X-867068Y-520426D01*
G01X-853377Y-521599D01*
G01X-839813Y-519392D01*
G01X-835841Y-524984D01*
G01X-840715Y-538881D01*
G01X-841785Y-553570D01*
G01X-838975Y-568027D01*
G01X-832482Y-581245D01*
G01X-822758Y-592306D01*
G01X-810479Y-600438D01*
G01X-796500Y-605074D01*
G01X-781796Y-605894D01*
G01X-767389Y-602838D01*
G01X-754282Y-596121D01*
G01X-743978Y-600905D01*
G01X-732919Y-603503D01*
G01X-721563Y-603808D01*
G01X-710381Y-601807D01*
G01X-699835Y-597584D01*
G01X-690363Y-591313D01*
G01X-682356Y-583254D01*
G01X-676148Y-573740D01*
G01X-662659Y-573505D01*
G01X-649621Y-570040D01*
G01X-637795Y-563548D01*
G01X-627872Y-554408D01*
G01X-620432Y-543154D01*
G01X-615910Y-530443D01*
G01X-614569Y-517019D01*
G01X-616489Y-503666D01*
G01X-621556Y-491163D01*
G01X-629476Y-480241D01*
G01X-629476Y-462298D01*
G01X-547851Y-380673D01*
G01X-535795Y-386661D01*
G01X-522656Y-389588D01*
G01X-509198Y-389285D01*
G01X-496205Y-385768D01*
G01X-484431Y-379243D01*
G01X-474562Y-370089D01*
G01X-467171Y-358838D01*
G01X-462689Y-346144D01*
G01X-461377Y-332747D01*
G01X-463310Y-319426D01*
G01X-468377Y-306954D01*
G01X-476282Y-296059D01*
G01X-476282Y-202172D01*
G01X-152180Y121930D01*
G01X-139366Y118166D01*
G01X-126024Y117553D01*
G01X-112918Y120128D01*
G01X-100800Y125742D01*
G01X-90362Y134075D01*
G01X-82203Y144649D01*
G01X-76790Y156859D01*
G01X-74432Y170005D01*
G01X-54186Y170005D01*
G01X-42230Y166216D01*
G01X-29729Y165193D01*
G01X-17315Y166986D01*
G01X-5616Y171507D01*
G01X4779Y178525D01*
G01X13344Y187688D01*
G01X26810Y185524D01*
G01X45567Y166767D01*
G01X33634Y155034D01*
G01X24205Y141209D01*
G01X17638Y125816D01*
G01X14184Y109441D01*
G01X13973Y92708D01*
G01X17014Y76252D01*
G01X-22291Y78235D01*
G01X-61599Y76305D01*
G01X-100522Y70482D01*
G01X-138673Y60822D01*
G01X-175677Y47420D01*
G01X-211167Y30411D01*
G01X-244792Y9961D01*
G01X-276220Y-13727D01*
G01X-305141Y-40419D01*
G01X-331268Y-69851D01*
G01X-354343Y-101732D01*
G01X-374137Y-135747D01*
G01X-390457Y-171559D01*
G01X-403139Y-208816D01*
G01X-412058Y-247147D01*
G01X-417127Y-286175D01*
G01X-418296Y-325513D01*
G01X-415552Y-364773D01*
G01X-408922Y-403566D01*
G01X-398474Y-441509D01*
G01X-384308Y-478227D01*
G01X-366567Y-513356D01*
G01X-345424Y-546551D01*
G01X-321090Y-577481D01*
G01X-293805Y-605842D01*
G01X-263837Y-631353D01*
G01X-231485Y-653763D01*
G01X-197067Y-672848D01*
G01X-160924Y-688422D01*
G01X-123413Y-700329D01*
G01X-84905Y-708452D01*
G01X-45780Y-712711D01*
G01X-6427Y-713064D01*
G01X32768Y-709507D01*
G01X71415Y-702075D01*
G01X109134Y-690842D01*
G01X145550Y-675919D01*
G01X180304Y-657453D01*
G01X213053Y-635627D01*
G01X243473Y-610657D01*
G01X271262Y-582789D01*
G01X296147Y-552300D01*
G01X646334Y-614047D01*
G01X661252Y-615351D01*
G01X676170Y-614041D01*
G01X690633Y-610158D01*
G01X704201Y-603820D01*
G01X716461Y-595219D01*
G01X717725Y-594105D01*
G01X772294Y-543656D01*
G01X773505Y-542483D01*
G01X784293Y-529061D01*
G01X792184Y-513756D01*
G01X796860Y-497183D01*
G01X808872Y-429064D01*
G01X809409Y-425610D01*
G01X824475Y-428125D01*
G01X839749Y-427929D01*
G01X854747Y-425030D01*
G01X870674Y-418651D01*
G01X885014Y-409232D01*
G01X897194Y-397148D01*
G01X906728Y-382884D01*
G01X913233Y-367008D01*
G01X916452Y-350156D01*
G01X916253Y-333000D01*
G01X912647Y-316226D01*
G01X905776Y-300505D01*
G01X895916Y-286465D01*
G01X883460Y-274666D01*
G01X868906Y-265580D01*
G01X865495Y-263921D01*
G01X861600Y-262276D01*
G01X861414Y-248636D01*
G01X857926Y-235448D01*
G01X851342Y-223500D01*
G01X842057Y-213506D01*
G01X830625Y-206063D01*
G01X817729Y-201616D01*
G01X804139Y-200430D01*
G01X790667Y-202575D01*
G01X778118Y-207925D01*
G01X767242Y-216159D01*
G01X758688Y-226785D01*
G01X752967Y-239170D01*
G01X750421Y-252571D01*
G01X751202Y-266191D01*
G01X755264Y-279214D01*
G01X762364Y-290862D01*
G01X759941Y-294327D01*
G01X758198Y-297078D01*
G01X747624Y-286514D01*
G01X735378Y-277946D01*
G01X721830Y-271632D01*
G01X707393Y-267765D01*
G01X357206Y-206018D01*
G01X345536Y-172068D01*
G01X330838Y-139315D01*
G01X313233Y-108029D01*
G01X292866Y-78467D01*
G01X269904Y-50871D01*
G01X244536Y-25469D01*
G01X216971Y-2471D01*
G01X187436Y17936D01*
G01X156173Y35583D01*
G01X167787Y48059D01*
G01X176705Y62586D01*
G01X182577Y78588D01*
G01X185169Y95436D01*
G01X184381Y112463D01*
G01X180243Y128999D01*
G01X172918Y144390D01*
G01X162695Y158030D01*
G01X149978Y169381D01*
G01X141103Y176577D01*
G01X139745Y177818D01*
G01X135744Y189585D01*
G01X128393Y199606D01*
G01X112824Y215175D01*
G01X129202Y219333D01*
G01X144447Y226619D01*
G01X287514Y226619D01*
G01X298098Y228012D01*
G01X307961Y232098D01*
G01X316430Y238597D01*
G01X323447Y245614D01*
G01X332793Y247971D01*
G01X341593Y251902D01*
G01X343602Y249742D01*
G01X345621Y247723D01*
G01X347337Y235896D01*
G01X351533Y224705D01*
G01X358014Y214663D01*
G01X345368Y221901D01*
G01X331279Y225618D01*
G01X316708Y225562D01*
G01X302649Y221736D01*
G01X290058Y214402D01*
G01X279795Y204059D01*
G01X272559Y191412D01*
G01X268842Y177323D01*
G01X254787Y176120D01*
G01X241483Y171431D01*
G01X229779Y163557D01*
G01X220423Y152999D01*
G01X214013Y140433D01*
G01X210958Y126661D01*
G01X211453Y112564D01*
G01X215467Y99040D01*
G01X222744Y86955D01*
G01X232818Y77081D01*
G01X245045Y70047D01*
G01X258646Y66304D01*
G01X272751Y66090D01*
G01X286459Y69419D01*
G01X290199Y55652D01*
G01X297307Y43282D01*
G01X307318Y33118D01*
G01X319580Y25824D01*
G01X333290Y21877D01*
G01X347552Y21534D01*
G01X361436Y24819D01*
G01X374033Y31516D01*
G01X384521Y41187D01*
G01X392214Y53202D01*
G01X396610Y66775D01*
G01X397422Y81018D01*
G01X409880Y89340D01*
G01X419676Y100676D01*
G01X426022Y91534D01*
G01X434056Y83833D01*
G01X443457Y77879D01*
G01X436546Y65395D01*
G01X433025Y51567D01*
G01X433126Y37299D01*
G01X436841Y23522D01*
G01X443928Y11138D01*
G01X453924Y955D01*
G01X448336Y-14935D01*
G01X445958Y-31610D01*
G01X446881Y-48428D01*
G01X451071Y-64742D01*
G01X458366Y-79924D01*
G01X468484Y-93389D01*
G01X481037Y-104620D01*
G01X495541Y-113183D01*
G01X511438Y-118750D01*
G01X528116Y-121105D01*
G01X531121Y-135378D01*
G01X537722Y-148385D01*
G01X547467Y-159238D01*
G01X559692Y-167195D01*
G01X573560Y-171713D01*
G01X588126Y-172483D01*
G01X602393Y-169454D01*
G01X615389Y-162831D01*
G01X626225Y-153068D01*
G01X634162Y-140830D01*
G01X635798Y-135778D01*
G01X652067Y-135778D01*
G01X655281Y-152631D01*
G01X661783Y-168509D01*
G01X671313Y-182775D01*
G01X683491Y-194861D01*
G01X697828Y-204284D01*
G01X713754Y-210667D01*
G01X730631Y-213754D01*
G01X747785Y-213423D01*
G01X764527Y-209675D01*
G01X780190Y-202672D01*
G01X794146Y-192693D01*
G01X805839Y-180138D01*
G01X814802Y-165508D01*
G01X820675Y-149387D01*
G01X823224Y-132421D01*
G01X822348Y-115286D01*
G01X818082Y-98668D01*
G01X810595Y-83231D01*
G01X800188Y-69591D01*
G01X787275Y-58294D01*
G01X784173Y-56111D01*
G01X782117Y-54821D01*
G01X783050Y-39844D01*
G01X779960Y-25160D01*
G01X773070Y-11831D01*
G01X762877Y-818D01*
G01X750119Y7081D01*
G01X735718Y11296D01*
G01X720715Y11522D01*
G01X706193Y7743D01*
G01X693203Y232D01*
G01X682683Y-10469D01*
G01X675394Y-23585D01*
G01X671863Y-38169D01*
G01X672345Y-53167D01*
G01X676805Y-67494D01*
G01X675114Y-69235D01*
G01X675114Y-69235D01*
G01X672618Y-72092D01*
G01X662754Y-86130D01*
G01X655880Y-101850D01*
G01X652269Y-118622D01*
G01X652067Y-135778D01*
G01X635798Y-135778D01*
G01X638656Y-126954D01*
G01X639402Y-112387D01*
G01X636349Y-98124D01*
G01X629704Y-85140D01*
G01X627844Y-73893D01*
G01X623274Y-63450D01*
G01X616275Y-54452D01*
G01X615853Y-54030D01*
G01X616349Y-50740D01*
G01X616565Y-49029D01*
G01X617207Y-42718D01*
G01X617390Y-38867D01*
G01X616243Y-20957D01*
G01X611396Y-3676D01*
G01X603061Y12218D01*
G01X591603Y26031D01*
G01X577522Y37159D01*
G01X561434Y45114D01*
G01X544044Y49550D01*
G01X541047Y63442D01*
G01X534639Y76128D01*
G01X525235Y86784D01*
G01X513444Y94719D01*
G01X520506Y107585D01*
G01X523969Y121847D01*
G01X531197Y129074D01*
G01X555571Y129074D01*
G01X556629Y128047D01*
G01X564871Y119076D01*
G01X577452Y106948D01*
G01X592230Y97619D01*
G01X608591Y91478D01*
G01X625857Y88779D01*
G01X643311Y89633D01*
G01X660231Y94006D01*
G01X675914Y101716D01*
G01X689710Y112443D01*
G01X701046Y125743D01*
G01X709454Y141063D01*
G01X714583Y157769D01*
G01X716221Y175168D01*
G01X715966Y177478D01*
G01X851677Y177478D01*
G01X853579Y163033D01*
G01X859155Y149571D01*
G01X868025Y138012D01*
G01X879584Y129142D01*
G01X893046Y123566D01*
G01X907491Y121664D01*
G01X921937Y123566D01*
G01X935398Y129142D01*
G01X946958Y138012D01*
G01X955828Y149571D01*
G01X961404Y163033D01*
G01X963305Y177478D01*
G01X961404Y191924D01*
G01X955828Y205385D01*
G01X946958Y216945D01*
G01X935398Y225815D01*
G01X921937Y231391D01*
G01X907491Y233292D01*
G01X893046Y231391D01*
G01X879584Y225815D01*
G01X868025Y216945D01*
G01X859155Y205385D01*
G01X853579Y191924D01*
G01X851677Y177478D01*
G01X851677Y177478D01*
G01X715966Y177478D01*
G01X714301Y192538D01*
G01X708901Y209158D01*
G01X700247Y224340D01*
G01X688696Y237454D01*
G01X674728Y247956D01*
G01X658922Y255411D01*
G01X641934Y259509D01*
G01X624467Y260080D01*
G01X607248Y257101D01*
G01X590988Y250695D01*
G01X576364Y241128D01*
G01X563981Y228797D01*
G01X561510Y225699D01*
G01X557592Y220186D01*
G01X556405Y218404D01*
G01X554868Y215942D01*
G01X527858Y215942D01*
G01X523722Y226449D01*
G01X517556Y235909D01*
G01X517556Y254805D01*
G01X529501Y268919D01*
G01X538146Y285263D01*
G01X543089Y303081D01*
G01X544100Y321543D01*
G01X541133Y339794D01*
G01X534326Y356985D01*
G01X523994Y372319D01*
G01X522373Y373866D01*
G01X577020Y373866D01*
G01X578922Y359420D01*
G01X584498Y345959D01*
G01X593368Y334399D01*
G01X604927Y325529D01*
G01X618388Y319954D01*
G01X632834Y318052D01*
G01X647280Y319954D01*
G01X660741Y325529D01*
G01X672301Y334399D01*
G01X681170Y345959D01*
G01X686746Y359420D01*
G01X688648Y373866D01*
G01X686746Y388311D01*
G01X681170Y401773D01*
G01X672301Y413332D01*
G01X660741Y422202D01*
G01X647280Y427778D01*
G01X632834Y429680D01*
G01X618388Y427778D01*
G01X604927Y422202D01*
G01X593368Y413332D01*
G01X584498Y401773D01*
G01X578922Y388311D01*
G01X577020Y373866D01*
G01X577020Y373866D01*
G01X522373Y373866D01*
G01X510617Y385084D01*
G01X494816Y394687D01*
G01X477324Y400682D01*
G01X458955Y402791D01*
G01X440560Y400916D01*
G01X422994Y395145D01*
G01X407072Y385744D01*
G01X393533Y373151D01*
G01X383006Y357950D01*
G01X371085Y369871D01*
G01X380345Y379900D01*
G01X386894Y391876D01*
G01X390340Y405084D01*
G01X390477Y418733D01*
G01X387297Y432007D01*
G01X380990Y444113D01*
G01X380990Y464461D01*
G01X380440Y471556D01*
G01X384475Y488193D01*
G01X385127Y505300D01*
G01X382371Y522196D01*
G01X376315Y538209D01*
G01X367202Y552701D01*
G01X355393Y565096D01*
G01X341359Y574900D01*
G01X325658Y581723D01*
G01X308916Y585294D01*
G01X291797Y585470D01*
G01X274984Y582245D01*
G01X259146Y575746D01*
G01X244913Y566233D01*
G01X232851Y554084D01*
G01X223442Y539783D01*
G01X217058Y523898D01*
G01X212014Y528942D01*
G01X203545Y535441D01*
G01X193682Y539526D01*
G01X183098Y540920D01*
G01X177246Y540920D01*
G01X176577Y541652D01*
G01X169381Y550527D01*
G01X157369Y563844D01*
G01X142853Y574374D01*
G01X126464Y581657D01*
G01X108920Y585375D01*
G01X90986Y585365D01*
G01X73446Y581628D01*
G01X57066Y574327D01*
G01X42561Y563781D01*
G01X30564Y550451D01*
G01X21600Y534918D01*
G01X16060Y517861D01*
G01X14186Y500026D01*
G01X16060Y482190D01*
G01X21600Y465133D01*
G01X30564Y449601D01*
G01X42561Y436270D01*
G01X57066Y425724D01*
G01X73446Y418423D01*
G01X90986Y414686D01*
G01X108920Y414676D01*
G01X126464Y418394D01*
G01X142853Y425677D01*
G01X157369Y436207D01*
G01X169381Y449524D01*
G01X172240Y453051D01*
G01X266454Y358836D01*
G01X257774Y360908D01*
G01X248874Y361570D01*
G01X244740Y375260D01*
G01X237263Y387450D01*
G01X226933Y397340D01*
G01X214430Y404281D01*
G01X200573Y407816D01*
G01X186273Y407715D01*
G01X172468Y403983D01*
G01X160065Y396865D01*
G01X149877Y386829D01*
G01X142574Y374534D01*
G01X125727Y381892D01*
G01X107700Y385493D01*
G01X89319Y385172D01*
G01X71429Y380944D01*
G01X54850Y373002D01*
G01X40343Y361711D01*
G01X28573Y347589D01*
G01X20082Y331284D01*
G01X15258Y313545D01*
G01X14323Y295186D01*
G01X2781Y290643D01*
G01X-7473Y283664D01*
G01X-15931Y274592D01*
G01X-17880Y275118D01*
G01X-14528Y292376D01*
G01X-14762Y309954D01*
G01X-18574Y327116D01*
G01X-25803Y343141D01*
G01X-36147Y357356D01*
G01X-49169Y369165D01*
G01X-64326Y378073D01*
G01X-80979Y383705D01*
G01X-98431Y385825D01*
G01X-115948Y384345D01*
G01X-124574Y383311D01*
G01X-126844Y383172D01*
G01X-136620Y387173D01*
G01X-147095Y388537D01*
G01X-210689Y388537D01*
G01X-212258Y389941D01*
G01X-161757Y440443D01*
G01X-147891Y428818D01*
G01X-131895Y420359D01*
G01X-114482Y415442D01*
G01X-96424Y414286D01*
G01X-78526Y416942D01*
G01X-61582Y423292D01*
G01X-46346Y433053D01*
G01X-33496Y445792D01*
G01X-23603Y460942D01*
G01X-17106Y477830D01*
G01X-14295Y495704D01*
G01X-15294Y513771D01*
G01X-20059Y531227D01*
G01X-28379Y547295D01*
G01X-39882Y561262D01*
G01X-54059Y572506D01*
G01X-70278Y580528D01*
G01X-87818Y584971D01*
G01X-105900Y585637D01*
G01X-123720Y582496D01*
G01X-140485Y575689D01*
G01X-155451Y565518D01*
G01X-167950Y552435D01*
G01X-177429Y537023D01*
G01X-183526Y533480D01*
G01X-188923Y528942D01*
G01X-214261Y503604D01*
G01X-216722Y520733D01*
G01X-222569Y537019D01*
G01X-231566Y551802D01*
G01X-243344Y564479D01*
G01X-257427Y574535D01*
G01X-273241Y581561D01*
G01X-290143Y585272D01*
G01X-307446Y585516D01*
G01X-324446Y582284D01*
G01X-340452Y575707D01*
G01X-354813Y566053D01*
G01X-366945Y553714D01*
G01X-366945Y608388D01*
G01X-368338Y618972D01*
G01X-372424Y628835D01*
G01X-378922Y637304D01*
G01X-416418Y674800D01*
G01X-416376Y675744D01*
G01X-415269Y686439D01*
G01X-414712Y696684D01*
G01X-385749Y696684D01*
G01X-383204Y679021D01*
G01X-377060Y662267D01*
G01X-367585Y647145D01*
G01X-355186Y634310D01*
G01X-340401Y624317D01*
G01X-323869Y617598D01*
G01X-306304Y614444D01*
G01X-288467Y614990D01*
G01X-281986Y603023D01*
G01X-272801Y592981D01*
G01X-261458Y585460D01*
G01X-248633Y580907D01*
G01X-235087Y579594D01*
G01X-221626Y581598D01*
G01X-209050Y586801D01*
G01X-198107Y594892D01*
G01X-186042Y588456D01*
G01X-172775Y585148D01*
G01X-159101Y585164D01*
G01X-145841Y588505D01*
G01X-133792Y594970D01*
G01X-123676Y604170D01*
G01X-116101Y615554D01*
G01X-113587Y615294D01*
G01X-96124Y614299D01*
G01X-78822Y616866D01*
G01X-62400Y622888D01*
G01X-47540Y632114D01*
G01X-34860Y644162D01*
G01X-24885Y658531D01*
G01X-14987Y650524D01*
G01X-3532Y644970D01*
G01X8884Y642155D01*
G01X21615Y642227D01*
G01X33998Y645182D01*
G01X33998Y645182D01*
G01X46587Y632861D01*
G01X61426Y623370D01*
G01X77891Y617109D01*
G01X95288Y614341D01*
G01X112883Y615184D01*
G01X129935Y619602D01*
G01X145725Y627409D01*
G01X159590Y638275D01*
G01X170943Y651744D01*
G01X179307Y667246D01*
G01X184329Y684130D01*
G01X185657Y700000D01*
G01X213663Y700000D01*
G01X215537Y682165D01*
G01X221077Y665108D01*
G01X230041Y649575D01*
G01X242037Y636245D01*
G01X256543Y625699D01*
G01X272923Y618398D01*
G01X290463Y614661D01*
G01X308397Y614651D01*
G01X325941Y618369D01*
G01X342329Y625652D01*
G01X356846Y636182D01*
G01X368858Y649499D01*
G01X376054Y658374D01*
G01X376723Y659106D01*
G01X419421Y659106D01*
G01X422083Y645082D01*
G01X428216Y632193D01*
G01X437417Y621280D01*
G01X449086Y613058D01*
G01X462458Y608064D01*
G01X476660Y606626D01*
G01X490762Y608837D01*
G01X503842Y614553D01*
G01X515045Y623400D01*
G01X515045Y623400D01*
G01X523637Y634799D01*
G01X529057Y648004D01*
G01X530950Y662153D01*
G01X529192Y676319D01*
G01X523898Y689575D01*
G01X515416Y701056D01*
G01X504298Y710009D01*
G01X491273Y715850D01*
G01X477193Y718195D01*
G01X466472Y728917D01*
G01X458002Y735416D01*
G01X448139Y739501D01*
G01X437555Y740894D01*
G01X376723Y740894D01*
G01X376054Y741627D01*
G01X368858Y750502D01*
G01X356846Y763819D01*
G01X342329Y774349D01*
G01X325941Y781632D01*
G01X308397Y785350D01*
G01X290463Y785340D01*
G01X272923Y781603D01*
G01X256543Y774302D01*
G01X242037Y763756D01*
G01X230041Y750425D01*
G01X221077Y734893D01*
G01X215537Y717836D01*
G01X213663Y700000D01*
G01X185657Y700000D01*
G01X185798Y701684D01*
G01X183652Y719168D01*
G01X177981Y735845D01*
G01X169024Y751013D01*
G01X157159Y764033D01*
G01X142885Y774356D01*
G01X126805Y781546D01*
G01X109594Y785302D01*
G01X91980Y785464D01*
G01X74704Y782027D01*
G01X58493Y775134D01*
G01X44031Y765076D01*
G01X31928Y752278D01*
G01X31006Y751090D01*
G01X16655Y753427D01*
G01X2188Y751979D01*
G01X-11414Y746843D01*
G01X-23228Y738368D01*
G01X-32234Y752673D01*
G01X-43868Y764935D01*
G01X-57681Y774679D01*
G01X-73136Y781526D01*
G01X-89633Y785211D01*
G01X-106532Y785591D01*
G01X-123178Y782650D01*
G01X-138925Y776504D01*
G01X-153161Y767390D01*
G01X-165335Y755663D01*
G01X-174973Y741776D01*
G01X-181703Y726270D01*
G01X-185262Y709745D01*
G01X-185513Y692843D01*
G01X-195557Y687898D01*
G01X-204412Y681048D01*
G01X-215185Y686968D01*
G01X-214319Y704792D01*
G01X-217157Y722410D01*
G01X-223578Y739061D01*
G01X-233304Y754023D01*
G01X-245914Y766650D01*
G01X-260863Y776396D01*
G01X-277505Y782839D01*
G01X-295119Y785701D01*
G01X-312945Y784858D01*
G01X-330211Y780346D01*
G01X-346170Y772361D01*
G01X-360133Y761248D01*
G01X-371495Y747487D01*
G01X-379765Y731674D01*
G01X-384586Y714492D01*
G01X-385749Y696684D01*
G01X-414712Y696684D01*
G01X-414295Y704347D01*
G01X-417065Y722066D01*
G01X-423457Y738822D01*
G01X-433192Y753884D01*
G01X-445845Y766594D01*
G01X-460864Y776396D01*
G01X-477591Y782862D01*
G01X-495298Y785711D01*
G01X-513209Y784817D01*
G01X-530544Y780220D01*
G01X-546545Y772120D01*
G01X-560513Y760872D01*
G01X-571838Y746966D01*
G01X-580026Y731010D01*
G01X-584718Y713700D01*
G01X-585710Y695794D01*
G01X-582958Y678072D01*
G01X-576584Y661309D01*
G01X-566864Y646237D01*
G01X-554224Y633514D01*
G01X-539216Y623697D01*
G01X-522495Y617213D01*
G01X-504792Y614346D01*
G01X-486879Y615221D01*
G01X-474856Y616487D01*
G01X-473819Y616535D01*
G01X-448733Y591449D01*
G01X-448733Y568424D01*
G01X-460725Y576027D01*
G01X-473807Y581549D01*
G01X-487620Y584839D01*
G01X-501787Y585805D01*
G01X-502891Y585829D01*
G01X-505592Y585787D01*
G01X-511576Y585466D01*
G01X-511938Y585445D01*
G01X-516543Y585152D01*
G01X-548836Y617445D01*
G01X-558884Y625155D01*
G01X-570584Y630001D01*
G01X-583141Y631655D01*
G01X-598637Y631655D01*
G01X-611884Y637079D01*
G01X-626076Y638954D01*
G01X-640278Y637159D01*
G01X-653556Y631809D01*
G01X-665037Y623259D01*
G01X-673965Y612069D01*
G01X-679754Y598976D01*
G01X-682021Y584842D01*
G01X-680619Y570596D01*
G01X-675640Y557175D01*
G01X-667410Y545462D01*
G01X-656471Y536227D01*
G01X-643544Y530079D01*
G01X-629478Y527421D01*
G01X-615198Y528428D01*
G01X-601644Y533035D01*
G01X-585564Y516955D01*
G01X-585884Y512076D01*
G01X-586254Y506078D01*
G01X-586320Y503547D01*
G01X-586308Y502239D01*
G01X-584914Y484436D01*
G01X-579866Y467308D01*
G01X-571382Y451595D01*
G01X-559830Y437978D01*
G01X-545710Y427046D01*
G01X-529633Y419274D01*
G01X-539799Y409108D01*
G01X-549428Y407305D01*
G01X-558352Y403264D01*
G01X-566059Y397216D01*
G01X-602724Y360552D01*
G01X-608771Y352845D01*
G01X-612812Y343921D01*
G01X-614615Y334292D01*
G01X-663916Y284991D01*
G01X-670415Y276521D01*
G01X-674501Y266658D01*
G01X-675894Y256074D01*
G01X-675894Y74973D01*
G01X-674501Y64389D01*
G01X-670415Y54526D01*
G01X-663916Y46056D01*
G01X-619688Y1827D01*
G01X-628637Y-9658D01*
G01X-634311Y-23066D01*
G01X-636324Y-37487D01*
G01X-634539Y-51937D01*
G01X-629078Y-65434D01*
G01X-620311Y-77059D01*
G01X-632113Y-69621D01*
G01X-645390Y-65342D01*
G01X-659313Y-64489D01*
G01X-673013Y-67115D01*
G01X-685634Y-73056D01*
G01X-696387Y-81942D01*
G01X-704602Y-93216D01*
G01X-709764Y-106175D01*
G01X-711552Y-120009D01*
G01X-709853Y-133855D01*
G01X-704774Y-146847D01*
G01X-696632Y-158174D01*
G01X-696632Y-174303D01*
G01X-695238Y-184887D01*
G01X-691153Y-194750D01*
G01X-684654Y-203219D01*
G01X-679264Y-208609D01*
G01X-670795Y-215108D01*
G01X-660932Y-219193D01*
G01X-650348Y-220587D01*
G01X-640700Y-220587D01*
G01X-640700Y-300383D01*
G01X-776688Y-436371D01*
G01X-787091Y-434364D01*
G01X-797686Y-434360D01*
G01X-808091Y-436357D01*
G01X-814403Y-428051D01*
G01X-822150Y-421065D01*
G01X-831062Y-415642D01*
G01X-830955Y-403346D01*
G01X-833542Y-391326D01*
G01X-838699Y-380163D01*
G01X-832570Y-368308D01*
G01X-829431Y-355337D01*
G01X-829460Y-341992D01*
G01X-832657Y-329035D01*
G01X-838838Y-317207D01*
G01X-847650Y-307185D01*
G01X-858590Y-299541D01*
G01X-851575Y-295468D01*
G01X-835648Y-304792D01*
G01X-818096Y-310495D01*
G01X-799730Y-312313D01*
G01X-781400Y-310163D01*
G01X-763954Y-304143D01*
G01X-748199Y-294531D01*
G01X-734863Y-281774D01*
G01X-724563Y-266460D01*
G01X-717776Y-249297D01*
G01X-714816Y-231081D01*
G01X-715818Y-212653D01*
G01X-720738Y-194865D01*
G01X-729348Y-178541D01*
G01X-741249Y-164435D01*
G01X-755890Y-153200D01*
G01X-772596Y-145355D01*
G01X-790592Y-141264D01*
G01X-809047Y-141115D01*
G01X-806289Y-128486D01*
G01X-806509Y-115562D01*
G01X-809697Y-103035D01*
G01X-815682Y-91577D01*
G01X-824141Y-81803D01*
G01X-834622Y-74237D01*
G01X-846563Y-69286D01*
G01X-859322Y-67213D01*
G01X-872216Y-68132D01*
G01X-884552Y-71992D01*
G01X-894380Y-63077D01*
G01X-906034Y-56733D01*
G01X-918856Y-53320D01*
G01X-932122Y-53030D01*
G01X-945081Y-55879D01*
G01X-957002Y-61707D01*
G01X-967210Y-70184D01*
G01X-975128Y-80831D01*
G01X-980310Y-93046D01*
G01X-982462Y-106139D01*
G01X-994999Y-112927D01*
G01X-1005408Y-122670D01*
G01X-1013008Y-134731D01*
G01X-1017305Y-148325D01*
G01X-1018018Y-162565D01*
G01X-1018018Y-162565D01*
G01X-1026025Y-162565D01*
G01X-1032984Y-113367D01*
G01X-1038042Y-48742D01*
G01X-1039062Y16072D01*
G01X-1036038Y80824D01*
G01X-1028983Y145261D01*
G01X-1017925Y209133D01*
G01X-1002905Y272191D01*
G01X-983984Y334190D01*
G01X-961234Y394889D01*
G01X-934743Y454051D01*
G01X-904616Y511447D01*
G01X-870968Y566852D01*
G01X-833932Y620052D01*
G37*
G36*
G01X-615939Y-81058D02*
G01X-608091Y-86452D01*
G01X-599441Y-90434D01*
G01X-605298Y-96292D01*
G01X-609980Y-88229D01*
G01X-615939Y-81058D01*
G37*
G36*
G01X-594106Y239135D02*
G01X-575315Y257926D01*
G01X-565153Y243546D01*
G01X-552269Y231543D01*
G01X-537207Y222422D01*
G01X-520600Y216568D01*
G01X-503148Y214226D01*
G01X-485585Y215496D01*
G01X-468651Y220325D01*
G01X-453059Y228508D01*
G01X-439466Y239701D01*
G01X-442814Y228959D01*
G01X-443940Y217764D01*
G01X-442798Y206571D01*
G01X-439433Y195834D01*
G01X-594106Y195834D01*
G01X-594106Y239135D01*
G37*
G36*
G01X-422148Y411093D02*
G01X-426816Y400659D01*
G01X-428413Y389342D01*
G01X-428413Y346520D01*
G01X-436849Y357530D01*
G01X-446950Y367037D01*
G01X-458449Y374792D01*
G01X-422148Y411093D01*
G37*
G36*
G01X377513Y186797D02*
G01X373435Y196556D01*
G01X367589Y205370D01*
G01X379133Y198599D01*
G01X391958Y194770D01*
G01X405326Y194105D01*
G01X418467Y196641D01*
G01X420234Y186321D01*
G01X423897Y176512D01*
G01X429327Y167560D01*
G01X421724Y158269D01*
G01X413679Y169312D01*
G01X403191Y178069D01*
G01X390890Y184016D01*
G01X377513Y186797D01*
G37*
G54D10*
G01X-833932Y620052D02*
G02X909052Y503520I833932J-620052D01*
G03X853154Y481939I-10988J-54722D01*
G03X719545Y392468I-50113J-69661D01*
G03X879107Y372553I83496J19810D01*
G03X892256Y381565I-17563J39725D01*
G01X903991Y393300D01*
G03X948424Y424734I-5927J55498D01*
G02X927440Y-468789I-948424J-424734D01*
G02X220414Y-1015542I-927440J468789D01*
G01X220414Y-735597D01*
G03X210000Y-725183I-10414J0D01*
G01X-210000Y-725183D01*
G03X-220414Y-735597I0J-10414D01*
G01X-220414Y-1015542D01*
G02X-833932Y620052I220414J1015542D01*
G01X-1018018Y-162565D02*
G03X-974121Y-212776I55644J4352D01*
G03X-946872Y-249382I54484J12113D01*
G03X-974977Y-301347I27601J-48512D01*
G03X-940669Y-349443I55707J3453D01*
G03X-932641Y-377633I55810J656D01*
G03X-910910Y-459193I46160J-31376D01*
G03X-839813Y-519392I55418J-6633D01*
G03X-835841Y-524984I47401J29468D01*
G03X-822758Y-592306I49771J-25260D01*
G03X-754282Y-596121I36688J42062D01*
G03X-710381Y-601807I28532J47970D01*
G03X-676148Y-573740I-15369J53656D01*
G03X-620432Y-543154I5778J55514D01*
G03X-629476Y-480241I-49938J24927D01*
G01X-629476Y-462298D01*
G01X-547851Y-380673D01*
G03X-474562Y-370089I30675J46629D01*
G03X-476282Y-296059I-42614J36045D01*
G01X-476282Y-202172D01*
G01X-152180Y121930D01*
G03X-74432Y170005I22026J51284D01*
G01X-54186Y170005D01*
G03X13344Y187688I22733J50975D01*
G03X26810Y185524I15522J53612D01*
G01X45567Y166767D01*
G03X17014Y76252I53910J-66767D01*
G03X-384308Y-478227I-39575J-393831D01*
G03X296147Y-552300I361747J160648D01*
G01X646334Y-614047D01*
G03X716461Y-595219I14902J84510D01*
G01X717725Y-594105D01*
G01X772294Y-543656D01*
G01X773505Y-542483D01*
G03X796860Y-497183I-61155J60201D01*
G01X808872Y-429064D01*
G03X809409Y-425610I-84511J14900D01*
G03X854747Y-425030I21610J83062D01*
G03X868906Y-265580I-23786J82465D01*
G03X865495Y-263921I-17346J-31333D01*
G01X861600Y-262276D01*
G03X790667Y-202575I-55483J6068D01*
G03X762364Y-290862I15449J-53633D01*
G01X759941Y-294327D01*
G03X758198Y-297078I29350J-20523D01*
G03X707393Y-267765I-65704J-55194D01*
G01X357206Y-206018D01*
G03X156173Y35583I-379767J-111561D01*
G03X149978Y169381I-56696J64417D01*
G01X141103Y176577D01*
G01X139745Y177818D01*
G03X128393Y199606I-40268J-7128D01*
G01X112824Y215175D01*
G03X144447Y226619I-12824J84850D01*
G01X287514Y226619D01*
G03X316430Y238597I0J40894D01*
G01X323447Y245614D01*
G03X341593Y251902I-8930J55095D01*
G03X343602Y249742I30925J26757D01*
G01X345621Y247723D01*
G03X358014Y214663I55776J2057D01*
G03X302649Y221736I-33808J-44410D01*
G03X268842Y177323I21558J-51483D01*
G03X211453Y112564I-2305J-55766D01*
G03X286459Y69419I55085J8993D01*
G03X347552Y21534I55290J7626D01*
G03X397422Y81018I-5803J55512D01*
G03X419676Y100676I-24492J50153D01*
G03X443457Y77879I48795J27098D01*
G03X453924Y955I44973J-33055D01*
G03X528116Y-121105I77801J-36288D01*
G03X602393Y-169454I55651J4265D01*
G03X629704Y-85140I-18627J52614D01*
G03X616275Y-54452I-45938J-1820D01*
G01X615853Y-54030D01*
G01X616349Y-50740D01*
G01X616565Y-49029D01*
G01X617207Y-42718D01*
G03X617390Y-38867I-35630J3623D01*
G03X544044Y49550I-85743J3503D01*
G03X513444Y94719I-55614J-4726D01*
G03X523969Y121847I-44973J33055D01*
G01X531197Y129074D01*
G01X555571Y129074D01*
G01X556629Y128047D01*
G01X564871Y119076D01*
G03X716221Y175168I65539J55395D01*
G03X563981Y228797I-85811J-696D01*
G03X561510Y225699I26722J-23845D01*
G01X557592Y220186D01*
G01X556405Y218404D01*
G01X554868Y215942D01*
G01X527858Y215942D01*
G03X517556Y235909I-53736J-15086D01*
G01X517556Y254805D01*
G03X510617Y385084I-59148J62174D01*
G03X383006Y357950I-52209J-68105D01*
G01X371085Y369871D01*
G03X380990Y444113I-36069J42594D01*
G01X380990Y464461D01*
G03X380440Y471556I-45974J0D01*
G03X325658Y581723I-80963J28445D01*
G03X217058Y523898I-26182J-81723D01*
G01X212014Y528942D01*
G03X183098Y540920I-28916J-28916D01*
G01X177246Y540920D01*
G01X176577Y541652D01*
G01X169381Y550527D01*
G03X14186Y500026I-69381J-50501D01*
G03X169381Y449524I85814J0D01*
G01X172240Y453051D01*
G01X266454Y358836D01*
G03X248874Y361570I-17257J-53079D01*
G03X142574Y374534I-55058J-9157D01*
G03X54850Y373002I-42573J-74509D01*
G03X14323Y295186I45150J-72976D01*
G03X-15931Y274592I14544J-53886D01*
G01X-17880Y275118D01*
G03X-36147Y357356I-82120J24907D01*
G03X-115948Y384345I-63853J-57330D01*
G01X-124574Y383311D01*
G01X-126844Y383172D01*
G03X-147095Y388537I-20250J-35528D01*
G01X-210689Y388537D01*
G01X-212258Y389941D01*
G01X-161757Y440443D01*
G03X-15294Y513771I61757J59583D01*
G03X-177429Y537023I-84706J-13746D01*
G03X-188923Y528942I17423J-36997D01*
G01X-214261Y503604D01*
G03X-273241Y581561I-85739J-3579D01*
G03X-366945Y553714I-26759J-81535D01*
G01X-366945Y608388D01*
G03X-378922Y637304I-40894J0D01*
G01X-416418Y674800D01*
G01X-416376Y675744D01*
G01X-415269Y686439D01*
G03X-560513Y760872I-84732J13587D01*
G03X-486879Y615221I60513J-60846D01*
G01X-474856Y616487D01*
G01X-473819Y616535D01*
G01X-448733Y591449D01*
G01X-448733Y568424D01*
G03X-501787Y585805I-51791J-68424D01*
G01X-502891Y585829D01*
G03X-505592Y585787I-787J-35805D01*
G01X-511576Y585466D01*
G01X-511938Y585445D01*
G01X-516543Y585152D01*
G01X-548836Y617445D01*
G03X-583141Y631655I-34305J-34305D01*
G01X-598637Y631655D01*
G03X-682021Y584842I-27597J-48514D01*
G03X-601644Y533035I55788J-1701D01*
G01X-585564Y516955D01*
G01X-585884Y512076D01*
G01X-586254Y506078D01*
G01X-586320Y503547D01*
G01X-586308Y502239D01*
G03X-529633Y419274I85785J-2239D01*
G01X-539799Y409108D01*
G03X-566059Y397216I2657J-40808D01*
G01X-602724Y360552D01*
G03X-614615Y334292I28916J-28916D01*
G01X-663916Y284991D01*
G03X-675894Y256074I28916J-28916D01*
G01X-675894Y74973D01*
G03X-663916Y46056I40894J0D01*
G01X-619688Y1827D01*
G03X-636324Y-37487I39175J-39755D01*
G03X-620311Y-77059I55812J-441D01*
G03X-696387Y-81942I-35426J-43130D01*
G03X-696632Y-158174I40649J-38247D01*
G01X-696632Y-174303D01*
G03X-684654Y-203219I40894J0D01*
G01X-679264Y-208609D01*
G03X-650348Y-220587I28916J28916D01*
G01X-640700Y-220587D01*
G01X-640700Y-300383D01*
G01X-776688Y-436371D01*
G03X-808091Y-436357I-15725J-53553D01*
G03X-831062Y-415642I-47401J-29468D01*
G03X-838699Y-380163I-55418J6633D01*
G03X-858590Y-299541I-46160J31376D01*
G03X-851575Y-295468I-24443J50177D01*
G03X-717776Y-249297I51067J68965D01*
G03X-809047Y-141115I-82731J22794D01*
G03X-824141Y-81803I-52783J18144D01*
G03X-884552Y-71992I-37688J-41168D01*
G03X-945081Y-55879I-42149J-36588D01*
G03X-982462Y-106139I18380J-52701D01*
G03X-1018018Y-162565I20088J-52074D01*
G01X-384735Y-960434D02*
G03X-299928Y-812580I33696J78922D01*
G03X-416766Y-936685I-51111J-68933D01*
G03X-384735Y-960434I47065J30001D01*
G01X33998Y645182D02*
G03X185798Y701684I66002J54843D01*
G03X31928Y752278I-85798J-1658D01*
G01X31006Y751090D01*
G03X-23228Y738368I-16071J-53450D01*
G03X-123178Y782650I-76772J-38342D01*
G03X-185513Y692843I23178J-82625D01*
G03X-204412Y681048I19508J-52294D01*
G03X-215185Y686968I-32102J-45658D01*
G03X-360133Y761248I-84815J13058D01*
G03X-288467Y614990I60132J-61222D01*
G03X-248633Y580907I51952J20400D01*
G03X-198107Y594892I12118J54483D01*
G03X-116101Y615554I32102J45658D01*
G01X-113587Y615294D01*
G03X-24885Y658531I13587J84732D01*
G03X33998Y645182I39820J39109D01*
G01X515045Y623400D02*
G03X477193Y718195I-39909J39019D01*
G01X466472Y728917D01*
G03X437555Y740894I-28916J-28916D01*
G01X376723Y740894D01*
G01X376054Y741627D01*
G01X368858Y750502D01*
G03X213663Y700000I-69381J-50501D01*
G03X368858Y649499I85814J0D01*
G01X376054Y658374D01*
G01X376723Y659106D01*
G01X419421Y659106D01*
G03X515045Y623400I55716J3313D01*
G01X636024Y-751459D02*
G03X554284Y-703542I-55794J-1500D01*
G01X550251Y-698821D01*
G03X547638Y-696071I-27230J-23263D01*
G03X399944Y-757804I-61897J-59457D01*
G03X550741Y-811514I85796J2336D01*
G03X553203Y-808628I-25979J24653D01*
G01X556976Y-803697D01*
G03X636024Y-751459I23254J50739D01*
G01X577020Y373866D02*
G03X688648Y373866I55814J0D01*
G03X577020Y373866I-55814J0D01*
G01X675114Y-69235D02*
G03X672618Y-72092I25688J-24955D01*
G03X747785Y-213423I64942J-56115D01*
G03X787275Y-58294I-10285J85209D01*
G03X784173Y-56111I-22136J-28154D01*
G01X782117Y-54821D01*
G03X720715Y11522I-54734J10929D01*
G03X676805Y-67494I6669J-55414D01*
G01X675114Y-69235D01*
G01X851677Y177478D02*
G03X963305Y177478I55814J0D01*
G03X851677Y177478I-55814J0D01*
G01X-615939Y-81058D02*
G03X-599441Y-90434I35426J43130D01*
G01X-605298Y-96292D01*
G03X-615939Y-81058I-50440J-23897D01*
G01X-594106Y239135D02*
G01X-575315Y257926D01*
G03X-439466Y239701I74792J42074D01*
G03X-443940Y217764I51340J-21895D01*
G03X-439433Y195834I55814J42D01*
G01X-594106Y195834D01*
G01X-594106Y239135D01*
G01X-422148Y411093D02*
G03X-428413Y389342I34629J-21751D01*
G01X-428413Y346520D01*
G03X-458449Y374792I-72111J-46520D01*
G01X-422148Y411093D01*
G01X377513Y186797D02*
G03X367589Y205370I-53306J-16543D01*
G03X391958Y194770I33808J44410D01*
G03X418467Y196641I9439J55010D01*
G03X429327Y167560I55655J4216D01*
G03X421724Y158269I39144J-39786D01*
G03X377513Y186797I-48795J-27098D01*
G54D11*
G01X-500524Y250254D02*
G01X-500524Y224346D01*
G04 Copper End*

G04 TearDrop Start*
G36*
G01X-248209Y655942D02*
G01X-255001Y648365D01*
G01X-256825Y649799D01*
G01X-259030Y650889D01*
G01X-264390Y652181D01*
G01X-270692Y652528D01*
G01X-277549Y652216D01*
G01X-291374Y650759D01*
G01X-297567Y650188D01*
G01X-302762Y650102D01*
G01X-250123Y703526D01*
G01X-250150Y698313D01*
G01X-250684Y692135D01*
G01X-252107Y678393D01*
G01X-252412Y671585D01*
G01X-252059Y665323D01*
G01X-250755Y659982D01*
G01X-249656Y657776D01*
G01X-248209Y655942D01*
G37*
G36*
G01X-144084Y648235D02*
G01X-151660Y655027D01*
G01X-150227Y656851D01*
G01X-149137Y659056D01*
G01X-147845Y664415D01*
G01X-147498Y670717D01*
G01X-147810Y677574D01*
G01X-149266Y691399D01*
G01X-149838Y697592D01*
G01X-149924Y702788D01*
G01X-96500Y650148D01*
G01X-101713Y650176D01*
G01X-107891Y650710D01*
G01X-121632Y652133D01*
G01X-128440Y652438D01*
G01X-134703Y652085D01*
G01X-140044Y650781D01*
G01X-142250Y649681D01*
G01X-144084Y648235D01*
G37*
G36*
G01X-557572Y539611D02*
G01X-539219Y557179D01*
G01X-534357Y553101D01*
G01X-529653Y550613D01*
G01X-524971Y549371D01*
G01X-520170Y549035D01*
G01X-509662Y549704D01*
G01X-503678Y550024D01*
G01X-497023Y549878D01*
G01X-550447Y497239D01*
G01X-550508Y503874D01*
G01X-550138Y509872D01*
G01X-549442Y520466D01*
G01X-549784Y525317D01*
G01X-551030Y530040D01*
G01X-553515Y534762D01*
G01X-557572Y539611D01*
G37*
G36*
G01X33755Y692560D02*
G01X30176Y702720D01*
G01X34308Y702910D01*
G01X37819Y703465D01*
G01X40788Y704361D01*
G01X43292Y705572D01*
G01X45407Y707075D01*
G01X47213Y708845D01*
G01X50200Y713090D01*
G01X55846Y723720D01*
G01X59741Y729715D01*
G01X65176Y735905D01*
G01X68755Y660990D01*
G01X64938Y664613D01*
G01X60903Y669253D01*
G01X52294Y679735D01*
G01X47780Y684652D01*
G01X43166Y688737D01*
G01X38481Y691527D01*
G01X36121Y692292D01*
G01X33755Y692560D01*
G37*
G36*
G01X-322982Y446694D02*
G01X-347540Y436505D01*
G01X-345084Y439252D01*
G01X-343156Y442029D01*
G01X-341713Y444842D01*
G01X-340713Y447694D01*
G01X-339879Y453535D01*
G01X-340320Y459588D01*
G01X-341704Y465889D01*
G01X-343696Y472474D01*
G01X-348174Y486636D01*
G01X-280694Y453903D01*
G01X-286367Y452255D01*
G01X-292039Y451739D01*
G01X-303158Y452267D01*
G01X-308498Y452392D01*
G01X-313618Y451811D01*
G01X-318464Y450065D01*
G01X-320767Y448611D01*
G01X-322982Y446694D01*
G37*
G36*
G01X342200Y471645D02*
G01X327832Y457277D01*
G01X326388Y458393D01*
G01X324804Y459039D01*
G01X321280Y459147D01*
G01X317378Y458046D01*
G01X313216Y456185D01*
G01X304589Y451974D01*
G01X300360Y450521D01*
G01X296346Y450098D01*
G01X349379Y503131D01*
G01X348956Y499117D01*
G01X347503Y494888D01*
G01X343292Y486261D01*
G01X341431Y482099D01*
G01X340331Y478197D01*
G01X340438Y474673D01*
G01X341084Y473089D01*
G01X342200Y471645D01*
G37*
G36*
G01X94397Y168072D02*
G01X104557Y168072D01*
G01X104832Y165761D01*
G01X105618Y163427D01*
G01X108483Y158726D01*
G01X112678Y154036D01*
G01X117727Y149423D01*
G01X128492Y140695D01*
G01X133257Y136712D01*
G01X136977Y133072D01*
G01X61977Y133072D01*
G01X65697Y136712D01*
G01X70462Y140695D01*
G01X81226Y149423D01*
G01X86276Y154036D01*
G01X90471Y158726D01*
G01X93336Y163427D01*
G01X94122Y165761D01*
G01X94397Y168072D01*
G37*
G36*
G01X-160007Y494946D02*
G01X-160007Y505106D01*
G01X-157786Y505381D01*
G01X-155708Y506166D01*
G01X-153758Y507403D01*
G01X-151921Y509031D01*
G01X-148523Y513227D01*
G01X-145390Y518276D01*
G01X-139435Y529041D01*
G01X-136365Y533806D01*
G01X-133072Y537526D01*
G01X-133072Y462526D01*
G01X-136365Y466246D01*
G01X-139435Y471010D01*
G01X-145390Y481775D01*
G01X-148523Y486825D01*
G01X-151921Y491020D01*
G01X-153758Y492648D01*
G01X-155708Y493885D01*
G01X-157786Y494671D01*
G01X-160007Y494946D01*
G37*
G36*
G01X481742Y262368D02*
G01X466502Y238797D01*
G01X466311Y242261D01*
G01X465754Y245438D01*
G01X464855Y248353D01*
G01X463640Y251033D01*
G01X460355Y255781D01*
G01X456095Y259882D01*
G01X451055Y263535D01*
G01X445429Y266939D01*
G01X433202Y273797D01*
G01X504402Y297368D01*
G01X501801Y292642D01*
G01X498471Y288325D01*
G01X490947Y280302D01*
G01X487418Y276286D01*
G01X484486Y272062D01*
G01X482483Y267474D01*
G01X481934Y264995D01*
G01X481742Y262368D01*
G37*
G36*
G01X168072Y505106D02*
G01X168072Y494946D01*
G01X165761Y494671D01*
G01X163427Y493885D01*
G01X158726Y491020D01*
G01X154036Y486825D01*
G01X149423Y481775D01*
G01X140695Y471010D01*
G01X136712Y466246D01*
G01X133072Y462526D01*
G01X133072Y537526D01*
G01X136712Y533806D01*
G01X140695Y529041D01*
G01X149423Y518276D01*
G01X154036Y513227D01*
G01X158726Y509031D01*
G01X163427Y506166D01*
G01X165761Y505381D01*
G01X168072Y505106D01*
G37*
G36*
G01X563836Y164888D02*
G01X560891Y180128D01*
G01X564750Y180303D01*
G01X568084Y180814D01*
G01X570958Y181637D01*
G01X573435Y182751D01*
G01X577462Y185761D01*
G01X580683Y189665D01*
G01X586785Y199439D01*
G01X590703Y204952D01*
G01X595891Y210644D01*
G01X598836Y135702D01*
G01X595234Y139051D01*
G01X591212Y143341D01*
G01X582309Y153031D01*
G01X577626Y157578D01*
G01X572920Y161354D01*
G01X568290Y163934D01*
G01X566035Y164641D01*
G01X563836Y164888D01*
G37*
G36*
G01X-150687Y344051D02*
G01X-143503Y351236D01*
G01X-141675Y349796D01*
G01X-139488Y348715D01*
G01X-134213Y347477D01*
G01X-128043Y347216D01*
G01X-121342Y347628D01*
G01X-107800Y349251D01*
G01X-101688Y349851D01*
G01X-96500Y349903D01*
G01X-149924Y297264D01*
G01X-149796Y302417D01*
G01X-149114Y308500D01*
G01X-147323Y321990D01*
G01X-146833Y328668D01*
G01X-147023Y334815D01*
G01X-148205Y340064D01*
G01X-149264Y342238D01*
G01X-150687Y344051D01*
G37*
G36*
G01X-485588Y369091D02*
G01X-451895Y351303D01*
G01X-453900Y346618D01*
G01X-455107Y341824D01*
G01X-455628Y336939D01*
G01X-455578Y331979D01*
G01X-454214Y321905D01*
G01X-451921Y311738D01*
G01X-518244Y346754D01*
G01X-508555Y350596D01*
G01X-499467Y355152D01*
G01X-495343Y357907D01*
G01X-491603Y361093D01*
G01X-488325Y364793D01*
G01X-485588Y369091D01*
G37*
G36*
G01X184612Y272593D02*
G01X135741Y262433D01*
G01X129668Y261911D01*
G01X125050Y260534D01*
G01X121403Y258582D01*
G01X118240Y256335D01*
G01X115078Y254076D01*
G01X111431Y252085D01*
G01X106813Y250643D01*
G01X100741Y250031D01*
G01X149612Y306246D01*
G01X151026Y299969D01*
G01X153586Y293889D01*
G01X157142Y288204D01*
G01X161543Y283110D01*
G01X166641Y278804D01*
G01X172285Y275485D01*
G01X178326Y273349D01*
G01X184612Y272593D01*
G37*
G36*
G01X367549Y705080D02*
G01X367549Y694920D01*
G01X365238Y694645D01*
G01X362904Y693860D01*
G01X358203Y690995D01*
G01X353513Y686799D01*
G01X348900Y681750D01*
G01X340172Y670985D01*
G01X336189Y666220D01*
G01X332549Y662500D01*
G01X332549Y737500D01*
G01X336189Y733780D01*
G01X340172Y729016D01*
G01X348900Y718251D01*
G01X353513Y713201D01*
G01X358203Y709006D01*
G01X362904Y706141D01*
G01X365238Y705355D01*
G01X367549Y705080D01*
G37*
G36*
G01X861544Y419898D02*
G01X861544Y404658D01*
G01X859490Y404404D01*
G01X857556Y403680D01*
G01X853997Y401040D01*
G01X850768Y397173D01*
G01X847770Y392519D01*
G01X842072Y382598D01*
G01X839174Y378207D01*
G01X836113Y374778D01*
G01X836113Y449778D01*
G01X839174Y446349D01*
G01X842072Y441958D01*
G01X847770Y432036D01*
G01X850768Y427382D01*
G01X853997Y423516D01*
G01X857556Y420875D01*
G01X859490Y420151D01*
G01X861544Y419898D01*
G37*
G36*
G01X719311Y-61853D02*
G01X739486Y-59426D01*
G01X740908Y-66105D01*
G01X743253Y-71067D01*
G01X746416Y-74777D01*
G01X750291Y-77703D01*
G01X759757Y-83071D01*
G01X765138Y-86448D01*
G01X770812Y-90908D01*
G01X696349Y-99869D01*
G01X700802Y-94190D01*
G01X705228Y-89633D01*
G01X713151Y-82173D01*
G01X716221Y-78411D01*
G01X718413Y-74056D01*
G01X719514Y-68680D01*
G01X719311Y-61853D01*
G37*
G36*
G01X587030Y-75856D02*
G01X573054Y-90617D01*
G01X567820Y-86254D01*
G01X562902Y-83802D01*
G01X558102Y-82832D01*
G01X553219Y-82919D01*
G01X542412Y-84553D01*
G01X536088Y-85246D01*
G01X528885Y-85288D01*
G01X581525Y-31864D01*
G01X581576Y-39094D01*
G01X580935Y-45406D01*
G01X579321Y-56119D01*
G01X579224Y-60947D01*
G01X580185Y-65703D01*
G01X582641Y-70602D01*
G01X587030Y-75856D01*
G37*
G36*
G01X802388Y-279969D02*
G01X821914Y-274344D01*
G01X824387Y-280710D01*
G01X827495Y-285233D01*
G01X831211Y-288389D01*
G01X835504Y-290657D01*
G01X845707Y-294442D01*
G01X851560Y-296913D01*
G01X857874Y-300409D01*
G01X785804Y-321169D01*
G01X789291Y-314851D01*
G01X792931Y-309644D01*
G01X799558Y-301012D01*
G01X801987Y-296807D01*
G01X803454Y-292158D01*
G01X803680Y-286675D01*
G01X802388Y-279969D01*
G37*
G36*
G01X553501Y-743513D02*
G01X554047Y-763826D01*
G01X547264Y-764622D01*
G01X542107Y-766497D01*
G01X538119Y-769302D01*
G01X534846Y-772889D01*
G01X528623Y-781817D01*
G01X524762Y-786861D01*
G01X519794Y-792096D01*
G01X517779Y-717123D01*
G01X523021Y-722084D01*
G01X527147Y-726914D01*
G01X533841Y-735495D01*
G01X537302Y-738900D01*
G01X541434Y-741487D01*
G01X546685Y-743082D01*
G01X553501Y-743513D01*
G37*
G36*
G01X-873760Y-198120D02*
G01X-834984Y-187960D01*
G01X-828948Y-187460D01*
G01X-824336Y-186143D01*
G01X-820672Y-184285D01*
G01X-817483Y-182160D01*
G01X-814294Y-180045D01*
G01X-810631Y-178214D01*
G01X-806019Y-176942D01*
G01X-799984Y-176506D01*
G01X-850178Y-232233D01*
G01X-851052Y-225870D01*
G01X-852278Y-219707D01*
G01X-853977Y-213944D01*
G01X-856268Y-208780D01*
G01X-859272Y-204416D01*
G01X-863109Y-201052D01*
G01X-865377Y-199807D01*
G01X-867898Y-198886D01*
G01X-870687Y-198316D01*
G01X-873760Y-198120D01*
G37*
G36*
G01X-448209Y655942D02*
G01X-455001Y648365D01*
G01X-456825Y649799D01*
G01X-459030Y650889D01*
G01X-464390Y652181D01*
G01X-470692Y652528D01*
G01X-477549Y652216D01*
G01X-491374Y650759D01*
G01X-497567Y650188D01*
G01X-502762Y650102D01*
G01X-450123Y703526D01*
G01X-450150Y698313D01*
G01X-450684Y692135D01*
G01X-452107Y678393D01*
G01X-452413Y671585D01*
G01X-452059Y665323D01*
G01X-450755Y659982D01*
G01X-449656Y657776D01*
G01X-448209Y655942D01*
G37*
G36*
G01X-935145Y-153133D02*
G01X-935145Y-163293D01*
G01X-937669Y-163515D01*
G01X-939706Y-164145D01*
G01X-941387Y-165123D01*
G01X-942848Y-166393D01*
G01X-945640Y-169570D01*
G01X-949145Y-173213D01*
G01X-949145Y-143213D01*
G01X-945640Y-146855D01*
G01X-942848Y-150032D01*
G01X-941387Y-151302D01*
G01X-939706Y-152280D01*
G01X-937669Y-152910D01*
G01X-935145Y-153133D01*
G37*
G36*
G01X-650658Y-147417D02*
G01X-660818Y-147417D01*
G01X-661041Y-144893D01*
G01X-661670Y-142857D01*
G01X-662649Y-141175D01*
G01X-663918Y-139714D01*
G01X-667095Y-136923D01*
G01X-670738Y-133417D01*
G01X-640738Y-133417D01*
G01X-644380Y-136923D01*
G01X-647558Y-139714D01*
G01X-648827Y-141175D01*
G01X-649805Y-142857D01*
G01X-650435Y-144893D01*
G01X-650658Y-147417D01*
G37*
G36*
G01X-770409Y-527398D02*
G01X-763224Y-534582D01*
G01X-764851Y-536524D01*
G01X-765846Y-538410D01*
G01X-766344Y-540291D01*
G01X-766479Y-542221D01*
G01X-766206Y-546442D01*
G01X-766109Y-551496D01*
G01X-787323Y-530283D01*
G01X-782268Y-530380D01*
G01X-778047Y-530653D01*
G01X-776117Y-530517D01*
G01X-774236Y-530020D01*
G01X-772351Y-529025D01*
G01X-770409Y-527398D01*
G37*
G36*
G01X-675450Y-490997D02*
G01X-665290Y-490997D01*
G01X-665067Y-493521D01*
G01X-664438Y-495558D01*
G01X-663459Y-497240D01*
G01X-662190Y-498701D01*
G01X-659013Y-501492D01*
G01X-655370Y-504997D01*
G01X-685370Y-504997D01*
G01X-681727Y-501492D01*
G01X-678550Y-498701D01*
G01X-677281Y-497240D01*
G01X-676302Y-495558D01*
G01X-675673Y-493521D01*
G01X-675450Y-490997D01*
G37*
G36*
G01X-730830Y-520923D02*
G01X-720670Y-520923D01*
G01X-720447Y-523447D01*
G01X-719818Y-525483D01*
G01X-718839Y-527165D01*
G01X-717570Y-528626D01*
G01X-714393Y-531417D01*
G01X-710750Y-534922D01*
G01X-740750Y-534922D01*
G01X-737107Y-531417D01*
G01X-733930Y-528626D01*
G01X-732661Y-527165D01*
G01X-731683Y-525483D01*
G01X-731053Y-523447D01*
G01X-730830Y-520923D01*
G37*
G36*
G01X573606Y-89611D02*
G01X593926Y-89611D01*
G01X594287Y-93145D01*
G01X595291Y-97010D01*
G01X596823Y-100676D01*
G01X598766Y-103611D01*
G01X568766Y-103611D01*
G01X570710Y-100676D01*
G01X572242Y-97010D01*
G01X573246Y-93145D01*
G01X573606Y-89611D01*
G37*
G36*
G01X378551Y265441D02*
G01X385735Y272626D01*
G01X387677Y270999D01*
G01X389563Y270004D01*
G01X391444Y269506D01*
G01X393374Y269371D01*
G01X397595Y269644D01*
G01X402649Y269741D01*
G01X381436Y248528D01*
G01X381533Y253582D01*
G01X381806Y257803D01*
G01X381670Y259733D01*
G01X381173Y261614D01*
G01X380178Y263499D01*
G01X378551Y265441D01*
G37*
G36*
G01X-522256Y-306815D02*
G01X-512096Y-306815D01*
G01X-511873Y-309339D01*
G01X-511244Y-311376D01*
G01X-510265Y-313058D01*
G01X-508996Y-314518D01*
G01X-505819Y-317310D01*
G01X-502176Y-320815D01*
G01X-532176Y-320815D01*
G01X-528533Y-317310D01*
G01X-525356Y-314518D01*
G01X-524087Y-313058D01*
G01X-523108Y-311376D01*
G01X-522479Y-309339D01*
G01X-522256Y-306815D01*
G37*
G36*
G01X466502Y228085D02*
G01X481742Y228085D01*
G01X482376Y224132D01*
G01X484048Y220562D01*
G01X486412Y217253D01*
G01X489122Y214085D01*
G01X459122Y214085D01*
G01X461832Y217253D01*
G01X464195Y220562D01*
G01X465867Y224132D01*
G01X466502Y228085D01*
G37*
G36*
G01X482336Y152415D02*
G01X493113Y141639D01*
G01X490766Y138396D01*
G01X489424Y134689D01*
G01X488756Y130678D01*
G01X488432Y126521D01*
G01X467219Y147734D01*
G01X471375Y148058D01*
G01X475386Y148727D01*
G01X479093Y150069D01*
G01X482336Y152415D01*
G37*
G36*
G01X-221445Y352723D02*
G01X-221445Y342563D01*
G01X-223969Y342341D01*
G01X-226005Y341711D01*
G01X-227687Y340733D01*
G01X-229148Y339463D01*
G01X-231940Y336286D01*
G01X-235445Y332643D01*
G01X-235445Y362643D01*
G01X-231940Y359001D01*
G01X-229148Y355824D01*
G01X-227687Y354554D01*
G01X-226005Y353576D01*
G01X-223969Y352946D01*
G01X-221445Y352723D01*
G37*
G36*
G01X304501Y277316D02*
G01X292673Y279856D01*
G01X294191Y281725D01*
G01X295185Y283709D01*
G01X295737Y285801D01*
G01X295930Y287992D01*
G01X295570Y292632D01*
G01X294767Y297561D01*
G01X320109Y281506D01*
G01X311907Y280084D01*
G01X307625Y279057D01*
G01X305858Y278299D01*
G01X304501Y277316D01*
G37*
G36*
G01X-157382Y168134D02*
G01X-157382Y178294D01*
G01X-154858Y178517D01*
G01X-152822Y179146D01*
G01X-151140Y180125D01*
G01X-149679Y181394D01*
G01X-146888Y184571D01*
G01X-143382Y188214D01*
G01X-143382Y158214D01*
G01X-146888Y161857D01*
G01X-149679Y165034D01*
G01X-151140Y166303D01*
G01X-152822Y167282D01*
G01X-154858Y167911D01*
G01X-157382Y168134D01*
G37*
G36*
G01X-267190Y215979D02*
G01X-251950Y205819D01*
G01X-254179Y205566D01*
G01X-256382Y204850D01*
G01X-260485Y202294D01*
G01X-263821Y198681D01*
G01X-265950Y194539D01*
G01X-281190Y220380D01*
G01X-277407Y219228D01*
G01X-274229Y217767D01*
G01X-271032Y216512D01*
G01X-267190Y215979D01*
G37*
G36*
G01X-325120Y347630D02*
G01X-335280Y347630D01*
G01X-335503Y350154D01*
G01X-336132Y352190D01*
G01X-337111Y353872D01*
G01X-338380Y355333D01*
G01X-341557Y358125D01*
G01X-345200Y361630D01*
G01X-315200Y361630D01*
G01X-318843Y358125D01*
G01X-322020Y355333D01*
G01X-323289Y353872D01*
G01X-324268Y352190D01*
G01X-324897Y350154D01*
G01X-325120Y347630D01*
G37*
G36*
G01X452290Y678081D02*
G01X459475Y685265D01*
G01X461417Y683638D01*
G01X463302Y682643D01*
G01X465183Y682146D01*
G01X467114Y682010D01*
G01X471334Y682283D01*
G01X476389Y682380D01*
G01X455176Y661167D01*
G01X455272Y666221D01*
G01X455545Y670442D01*
G01X455410Y672372D01*
G01X454912Y674253D01*
G01X453918Y676139D01*
G01X452290Y678081D01*
G37*
G36*
G01X884199Y424156D02*
G01X873422Y434933D01*
G01X875769Y438176D01*
G01X877111Y441883D01*
G01X877779Y445894D01*
G01X878103Y450050D01*
G01X899316Y428837D01*
G01X895160Y428513D01*
G01X891149Y427845D01*
G01X887442Y426503D01*
G01X884199Y424156D01*
G37*
G36*
G01X553284Y-763846D02*
G01X552738Y-743534D01*
G01X556261Y-743079D01*
G01X560098Y-741971D01*
G01X563721Y-740341D01*
G01X566603Y-738319D01*
G01X567409Y-768308D01*
G01X564422Y-766444D01*
G01X560717Y-765011D01*
G01X556827Y-764112D01*
G01X553284Y-763846D01*
G37*
G36*
G01X-297674Y321946D02*
G01X-287514Y321946D01*
G01X-287291Y319422D01*
G01X-286662Y317386D01*
G01X-285683Y315704D01*
G01X-284414Y314243D01*
G01X-281237Y311452D01*
G01X-277594Y307946D01*
G01X-307594Y307946D01*
G01X-303951Y311452D01*
G01X-300774Y314243D01*
G01X-299505Y315704D01*
G01X-298526Y317386D01*
G01X-297897Y319422D01*
G01X-297674Y321946D01*
G37*
G36*
G01X42164Y702720D02*
G01X42164Y692560D01*
G01X39640Y692337D01*
G01X37603Y691708D01*
G01X35921Y690729D01*
G01X34461Y689460D01*
G01X31669Y686283D01*
G01X28164Y682640D01*
G01X28164Y712640D01*
G01X31669Y708997D01*
G01X34461Y705820D01*
G01X35921Y704551D01*
G01X37603Y703572D01*
G01X39640Y702943D01*
G01X42164Y702720D01*
G37*
G36*
G01X-144468Y662218D02*
G01X-142573Y649745D01*
G01X-143577Y648383D01*
G01X-144353Y646638D01*
G01X-145418Y642443D01*
G01X-146164Y638054D01*
G01X-146987Y634360D01*
G01X-162241Y660192D01*
G01X-157346Y659306D01*
G01X-152661Y658947D01*
G01X-150440Y659153D01*
G01X-148323Y659717D01*
G01X-146327Y660714D01*
G01X-144468Y662218D01*
G37*
G36*
G01X-259135Y652499D02*
G01X-250695Y658428D01*
G01X-248731Y656765D01*
G01X-246877Y655763D01*
G01X-245061Y655272D01*
G01X-243214Y655143D01*
G01X-239140Y655369D01*
G01X-234083Y655242D01*
G01X-256515Y635321D01*
G01X-255897Y644712D01*
G01X-256042Y646720D01*
G01X-256550Y648663D01*
G01X-257540Y650578D01*
G01X-259135Y652499D01*
G37*
G36*
G01X-599005Y595841D02*
G01X-599005Y570441D01*
G01X-606539Y570703D01*
G01X-609816Y570089D01*
G01X-613005Y568141D01*
G01X-613005Y598141D01*
G01X-609816Y596192D01*
G01X-606539Y595578D01*
G01X-599005Y595841D01*
G37*
G36*
G01X740724Y-69712D02*
G01X720549Y-72140D01*
G01X719769Y-68674D01*
G01X718310Y-64956D01*
G01X716352Y-61501D01*
G01X714071Y-58818D01*
G01X743856Y-55234D01*
G01X742277Y-58381D01*
G01X741194Y-62203D01*
G01X740659Y-66160D01*
G01X740724Y-69712D01*
G37*
G36*
G01X823416Y-279561D02*
G01X803890Y-285186D01*
G01X802566Y-281889D01*
G01X800531Y-278453D01*
G01X798045Y-275355D01*
G01X795364Y-273072D01*
G01X824192Y-264768D01*
G01X823137Y-268127D01*
G01X822680Y-272073D01*
G01X822784Y-276065D01*
G01X823416Y-279561D01*
G37*
G36*
G01X-453087Y349046D02*
G01X-486779Y366834D01*
G01X-479940Y380805D01*
G01X-476414Y388501D01*
G01X-441042Y369826D01*
G01X-445408Y362573D01*
G01X-453087Y349046D01*
G37*
G36*
G01X-49318Y205819D02*
G01X-64440Y215979D01*
G01X-62208Y216233D01*
G01X-60006Y216949D01*
G01X-55911Y219507D01*
G01X-52580Y223122D01*
G01X-50440Y227268D01*
G01X-35318Y201357D01*
G01X-39084Y202525D01*
G01X-42278Y204006D01*
G01X-45492Y205279D01*
G01X-49318Y205819D01*
G37*
G36*
G01X51712Y225639D02*
G01X44528Y218454D01*
G01X42586Y220081D01*
G01X40700Y221076D01*
G01X38819Y221574D01*
G01X36889Y221709D01*
G01X32668Y221436D01*
G01X27614Y221339D01*
G01X48827Y242552D01*
G01X48730Y237498D01*
G01X48457Y233277D01*
G01X48593Y231347D01*
G01X49090Y229466D01*
G01X50085Y227581D01*
G01X51712Y225639D01*
G37*
G36*
G01X324856Y439694D02*
G01X345176Y439694D01*
G01X345537Y436159D01*
G01X346541Y432295D01*
G01X348072Y428629D01*
G01X350016Y425694D01*
G01X320016Y425694D01*
G01X321960Y428629D01*
G01X323492Y432295D01*
G01X324496Y436159D01*
G01X324856Y439694D01*
G37*
G04 TearDrop End*

G04 Pad Start*
G54D12*
G01X-300000Y700026D03*
G01X-100000Y700026D03*
G01X-500524Y500000D03*
G01X100000Y700026D03*
G01X-300000Y500026D03*
G01X299477Y500000D03*
G01X99477Y100000D03*
G01X-100000Y500026D03*
G01X458408Y316979D03*
G01X100000Y500026D03*
G01X630410Y174472D03*
G01X-100000Y300026D03*
G01X-500524Y300000D03*
G01X100000Y300026D03*
G01X299477Y700000D03*
G01X803041Y412278D03*
G01X737532Y-128224D03*
G01X531647Y-35364D03*
G01X830993Y-342569D03*
G01X485727Y-755498D03*
G01X-800507Y-226503D03*
G01X-351038Y-881513D03*
G01X-500000Y700026D03*
G04 Pad End*

G04 Via Start*
G54D13*
G01X-884859Y-348787D03*
G01X-962374Y-158213D03*
G01X-926701Y-108580D03*
G01X-861829Y-122971D03*
G01X-919638Y-200663D03*
G01X-883033Y-249364D03*
G01X-919270Y-297893D03*
G01X-655738Y-120188D03*
G01X-855492Y-465826D03*
G01X-792413Y-489924D03*
G01X-786070Y-550244D03*
G01X-670370Y-518226D03*
G01X-886481Y-409009D03*
G01X-725750Y-548151D03*
G01X228680Y-788038D03*
G01X226180Y-720354D03*
G01X311184Y-761268D03*
G01X196138Y-661164D03*
G01X-647660Y-580822D03*
G01X-540554Y-487680D03*
G01X-477520Y-433372D03*
G01X-580512Y-37928D03*
G01X702097Y552053D03*
G01X773604Y521442D03*
G01X475240Y420675D03*
G01X874263Y347253D03*
G01X699478Y364570D03*
G01X680720Y614680D03*
G01X632834Y373866D03*
G01X193816Y352413D03*
G01X907491Y177478D03*
G01X583766Y-116840D03*
G01X737174Y169858D03*
G01X703580Y238640D03*
G01X772293Y108958D03*
G01X249197Y305757D03*
G01X401397Y249780D03*
G54D14*
G01X-761166Y-346281D03*
G01X-648176Y-308783D03*
G01X-703066Y-363674D03*
G54D13*
G01X-517176Y-334044D03*
G01X-249933Y12580D03*
G01X488430Y44824D03*
G01X474122Y200856D03*
G01X468471Y127774D03*
G01X-248674Y347643D03*
G01X314518Y300709D03*
G01X266538Y121557D03*
G01X372930Y131171D03*
G01X341750Y77046D03*
G01X324207Y170254D03*
G01X-130154Y173214D03*
G01X-284965Y200739D03*
G01X-330200Y374859D03*
G01X475136Y662419D03*
G01X-388126Y217806D03*
G01X898064Y448798D03*
G01X580230Y-752958D03*
G01X-292594Y294717D03*
G01X14935Y697640D03*
G01X-166005Y640550D03*
G01X-236515Y635390D03*
G01X-626233Y583141D03*
G01X-772160Y444500D03*
G01X-772160Y379681D03*
G01X-772160Y307872D03*
G01X-676158Y467520D03*
G01X-607528Y470020D03*
G01X310000Y-916422D03*
G01X309681Y-833080D03*
G01X727383Y-43892D03*
G01X806116Y-256209D03*
G01X-851522Y307340D03*
G01X-708660Y307340D03*
G01X-639666Y307340D03*
G01X-932140Y220940D03*
G01X-932180Y156593D03*
G01X-932180Y94060D03*
G01X-932180Y32366D03*
G01X-929640Y-48260D03*
G01X-871220Y44509D03*
G01X-458728Y379163D03*
G01X-238760Y-995680D03*
G01X-369701Y-906683D03*
G01X-622530Y-665032D03*
G01X-585029Y-715035D03*
G01X-540026Y-757537D03*
G01X-490024Y-810040D03*
G01X-447522Y-855042D03*
G01X-430021Y-920045D03*
G01X-315363Y-975309D03*
G01X-230011Y-805039D03*
G01X-227511Y-740036D03*
G01X-160008Y-720035D03*
G01X-80004Y-720035D03*
G01X0Y-720035D03*
G01X72504Y-720035D03*
G01X155008Y-720035D03*
G01X230011Y-857542D03*
G01X-215010Y-675033D03*
G01X-532526Y-550146D03*
G01X-482319Y-591578D03*
G01X-490024Y-655032D03*
G01X-445501Y-699458D03*
G01X-335016Y-735036D03*
G01X-290781Y-784940D03*
G01X-253972Y-862809D03*
G01X530860Y-855980D03*
G01X777240Y-647700D03*
G01X995680Y-208280D03*
G01X995680Y93960D03*
G01X828040Y571500D03*
G01X574540Y833899D03*
G01X297180Y977900D03*
G01X-58420Y1021080D03*
G01X-467360Y906780D03*
G01X-787480Y640279D03*
G01X-922140Y439460D03*
G01X-1008380Y162560D03*
G01X-1019305Y-108170D03*
G01X-850900Y-556260D03*
G01X-678220Y-764620D03*
G01X-624840Y381000D03*
G01X-706120Y378460D03*
G01X-711304Y571345D03*
G01X881659Y-241460D03*
G01X808080Y-453806D03*
G01X-398780Y-177800D03*
G01X-368300Y-520700D03*
G01X-325120Y-581660D03*
G01X-274320Y-632460D03*
G01X269240Y-601980D03*
G01X-693511Y-67098D03*
G01X-620550Y7340D03*
G54D14*
G01X-712661Y-304226D03*
G54D13*
G01X-401160Y-739982D03*
G01X230011Y-925045D03*
G01X-31454Y220980D03*
G01X28866Y241300D03*
G01X-57273Y88411D03*
G01X-472440Y-530860D03*
G01X408940Y-167640D03*
G01X335016Y412465D03*
G04 Via End*

G04 Track Start*
G54D16*
G01X-160007Y500026D02*
G01X-99477Y500026D01*
G01X475136Y662419D02*
G01X437555Y700000D01*
G01X300000Y700000D01*
G01X-248674Y347643D02*
G01X-147095Y347643D01*
G01X-99477Y300026D01*
G01X-650348Y-179693D02*
G01X-630866Y-179693D01*
G01X-387519Y389342D02*
G01X-299477Y477384D01*
G01X-299477Y500026D01*
G01X-407839Y608388D02*
G01X-499477Y700026D01*
G54D11*
G01X-500000Y500000D02*
G01X-583141Y583141D01*
G01X-626233Y583141D01*
G54D16*
G01X-630866Y-179693D02*
G01X-542906Y-91733D01*
G01X-873760Y-193040D02*
G01X-822960Y-193040D01*
G01X-801031Y-214969D01*
G01X-801031Y-226503D01*
G01X-407839Y483235D02*
G01X-407839Y608388D01*
G01X-522774Y368300D02*
G01X-407839Y483235D01*
G01X-573807Y331635D02*
G01X-537142Y368300D01*
G01X-522774Y368300D01*
G01X-635000Y256074D02*
G01X-573807Y317267D01*
G01X-573807Y331635D01*
G01X-962374Y-158213D02*
G01X-908587Y-158213D01*
G01X-873760Y-193040D01*
G01X-542906Y-17121D02*
G01X-635000Y74973D01*
G01X-635000Y256074D01*
G01X-542906Y-91733D02*
G01X-542906Y-17121D01*
G01X-655738Y-120188D02*
G01X-655738Y-174303D01*
G01X-650348Y-179693D01*
G01X-786070Y-550244D02*
G01X-754807Y-518980D01*
G01X-754807Y-472322D01*
G01X-599806Y-317321D01*
G01X-725750Y-548151D02*
G01X-725750Y-472002D01*
G01X-579486Y-325738D01*
G01X-670370Y-518226D02*
G01X-670370Y-445359D01*
G01X-559166Y-334155D01*
G01X-599806Y-177369D02*
G01X-370840Y51597D01*
G01X-599806Y-317321D02*
G01X-599806Y-177369D01*
G01X-579486Y-185786D02*
G01X-350520Y43180D01*
G01X-579486Y-325738D02*
G01X-579486Y-185786D01*
G01X-559166Y-334155D02*
G01X-559166Y-198486D01*
G54D17*
G01X458931Y316979D02*
G01X474122Y301788D01*
G01X474122Y200856D01*
G54D16*
G01X-517176Y-334044D02*
G01X-517176Y-185233D01*
G54D10*
G01X532170Y-35364D02*
G01X583766Y-86960D01*
G01X583766Y-116840D01*
G54D17*
G01X468471Y127774D02*
G01X513206Y172508D01*
G01X618433Y172508D01*
G54D16*
G01X-559166Y-198486D02*
G01X-330200Y30480D01*
G01X-330200Y374859D01*
G01X-292594Y294717D02*
G01X-292594Y367438D01*
G01X-160007Y500026D01*
G01X-350520Y43180D02*
G01X-350520Y248920D01*
G01X-387519Y285919D01*
G01X-387519Y389342D01*
G01X-370840Y51597D02*
G01X-370840Y200520D01*
G01X-388126Y217806D01*
G01X183098Y500026D02*
G01X100523Y500026D01*
G01X-517176Y-185233D02*
G01X-158729Y173214D01*
G01X-130154Y173214D01*
G01X100523Y300026D02*
G01X133036Y267513D01*
G01X287514Y267513D01*
G01X314518Y294517D01*
G01X314518Y300709D01*
G01X401397Y249780D02*
G01X372518Y278659D01*
G01X372518Y310605D01*
G01X183098Y500026D01*
G01X28866Y241300D02*
G01X99477Y170690D01*
G01X99477Y100000D01*
G01X-274805Y210899D02*
G01X-284965Y200739D01*
G01X-31454Y220980D02*
G01X-41535Y210899D01*
G01X-274805Y210899D01*
G01X-236515Y635390D02*
G01X-236515Y637063D01*
G01X-299477Y700026D01*
G01X-166005Y640550D02*
G01X-158953Y640550D01*
G01X-99477Y700026D01*
G01X14935Y697640D02*
G01X98137Y697640D01*
G01X100523Y700026D01*
G54D18*
G01X-458728Y379163D02*
G01X-500524Y300000D01*
G54D10*
G01X485727Y-755498D02*
G01X580230Y-752958D01*
G01X830993Y-342569D02*
G01X806116Y-256209D01*
G01X737532Y-128224D02*
G01X727383Y-43892D01*
G54D17*
G01X803041Y412278D02*
G01X861544Y412278D01*
G01X898064Y448798D01*
G54D10*
G01X299477Y500000D02*
G01X335016Y464461D01*
G01X335016Y412465D01*
G54D18*
G01X-351038Y-881513D02*
G01X-351038Y-888021D01*
G01X-369701Y-906683D01*
G04 Track End*

M02*

