G04 Layer: InnerLayer2*
G04 EasyEDA Pro v2.2.39.2, 2025-05-28 09:36:40*
G04 Gerber Generator version 0.3*
G04 Scale: 100 percent, Rotated: No, Reflected: No*
G04 Dimensions in millimeters*
G04 Leading zeros omitted, absolute positions, 4 integers and 5 decimals*
G04 Generated by one-click*
%FSLAX45Y45*%
%MOMM*%
%ADD10C,0.2032*%
%ADD11C,0.4*%
%ADD12C,0.5*%
%ADD13C,0.1016*%
%ADD14C,0.5307*%
G75*


G04 Copper Start*
G36*
G01X-833932Y620052D02*
G01X-793651Y670840D01*
G01X-769525Y697640D01*
G01X-40879Y697640D01*
G01X-38977Y683194D01*
G01X-33401Y669733D01*
G01X-24531Y658174D01*
G01X-12972Y649304D01*
G01X489Y643728D01*
G01X14935Y641826D01*
G01X29381Y643728D01*
G01X42842Y649304D01*
G01X54401Y658174D01*
G01X63271Y669733D01*
G01X68847Y683194D01*
G01X70749Y697640D01*
G01X68847Y712086D01*
G01X63271Y725547D01*
G01X54401Y737106D01*
G01X42842Y745976D01*
G01X29381Y751552D01*
G01X14935Y753454D01*
G01X489Y751552D01*
G01X-12972Y745976D01*
G01X-24531Y737106D01*
G01X-33401Y725547D01*
G01X-38977Y712086D01*
G01X-40879Y697640D01*
G01X-40879Y697640D01*
G01X-769525Y697640D01*
G01X-750281Y719017D01*
G01X-703993Y764396D01*
G01X-654965Y806801D01*
G01X-603389Y846067D01*
G01X-549464Y882041D01*
G01X-493402Y914583D01*
G01X-435420Y943566D01*
G01X-375744Y968877D01*
G01X-314606Y990419D01*
G01X-252244Y1008107D01*
G01X-188900Y1021873D01*
G01X-124821Y1031662D01*
G01X-60257Y1037437D01*
G01X4542Y1039176D01*
G01X69323Y1036871D01*
G01X133835Y1030532D01*
G01X197826Y1020182D01*
G01X261047Y1005864D01*
G01X323252Y987631D01*
G01X384199Y965556D01*
G01X443652Y939723D01*
G01X501378Y910235D01*
G01X557154Y877204D01*
G01X610761Y840760D01*
G01X661993Y801045D01*
G01X710648Y758213D01*
G01X756538Y712431D01*
G01X799485Y663876D01*
G01X839320Y612739D01*
G01X875890Y559217D01*
G01X909052Y503520D01*
G01X895281Y504542D01*
G01X881680Y502153D01*
G01X869083Y496498D01*
G01X858259Y487923D01*
G01X849872Y476953D01*
G01X844434Y464260D01*
G01X842280Y450620D01*
G01X843540Y436869D01*
G01X848137Y423848D01*
G01X855791Y412354D01*
G01X866032Y403091D01*
G01X878234Y396626D01*
G01X891649Y393354D01*
G01X905458Y393476D01*
G01X918814Y396984D01*
G01X930899Y403664D01*
G01X940975Y413107D01*
G01X948424Y424734D01*
G01X971918Y367808D01*
G01X991999Y309589D01*
G01X1008596Y250284D01*
G01X1021650Y190099D01*
G01X1031117Y129247D01*
G01X1036963Y67940D01*
G01X1039166Y6396D01*
G01X1037720Y-55172D01*
G01X1032630Y-116545D01*
G01X1023913Y-177509D01*
G01X1011600Y-237850D01*
G01X995734Y-297355D01*
G01X976372Y-355817D01*
G01X953580Y-413028D01*
G01X927440Y-468789D01*
G01X898042Y-522904D01*
G01X865490Y-575182D01*
G01X829899Y-625440D01*
G01X791393Y-673501D01*
G01X750108Y-719198D01*
G01X706188Y-762368D01*
G01X659789Y-802861D01*
G01X611072Y-840535D01*
G01X560209Y-875256D01*
G01X507379Y-906904D01*
G01X452766Y-935366D01*
G01X396564Y-960544D01*
G01X338969Y-982348D01*
G01X280183Y-1000702D01*
G01X220414Y-1015542D01*
G01X220414Y-752958D01*
G01X524416Y-752958D01*
G01X526318Y-767404D01*
G01X531894Y-780865D01*
G01X540764Y-792425D01*
G01X552323Y-801295D01*
G01X565784Y-806871D01*
G01X580230Y-808772D01*
G01X594676Y-806871D01*
G01X608137Y-801295D01*
G01X619696Y-792425D01*
G01X628566Y-780865D01*
G01X634142Y-767404D01*
G01X636044Y-752958D01*
G01X634142Y-738513D01*
G01X628566Y-725051D01*
G01X619696Y-713492D01*
G01X608137Y-704622D01*
G01X594676Y-699046D01*
G01X580230Y-697144D01*
G01X565784Y-699046D01*
G01X552323Y-704622D01*
G01X540764Y-713492D01*
G01X531894Y-725051D01*
G01X526318Y-738513D01*
G01X524416Y-752958D01*
G01X524416Y-752958D01*
G01X220414Y-752958D01*
G01X220414Y-735597D01*
G01X219019Y-730390D01*
G01X215207Y-726579D01*
G01X210000Y-725183D01*
G01X-210000Y-725183D01*
G01X-215207Y-726579D01*
G01X-219019Y-730390D01*
G01X-220414Y-735597D01*
G01X-220414Y-1015542D01*
G01X-283302Y-999824D01*
G01X-345087Y-980215D01*
G01X-405530Y-956793D01*
G01X-464395Y-929648D01*
G01X-506989Y-906683D01*
G01X-425515Y-906683D01*
G01X-423613Y-921129D01*
G01X-418037Y-934590D01*
G01X-409167Y-946150D01*
G01X-397608Y-955020D01*
G01X-384147Y-960595D01*
G01X-369701Y-962497D01*
G01X-355255Y-960595D01*
G01X-341794Y-955020D01*
G01X-330235Y-946150D01*
G01X-321365Y-934590D01*
G01X-315789Y-921129D01*
G01X-313887Y-906683D01*
G01X-315789Y-892238D01*
G01X-321365Y-878776D01*
G01X-330235Y-867217D01*
G01X-341794Y-858347D01*
G01X-355255Y-852771D01*
G01X-369701Y-850869D01*
G01X-384147Y-852771D01*
G01X-397608Y-858347D01*
G01X-409167Y-867217D01*
G01X-418037Y-878776D01*
G01X-423613Y-892238D01*
G01X-425515Y-906683D01*
G01X-425515Y-906683D01*
G01X-506989Y-906683D01*
G01X-521452Y-898885D01*
G01X-576481Y-864625D01*
G01X-629267Y-827001D01*
G01X-679604Y-786159D01*
G01X-727297Y-742257D01*
G01X-772160Y-695468D01*
G01X-814019Y-645973D01*
G01X-852710Y-593964D01*
G01X-888083Y-539644D01*
G01X-920001Y-483224D01*
G01X-948339Y-424924D01*
G01X-972987Y-364971D01*
G01X-993849Y-303598D01*
G01X-1010844Y-241043D01*
G01X-1023906Y-177550D01*
G01X-1026025Y-162565D01*
G01X-1018018Y-162565D01*
G01X-1015100Y-176520D01*
G01X-1008742Y-189280D01*
G01X-999358Y-200014D01*
G01X-987562Y-208020D01*
G01X-974121Y-212776D01*
G01X-970386Y-223897D01*
G01X-964409Y-233991D01*
G01X-956453Y-242613D01*
G01X-946872Y-249382D01*
G01X-946872Y-249382D01*
G01X-956920Y-256691D01*
G01X-965103Y-266041D01*
G01X-971014Y-276970D01*
G01X-974361Y-288937D01*
G01X-974977Y-301347D01*
G01X-972833Y-313586D01*
G01X-968034Y-325047D01*
G01X-960818Y-335163D01*
G01X-951543Y-343431D01*
G01X-940669Y-349443D01*
G01X-938538Y-364074D01*
G01X-932641Y-377633D01*
G01X-938872Y-389764D01*
G01X-941975Y-403045D01*
G01X-941765Y-416682D01*
G01X-938254Y-429860D01*
G01X-931651Y-441794D01*
G01X-922352Y-451770D01*
G01X-910910Y-459193D01*
G01X-910851Y-472934D01*
G01X-907437Y-486245D01*
G01X-900873Y-498318D01*
G01X-891559Y-508421D01*
G01X-880058Y-515943D01*
G01X-867068Y-520426D01*
G01X-853377Y-521599D01*
G01X-839813Y-519392D01*
G01X-835841Y-524984D01*
G01X-840715Y-538881D01*
G01X-841785Y-553570D01*
G01X-838975Y-568027D01*
G01X-832482Y-581245D01*
G01X-822758Y-592306D01*
G01X-810479Y-600438D01*
G01X-796500Y-605074D01*
G01X-781796Y-605894D01*
G01X-767389Y-602838D01*
G01X-754282Y-596121D01*
G01X-742434Y-601413D01*
G01X-729685Y-603826D01*
G01X-716722Y-603230D01*
G01X-704248Y-599657D01*
G01X-692936Y-593300D01*
G01X-683397Y-584503D01*
G01X-676148Y-573740D01*
G01X-662725Y-573514D01*
G01X-649745Y-570090D01*
G01X-637958Y-563665D01*
G01X-628046Y-554612D01*
G01X-620583Y-543454D01*
G01X-615999Y-530836D01*
G01X-614561Y-517489D01*
G01X-616351Y-504185D01*
G01X-621266Y-491693D01*
G01X-629022Y-480736D01*
G01X-639170Y-471947D01*
G01X-651122Y-465836D01*
G01X-664188Y-462756D01*
G01X-677612Y-462884D01*
G01X-690617Y-466214D01*
G01X-702450Y-472553D01*
G01X-712428Y-481534D01*
G01X-719972Y-492637D01*
G01X-728370Y-492399D01*
G01X-736709Y-493424D01*
G01X-737471Y-480094D01*
G01X-741378Y-467327D01*
G01X-748204Y-455853D01*
G01X-757561Y-446329D01*
G01X-768912Y-439299D01*
G01X-781607Y-435166D01*
G01X-794921Y-434166D01*
G01X-808091Y-436357D01*
G01X-814403Y-428051D01*
G01X-822150Y-421065D01*
G01X-831062Y-415642D01*
G01X-830955Y-403346D01*
G01X-833542Y-391326D01*
G01X-838699Y-380163D01*
G01X-832140Y-367115D01*
G01X-829190Y-352813D01*
G01X-830051Y-338234D01*
G01X-831447Y-334044D01*
G01X-572990Y-334044D01*
G01X-571088Y-348490D01*
G01X-565512Y-361951D01*
G01X-556642Y-373510D01*
G01X-545083Y-382380D01*
G01X-531622Y-387956D01*
G01X-517176Y-389858D01*
G01X-502730Y-387956D01*
G01X-489269Y-382380D01*
G01X-477710Y-373510D01*
G01X-468840Y-361951D01*
G01X-463264Y-348490D01*
G01X-461362Y-334044D01*
G01X-462275Y-327111D01*
G01X-418260Y-327111D01*
G01X-415366Y-366296D01*
G01X-408600Y-405001D01*
G01X-398031Y-442844D01*
G01X-383761Y-479453D01*
G01X-365933Y-514467D01*
G01X-344720Y-547540D01*
G01X-320333Y-578348D01*
G01X-293012Y-606586D01*
G01X-263026Y-631976D01*
G01X-230670Y-654268D01*
G01X-196263Y-673242D01*
G01X-160145Y-688711D01*
G01X-122671Y-700524D01*
G01X-84210Y-708562D01*
G01X-45142Y-712748D01*
G01X-5852Y-713040D01*
G01X33274Y-709435D01*
G01X71850Y-701968D01*
G01X109495Y-690714D01*
G01X145839Y-675783D01*
G01X180524Y-657322D01*
G01X213207Y-635513D01*
G01X243568Y-610571D01*
G01X271305Y-582742D01*
G01X296147Y-552300D01*
G01X646334Y-614047D01*
G01X661252Y-615351D01*
G01X676170Y-614041D01*
G01X690633Y-610158D01*
G01X704201Y-603820D01*
G01X716461Y-595219D01*
G01X717725Y-594105D01*
G01X772294Y-543656D01*
G01X773505Y-542483D01*
G01X784293Y-529061D01*
G01X792184Y-513756D01*
G01X796860Y-497183D01*
G01X808872Y-429064D01*
G01X810145Y-411891D01*
G01X807965Y-394810D01*
G01X802417Y-378508D01*
G01X785446Y-343556D01*
G01X766850Y-309440D01*
G01X766850Y-309440D01*
G01X758272Y-297166D01*
G01X747690Y-286570D01*
G01X735427Y-277975D01*
G01X721857Y-271642D01*
G01X707393Y-267765D01*
G01X641852Y-256209D01*
G01X750303Y-256209D01*
G01X752204Y-270654D01*
G01X757780Y-284116D01*
G01X766650Y-295675D01*
G01X778210Y-304545D01*
G01X791671Y-310121D01*
G01X806116Y-312022D01*
G01X820562Y-310121D01*
G01X834023Y-304545D01*
G01X845583Y-295675D01*
G01X854453Y-284116D01*
G01X860029Y-270654D01*
G01X861930Y-256209D01*
G01X860029Y-241763D01*
G01X854453Y-228302D01*
G01X845583Y-216742D01*
G01X834023Y-207872D01*
G01X820562Y-202296D01*
G01X806116Y-200395D01*
G01X791671Y-202296D01*
G01X778210Y-207872D01*
G01X766650Y-216742D01*
G01X757780Y-228302D01*
G01X752204Y-241763D01*
G01X750303Y-256209D01*
G01X750303Y-256209D01*
G01X641852Y-256209D01*
G01X357206Y-206018D01*
G01X344274Y-168915D01*
G01X327727Y-133278D01*
G01X319954Y-120132D01*
G01X528050Y-120132D01*
G01X530454Y-133363D01*
G01X535954Y-145635D01*
G01X544229Y-156235D01*
G01X554799Y-164548D01*
G01X567050Y-170092D01*
G01X580272Y-172544D01*
G01X593697Y-171763D01*
G01X606545Y-167794D01*
G01X618071Y-160867D01*
G01X627606Y-151384D01*
G01X634596Y-139896D01*
G01X638635Y-127070D01*
G01X685308Y-80565D01*
G01X696573Y-90432D01*
G01X710056Y-96948D01*
G01X724787Y-99645D01*
G01X739704Y-98329D01*
G01X753734Y-93094D01*
G01X765867Y-84317D01*
G01X775230Y-72630D01*
G01X781149Y-58874D01*
G01X783197Y-44039D01*
G01X781227Y-29194D01*
G01X775381Y-15407D01*
G01X766080Y-3671D01*
G01X794401Y15779D01*
G01X824673Y32023D01*
G01X850444Y45940D01*
G01X874454Y62712D01*
G01X896388Y82119D01*
G01X915960Y103907D01*
G01X932913Y127790D01*
G01X944040Y135295D01*
G01X953053Y145240D01*
G01X959432Y157049D01*
G01X962807Y170039D01*
G01X962984Y183459D01*
G01X959952Y196534D01*
G01X953886Y208507D01*
G01X945137Y218685D01*
G01X934212Y226481D01*
G01X921741Y231443D01*
G01X908447Y233284D01*
G01X895097Y231899D01*
G01X882464Y227366D01*
G01X871278Y219949D01*
G01X862186Y210076D01*
G01X855714Y198318D01*
G01X852236Y185355D01*
G01X851953Y171937D01*
G01X838412Y154544D01*
G01X822657Y139127D01*
G01X804976Y125965D01*
G01X785687Y115297D01*
G01X754551Y99044D01*
G01X724935Y80165D01*
G01X697058Y58799D01*
G01X671130Y35107D01*
G01X671130Y35107D01*
G01X573736Y-61935D01*
G01X560895Y-65927D01*
G01X549381Y-72876D01*
G01X539864Y-82376D01*
G01X532895Y-93877D01*
G01X528879Y-106711D01*
G01X528050Y-120132D01*
G01X319954Y-120132D01*
G01X307729Y-99456D01*
G01X284475Y-67784D01*
G01X258197Y-38574D01*
G01X229151Y-12112D01*
G01X197625Y11339D01*
G01X163930Y31549D01*
G01X128396Y48318D01*
G01X91376Y61482D01*
G01X53232Y70911D01*
G01X14341Y76511D01*
G01X-24913Y78228D01*
G01X-64144Y76045D01*
G01X-102965Y69983D01*
G01X-140994Y60102D01*
G01X-177855Y46499D01*
G01X-213187Y29308D01*
G01X-246640Y8699D01*
G01X-277885Y-15125D01*
G01X-306614Y-41929D01*
G01X-332544Y-71450D01*
G01X-355419Y-103396D01*
G01X-375015Y-137453D01*
G01X-391137Y-173284D01*
G01X-403627Y-210538D01*
G01X-412362Y-248846D01*
G01X-417256Y-287832D01*
G01X-418260Y-327111D01*
G01X-462275Y-327111D01*
G01X-463264Y-319598D01*
G01X-468840Y-306137D01*
G01X-477710Y-294578D01*
G01X-489269Y-285708D01*
G01X-502730Y-280132D01*
G01X-517176Y-278230D01*
G01X-531622Y-280132D01*
G01X-545083Y-285708D01*
G01X-556642Y-294578D01*
G01X-565512Y-306137D01*
G01X-571088Y-319598D01*
G01X-572990Y-334044D01*
G01X-572990Y-334044D01*
G01X-831447Y-334044D01*
G01X-834665Y-324378D01*
G01X-842715Y-312194D01*
G01X-853650Y-302514D01*
G01X-607931Y-302514D01*
G01X-597347Y-301121D01*
G01X-587484Y-297035D01*
G01X-579014Y-290536D01*
G01X-199580Y88898D01*
G01X188286Y88898D01*
G01X231096Y46087D01*
G01X239566Y39588D01*
G01X249429Y35503D01*
G01X260013Y34110D01*
G01X306089Y34110D01*
G01X316709Y27164D01*
G01X328624Y22797D01*
G01X341218Y21234D01*
G01X353838Y22557D01*
G01X365834Y26696D01*
G01X376585Y33438D01*
G01X385536Y42434D01*
G01X392222Y53219D01*
G01X396300Y65236D01*
G01X397558Y77863D01*
G01X432654Y42767D01*
G01X435110Y28328D01*
G01X441237Y15024D01*
G01X450614Y3773D01*
G01X462596Y-4651D01*
G01X476356Y-9669D01*
G01X490948Y-10934D01*
G01X505366Y-8359D01*
G01X518619Y-2122D01*
G01X529792Y7348D01*
G01X538117Y19399D01*
G01X543021Y33200D01*
G01X544165Y47802D01*
G01X541471Y62198D01*
G01X535125Y75399D01*
G01X525563Y86493D01*
G01X513444Y94719D01*
G01X520320Y107111D01*
G01X523852Y120836D01*
G01X523814Y135009D01*
G01X520208Y148714D01*
G01X513266Y161070D01*
G01X522390Y172832D01*
G01X528081Y186588D01*
G01X529933Y201359D01*
G01X527815Y216094D01*
G01X521877Y229746D01*
G01X512542Y241342D01*
G01X500474Y250058D01*
G01X486531Y255273D01*
G01X471705Y256618D01*
G01X457051Y253996D01*
G01X454075Y268226D01*
G01X447524Y281204D01*
G01X437843Y292051D01*
G01X425690Y300030D01*
G01X411889Y304599D01*
G01X397376Y305449D01*
G01X383135Y302522D01*
G01X370134Y296017D01*
G01X370294Y298652D01*
G01X378728Y307086D01*
G01X606948Y307086D01*
G01X617080Y308361D01*
G01X626580Y312106D01*
G01X634856Y318088D01*
G01X648306Y320239D01*
G01X660835Y325584D01*
G01X671697Y333804D01*
G01X680243Y344411D01*
G01X685966Y356772D01*
G01X688524Y370151D01*
G01X687766Y383752D01*
G01X683735Y396763D01*
G01X676673Y408411D01*
G01X666999Y418001D01*
G01X655291Y424962D01*
G01X642245Y428880D01*
G01X628639Y429522D01*
G01X615282Y426848D01*
G01X602971Y421019D01*
G01X592439Y412381D01*
G01X584312Y401449D01*
G01X579076Y388874D01*
G01X444207Y388874D01*
G01X504053Y448720D01*
G01X510551Y457189D01*
G01X514637Y467052D01*
G01X516030Y477636D01*
G01X516030Y624434D01*
G01X524361Y636111D01*
G01X529440Y649525D01*
G01X530933Y663791D01*
G01X528741Y677966D01*
G01X523009Y691114D01*
G01X514115Y702368D01*
G01X502646Y710983D01*
G01X489361Y716390D01*
G01X475136Y718233D01*
G01X460911Y716390D01*
G01X447626Y710983D01*
G01X436158Y702368D01*
G01X427264Y691114D01*
G01X421531Y677966D01*
G01X419339Y663791D01*
G01X420832Y649525D01*
G01X425912Y636111D01*
G01X434242Y624434D01*
G01X434242Y494575D01*
G01X382102Y442434D01*
G01X373159Y453212D01*
G01X361814Y461425D01*
G01X348783Y466554D01*
G01X334885Y468279D01*
G01X320995Y466489D01*
G01X307988Y461298D01*
G01X296682Y453032D01*
G01X287790Y442212D01*
G01X281872Y429519D01*
G01X279299Y415753D01*
G01X247110Y415753D01*
G01X243927Y418935D01*
G01X235458Y425434D01*
G01X225595Y429519D01*
G01X215011Y430913D01*
G01X-259481Y430913D01*
G01X-270065Y429519D01*
G01X-279928Y425434D01*
G01X-288398Y418935D01*
G01X-291580Y415753D01*
G01X-292215Y415753D01*
G01X-303919Y424098D01*
G01X-317367Y429177D01*
G01X-331666Y430654D01*
G01X-345867Y428429D01*
G01X-359030Y422651D01*
G01X-370280Y413702D01*
G01X-378871Y402177D01*
G01X-384234Y388841D01*
G01X-386013Y374576D01*
G01X-384090Y360331D01*
G01X-378592Y347049D01*
G01X-369884Y335611D01*
G01X-478578Y335611D01*
G01X-489162Y334218D01*
G01X-499025Y330133D01*
G01X-507494Y323634D01*
G01X-609429Y221699D01*
G01X-615927Y213230D01*
G01X-620013Y203367D01*
G01X-621406Y192783D01*
G01X-621406Y57D01*
G01X-629645Y-11449D01*
G01X-634726Y-24658D01*
G01X-636321Y-38720D01*
G01X-634327Y-52731D01*
G01X-628874Y-65791D01*
G01X-620311Y-77059D01*
G01X-631767Y-69784D01*
G01X-644639Y-65489D01*
G01X-658167Y-64427D01*
G01X-671552Y-66662D01*
G01X-684001Y-72060D01*
G01X-694781Y-80303D01*
G01X-703252Y-90904D01*
G01X-708915Y-103236D01*
G01X-711434Y-116569D01*
G01X-710662Y-130117D01*
G01X-706642Y-143078D01*
G01X-699614Y-154686D01*
G01X-772282Y-154686D01*
G01X-806053Y-120914D01*
G01X-808205Y-107492D01*
G01X-813537Y-94988D01*
G01X-821734Y-84144D01*
G01X-832309Y-75603D01*
G01X-844635Y-69872D01*
G01X-857981Y-67290D01*
G01X-871555Y-68011D01*
G01X-884552Y-71992D01*
G01X-894380Y-63077D01*
G01X-906034Y-56733D01*
G01X-918856Y-53320D01*
G01X-932122Y-53030D01*
G01X-945081Y-55879D01*
G01X-957002Y-61707D01*
G01X-967210Y-70184D01*
G01X-975128Y-80831D01*
G01X-980310Y-93046D01*
G01X-982462Y-106139D01*
G01X-994999Y-112927D01*
G01X-1005408Y-122670D01*
G01X-1013008Y-134731D01*
G01X-1017305Y-148325D01*
G01X-1018018Y-162565D01*
G01X-1026025Y-162565D01*
G01X-1032984Y-113367D01*
G01X-1038042Y-48742D01*
G01X-1039062Y16072D01*
G01X-1036038Y80824D01*
G01X-1028983Y145261D01*
G01X-1017925Y209133D01*
G01X-1002905Y272191D01*
G01X-983984Y334190D01*
G01X-961234Y394889D01*
G01X-934743Y454051D01*
G01X-904616Y511447D01*
G01X-870968Y566852D01*
G01X-859629Y583141D01*
G01X-682047Y583141D01*
G01X-680146Y568695D01*
G01X-674570Y555234D01*
G01X-665700Y543674D01*
G01X-654140Y534804D01*
G01X-640679Y529228D01*
G01X-626233Y527327D01*
G01X-611788Y529228D01*
G01X-598326Y534804D01*
G01X-586767Y543674D01*
G01X-577897Y555234D01*
G01X-572321Y568695D01*
G01X-570419Y583141D01*
G01X-572321Y597586D01*
G01X-577897Y611048D01*
G01X-586767Y622607D01*
G01X-598117Y631316D01*
G01X-292180Y631316D01*
G01X-289428Y617632D01*
G01X-283368Y605058D01*
G01X-274377Y594382D01*
G01X-263018Y586270D01*
G01X-250001Y581230D01*
G01X-236141Y579577D01*
G01X-222305Y581415D01*
G01X-209357Y586629D01*
G01X-198107Y594892D01*
G01X-185775Y588354D01*
G01X-172206Y585081D01*
G01X-158249Y585277D01*
G01X-144778Y588930D01*
G01X-132633Y595811D01*
G01X-122576Y605490D01*
G01X-115236Y617362D01*
G01X-111070Y630684D01*
G01X-110340Y644623D01*
G01X-113091Y658307D01*
G01X-119152Y670881D01*
G01X-128143Y681558D01*
G01X-139502Y689670D01*
G01X-152518Y694710D01*
G01X-166378Y696362D01*
G01X-180215Y694524D01*
G01X-193163Y689311D01*
G01X-204412Y681048D01*
G01X-216745Y687585D01*
G01X-230314Y690858D01*
G01X-244270Y690662D01*
G01X-257742Y687010D01*
G01X-269886Y680128D01*
G01X-279943Y670449D01*
G01X-287284Y658577D01*
G01X-291450Y645255D01*
G01X-292180Y631316D01*
G01X-292180Y631316D01*
G01X-598117Y631316D01*
G01X-598326Y631477D01*
G01X-611788Y637053D01*
G01X-626233Y638955D01*
G01X-640679Y637053D01*
G01X-654140Y631477D01*
G01X-665700Y622607D01*
G01X-674570Y611048D01*
G01X-680146Y597586D01*
G01X-682047Y583141D01*
G01X-682047Y583141D01*
G01X-859629Y583141D01*
G01X-833932Y620052D01*
G37*
G36*
G01X-615939Y-81058D02*
G01X-606246Y-87455D01*
G01X-595440Y-91709D01*
G01X-583988Y-93634D01*
G01X-600784Y-110430D01*
G01X-603826Y-99686D01*
G01X-608946Y-89763D01*
G01X-615939Y-81058D01*
G37*
G54D10*
G01X-833932Y620052D02*
G02X909052Y503520I833932J-620052D01*
G03X848137Y423848I-10988J-54722D01*
G03X948424Y424734I49927J24950D01*
G02X927440Y-468789I-948424J-424734D01*
G02X220414Y-1015542I-927440J468789D01*
G01X220414Y-735597D01*
G03X210000Y-725183I-10414J0D01*
G01X-210000Y-725183D01*
G03X-220414Y-735597I0J-10414D01*
G01X-220414Y-1015542D01*
G02X-833932Y620052I220414J1015542D01*
G01X-946872Y-249382D02*
G03X-974977Y-301347I27601J-48512D01*
G03X-940669Y-349443I55707J3453D01*
G03X-932641Y-377633I55810J656D01*
G03X-910910Y-459193I46160J-31376D01*
G03X-839813Y-519392I55418J-6633D01*
G03X-835841Y-524984I47401J29468D01*
G03X-822758Y-592306I49771J-25260D01*
G03X-754282Y-596121I36688J42062D01*
G03X-676148Y-573740I28532J47970D01*
G03X-621266Y-491693I5778J55514D01*
G03X-719972Y-492637I-49104J-26533D01*
G03X-736709Y-493424I-5778J-55514D01*
G03X-808091Y-436357I-55704J3500D01*
G03X-831062Y-415642I-47401J-29468D01*
G03X-838699Y-380163I-55418J6633D01*
G03X-853650Y-302514I-46160J31376D01*
G01X-607931Y-302514D01*
G03X-579014Y-290536I0J40894D01*
G01X-199580Y88898D01*
G01X188286Y88898D01*
G01X231096Y46087D01*
G03X260013Y34110I28916J28916D01*
G01X306089Y34110D01*
G03X365834Y26696I35661J42936D01*
G03X397558Y77863I-24085J50350D01*
G01X432654Y42767D01*
G03X518619Y-2122I55776J2057D01*
G03X513444Y94719I-30188J46945D01*
G03X513266Y161070I-44973J33055D01*
G03X521877Y229746I-39144J39786D01*
G03X457051Y253996I-47756J-28889D01*
G03X425690Y300030I-55655J-4216D01*
G03X370134Y296017I-24294J-50250D01*
G03X370294Y298652I-55616J4692D01*
G01X378728Y307086D01*
G01X606948Y307086D01*
G03X634856Y318088I0J40894D01*
G03X676673Y408411I-2021J55777D01*
G03X579076Y388874I-43839J-34545D01*
G01X444207Y388874D01*
G01X504053Y448720D01*
G03X516030Y477636I-28916J28916D01*
G01X516030Y624434D01*
G03X475136Y718233I-40894J37985D01*
G03X434242Y624434I0J-55814D01*
G01X434242Y494575D01*
G01X382102Y442434D01*
G03X279299Y415753I-47085J-29970D01*
G01X247110Y415753D01*
G01X243927Y418935D01*
G03X215011Y430913I-28916J-28916D01*
G01X-259481Y430913D01*
G03X-288398Y418935I0J-40894D01*
G01X-291580Y415753D01*
G01X-292215Y415753D01*
G03X-370280Y413702I-37985J-40894D01*
G03X-369884Y335611I40080J-38844D01*
G01X-478578Y335611D01*
G03X-507494Y323634I0J-40894D01*
G01X-609429Y221699D01*
G03X-621406Y192783I28916J-28916D01*
G01X-621406Y57D01*
G03X-620311Y-77059I40894J-37985D01*
G03X-694781Y-80303I-35426J-43130D01*
G03X-699614Y-154686I39043J-39886D01*
G01X-772282Y-154686D01*
G01X-806053Y-120914D01*
G03X-884552Y-71992I-55776J-2057D01*
G03X-945081Y-55879I-42149J-36588D01*
G03X-982462Y-106139I18380J-52701D01*
G03X-1018018Y-162565I20088J-52074D01*
G03X-974121Y-212776I55644J4352D01*
G03X-946872Y-249382I54484J12113D01*
G01X-682047Y583141D02*
G03X-570419Y583141I55814J0D01*
G03X-682047Y583141I-55814J0D01*
G01X-572990Y-334044D02*
G03X-461362Y-334044I55814J0D01*
G03X-572990Y-334044I-55814J0D01*
G01X-425515Y-906683D02*
G03X-313887Y-906683I55814J0D01*
G03X-425515Y-906683I-55814J0D01*
G01X766850Y-309440D02*
G03X707393Y-267765I-74356J-42831D01*
G01X357206Y-206018D01*
G03X-412362Y-248846I-379767J-111561D01*
G03X296147Y-552300I389801J-68732D01*
G01X646334Y-614047D01*
G03X716461Y-595219I14902J84510D01*
G01X717725Y-594105D01*
G01X772294Y-543656D01*
G01X773505Y-542483D01*
G03X796860Y-497183I-61155J60201D01*
G01X808872Y-429064D01*
G03X802417Y-378508I-84511J14900D01*
G03X766850Y-309440I-751154J-343128D01*
G01X-292180Y631316D02*
G03X-198107Y594892I55665J4073D01*
G03X-110340Y644623I32102J45658D01*
G03X-204412Y681048I-55665J-4073D01*
G03X-292180Y631316I-32102J-45658D01*
G01X-40879Y697640D02*
G03X70749Y697640I55814J0D01*
G03X-40879Y697640I-55814J0D01*
G01X524416Y-752958D02*
G03X636044Y-752958I55814J0D01*
G03X524416Y-752958I-55814J0D01*
G01X671130Y35107D02*
G01X573736Y-61935D01*
G03X544229Y-156235I10031J-54905D01*
G03X638635Y-127070I39538J39395D01*
G01X685308Y-80565D01*
G03X765867Y-84317I42075J36673D01*
G03X766080Y-3671I-38484J40425D01*
G02X824673Y32023I191963J-249177D01*
G03X932913Y127790I-108434J231609D01*
G03X934212Y226481I-25422J49688D01*
G03X851953Y171937I-26721J-49002D01*
G02X785687Y115297I-135714J91695D01*
G03X671130Y35107I172357J-368145D01*
G01X750303Y-256209D02*
G03X861930Y-256209I55814J0D01*
G03X750303Y-256209I-55814J0D01*
G01X-615939Y-81058D02*
G03X-583988Y-93634I35426J43130D01*
G01X-600784Y-110430D01*
G03X-615939Y-81058I-54954J-9759D01*
G04 Copper End*

G04 TearDrop Start*
G36*
G01X-904378Y-127298D02*
G01X-914246Y-131798D01*
G01X-916240Y-130088D01*
G01X-918058Y-129073D01*
G01X-919792Y-128586D01*
G01X-921536Y-128460D01*
G01X-925426Y-128622D01*
G01X-930469Y-128222D01*
G01X-906742Y-109863D01*
G01X-907270Y-114869D01*
G01X-907612Y-119354D01*
G01X-907451Y-121443D01*
G01X-906928Y-123453D01*
G01X-905938Y-125399D01*
G01X-904378Y-127298D01*
G37*
G36*
G01X-838984Y-138632D02*
G01X-846168Y-145817D01*
G01X-848110Y-144190D01*
G01X-849995Y-143195D01*
G01X-851876Y-142697D01*
G01X-853807Y-142562D01*
G01X-858027Y-142835D01*
G01X-863082Y-142932D01*
G01X-841869Y-121719D01*
G01X-841966Y-126773D01*
G01X-842239Y-130994D01*
G01X-842103Y-132924D01*
G01X-841605Y-134805D01*
G01X-840611Y-136690D01*
G01X-838984Y-138632D01*
G37*
G36*
G01X-886624Y-205740D02*
G01X-901859Y-215900D01*
G01X-905700Y-216433D01*
G01X-908899Y-217689D01*
G01X-912077Y-219151D01*
G01X-915859Y-220303D01*
G01X-900624Y-194460D01*
G01X-898495Y-198602D01*
G01X-895159Y-202215D01*
G01X-891056Y-204770D01*
G01X-888854Y-205487D01*
G01X-886624Y-205740D01*
G37*
G36*
G01X-849264Y-256540D02*
G01X-867771Y-266700D01*
G01X-871964Y-267047D01*
G01X-874777Y-267844D01*
G01X-877587Y-268725D01*
G01X-881771Y-269324D01*
G01X-863264Y-246336D01*
G01X-862647Y-248539D01*
G01X-861554Y-250523D01*
G01X-860060Y-252265D01*
G01X-858243Y-253743D01*
G01X-853942Y-255810D01*
G01X-849264Y-256540D01*
G37*
G36*
G01X-585592Y-10699D02*
G01X-575432Y-10699D01*
G01X-575209Y-13223D01*
G01X-574580Y-15260D01*
G01X-573601Y-16942D01*
G01X-572332Y-18402D01*
G01X-569155Y-21194D01*
G01X-565512Y-24699D01*
G01X-595512Y-24699D01*
G01X-591870Y-21194D01*
G01X-588692Y-18402D01*
G01X-587423Y-16942D01*
G01X-586445Y-15260D01*
G01X-585815Y-13223D01*
G01X-585592Y-10699D01*
G37*
G36*
G01X617173Y351020D02*
G01X609988Y358204D01*
G01X611615Y360146D01*
G01X612610Y362032D01*
G01X613108Y363913D01*
G01X613243Y365843D01*
G01X612970Y370064D01*
G01X612874Y375118D01*
G01X634087Y353905D01*
G01X629032Y354002D01*
G01X624812Y354275D01*
G01X622881Y354139D01*
G01X621000Y353642D01*
G01X619115Y352647D01*
G01X617173Y351020D01*
G37*
G36*
G01X166588Y347333D02*
G01X166588Y357493D01*
G01X169112Y357716D01*
G01X171148Y358345D01*
G01X172830Y359324D01*
G01X174291Y360593D01*
G01X177082Y363770D01*
G01X180588Y367413D01*
G01X180588Y337413D01*
G01X177082Y341055D01*
G01X174291Y344233D01*
G01X172830Y345502D01*
G01X171148Y346480D01*
G01X169112Y347110D01*
G01X166588Y347333D01*
G37*
G36*
G01X899914Y142681D02*
G01X882227Y152776D01*
G01X885068Y157388D01*
G01X887325Y162270D01*
G01X888507Y167335D01*
G01X888541Y169909D01*
G01X888122Y172495D01*
G01X914856Y158884D01*
G01X912179Y157593D01*
G01X909899Y156037D01*
G01X906199Y152241D01*
G01X903092Y147716D01*
G01X899914Y142681D01*
G37*
G36*
G01X595884Y-90424D02*
G01X610226Y-104818D01*
G01X607977Y-107568D01*
G01X605948Y-111007D01*
G01X604432Y-114680D01*
G01X603725Y-118129D01*
G01X582550Y-96877D01*
G01X586002Y-96182D01*
G01X589679Y-94680D01*
G01X593126Y-92663D01*
G01X595884Y-90424D01*
G37*
G36*
G01X220823Y302260D02*
G01X223197Y312420D01*
G01X225778Y312630D01*
G01X227792Y313222D01*
G01X229405Y314143D01*
G01X230781Y315338D01*
G01X233478Y318329D01*
G01X237197Y321757D01*
G01X234823Y291851D01*
G01X228650Y299007D01*
G01X227107Y300339D01*
G01X225357Y301365D01*
G01X223297Y302026D01*
G01X220823Y302260D01*
G37*
G36*
G01X375693Y242751D02*
G01X372769Y252911D01*
G01X375232Y253147D01*
G01X377298Y253814D01*
G01X379064Y254851D01*
G01X380626Y256195D01*
G01X386769Y263420D01*
G01X389693Y233562D01*
G01X385924Y236936D01*
G01X383249Y239880D01*
G01X381894Y241055D01*
G01X380297Y241961D01*
G01X378287Y242545D01*
G01X375693Y242751D01*
G37*
G36*
G01X465585Y60485D02*
G01X472769Y67669D01*
G01X474711Y66042D01*
G01X476596Y65048D01*
G01X478477Y64550D01*
G01X480408Y64414D01*
G01X484628Y64687D01*
G01X489683Y64784D01*
G01X468470Y43571D01*
G01X468567Y48626D01*
G01X468840Y52846D01*
G01X468704Y54777D01*
G01X468206Y56658D01*
G01X467212Y58543D01*
G01X465585Y60485D01*
G37*
G36*
G01X-225404Y357493D02*
G01X-218250Y347333D01*
G01X-220634Y347083D01*
G01X-222747Y346379D01*
G01X-224633Y345284D01*
G01X-226338Y343863D01*
G01X-229386Y340307D01*
G01X-232250Y336231D01*
G01X-239404Y365365D01*
G01X-232585Y360691D01*
G01X-228853Y358446D01*
G01X-227070Y357750D01*
G01X-225404Y357493D01*
G37*
G36*
G01X298856Y277863D02*
G01X291672Y285047D01*
G01X293299Y286989D01*
G01X294294Y288874D01*
G01X294791Y290756D01*
G01X294927Y292686D01*
G01X294654Y296906D01*
G01X294557Y301961D01*
G01X315770Y280748D01*
G01X310715Y280845D01*
G01X306495Y281118D01*
G01X304565Y280982D01*
G01X302683Y280485D01*
G01X300798Y279490D01*
G01X298856Y277863D01*
G37*
G36*
G01X330179Y323554D02*
G01X337363Y316370D01*
G01X335736Y314428D01*
G01X334742Y312543D01*
G01X334244Y310662D01*
G01X334108Y308731D01*
G01X334381Y304511D01*
G01X334478Y299456D01*
G01X313265Y320669D01*
G01X318320Y320572D01*
G01X322540Y320299D01*
G01X324471Y320435D01*
G01X326352Y320933D01*
G01X328237Y321927D01*
G01X330179Y323554D01*
G37*
G36*
G01X243692Y137218D02*
G01X250876Y144403D01*
G01X252818Y142776D01*
G01X254704Y141781D01*
G01X256585Y141283D01*
G01X258515Y141148D01*
G01X262736Y141421D01*
G01X267790Y141518D01*
G01X246577Y120305D01*
G01X246674Y125359D01*
G01X246947Y129580D01*
G01X246811Y131510D01*
G01X246314Y133391D01*
G01X245319Y135276D01*
G01X243692Y137218D01*
G37*
G36*
G01X345701Y126091D02*
G01X345701Y136251D01*
G01X348225Y136474D01*
G01X350261Y137104D01*
G01X351943Y138082D01*
G01X353404Y139351D01*
G01X356195Y142529D01*
G01X359701Y146171D01*
G01X359701Y116171D01*
G01X356195Y119814D01*
G01X353404Y122991D01*
G01X351943Y124260D01*
G01X350261Y125239D01*
G01X348225Y125868D01*
G01X345701Y126091D01*
G37*
G36*
G01X316122Y69924D02*
G01X313059Y80084D01*
G01X315519Y80320D01*
G01X317587Y80989D01*
G01X319356Y82028D01*
G01X320923Y83375D01*
G01X327059Y90617D01*
G01X330122Y60774D01*
G01X326340Y64133D01*
G01X323672Y67064D01*
G01X322321Y68235D01*
G01X320729Y69137D01*
G01X318720Y69718D01*
G01X316122Y69924D01*
G37*
G36*
G01X300732Y175036D02*
G01X299284Y190851D01*
G01X301085Y189412D01*
G01X303130Y188388D01*
G01X307717Y187447D01*
G01X312574Y187744D01*
G01X317229Y188997D01*
G01X306483Y160988D01*
G01X305113Y164529D01*
G01X304056Y168341D01*
G01X302774Y171989D01*
G01X300732Y175036D01*
G37*
G36*
G01X-102925Y178294D02*
G01X-102925Y168134D01*
G01X-105449Y167911D01*
G01X-107485Y167282D01*
G01X-109167Y166303D01*
G01X-110628Y165034D01*
G01X-113419Y161857D01*
G01X-116925Y158214D01*
G01X-116925Y188214D01*
G01X-113419Y184571D01*
G01X-110628Y181394D01*
G01X-109167Y180125D01*
G01X-107485Y179146D01*
G01X-105449Y178517D01*
G01X-102925Y178294D01*
G37*
G36*
G01X-302971Y379939D02*
G01X-302971Y369779D01*
G01X-305495Y369556D01*
G01X-307532Y368926D01*
G01X-309214Y367948D01*
G01X-310674Y366679D01*
G01X-313466Y363501D01*
G01X-316971Y359859D01*
G01X-316971Y389859D01*
G01X-313466Y386216D01*
G01X-310674Y383039D01*
G01X-309214Y381770D01*
G01X-307532Y380791D01*
G01X-305495Y380162D01*
G01X-302971Y379939D01*
G37*
G36*
G01X480216Y635191D02*
G01X470056Y635191D01*
G01X469833Y637714D01*
G01X469204Y639751D01*
G01X468225Y641433D01*
G01X466956Y642894D01*
G01X463779Y645685D01*
G01X460136Y649190D01*
G01X490136Y649190D01*
G01X486494Y645685D01*
G01X483316Y642894D01*
G01X482047Y641433D01*
G01X481069Y639751D01*
G01X480439Y637714D01*
G01X480216Y635191D01*
G37*
G36*
G01X-319823Y289637D02*
G01X-319823Y299797D01*
G01X-317299Y300020D01*
G01X-315263Y300650D01*
G01X-313581Y301628D01*
G01X-312120Y302898D01*
G01X-309328Y306075D01*
G01X-305823Y309717D01*
G01X-305823Y279718D01*
G01X-309328Y283360D01*
G01X-312120Y286537D01*
G01X-313581Y287807D01*
G01X-315263Y288785D01*
G01X-317299Y289415D01*
G01X-319823Y289637D01*
G37*
G36*
G01X-269749Y279057D02*
G01X-276931Y271871D01*
G01X-278873Y273499D01*
G01X-280758Y274493D01*
G01X-282640Y274991D01*
G01X-284570Y275126D01*
G01X-288791Y274854D01*
G01X-293845Y274757D01*
G01X-272633Y295971D01*
G01X-272730Y290916D01*
G01X-273003Y286696D01*
G01X-272868Y284766D01*
G01X-272370Y282885D01*
G01X-271376Y280999D01*
G01X-269749Y279057D01*
G37*
G36*
G01X56095Y246380D02*
G01X56095Y236220D01*
G01X53571Y235997D01*
G01X51535Y235368D01*
G01X49853Y234389D01*
G01X48392Y233120D01*
G01X45601Y229943D01*
G01X42095Y226300D01*
G01X42095Y256300D01*
G01X45601Y252657D01*
G01X48392Y249480D01*
G01X49853Y248211D01*
G01X51535Y247232D01*
G01X53571Y246603D01*
G01X56095Y246380D01*
G37*
G04 TearDrop End*

G04 Via Start*
G54D11*
G01X-884859Y-348787D03*
G01X-962374Y-158213D03*
G01X-926701Y-108580D03*
G01X-861829Y-122971D03*
G01X-919638Y-200663D03*
G01X-883033Y-249364D03*
G01X-919270Y-297893D03*
G01X-655738Y-120188D03*
G01X-855492Y-465826D03*
G01X-792413Y-489924D03*
G01X-786070Y-550244D03*
G01X-670370Y-518226D03*
G01X-886481Y-409009D03*
G01X-725750Y-548151D03*
G01X228680Y-788038D03*
G01X226180Y-720354D03*
G01X311184Y-761268D03*
G01X196138Y-661164D03*
G01X-647660Y-580822D03*
G01X-540554Y-487680D03*
G01X-477520Y-433372D03*
G01X-580512Y-37928D03*
G01X702097Y552053D03*
G01X773604Y521442D03*
G01X475240Y420675D03*
G01X874263Y347253D03*
G01X699478Y364570D03*
G01X680720Y614680D03*
G01X632834Y373866D03*
G01X193816Y352413D03*
G01X907491Y177478D03*
G01X583766Y-116840D03*
G01X737174Y169858D03*
G01X703580Y238640D03*
G01X772293Y108958D03*
G01X249197Y305757D03*
G01X401397Y249780D03*
G54D12*
G01X-761166Y-346281D03*
G01X-648176Y-308783D03*
G01X-703066Y-363674D03*
G54D11*
G01X-517176Y-334044D03*
G01X-249933Y12580D03*
G01X488430Y44824D03*
G01X474122Y200856D03*
G01X468471Y127774D03*
G01X-248674Y347643D03*
G01X314518Y300709D03*
G01X266538Y121557D03*
G01X372930Y131171D03*
G01X341750Y77046D03*
G01X324207Y170254D03*
G01X-130154Y173214D03*
G01X-284965Y200739D03*
G01X-330200Y374859D03*
G01X475136Y662419D03*
G01X-388126Y217806D03*
G01X898064Y448798D03*
G01X580230Y-752958D03*
G01X-292594Y294717D03*
G01X14935Y697640D03*
G01X-166005Y640550D03*
G01X-236515Y635390D03*
G01X-626233Y583141D03*
G01X-772160Y444500D03*
G01X-772160Y379681D03*
G01X-772160Y307872D03*
G01X-676158Y467520D03*
G01X-607528Y470020D03*
G01X310000Y-916422D03*
G01X309681Y-833080D03*
G01X727383Y-43892D03*
G01X806116Y-256209D03*
G01X-851522Y307340D03*
G01X-708660Y307340D03*
G01X-639666Y307340D03*
G01X-932140Y220940D03*
G01X-932180Y156593D03*
G01X-932180Y94060D03*
G01X-932180Y32366D03*
G01X-929640Y-48260D03*
G01X-871220Y44509D03*
G01X-458728Y379163D03*
G01X-238760Y-995680D03*
G01X-369701Y-906683D03*
G01X-622530Y-665032D03*
G01X-585029Y-715035D03*
G01X-540026Y-757537D03*
G01X-490024Y-810040D03*
G01X-447522Y-855042D03*
G01X-430021Y-920045D03*
G01X-315363Y-975309D03*
G01X-230011Y-805039D03*
G01X-227511Y-740036D03*
G01X-160008Y-720035D03*
G01X-80004Y-720035D03*
G01X0Y-720035D03*
G01X72504Y-720035D03*
G01X155008Y-720035D03*
G01X230011Y-857542D03*
G01X-215010Y-675033D03*
G01X-532526Y-550146D03*
G01X-482319Y-591578D03*
G01X-490024Y-655032D03*
G01X-445501Y-699458D03*
G01X-335016Y-735036D03*
G01X-290781Y-784940D03*
G01X-253972Y-862809D03*
G01X530860Y-855980D03*
G01X777240Y-647700D03*
G01X995680Y-208280D03*
G01X995680Y93960D03*
G01X828040Y571500D03*
G01X574540Y833899D03*
G01X297180Y977900D03*
G01X-58420Y1021080D03*
G01X-467360Y906780D03*
G01X-787480Y640279D03*
G01X-922140Y439460D03*
G01X-1008380Y162560D03*
G01X-1019305Y-108170D03*
G01X-850900Y-556260D03*
G01X-678220Y-764620D03*
G01X-624840Y381000D03*
G01X-706120Y378460D03*
G01X-711304Y571345D03*
G01X881659Y-241460D03*
G01X808080Y-453806D03*
G01X-398780Y-177800D03*
G01X-368300Y-520700D03*
G01X-325120Y-581660D03*
G01X-274320Y-632460D03*
G01X269240Y-601980D03*
G01X-693511Y-67098D03*
G01X-620550Y7340D03*
G54D12*
G01X-712661Y-304226D03*
G54D11*
G01X-401160Y-739982D03*
G01X230011Y-925045D03*
G01X-31454Y220980D03*
G01X28866Y241300D03*
G01X-57273Y88411D03*
G01X-472440Y-530860D03*
G01X408940Y-167640D03*
G01X335016Y412465D03*
G04 Via End*

G04 Track Start*
G54D13*
G01X-926701Y-108580D02*
G01X-926701Y-112159D01*
G01X-876300Y-162560D01*
G01X-909481Y-210820D02*
G01X-919638Y-200663D01*
G01X-799303Y-215900D02*
G01X-619684Y-215900D01*
G01X-852643Y-162560D02*
G01X-799303Y-215900D01*
G01X-876300Y-162560D02*
G01X-852643Y-162560D01*
G01X-861829Y-122971D02*
G01X-789220Y-195580D01*
G01X-628101Y-195580D01*
G01X-616348Y-241300D02*
G01X-802640Y-241300D01*
G01X-833120Y-210820D01*
G01X-909481Y-210820D01*
G01X-870778Y-261620D02*
G01X-607931Y-261620D01*
G01X-883033Y-249364D02*
G01X-870778Y-261620D01*
G01X475136Y477636D02*
G01X475136Y662419D01*
G01X-330200Y374859D02*
G01X-274641Y374859D01*
G01X-607931Y-261620D02*
G01X-216519Y129792D01*
G01X-130154Y173214D02*
G01X-94474Y173214D01*
G01X-96520Y210820D02*
G01X-164228Y210820D01*
G01X-616348Y-241300D01*
G01X-94474Y173214D02*
G01X-84314Y163054D01*
G01X-187316Y216468D02*
G01X-187316Y264007D01*
G01X-619684Y-215900D02*
G01X-187316Y216468D01*
G01X-628101Y-195580D02*
G01X-207636Y224885D01*
G01X-207636Y282584D01*
G01X488430Y44824D02*
G01X419040Y114214D01*
G01X-248674Y347643D02*
G01X-243905Y352413D01*
G01X193816Y352413D01*
G01X-207636Y282584D02*
G01X-178447Y311773D01*
G01X339707Y75004D02*
G01X341750Y77046D01*
G01X-216519Y129792D02*
G01X205225Y129792D01*
G01X260013Y75004D01*
G01X339707Y75004D01*
G01X-84314Y163054D02*
G01X225041Y163054D01*
G01X266538Y121557D01*
G01X-69074Y183374D02*
G01X-96520Y210820D01*
G01X257903Y183374D02*
G01X-69074Y183374D01*
G01X372930Y131171D02*
G01X310106Y131171D01*
G01X257903Y183374D01*
G01X-187316Y264007D02*
G01X-166996Y284327D01*
G01X399448Y247831D02*
G01X401397Y249780D01*
G01X-261850Y263973D02*
G01X-247483Y263973D01*
G01X-292593Y294719D02*
G01X-261850Y263973D01*
G01X-247483Y263973D02*
G01X-227956Y283500D01*
G01X-227956Y291000D01*
G01X-186864Y332093D01*
G01X314518Y300709D02*
G01X361789Y347980D01*
G01X281960Y268151D02*
G01X314518Y300709D01*
G01X312698Y170254D02*
G01X281757Y201194D01*
G01X324207Y170254D02*
G01X312698Y170254D01*
G01X268820Y201194D02*
G01X266320Y203694D01*
G01X281757Y201194D02*
G01X268820Y201194D01*
G01X266320Y203694D02*
G01X-14168Y203694D01*
G01X-31454Y220980D01*
G01X-580512Y-37928D02*
G01X-580512Y192783D01*
G01X-478578Y294717D01*
G01X-292594Y294717D01*
G01X100732Y227511D02*
G01X86943Y241300D01*
G01X28866Y241300D01*
G01X-166996Y284327D02*
G01X72653Y284327D01*
G01X109149Y247831D01*
G01X399448Y247831D01*
G01X-178447Y311773D02*
G01X73944Y311773D01*
G01X117566Y268151D01*
G01X281960Y268151D01*
G01X-186864Y332093D02*
G01X82361Y332093D01*
G01X107114Y307340D01*
G01X247614Y307340D01*
G01X249197Y305757D01*
G01X419040Y114214D02*
G01X419040Y152460D01*
G01X343989Y227511D01*
G01X100732Y227511D01*
G54D10*
G01X583766Y-116840D02*
G01X703580Y2540D01*
G54D13*
G01X-274641Y374859D02*
G01X-259481Y390019D01*
G01X215011Y390019D01*
G01X230171Y374859D01*
G01X372359Y374859D01*
G01X475136Y477636D01*
G01X361789Y347980D02*
G01X606948Y347980D01*
G01X632834Y373866D01*
G54D10*
G01X703580Y2540D02*
G02X805180Y73660I254464J-255388D01*
G01X805180Y73660D02*
G03X907491Y177478I-88941J189972D01*
G04 Track End*

M02*

