G04 Layer: TopSolderMaskLayer*
G04 EasyEDA Pro v2.2.39.2, 2025-05-28 09:36:40*
G04 Gerber Generator version 0.3*
G04 Scale: 100 percent, Rotated: No, Reflected: No*
G04 Dimensions in millimeters*
G04 Leading zeros omitted, absolute positions, 4 integers and 5 decimals*
G04 Generated by one-click*
%FSLAX45Y45*%
%MOMM*%
%AMRoundRect*1,1,$1,$2,$3*1,1,$1,$4,$5*1,1,$1,0-$2,0-$3*1,1,$1,0-$4,0-$5*20,1,$1,$2,$3,$4,$5,0*20,1,$1,$4,$5,0-$2,0-$3,0*20,1,$1,0-$2,0-$3,0-$4,0-$5,0*20,1,$1,0-$4,0-$5,$2,$3,0*4,1,4,$2,$3,$4,$5,0-$2,0-$3,0-$4,0-$5,$2,$3,0*%
%AMOval*1,1,$1,$2,$3*1,1,$1,$4,$5*20,1,$1,$2,$3,$4,$5,0*%
%ADD10RoundRect,0.08202X-0.17179X-0.194X-0.17179X0.194*%
%ADD11RoundRect,0.08121X-0.16176X0.17219X0.16176X0.17219*%
%ADD12RoundRect,0.08202X-0.25866X-0.01571X0.01571X0.25866*%
%ADD13RoundRect,0.08202X-0.194X0.17179X0.194X0.17179*%
%ADD14RoundRect,0.09105X-0.44278X0.39278X0.44278X0.39278*%
%ADD15RoundRect,0.08571X-0.25714X0.50714X0.25714X0.50714*%
%ADD16RoundRect,0.09131X-0.40514X0.43715X0.40514X0.43715*%
%ADD17RoundRect,0.07779X-0.13612X0.13612X0.13612X0.13612*%
%ADD18RoundRect,0.0848X-0.13612X-0.13612X-0.13612X0.13612*%
%ADD19RoundRect,0.07779X-0.13612X-0.13612X-0.13612X0.13612*%
%ADD20O,0.55004X0.30002*%
%ADD21RoundRect,0.08335X-0.23334X-0.20834X-0.23334X0.20834*%
%ADD22RoundRect,0.09526X-0.95238X0.95238X0.95238X0.95238*%
%ADD23O,0.30002X0.55004*%
%ADD24RoundRect,0.08335X-0.20834X0.23334X0.20834X0.23334*%
%ADD25RoundRect,0.076X-0.1878X0.1128X0.1878X0.1128*%
%ADD26RoundRect,0.076X-0.1128X-0.1878X-0.1128X0.1878*%
%ADD27RoundRect,0.08889X-0.35555X-0.75555X-0.35555X0.75555*%
%ADD28RoundRect,0.09302X-0.80429X0.50429X0.80429X0.50429*%
%ADD29RoundRect,0.08333X-0.20833X0.20833X0.20833X0.20833*%
%ADD30RoundRect,0.08202X0.01571X-0.25866X-0.25866X0.01571*%
%ADD31RoundRect,0.08771X-0.28977X0.27695X0.28977X0.27695*%
%ADD32Oval,0.6016X-0.06078X-0.34468X0.06078X0.34468*%
%ADD33Oval,0.6016X-0.06078X-0.34468X0.06078X0.34468*%
%ADD34RoundRect,0.08771X-0.40199X0.27695X0.40199X0.27695*%
G75*


G04 PolygonModel Start*
G36*
G01X-597660Y-391438D02*
G01X-597660Y-201438D01*
G01X-757660Y-201438D01*
G01X-787660Y-231438D01*
G01X-787660Y-391438D01*
G01X-597660Y-391438D01*
G37*
G36*
G01X-842660Y-181438D02*
G01X-842660Y-201438D01*
G01X-807660Y-201438D01*
G01X-807660Y-191438D01*
G01X-817660Y-181438D01*
G01X-842660Y-181438D01*
G37*
G36*
G01X-807660Y-446438D02*
G01X-787660Y-446438D01*
G01X-787660Y-411438D01*
G01X-797660Y-411438D01*
G01X-807660Y-421438D01*
G01X-807660Y-446438D01*
G37*
G36*
G01X-542661Y-411438D02*
G01X-542661Y-391438D01*
G01X-577661Y-391438D01*
G01X-577661Y-401438D01*
G01X-567661Y-411438D01*
G01X-542661Y-411438D01*
G37*
G36*
G01X-577661Y-146438D02*
G01X-597660Y-146438D01*
G01X-597660Y-181438D01*
G01X-587660Y-181438D01*
G01X-577661Y-171438D01*
G01X-577661Y-146438D01*
G37*
G36*
G01X-842660Y-411438D02*
G01X-817660Y-411438D01*
G01X-807660Y-401438D01*
G01X-807660Y-391438D01*
G01X-842660Y-391438D01*
G01X-842660Y-411438D01*
G37*
G36*
G01X-577661Y-446438D02*
G01X-577661Y-421438D01*
G01X-587660Y-411438D01*
G01X-597660Y-411438D01*
G01X-597660Y-446438D01*
G01X-577661Y-446438D01*
G37*
G36*
G01X-542661Y-181438D02*
G01X-567661Y-181438D01*
G01X-577661Y-191438D01*
G01X-577661Y-201438D01*
G01X-542661Y-201438D01*
G01X-542661Y-181438D01*
G37*
G36*
G01X-807660Y-146438D02*
G01X-807660Y-171438D01*
G01X-797660Y-181438D01*
G01X-787660Y-181438D01*
G01X-787660Y-146438D01*
G01X-807660Y-146438D01*
G37*

G04 Pad Start*
G54D10*
G01X-449620Y-256032D03*
G01X-449620Y-201168D03*
G01X-505100Y226562D03*
G01X-505100Y281426D03*
G01X-581700Y225611D03*
G01X-581700Y280475D03*
G01X538434Y478325D03*
G01X538434Y423461D03*
G01X699597Y427118D03*
G01X699597Y481982D03*
G54D11*
G01X440715Y66040D03*
G01X392405Y66040D03*
G54D10*
G01X781224Y480802D03*
G01X781224Y425938D03*
G54D12*
G01X-557877Y-662017D03*
G01X-519083Y-623223D03*
G01X-410557Y-811877D03*
G01X-371763Y-773083D03*
G54D13*
G01X875792Y-154940D03*
G01X820928Y-154940D03*
G54D10*
G01X620348Y479561D03*
G01X620348Y424697D03*
G01X-477520Y-338328D03*
G01X-477520Y-393192D03*
G54D11*
G01X392405Y-15240D03*
G01X440715Y-15240D03*
G54D14*
G01X-852315Y213372D03*
G01X-852315Y115785D03*
G01X-724706Y115785D03*
G01X-724706Y213372D03*
G54D15*
G01X-751037Y-40445D03*
G01X-856040Y-40445D03*
G54D16*
G01X-552590Y115883D03*
G01X-412610Y115883D03*
G54D17*
G01X569128Y307425D03*
G54D19*
G01X569102Y42452D03*
G01X834126Y307450D03*
G54D17*
G01X834126Y42452D03*
G54D20*
G01X554116Y264931D03*
G01X554116Y224951D03*
G54D21*
G01X554116Y174938D03*
G54D20*
G01X554116Y124951D03*
G01X554116Y84946D03*
G01X849112Y84946D03*
G01X849112Y124951D03*
G54D21*
G01X849112Y174938D03*
G54D20*
G01X849112Y224951D03*
G01X849112Y264931D03*
G54D22*
G01X701614Y174938D03*
G54D23*
G01X791606Y27441D03*
G01X751601Y27441D03*
G54D24*
G01X701614Y27441D03*
G54D23*
G01X651602Y27441D03*
G01X611622Y27441D03*
G01X611622Y322436D03*
G01X651602Y322436D03*
G54D24*
G01X701614Y322436D03*
G54D23*
G01X751601Y322436D03*
G01X791606Y322436D03*
G36*
G01X-814068Y-177846D02*
G01X-804068Y-187846D01*
G02X-802580Y-191438I-3592J-3592D01*
G01X-802580Y-201438D01*
G02X-807660Y-206518I-5080J0D01*
G01X-842660Y-206518D01*
G02X-847740Y-201438I0J5080D01*
G01X-847740Y-181438D01*
G02X-842660Y-176358I5080J0D01*
G01X-817660Y-176358D01*
G02X-814068Y-177846I0J-5080D01*
G37*
G54D25*
G01X-825160Y-226438D03*
G01X-825160Y-261438D03*
G01X-825160Y-296438D03*
G01X-825160Y-331438D03*
G01X-825160Y-366438D03*
G36*
G01X-802580Y-391438D02*
G01X-802580Y-401438D01*
G02X-804068Y-405030I-5080J0D01*
G01X-814068Y-415030D01*
G02X-817660Y-416518I-3592J3592D01*
G01X-842660Y-416518D01*
G02X-847740Y-411438I0J5080D01*
G01X-847740Y-391438D01*
G02X-842660Y-386358I5080J0D01*
G01X-807660Y-386358D01*
G02X-802580Y-391438I0J-5080D01*
G37*
G36*
G01X-782580Y-421438D02*
G01X-782580Y-446438D01*
G02X-787660Y-451518I-5080J0D01*
G01X-807660Y-451518D01*
G02X-812740Y-446438I0J5080D01*
G01X-812740Y-421438D01*
G02X-811252Y-417846I5080J0D01*
G01X-801252Y-407846D01*
G02X-797660Y-406358I3592J-3592D01*
G01X-787660Y-406358D01*
G02X-782580Y-411438I0J-5080D01*
G01X-782580Y-421438D01*
G37*
G54D26*
G01X-762660Y-428938D03*
G01X-727660Y-428938D03*
G01X-692660Y-428938D03*
G01X-657660Y-428938D03*
G01X-622660Y-428938D03*
G36*
G01X-584068Y-407846D02*
G01X-574068Y-417846D01*
G02X-572581Y-421438I-3592J-3592D01*
G01X-572581Y-446438D01*
G02X-577661Y-451518I-5080J0D01*
G01X-597660Y-451518D01*
G02X-602740Y-446438I0J5080D01*
G01X-602740Y-411438D01*
G02X-597660Y-406358I5080J0D01*
G01X-587660Y-406358D01*
G02X-584068Y-407846I0J-5080D01*
G37*
G36*
G01X-577661Y-386358D02*
G01X-542661Y-386358D01*
G02X-537581Y-391438I0J-5080D01*
G01X-537581Y-411438D01*
G02X-542661Y-416518I-5080J0D01*
G01X-567661Y-416518D01*
G02X-571253Y-415030I0J5080D01*
G01X-581253Y-405030D01*
G02X-582741Y-401438I3592J3592D01*
G01X-582741Y-391438D01*
G02X-577661Y-386358I5080J0D01*
G37*
G54D25*
G01X-560160Y-366438D03*
G01X-560160Y-331438D03*
G01X-560160Y-296438D03*
G01X-560160Y-261438D03*
G01X-560160Y-226438D03*
G36*
G01X-567661Y-176358D02*
G01X-542661Y-176358D01*
G02X-537581Y-181438I0J-5080D01*
G01X-537581Y-201438D01*
G02X-542661Y-206518I-5080J0D01*
G01X-577661Y-206518D01*
G02X-582741Y-201438I0J5080D01*
G01X-582741Y-191438D01*
G02X-581253Y-187846I5080J0D01*
G01X-571253Y-177846D01*
G02X-567661Y-176358I3592J-3592D01*
G37*
G36*
G01X-572581Y-146438D02*
G01X-572581Y-171438D01*
G02X-574068Y-175030I-5080J0D01*
G01X-584068Y-185030D01*
G02X-587660Y-186518I-3592J3592D01*
G01X-597660Y-186518D01*
G02X-602740Y-181438I0J5080D01*
G01X-602740Y-146438D01*
G02X-597660Y-141358I5080J0D01*
G01X-577661Y-141358D01*
G02X-572581Y-146438I0J-5080D01*
G37*
G54D26*
G01X-622660Y-163938D03*
G01X-657660Y-163938D03*
G01X-692660Y-163938D03*
G01X-727660Y-163938D03*
G01X-762660Y-163938D03*
G36*
G01X-782580Y-171438D02*
G01X-782580Y-181438D01*
G02X-787660Y-186518I-5080J0D01*
G01X-797660Y-186518D01*
G02X-801252Y-185030I0J5080D01*
G01X-811252Y-175030D01*
G02X-812740Y-171438I3592J3592D01*
G01X-812740Y-146438D01*
G02X-807660Y-141358I5080J0D01*
G01X-787660Y-141358D01*
G02X-782580Y-146438I0J-5080D01*
G01X-782580Y-171438D01*
G37*
G36*
G01X-592580Y-201438D02*
G01X-592580Y-391438D01*
G02X-597660Y-396518I-5080J0D01*
G01X-787660Y-396518D01*
G02X-792740Y-391438I0J5080D01*
G01X-792740Y-231438D01*
G02X-791252Y-227846I5080J0D01*
G01X-761252Y-197846D01*
G02X-757660Y-196358I3592J-3592D01*
G01X-597660Y-196358D01*
G02X-592580Y-201438I0J-5080D01*
G37*
G54D27*
G01X84992Y-961519D03*
G01X-94992Y-961595D03*
G54D28*
G01X-626233Y469745D03*
G01X-626233Y668145D03*
G54D29*
G01X606539Y662419D03*
G01X606539Y597421D03*
G01X541541Y597421D03*
G36*
G01X521541Y687429D02*
G01X541541Y687429D01*
G02X545076Y685965I0J-5000D01*
G01X565076Y665965D01*
G02X566541Y662429I-3536J-3536D01*
G01X566541Y642430D01*
G02X561541Y637430I-5000J0D01*
G01X521541Y637430D01*
G02X516541Y642430I0J5000D01*
G01X516541Y682429D01*
G02X521541Y687429I5000J0D01*
G37*
G54D11*
G01X265405Y-15240D03*
G01X313715Y-15240D03*
G54D10*
G01X-589280Y-570992D03*
G01X-589280Y-516128D03*
G54D30*
G01X-504537Y-717203D03*
G01X-465743Y-755997D03*
G54D31*
G01X866242Y-66040D03*
G01X779678Y-66040D03*
G54D32*
G01X527237Y-187332D03*
G01X670033Y-212510D03*
G54D33*
G01X650741Y-664221D03*
G01X389768Y-618204D03*
G54D34*
G01X-450748Y0D03*
G01X-341732Y0D03*
G54D13*
G01X182626Y-979932D03*
G01X237490Y-979932D03*
G54D12*
G01X-357217Y-862677D03*
G01X-318423Y-823883D03*
G54D11*
G01X-247625Y-922020D03*
G01X-295935Y-922020D03*
G04 Pad End*

M02*

